<svg width="800" height="148" viewBox="0 0 800 148" fill="none" xmlns="http://www.w3.org/2000/svg">
<rect width="800" height="148" fill="white"/>
<rect x="55.5" y="72.5" width="170" height="56" rx="4.5" fill="#E8F1F5" stroke="#004A7C"/>
<path d="M123.361 101.371C123.218 102.888 122.658 104.073 121.682 104.926C120.705 105.772 119.406 106.195 117.785 106.195C116.652 106.195 115.653 105.928 114.787 105.395C113.928 104.854 113.264 104.089 112.795 103.1C112.326 102.11 112.082 100.961 112.062 99.6523V98.3242C112.062 96.9831 112.3 95.8014 112.775 94.7793C113.251 93.7572 113.931 92.9694 114.816 92.416C115.708 91.8626 116.737 91.5859 117.902 91.5859C119.471 91.5859 120.734 92.0124 121.691 92.8652C122.648 93.7181 123.205 94.9225 123.361 96.4785H120.9C120.783 95.4564 120.484 94.7207 120.002 94.2715C119.527 93.8158 118.827 93.5879 117.902 93.5879C116.828 93.5879 116.001 93.9818 115.422 94.7695C114.849 95.5508 114.556 96.6999 114.543 98.2168V99.4766C114.543 101.013 114.816 102.185 115.363 102.992C115.917 103.799 116.724 104.203 117.785 104.203C118.755 104.203 119.484 103.985 119.973 103.549C120.461 103.113 120.77 102.387 120.9 101.371H123.361ZM130.881 97.6016C130.568 97.5495 130.246 97.5234 129.914 97.5234C128.827 97.5234 128.094 97.9401 127.717 98.7734V106H125.344V95.4336H127.609L127.668 96.6152C128.241 95.6973 129.035 95.2383 130.051 95.2383C130.389 95.2383 130.669 95.2839 130.891 95.375L130.881 97.6016ZM136.838 106.195C135.334 106.195 134.113 105.723 133.176 104.779C132.245 103.829 131.779 102.566 131.779 100.99V100.697C131.779 99.6426 131.981 98.7018 132.385 97.875C132.795 97.0417 133.368 96.3939 134.104 95.9316C134.839 95.4694 135.66 95.2383 136.564 95.2383C138.003 95.2383 139.113 95.6973 139.895 96.6152C140.682 97.5332 141.076 98.832 141.076 100.512V101.469H134.172C134.243 102.341 134.533 103.031 135.041 103.539C135.555 104.047 136.2 104.301 136.975 104.301C138.062 104.301 138.947 103.861 139.631 102.982L140.91 104.203C140.487 104.835 139.921 105.326 139.211 105.678C138.508 106.023 137.717 106.195 136.838 106.195ZM136.555 97.1426C135.904 97.1426 135.376 97.3704 134.973 97.8262C134.576 98.2819 134.322 98.9167 134.211 99.7305H138.732V99.5547C138.68 98.7604 138.469 98.1615 138.098 97.7578C137.727 97.3477 137.212 97.1426 136.555 97.1426ZM149.24 106C149.136 105.798 149.045 105.469 148.967 105.014C148.212 105.801 147.287 106.195 146.193 106.195C145.132 106.195 144.266 105.893 143.596 105.287C142.925 104.682 142.59 103.933 142.59 103.041C142.59 101.915 143.007 101.052 143.84 100.453C144.68 99.8477 145.878 99.5449 147.434 99.5449H148.889V98.8516C148.889 98.3047 148.736 97.8685 148.43 97.543C148.124 97.2109 147.658 97.0449 147.033 97.0449C146.493 97.0449 146.05 97.1816 145.705 97.4551C145.36 97.722 145.188 98.0638 145.188 98.4805H142.814C142.814 97.901 143.007 97.3607 143.391 96.8594C143.775 96.3516 144.296 95.9544 144.953 95.668C145.617 95.3815 146.356 95.2383 147.17 95.2383C148.407 95.2383 149.393 95.5508 150.129 96.1758C150.865 96.7943 151.242 97.6667 151.262 98.793V103.559C151.262 104.509 151.395 105.268 151.662 105.834V106H149.24ZM146.633 104.291C147.102 104.291 147.541 104.177 147.951 103.949C148.368 103.721 148.68 103.415 148.889 103.031V101.039H147.609C146.73 101.039 146.07 101.192 145.627 101.498C145.184 101.804 144.963 102.237 144.963 102.797C144.963 103.253 145.113 103.617 145.412 103.891C145.718 104.158 146.125 104.291 146.633 104.291ZM156.721 92.8652V95.4336H158.586V97.1914H156.721V103.09C156.721 103.493 156.799 103.786 156.955 103.969C157.118 104.145 157.404 104.232 157.814 104.232C158.088 104.232 158.365 104.2 158.645 104.135V105.971C158.104 106.12 157.583 106.195 157.082 106.195C155.259 106.195 154.348 105.189 154.348 103.178V97.1914H152.609V95.4336H154.348V92.8652H156.721ZM165.061 106.195C163.557 106.195 162.336 105.723 161.398 104.779C160.467 103.829 160.002 102.566 160.002 100.99V100.697C160.002 99.6426 160.204 98.7018 160.607 97.875C161.018 97.0417 161.59 96.3939 162.326 95.9316C163.062 95.4694 163.882 95.2383 164.787 95.2383C166.226 95.2383 167.336 95.6973 168.117 96.6152C168.905 97.5332 169.299 98.832 169.299 100.512V101.469H162.395C162.466 102.341 162.756 103.031 163.264 103.539C163.778 104.047 164.423 104.301 165.197 104.301C166.285 104.301 167.17 103.861 167.854 102.982L169.133 104.203C168.71 104.835 168.143 105.326 167.434 105.678C166.73 106.023 165.939 106.195 165.061 106.195ZM164.777 97.1426C164.126 97.1426 163.599 97.3704 163.195 97.8262C162.798 98.2819 162.544 98.9167 162.434 99.7305H166.955V99.5547C166.903 98.7604 166.691 98.1615 166.32 97.7578C165.949 97.3477 165.435 97.1426 164.777 97.1426Z" fill="#004A7C"/>
<rect x="306.5" y="72.5" width="170" height="56" rx="4.5" fill="#E8F1F5" stroke="#004A7C"/>
<path d="M370.025 106V91.7812H374.898C376.507 91.7812 377.73 92.1035 378.57 92.748C379.41 93.3926 379.83 94.3529 379.83 95.6289C379.83 96.2799 379.654 96.8659 379.303 97.3867C378.951 97.9076 378.437 98.3112 377.76 98.5977C378.528 98.806 379.12 99.1999 379.537 99.7793C379.96 100.352 380.172 101.042 380.172 101.85C380.172 103.184 379.742 104.21 378.883 104.926C378.03 105.642 376.806 106 375.211 106H370.025ZM372.496 99.584V104.027H375.24C376.015 104.027 376.62 103.835 377.057 103.451C377.493 103.067 377.711 102.533 377.711 101.85C377.711 100.372 376.956 99.6165 375.445 99.584H372.496ZM372.496 97.7676H374.918C375.686 97.7676 376.285 97.5951 376.715 97.25C377.151 96.8984 377.369 96.4036 377.369 95.7656C377.369 95.0625 377.167 94.5547 376.764 94.2422C376.367 93.9297 375.745 93.7734 374.898 93.7734H372.496V97.7676ZM381.969 100.619C381.969 99.584 382.174 98.653 382.584 97.8262C382.994 96.9928 383.57 96.3548 384.312 95.9121C385.055 95.4629 385.908 95.2383 386.871 95.2383C388.297 95.2383 389.452 95.6973 390.338 96.6152C391.23 97.5332 391.712 98.7507 391.783 100.268L391.793 100.824C391.793 101.866 391.591 102.797 391.188 103.617C390.79 104.438 390.217 105.072 389.469 105.521C388.727 105.971 387.867 106.195 386.891 106.195C385.4 106.195 384.205 105.701 383.307 104.711C382.415 103.715 381.969 102.39 381.969 100.736V100.619ZM384.342 100.824C384.342 101.911 384.566 102.764 385.016 103.383C385.465 103.995 386.09 104.301 386.891 104.301C387.691 104.301 388.313 103.988 388.756 103.363C389.205 102.738 389.43 101.824 389.43 100.619C389.43 99.5514 389.199 98.7051 388.736 98.0801C388.281 97.4551 387.659 97.1426 386.871 97.1426C386.096 97.1426 385.481 97.4518 385.025 98.0703C384.57 98.6823 384.342 99.6003 384.342 100.824ZM393.355 100.619C393.355 99.584 393.561 98.653 393.971 97.8262C394.381 96.9928 394.957 96.3548 395.699 95.9121C396.441 95.4629 397.294 95.2383 398.258 95.2383C399.684 95.2383 400.839 95.6973 401.725 96.6152C402.617 97.5332 403.098 98.7507 403.17 100.268L403.18 100.824C403.18 101.866 402.978 102.797 402.574 103.617C402.177 104.438 401.604 105.072 400.855 105.521C400.113 105.971 399.254 106.195 398.277 106.195C396.786 106.195 395.592 105.701 394.693 104.711C393.801 103.715 393.355 102.39 393.355 100.736V100.619ZM395.729 100.824C395.729 101.911 395.953 102.764 396.402 103.383C396.852 103.995 397.477 104.301 398.277 104.301C399.078 104.301 399.7 103.988 400.143 103.363C400.592 102.738 400.816 101.824 400.816 100.619C400.816 99.5514 400.585 98.7051 400.123 98.0801C399.667 97.4551 399.046 97.1426 398.258 97.1426C397.483 97.1426 396.868 97.4518 396.412 98.0703C395.956 98.6823 395.729 99.6003 395.729 100.824ZM408.619 101.469L407.564 102.553V106H405.191V91H407.564V99.6523L408.307 98.7246L411.227 95.4336H414.078L410.152 99.8379L414.498 106H411.754L408.619 101.469Z" fill="#004A7C"/>
<rect x="557.5" y="72.5" width="170" height="56" rx="4.5" fill="#E8F1F5" stroke="#004A7C"/>
<path d="M622.881 91.7812V101.283C622.881 102.794 622.396 103.992 621.426 104.877C620.462 105.756 619.176 106.195 617.568 106.195C615.941 106.195 614.648 105.762 613.691 104.896C612.734 104.024 612.256 102.816 612.256 101.273V91.7812H614.717V101.293C614.717 102.243 614.958 102.969 615.439 103.471C615.921 103.972 616.631 104.223 617.568 104.223C619.469 104.223 620.42 103.22 620.42 101.215V91.7812H622.881ZM634.551 100.824C634.551 102.458 634.18 103.764 633.438 104.74C632.695 105.71 631.699 106.195 630.449 106.195C629.29 106.195 628.363 105.814 627.666 105.053V110.062H625.293V95.4336H627.48L627.578 96.5078C628.275 95.6615 629.222 95.2383 630.42 95.2383C631.709 95.2383 632.718 95.7201 633.447 96.6836C634.183 97.6406 634.551 98.972 634.551 100.678V100.824ZM632.188 100.619C632.188 99.5645 631.976 98.7279 631.553 98.1094C631.136 97.4909 630.537 97.1816 629.756 97.1816C628.786 97.1816 628.089 97.582 627.666 98.3828V103.07C628.096 103.891 628.799 104.301 629.775 104.301C630.531 104.301 631.12 103.998 631.543 103.393C631.973 102.781 632.188 101.856 632.188 100.619ZM639.092 106H636.719V91H639.092V106ZM641.24 100.619C641.24 99.584 641.445 98.653 641.855 97.8262C642.266 96.9928 642.842 96.3548 643.584 95.9121C644.326 95.4629 645.179 95.2383 646.143 95.2383C647.568 95.2383 648.724 95.6973 649.609 96.6152C650.501 97.5332 650.983 98.7507 651.055 100.268L651.064 100.824C651.064 101.866 650.863 102.797 650.459 103.617C650.062 104.438 649.489 105.072 648.74 105.521C647.998 105.971 647.139 106.195 646.162 106.195C644.671 106.195 643.477 105.701 642.578 104.711C641.686 103.715 641.24 102.39 641.24 100.736V100.619ZM643.613 100.824C643.613 101.911 643.838 102.764 644.287 103.383C644.736 103.995 645.361 104.301 646.162 104.301C646.963 104.301 647.585 103.988 648.027 103.363C648.477 102.738 648.701 101.824 648.701 100.619C648.701 99.5514 648.47 98.7051 648.008 98.0801C647.552 97.4551 646.93 97.1426 646.143 97.1426C645.368 97.1426 644.753 97.4518 644.297 98.0703C643.841 98.6823 643.613 99.6003 643.613 100.824ZM659.385 106C659.281 105.798 659.189 105.469 659.111 105.014C658.356 105.801 657.432 106.195 656.338 106.195C655.277 106.195 654.411 105.893 653.74 105.287C653.07 104.682 652.734 103.933 652.734 103.041C652.734 101.915 653.151 101.052 653.984 100.453C654.824 99.8477 656.022 99.5449 657.578 99.5449H659.033V98.8516C659.033 98.3047 658.88 97.8685 658.574 97.543C658.268 97.2109 657.803 97.0449 657.178 97.0449C656.637 97.0449 656.195 97.1816 655.85 97.4551C655.505 97.722 655.332 98.0638 655.332 98.4805H652.959C652.959 97.901 653.151 97.3607 653.535 96.8594C653.919 96.3516 654.44 95.9544 655.098 95.668C655.762 95.3815 656.501 95.2383 657.314 95.2383C658.551 95.2383 659.538 95.5508 660.273 96.1758C661.009 96.7943 661.387 97.6667 661.406 98.793V103.559C661.406 104.509 661.54 105.268 661.807 105.834V106H659.385ZM656.777 104.291C657.246 104.291 657.686 104.177 658.096 103.949C658.512 103.721 658.825 103.415 659.033 103.031V101.039H657.754C656.875 101.039 656.214 101.192 655.771 101.498C655.329 101.804 655.107 102.237 655.107 102.797C655.107 103.253 655.257 103.617 655.557 103.891C655.863 104.158 656.27 104.291 656.777 104.291ZM663.447 100.639C663.447 99.0111 663.825 97.7057 664.58 96.7227C665.335 95.7331 666.348 95.2383 667.617 95.2383C668.737 95.2383 669.642 95.6289 670.332 96.4102V91H672.705V106H670.557L670.439 104.906C669.73 105.766 668.783 106.195 667.598 106.195C666.361 106.195 665.358 105.697 664.59 104.701C663.828 103.705 663.447 102.351 663.447 100.639ZM665.82 100.844C665.82 101.918 666.025 102.758 666.436 103.363C666.852 103.962 667.441 104.262 668.203 104.262C669.173 104.262 669.883 103.829 670.332 102.963V98.4512C669.896 97.6048 669.193 97.1816 668.223 97.1816C667.454 97.1816 666.862 97.4876 666.445 98.0996C666.029 98.7051 665.82 99.6198 665.82 100.844Z" fill="#004A7C"/>
<path d="M73.657 38.2C71.8703 38.2 70.5103 37.72 69.577 36.76C68.657 35.8 68.1636 34.4733 68.097 32.78C68.0836 32.42 68.077 31.8333 68.077 31.02C68.077 30.1933 68.0836 29.5933 68.097 29.22C68.1636 27.54 68.6636 26.22 69.597 25.26C70.5303 24.2867 71.8836 23.8 73.657 23.8C74.8436 23.8 75.8503 24.0133 76.677 24.44C77.5036 24.8533 78.1303 25.4 78.557 26.08C78.9836 26.76 79.217 27.4867 79.257 28.26V28.3C79.257 28.4067 79.2103 28.5 79.117 28.58C79.037 28.6467 78.9436 28.68 78.837 28.68H77.737C77.4703 28.68 77.3036 28.5267 77.237 28.22C77.0103 27.22 76.6036 26.52 76.017 26.12C75.4303 25.7067 74.6436 25.5 73.657 25.5C71.3636 25.5 70.177 26.7733 70.097 29.32C70.0836 29.68 70.077 30.2333 70.077 30.98C70.077 31.7267 70.0836 32.2933 70.097 32.68C70.177 35.2267 71.3636 36.5 73.657 36.5C74.6436 36.5 75.4303 36.3 76.017 35.9C76.617 35.4867 77.0236 34.78 77.237 33.78C77.277 33.6067 77.337 33.4867 77.417 33.42C77.497 33.3533 77.6036 33.32 77.737 33.32H78.837C78.957 33.32 79.057 33.36 79.137 33.44C79.2303 33.5067 79.2703 33.6 79.257 33.72C79.217 34.5067 78.9836 35.24 78.557 35.92C78.1303 36.6 77.5036 37.1533 76.677 37.58C75.8503 37.9933 74.8436 38.2 73.657 38.2ZM82.1373 38C82.0039 38 81.8906 37.96 81.7973 37.88C81.7173 37.7867 81.6773 37.6733 81.6773 37.54V28.08C81.6773 27.9467 81.7173 27.8333 81.7973 27.74C81.8906 27.6467 82.0039 27.6 82.1373 27.6H83.0573C83.1906 27.6 83.3039 27.6467 83.3973 27.74C83.4906 27.8333 83.5373 27.9467 83.5373 28.08V28.96C84.0839 28.0533 85.0173 27.6 86.3373 27.6H87.1173C87.2506 27.6 87.3573 27.6467 87.4373 27.74C87.5306 27.82 87.5773 27.9267 87.5773 28.06V28.88C87.5773 29.0133 87.5306 29.12 87.4373 29.2C87.3573 29.28 87.2506 29.32 87.1173 29.32H85.9173C85.1973 29.32 84.6306 29.5333 84.2173 29.96C83.8039 30.3733 83.5973 30.94 83.5973 31.66V37.54C83.5973 37.6733 83.5506 37.7867 83.4573 37.88C83.3639 37.96 83.2506 38 83.1173 38H82.1373ZM93.2396 38.2C91.8663 38.2 90.7663 37.78 89.9396 36.94C89.1263 36.0867 88.6796 34.9267 88.5996 33.46L88.5796 32.78L88.5996 32.12C88.6929 30.68 89.1463 29.5333 89.9596 28.68C90.7863 27.8267 91.8729 27.4 93.2196 27.4C94.6996 27.4 95.8463 27.8733 96.6596 28.82C97.4729 29.7533 97.8796 31.02 97.8796 32.62V32.96C97.8796 33.0933 97.8329 33.2067 97.7396 33.3C97.6596 33.38 97.5529 33.42 97.4196 33.42H90.4996V33.6C90.5396 34.4667 90.7996 35.2067 91.2796 35.82C91.7729 36.42 92.4196 36.72 93.2196 36.72C93.8329 36.72 94.3329 36.6 94.7196 36.36C95.1196 36.1067 95.4129 35.8467 95.5996 35.58C95.7196 35.42 95.8063 35.3267 95.8596 35.3C95.9263 35.26 96.0396 35.24 96.1996 35.24H97.1796C97.2996 35.24 97.3996 35.2733 97.4796 35.34C97.5596 35.4067 97.5996 35.5 97.5996 35.62C97.5996 35.9133 97.4129 36.2667 97.0396 36.68C96.6796 37.0933 96.1663 37.4533 95.4996 37.76C94.8463 38.0533 94.0929 38.2 93.2396 38.2ZM95.9796 32.04V31.98C95.9796 31.06 95.7263 30.3133 95.2196 29.74C94.7263 29.1533 94.0596 28.86 93.2196 28.86C92.3796 28.86 91.7129 29.1533 91.2196 29.74C90.7396 30.3133 90.4996 31.06 90.4996 31.98V32.04H95.9796ZM103.171 38.2C102.518 38.2 101.911 38.0667 101.351 37.8C100.791 37.5333 100.344 37.1733 100.011 36.72C99.691 36.2533 99.531 35.74 99.531 35.18C99.531 34.3 99.891 33.58 100.611 33.02C101.344 32.4467 102.331 32.0733 103.571 31.9L106.551 31.48V30.9C106.551 29.54 105.771 28.86 104.211 28.86C103.624 28.86 103.144 28.9867 102.771 29.24C102.398 29.48 102.118 29.7667 101.931 30.1C101.891 30.22 101.838 30.3067 101.771 30.36C101.718 30.4133 101.638 30.44 101.531 30.44H100.671C100.551 30.44 100.444 30.4 100.351 30.32C100.271 30.2267 100.231 30.12 100.231 30C100.244 29.68 100.391 29.32 100.671 28.92C100.964 28.5067 101.411 28.1533 102.011 27.86C102.611 27.5533 103.351 27.4 104.231 27.4C105.724 27.4 106.798 27.7533 107.451 28.46C108.104 29.1533 108.431 30.02 108.431 31.06V37.54C108.431 37.6733 108.384 37.7867 108.291 37.88C108.211 37.96 108.104 38 107.971 38H107.051C106.918 38 106.804 37.96 106.711 37.88C106.631 37.7867 106.591 37.6733 106.591 37.54V36.68C106.298 37.1067 105.871 37.4667 105.311 37.76C104.751 38.0533 104.038 38.2 103.171 38.2ZM103.591 36.7C104.458 36.7 105.164 36.42 105.711 35.86C106.271 35.2867 106.551 34.4667 106.551 33.4V32.84L104.231 33.18C103.284 33.3133 102.571 33.54 102.091 33.86C101.611 34.1667 101.371 34.56 101.371 35.04C101.371 35.5733 101.591 35.9867 102.031 36.28C102.471 36.56 102.991 36.7 103.591 36.7ZM115.269 38C113.162 38 112.109 36.8267 112.109 34.48V29.2H110.549C110.415 29.2 110.302 29.16 110.209 29.08C110.129 28.9867 110.089 28.8733 110.089 28.74V28.06C110.089 27.9267 110.129 27.82 110.209 27.74C110.302 27.6467 110.415 27.6 110.549 27.6H112.109V24.26C112.109 24.1267 112.149 24.02 112.229 23.94C112.322 23.8467 112.435 23.8 112.569 23.8H113.509C113.642 23.8 113.749 23.8467 113.829 23.94C113.922 24.02 113.969 24.1267 113.969 24.26V27.6H116.449C116.582 27.6 116.689 27.6467 116.769 27.74C116.862 27.82 116.909 27.9267 116.909 28.06V28.74C116.909 28.8733 116.862 28.9867 116.769 29.08C116.689 29.16 116.582 29.2 116.449 29.2H113.969V34.34C113.969 35.0067 114.082 35.5133 114.309 35.86C114.535 36.1933 114.909 36.36 115.429 36.36H116.649C116.782 36.36 116.889 36.4067 116.969 36.5C117.062 36.58 117.109 36.6867 117.109 36.82V37.54C117.109 37.6733 117.062 37.7867 116.969 37.88C116.889 37.96 116.782 38 116.649 38H115.269ZM123.181 38.2C121.808 38.2 120.708 37.78 119.881 36.94C119.068 36.0867 118.621 34.9267 118.541 33.46L118.521 32.78L118.541 32.12C118.634 30.68 119.088 29.5333 119.901 28.68C120.728 27.8267 121.814 27.4 123.161 27.4C124.641 27.4 125.788 27.8733 126.601 28.82C127.414 29.7533 127.821 31.02 127.821 32.62V32.96C127.821 33.0933 127.774 33.2067 127.681 33.3C127.601 33.38 127.494 33.42 127.361 33.42H120.441V33.6C120.481 34.4667 120.741 35.2067 121.221 35.82C121.714 36.42 122.361 36.72 123.161 36.72C123.774 36.72 124.274 36.6 124.661 36.36C125.061 36.1067 125.354 35.8467 125.541 35.58C125.661 35.42 125.748 35.3267 125.801 35.3C125.868 35.26 125.981 35.24 126.141 35.24H127.121C127.241 35.24 127.341 35.2733 127.421 35.34C127.501 35.4067 127.541 35.5 127.541 35.62C127.541 35.9133 127.354 36.2667 126.981 36.68C126.621 37.0933 126.108 37.4533 125.441 37.76C124.788 38.0533 124.034 38.2 123.181 38.2ZM125.921 32.04V31.98C125.921 31.06 125.668 30.3133 125.161 29.74C124.668 29.1533 124.001 28.86 123.161 28.86C122.321 28.86 121.654 29.1533 121.161 29.74C120.681 30.3133 120.441 31.06 120.441 31.98V32.04H125.921ZM135.575 38C135.441 38 135.328 37.96 135.235 37.88C135.155 37.7867 135.115 37.6733 135.115 37.54V28.06C135.115 27.9267 135.155 27.82 135.235 27.74C135.328 27.6467 135.441 27.6 135.575 27.6H136.515C136.648 27.6 136.755 27.6467 136.835 27.74C136.928 27.82 136.975 27.9267 136.975 28.06V28.94C137.361 28.4467 137.815 28.0667 138.335 27.8C138.868 27.5333 139.528 27.4 140.315 27.4C141.595 27.4 142.588 27.8133 143.295 28.64C144.015 29.4533 144.375 30.54 144.375 31.9V37.54C144.375 37.6733 144.328 37.7867 144.235 37.88C144.155 37.96 144.048 38 143.915 38H142.915C142.781 38 142.668 37.96 142.575 37.88C142.495 37.7867 142.455 37.6733 142.455 37.54V32C142.455 31.0533 142.221 30.32 141.755 29.8C141.301 29.28 140.641 29.02 139.775 29.02C138.935 29.02 138.268 29.2867 137.775 29.82C137.281 30.34 137.035 31.0667 137.035 32V37.54C137.035 37.6733 136.988 37.7867 136.895 37.88C136.815 37.96 136.708 38 136.575 38H135.575ZM151.404 38.2C150.03 38.2 148.93 37.78 148.104 36.94C147.29 36.0867 146.844 34.9267 146.764 33.46L146.744 32.78L146.764 32.12C146.857 30.68 147.31 29.5333 148.124 28.68C148.95 27.8267 150.037 27.4 151.384 27.4C152.864 27.4 154.01 27.8733 154.824 28.82C155.637 29.7533 156.044 31.02 156.044 32.62V32.96C156.044 33.0933 155.997 33.2067 155.904 33.3C155.824 33.38 155.717 33.42 155.584 33.42H148.664V33.6C148.704 34.4667 148.964 35.2067 149.444 35.82C149.937 36.42 150.584 36.72 151.384 36.72C151.997 36.72 152.497 36.6 152.884 36.36C153.284 36.1067 153.577 35.8467 153.764 35.58C153.884 35.42 153.97 35.3267 154.024 35.3C154.09 35.26 154.204 35.24 154.364 35.24H155.344C155.464 35.24 155.564 35.2733 155.644 35.34C155.724 35.4067 155.764 35.5 155.764 35.62C155.764 35.9133 155.577 36.2667 155.204 36.68C154.844 37.0933 154.33 37.4533 153.664 37.76C153.01 38.0533 152.257 38.2 151.404 38.2ZM154.144 32.04V31.98C154.144 31.06 153.89 30.3133 153.384 29.74C152.89 29.1533 152.224 28.86 151.384 28.86C150.544 28.86 149.877 29.1533 149.384 29.74C148.904 30.3133 148.664 31.06 148.664 31.98V32.04H154.144ZM160.922 38C160.748 38 160.615 37.96 160.522 37.88C160.428 37.8 160.348 37.6733 160.282 37.5L157.442 28.22L157.402 28.02C157.402 27.9 157.442 27.8 157.522 27.72C157.615 27.64 157.715 27.6 157.822 27.6H158.702C158.835 27.6 158.942 27.64 159.022 27.72C159.115 27.7867 159.175 27.86 159.202 27.94L161.422 35.48L163.802 28.02C163.828 27.9133 163.888 27.82 163.982 27.74C164.075 27.6467 164.202 27.6 164.362 27.6H165.042C165.202 27.6 165.328 27.6467 165.422 27.74C165.515 27.82 165.575 27.9133 165.602 28.02L167.982 35.48L170.202 27.94C170.215 27.8733 170.262 27.8 170.342 27.72C170.435 27.64 170.548 27.6 170.682 27.6H171.582C171.688 27.6 171.782 27.64 171.862 27.72C171.942 27.8 171.982 27.9 171.982 28.02L171.942 28.22L169.122 37.5C169.055 37.6733 168.975 37.8 168.882 37.88C168.788 37.96 168.648 38 168.462 38H167.682C167.322 38 167.102 37.8333 167.022 37.5L164.702 30.34L162.382 37.5C162.275 37.8333 162.048 38 161.702 38H160.922ZM179.759 38C179.626 38 179.513 37.96 179.419 37.88C179.339 37.7867 179.299 37.6733 179.299 37.54V29.2H177.599C177.466 29.2 177.353 29.16 177.259 29.08C177.179 28.9867 177.139 28.8733 177.139 28.74V28.06C177.139 27.9267 177.179 27.82 177.259 27.74C177.353 27.6467 177.466 27.6 177.599 27.6H179.299V26.6C179.299 24.3333 180.446 23.2 182.739 23.2H185.819C185.953 23.2 186.059 23.2467 186.139 23.34C186.233 23.42 186.279 23.5267 186.279 23.66V24.34C186.279 24.4733 186.233 24.5867 186.139 24.68C186.059 24.76 185.953 24.8 185.819 24.8H182.779C182.179 24.8 181.759 24.96 181.519 25.28C181.279 25.5867 181.159 26.06 181.159 26.7V27.6H185.819C185.953 27.6 186.059 27.6467 186.139 27.74C186.233 27.82 186.279 27.9267 186.279 28.06V37.54C186.279 37.6733 186.233 37.7867 186.139 37.88C186.059 37.96 185.953 38 185.819 38H184.899C184.766 38 184.653 37.96 184.559 37.88C184.479 37.7867 184.439 37.6733 184.439 37.54V29.2H181.159V37.54C181.159 37.6733 181.113 37.7867 181.019 37.88C180.939 37.96 180.833 38 180.699 38H179.759ZM189.716 38C189.583 38 189.469 37.96 189.376 37.88C189.296 37.7867 189.256 37.6733 189.256 37.54V24.26C189.256 24.1267 189.296 24.02 189.376 23.94C189.469 23.8467 189.583 23.8 189.716 23.8H190.656C190.789 23.8 190.896 23.8467 190.976 23.94C191.069 24.02 191.116 24.1267 191.116 24.26V37.54C191.116 37.6733 191.069 37.7867 190.976 37.88C190.896 37.96 190.789 38 190.656 38H189.716ZM198.259 38.2C196.886 38.2 195.786 37.78 194.959 36.94C194.146 36.0867 193.699 34.9267 193.619 33.46L193.599 32.78L193.619 32.12C193.712 30.68 194.166 29.5333 194.979 28.68C195.806 27.8267 196.892 27.4 198.239 27.4C199.719 27.4 200.866 27.8733 201.679 28.82C202.492 29.7533 202.899 31.02 202.899 32.62V32.96C202.899 33.0933 202.852 33.2067 202.759 33.3C202.679 33.38 202.572 33.42 202.439 33.42H195.519V33.6C195.559 34.4667 195.819 35.2067 196.299 35.82C196.792 36.42 197.439 36.72 198.239 36.72C198.852 36.72 199.352 36.6 199.739 36.36C200.139 36.1067 200.432 35.8467 200.619 35.58C200.739 35.42 200.826 35.3267 200.879 35.3C200.946 35.26 201.059 35.24 201.219 35.24H202.199C202.319 35.24 202.419 35.2733 202.499 35.34C202.579 35.4067 202.619 35.5 202.619 35.62C202.619 35.9133 202.432 36.2667 202.059 36.68C201.699 37.0933 201.186 37.4533 200.519 37.76C199.866 38.0533 199.112 38.2 198.259 38.2ZM200.999 32.04V31.98C200.999 31.06 200.746 30.3133 200.239 29.74C199.746 29.1533 199.079 28.86 198.239 28.86C197.399 28.86 196.732 29.1533 196.239 29.74C195.759 30.3133 195.519 31.06 195.519 31.98V32.04H200.999ZM208.358 34.72C208.238 34.72 208.138 34.68 208.058 34.6C207.978 34.52 207.938 34.42 207.938 34.3V33.5C207.965 32.7933 208.145 32.1867 208.478 31.68C208.811 31.1733 209.298 30.5933 209.938 29.94C210.458 29.4067 210.838 28.9667 211.078 28.62C211.318 28.2733 211.438 27.8933 211.438 27.48C211.438 26.8667 211.178 26.38 210.658 26.02C210.151 25.66 209.558 25.48 208.878 25.48C207.291 25.48 206.358 26.28 206.078 27.88C206.011 28.1733 205.838 28.32 205.558 28.32H204.598C204.465 28.32 204.358 28.28 204.278 28.2C204.198 28.12 204.158 28.0133 204.158 27.88C204.185 27.1467 204.391 26.4733 204.778 25.86C205.178 25.2333 205.738 24.7333 206.458 24.36C207.178 23.9867 208.005 23.8 208.938 23.8C209.925 23.8 210.751 23.9733 211.418 24.32C212.098 24.6533 212.598 25.0933 212.918 25.64C213.238 26.1733 213.398 26.7467 213.398 27.36C213.398 28.04 213.245 28.6267 212.938 29.12C212.631 29.6133 212.171 30.1867 211.558 30.84C211.051 31.3733 210.671 31.8267 210.418 32.2C210.165 32.56 210.018 32.9667 209.978 33.42C209.951 33.7933 209.938 34.0733 209.938 34.26C209.871 34.5667 209.705 34.72 209.438 34.72H208.358ZM208.198 38C208.065 38 207.951 37.96 207.858 37.88C207.778 37.7867 207.738 37.6733 207.738 37.54V36.32C207.738 36.1867 207.778 36.08 207.858 36C207.951 35.9067 208.065 35.86 208.198 35.86H209.498C209.631 35.86 209.745 35.9067 209.838 36C209.931 36.08 209.978 36.1867 209.978 36.32V37.54C209.978 37.6733 209.931 37.7867 209.838 37.88C209.745 37.96 209.631 38 209.498 38H208.198Z" fill="#004A7C"/>
<path d="M311.645 38C311.512 38 311.399 37.96 311.305 37.88C311.225 37.7867 311.185 37.6733 311.185 37.54V24.48C311.185 24.3333 311.225 24.22 311.305 24.14C311.399 24.0467 311.512 24 311.645 24H317.125C318.552 24 319.625 24.34 320.345 25.02C321.065 25.7 321.425 26.5933 321.425 27.7C321.425 28.4467 321.252 29.0667 320.905 29.56C320.572 30.0533 320.172 30.4133 319.705 30.64C320.265 30.92 320.739 31.3533 321.125 31.94C321.512 32.5267 321.705 33.2 321.705 33.96C321.705 34.7067 321.532 35.3867 321.185 36C320.852 36.6133 320.352 37.1 319.685 37.46C319.019 37.82 318.219 38 317.285 38H311.645ZM316.825 29.92C317.665 29.92 318.305 29.7267 318.745 29.34C319.199 28.9533 319.425 28.4133 319.425 27.72C319.425 27.04 319.205 26.52 318.765 26.16C318.325 25.8 317.679 25.62 316.825 25.62H313.145V29.92H316.825ZM317.025 36.38C317.865 36.38 318.519 36.1533 318.985 35.7C319.465 35.2467 319.705 34.6667 319.705 33.96C319.705 33.2267 319.465 32.64 318.985 32.2C318.519 31.7467 317.865 31.52 317.025 31.52H313.145V36.38H317.025ZM328.545 38.2C327.078 38.2 325.938 37.7867 325.125 36.96C324.325 36.1333 323.898 35.0333 323.845 33.66L323.825 32.8L323.845 31.94C323.898 30.58 324.331 29.4867 325.145 28.66C325.958 27.82 327.091 27.4 328.545 27.4C329.998 27.4 331.131 27.82 331.945 28.66C332.758 29.4867 333.191 30.58 333.245 31.94C333.258 32.0867 333.265 32.3733 333.265 32.8C333.265 33.2267 333.258 33.5133 333.245 33.66C333.191 35.0333 332.758 36.1333 331.945 36.96C331.145 37.7867 330.011 38.2 328.545 38.2ZM328.545 36.66C329.385 36.66 330.045 36.3933 330.525 35.86C331.018 35.3267 331.285 34.56 331.325 33.56C331.338 33.4267 331.345 33.1733 331.345 32.8C331.345 32.4267 331.338 32.1733 331.325 32.04C331.285 31.04 331.018 30.2733 330.525 29.74C330.045 29.2067 329.385 28.94 328.545 28.94C327.705 28.94 327.038 29.2067 326.545 29.74C326.051 30.2733 325.791 31.04 325.765 32.04L325.745 32.8L325.765 33.56C325.791 34.56 326.051 35.3267 326.545 35.86C327.038 36.3933 327.705 36.66 328.545 36.66ZM340.029 38.2C338.562 38.2 337.422 37.7867 336.609 36.96C335.809 36.1333 335.382 35.0333 335.329 33.66L335.309 32.8L335.329 31.94C335.382 30.58 335.816 29.4867 336.629 28.66C337.442 27.82 338.576 27.4 340.029 27.4C341.482 27.4 342.616 27.82 343.429 28.66C344.242 29.4867 344.676 30.58 344.729 31.94C344.742 32.0867 344.749 32.3733 344.749 32.8C344.749 33.2267 344.742 33.5133 344.729 33.66C344.676 35.0333 344.242 36.1333 343.429 36.96C342.629 37.7867 341.496 38.2 340.029 38.2ZM340.029 36.66C340.869 36.66 341.529 36.3933 342.009 35.86C342.502 35.3267 342.769 34.56 342.809 33.56C342.822 33.4267 342.829 33.1733 342.829 32.8C342.829 32.4267 342.822 32.1733 342.809 32.04C342.769 31.04 342.502 30.2733 342.009 29.74C341.529 29.2067 340.869 28.94 340.029 28.94C339.189 28.94 338.522 29.2067 338.029 29.74C337.536 30.2733 337.276 31.04 337.249 32.04L337.229 32.8L337.249 33.56C337.276 34.56 337.536 35.3267 338.029 35.86C338.522 36.3933 339.189 36.66 340.029 36.66ZM347.733 38C347.6 38 347.487 37.96 347.393 37.88C347.313 37.7867 347.273 37.6733 347.273 37.54V24.26C347.273 24.1267 347.313 24.02 347.393 23.94C347.487 23.8467 347.6 23.8 347.733 23.8H348.673C348.807 23.8 348.913 23.8467 348.993 23.94C349.087 24.02 349.133 24.1267 349.133 24.26V31.22L353.073 27.94C353.113 27.9133 353.18 27.86 353.273 27.78C353.367 27.7133 353.453 27.6667 353.533 27.64C353.627 27.6133 353.74 27.6 353.873 27.6H354.933C355.053 27.6 355.153 27.64 355.233 27.72C355.313 27.8 355.353 27.9 355.353 28.02C355.353 28.1667 355.273 28.2933 355.113 28.4L350.493 32.24L355.613 37.22C355.773 37.3533 355.853 37.4733 355.853 37.58C355.853 37.7 355.813 37.8 355.733 37.88C355.653 37.96 355.553 38 355.433 38H354.393C354.193 38 354.047 37.98 353.953 37.94C353.873 37.9 353.753 37.8067 353.593 37.66L349.133 33.4V37.54C349.133 37.6733 349.087 37.7867 348.993 37.88C348.913 37.96 348.807 38 348.673 38H347.733ZM362.753 38C362.62 38 362.506 37.96 362.413 37.88C362.333 37.7867 362.293 37.6733 362.293 37.54V24.26C362.293 24.1267 362.333 24.02 362.413 23.94C362.506 23.8467 362.62 23.8 362.753 23.8H363.753C363.886 23.8 363.993 23.8467 364.073 23.94C364.166 24.02 364.213 24.1267 364.213 24.26V28.92C364.6 28.4267 365.053 28.0533 365.573 27.8C366.093 27.5333 366.74 27.4 367.513 27.4C368.793 27.4 369.786 27.8133 370.493 28.64C371.213 29.4533 371.573 30.54 371.573 31.9V37.54C371.573 37.6733 371.526 37.7867 371.433 37.88C371.353 37.96 371.246 38 371.113 38H370.113C369.98 38 369.866 37.96 369.773 37.88C369.693 37.7867 369.653 37.6733 369.653 37.54V32C369.653 31.0533 369.42 30.32 368.953 29.8C368.5 29.28 367.84 29.02 366.973 29.02C366.133 29.02 365.46 29.2867 364.953 29.82C364.46 30.34 364.213 31.0667 364.213 32V37.54C364.213 37.6733 364.166 37.7867 364.073 37.88C363.993 37.96 363.886 38 363.753 38H362.753ZM378.72 38.2C377.254 38.2 376.114 37.7867 375.3 36.96C374.5 36.1333 374.074 35.0333 374.02 33.66L374 32.8L374.02 31.94C374.074 30.58 374.507 29.4867 375.32 28.66C376.134 27.82 377.267 27.4 378.72 27.4C380.174 27.4 381.307 27.82 382.12 28.66C382.934 29.4867 383.367 30.58 383.42 31.94C383.434 32.0867 383.44 32.3733 383.44 32.8C383.44 33.2267 383.434 33.5133 383.42 33.66C383.367 35.0333 382.934 36.1333 382.12 36.96C381.32 37.7867 380.187 38.2 378.72 38.2ZM378.72 36.66C379.56 36.66 380.22 36.3933 380.7 35.86C381.194 35.3267 381.46 34.56 381.5 33.56C381.514 33.4267 381.52 33.1733 381.52 32.8C381.52 32.4267 381.514 32.1733 381.5 32.04C381.46 31.04 381.194 30.2733 380.7 29.74C380.22 29.2067 379.56 28.94 378.72 28.94C377.88 28.94 377.214 29.2067 376.72 29.74C376.227 30.2733 375.967 31.04 375.94 32.04L375.92 32.8L375.94 33.56C375.967 34.56 376.227 35.3267 376.72 35.86C377.214 36.3933 377.88 36.66 378.72 36.66ZM389.907 38C387.801 38 386.747 36.8267 386.747 34.48V29.2H385.187C385.054 29.2 384.941 29.16 384.847 29.08C384.767 28.9867 384.727 28.8733 384.727 28.74V28.06C384.727 27.9267 384.767 27.82 384.847 27.74C384.941 27.6467 385.054 27.6 385.187 27.6H386.747V24.26C386.747 24.1267 386.787 24.02 386.867 23.94C386.961 23.8467 387.074 23.8 387.207 23.8H388.147C388.281 23.8 388.387 23.8467 388.467 23.94C388.561 24.02 388.607 24.1267 388.607 24.26V27.6H391.087C391.221 27.6 391.327 27.6467 391.407 27.74C391.501 27.82 391.547 27.9267 391.547 28.06V28.74C391.547 28.8733 391.501 28.9867 391.407 29.08C391.327 29.16 391.221 29.2 391.087 29.2H388.607V34.34C388.607 35.0067 388.721 35.5133 388.947 35.86C389.174 36.1933 389.547 36.36 390.067 36.36H391.287C391.421 36.36 391.527 36.4067 391.607 36.5C391.701 36.58 391.747 36.6867 391.747 36.82V37.54C391.747 37.6733 391.701 37.7867 391.607 37.88C391.527 37.96 391.421 38 391.287 38H389.907ZM397.82 38.2C396.446 38.2 395.346 37.78 394.52 36.94C393.706 36.0867 393.26 34.9267 393.18 33.46L393.16 32.78L393.18 32.12C393.273 30.68 393.726 29.5333 394.54 28.68C395.366 27.8267 396.453 27.4 397.8 27.4C399.28 27.4 400.426 27.8733 401.24 28.82C402.053 29.7533 402.46 31.02 402.46 32.62V32.96C402.46 33.0933 402.413 33.2067 402.32 33.3C402.24 33.38 402.133 33.42 402 33.42H395.08V33.6C395.12 34.4667 395.38 35.2067 395.86 35.82C396.353 36.42 397 36.72 397.8 36.72C398.413 36.72 398.913 36.6 399.3 36.36C399.7 36.1067 399.993 35.8467 400.18 35.58C400.3 35.42 400.386 35.3267 400.44 35.3C400.506 35.26 400.62 35.24 400.78 35.24H401.76C401.88 35.24 401.98 35.2733 402.06 35.34C402.14 35.4067 402.18 35.5 402.18 35.62C402.18 35.9133 401.993 36.2667 401.62 36.68C401.26 37.0933 400.746 37.4533 400.08 37.76C399.426 38.0533 398.673 38.2 397.82 38.2ZM400.56 32.04V31.98C400.56 31.06 400.306 30.3133 399.8 29.74C399.306 29.1533 398.64 28.86 397.8 28.86C396.96 28.86 396.293 29.1533 395.8 29.74C395.32 30.3133 395.08 31.06 395.08 31.98V32.04H400.56ZM405.331 38C405.198 38 405.084 37.96 404.991 37.88C404.911 37.7867 404.871 37.6733 404.871 37.54V24.26C404.871 24.1267 404.911 24.02 404.991 23.94C405.084 23.8467 405.198 23.8 405.331 23.8H406.271C406.404 23.8 406.511 23.8467 406.591 23.94C406.684 24.02 406.731 24.1267 406.731 24.26V37.54C406.731 37.6733 406.684 37.7867 406.591 37.88C406.511 37.96 406.404 38 406.271 38H405.331ZM415.077 38C414.943 38 414.83 37.96 414.737 37.88C414.657 37.7867 414.617 37.6733 414.617 37.54V28.08C414.617 27.9467 414.657 27.8333 414.737 27.74C414.83 27.6467 414.943 27.6 415.077 27.6H415.997C416.13 27.6 416.243 27.6467 416.337 27.74C416.43 27.8333 416.477 27.9467 416.477 28.08V28.96C417.023 28.0533 417.957 27.6 419.277 27.6H420.057C420.19 27.6 420.297 27.6467 420.377 27.74C420.47 27.82 420.517 27.9267 420.517 28.06V28.88C420.517 29.0133 420.47 29.12 420.377 29.2C420.297 29.28 420.19 29.32 420.057 29.32H418.857C418.137 29.32 417.57 29.5333 417.157 29.96C416.743 30.3733 416.537 30.94 416.537 31.66V37.54C416.537 37.6733 416.49 37.7867 416.397 37.88C416.303 37.96 416.19 38 416.057 38H415.077ZM426.279 38.2C424.812 38.2 423.672 37.7867 422.859 36.96C422.059 36.1333 421.632 35.0333 421.579 33.66L421.559 32.8L421.579 31.94C421.632 30.58 422.066 29.4867 422.879 28.66C423.692 27.82 424.826 27.4 426.279 27.4C427.732 27.4 428.866 27.82 429.679 28.66C430.492 29.4867 430.926 30.58 430.979 31.94C430.992 32.0867 430.999 32.3733 430.999 32.8C430.999 33.2267 430.992 33.5133 430.979 33.66C430.926 35.0333 430.492 36.1333 429.679 36.96C428.879 37.7867 427.746 38.2 426.279 38.2ZM426.279 36.66C427.119 36.66 427.779 36.3933 428.259 35.86C428.752 35.3267 429.019 34.56 429.059 33.56C429.072 33.4267 429.079 33.1733 429.079 32.8C429.079 32.4267 429.072 32.1733 429.059 32.04C429.019 31.04 428.752 30.2733 428.259 29.74C427.779 29.2067 427.119 28.94 426.279 28.94C425.439 28.94 424.772 29.2067 424.279 29.74C423.786 30.2733 423.526 31.04 423.499 32.04L423.479 32.8L423.499 33.56C423.526 34.56 423.786 35.3267 424.279 35.86C424.772 36.3933 425.439 36.66 426.279 36.66ZM437.763 38.2C436.297 38.2 435.157 37.7867 434.343 36.96C433.543 36.1333 433.117 35.0333 433.063 33.66L433.043 32.8L433.063 31.94C433.117 30.58 433.55 29.4867 434.363 28.66C435.177 27.82 436.31 27.4 437.763 27.4C439.217 27.4 440.35 27.82 441.163 28.66C441.977 29.4867 442.41 30.58 442.463 31.94C442.477 32.0867 442.483 32.3733 442.483 32.8C442.483 33.2267 442.477 33.5133 442.463 33.66C442.41 35.0333 441.977 36.1333 441.163 36.96C440.363 37.7867 439.23 38.2 437.763 38.2ZM437.763 36.66C438.603 36.66 439.263 36.3933 439.743 35.86C440.237 35.3267 440.503 34.56 440.543 33.56C440.557 33.4267 440.563 33.1733 440.563 32.8C440.563 32.4267 440.557 32.1733 440.543 32.04C440.503 31.04 440.237 30.2733 439.743 29.74C439.263 29.2067 438.603 28.94 437.763 28.94C436.923 28.94 436.257 29.2067 435.763 29.74C435.27 30.2733 435.01 31.04 434.983 32.04L434.963 32.8L434.983 33.56C435.01 34.56 435.27 35.3267 435.763 35.86C436.257 36.3933 436.923 36.66 437.763 36.66ZM445.448 38C445.314 38 445.201 37.96 445.108 37.88C445.028 37.7867 444.988 37.6733 444.988 37.54V28.06C444.988 27.9267 445.028 27.82 445.108 27.74C445.201 27.6467 445.314 27.6 445.448 27.6H446.348C446.481 27.6 446.588 27.6467 446.668 27.74C446.761 27.82 446.808 27.9267 446.808 28.06V28.76C447.501 27.8533 448.468 27.4 449.708 27.4C451.188 27.4 452.234 28.0133 452.848 29.24C453.168 28.68 453.621 28.2333 454.208 27.9C454.794 27.5667 455.454 27.4 456.188 27.4C457.281 27.4 458.174 27.7733 458.868 28.52C459.561 29.2667 459.908 30.3467 459.908 31.76V37.54C459.908 37.6733 459.861 37.7867 459.768 37.88C459.688 37.96 459.581 38 459.448 38H458.508C458.374 38 458.261 37.96 458.168 37.88C458.088 37.7867 458.048 37.6733 458.048 37.54V31.94C458.048 30.9 457.828 30.1533 457.388 29.7C456.961 29.2467 456.394 29.02 455.688 29.02C455.061 29.02 454.521 29.2533 454.068 29.72C453.614 30.1733 453.388 30.9133 453.388 31.94V37.54C453.388 37.6733 453.341 37.7867 453.248 37.88C453.168 37.96 453.061 38 452.928 38H451.988C451.854 38 451.741 37.96 451.648 37.88C451.568 37.7867 451.528 37.6733 451.528 37.54V31.94C451.528 30.9 451.301 30.1533 450.848 29.7C450.408 29.2467 449.848 29.02 449.168 29.02C448.541 29.02 448.001 29.2533 447.548 29.72C447.094 30.1733 446.868 30.9067 446.868 31.92V37.54C446.868 37.6733 446.821 37.7867 446.728 37.88C446.648 37.96 446.541 38 446.408 38H445.448ZM465.79 34.72C465.67 34.72 465.57 34.68 465.49 34.6C465.41 34.52 465.37 34.42 465.37 34.3V33.5C465.396 32.7933 465.576 32.1867 465.91 31.68C466.243 31.1733 466.73 30.5933 467.37 29.94C467.89 29.4067 468.27 28.9667 468.51 28.62C468.75 28.2733 468.87 27.8933 468.87 27.48C468.87 26.8667 468.61 26.38 468.09 26.02C467.583 25.66 466.99 25.48 466.31 25.48C464.723 25.48 463.79 26.28 463.51 27.88C463.443 28.1733 463.27 28.32 462.99 28.32H462.03C461.896 28.32 461.79 28.28 461.71 28.2C461.63 28.12 461.59 28.0133 461.59 27.88C461.616 27.1467 461.823 26.4733 462.21 25.86C462.61 25.2333 463.17 24.7333 463.89 24.36C464.61 23.9867 465.436 23.8 466.37 23.8C467.356 23.8 468.183 23.9733 468.85 24.32C469.53 24.6533 470.03 25.0933 470.35 25.64C470.67 26.1733 470.83 26.7467 470.83 27.36C470.83 28.04 470.676 28.6267 470.37 29.12C470.063 29.6133 469.603 30.1867 468.99 30.84C468.483 31.3733 468.103 31.8267 467.85 32.2C467.596 32.56 467.45 32.9667 467.41 33.42C467.383 33.7933 467.37 34.0733 467.37 34.26C467.303 34.5667 467.136 34.72 466.87 34.72H465.79ZM465.63 38C465.496 38 465.383 37.96 465.29 37.88C465.21 37.7867 465.17 37.6733 465.17 37.54V36.32C465.17 36.1867 465.21 36.08 465.29 36C465.383 35.9067 465.496 35.86 465.63 35.86H466.93C467.063 35.86 467.176 35.9067 467.27 36C467.363 36.08 467.41 36.1867 467.41 36.32V37.54C467.41 37.6733 467.363 37.7867 467.27 37.88C467.176 37.96 467.063 38 466.93 38H465.63Z" fill="#004A7C"/>
<path d="M549.608 38.2C547.888 38.2 546.555 37.74 545.608 36.82C544.675 35.8867 544.208 34.48 544.208 32.6V24.48C544.208 24.3333 544.248 24.22 544.328 24.14C544.421 24.0467 544.535 24 544.668 24H545.688C545.835 24 545.948 24.0467 546.028 24.14C546.121 24.22 546.168 24.3333 546.168 24.48V32.64C546.168 33.92 546.468 34.88 547.068 35.52C547.668 36.16 548.515 36.48 549.608 36.48C550.701 36.48 551.548 36.16 552.148 35.52C552.748 34.88 553.048 33.92 553.048 32.64V24.48C553.048 24.3333 553.088 24.22 553.168 24.14C553.261 24.0467 553.375 24 553.508 24H554.548C554.681 24 554.788 24.0467 554.868 24.14C554.961 24.2333 555.008 24.3467 555.008 24.48V32.6C555.008 34.48 554.535 35.8867 553.588 36.82C552.655 37.74 551.328 38.2 549.608 38.2ZM558.571 41.8C558.438 41.8 558.325 41.7533 558.231 41.66C558.151 41.58 558.111 41.4733 558.111 41.34V28.06C558.111 27.9267 558.151 27.82 558.231 27.74C558.325 27.6467 558.438 27.6 558.571 27.6H559.491C559.625 27.6 559.731 27.6467 559.811 27.74C559.905 27.82 559.951 27.9267 559.951 28.06V28.94C560.698 27.9133 561.791 27.4 563.231 27.4C564.631 27.4 565.678 27.84 566.371 28.72C567.078 29.6 567.458 30.7333 567.511 32.12C567.525 32.2667 567.531 32.4933 567.531 32.8C567.531 33.1067 567.525 33.3333 567.511 33.48C567.458 34.8533 567.078 35.9867 566.371 36.88C565.665 37.76 564.618 38.2 563.231 38.2C561.845 38.2 560.765 37.7 559.991 36.7V41.34C559.991 41.4733 559.951 41.58 559.871 41.66C559.791 41.7533 559.685 41.8 559.551 41.8H558.571ZM562.811 36.58C563.758 36.58 564.445 36.2867 564.871 35.7C565.311 35.1133 565.551 34.34 565.591 33.38C565.605 33.2467 565.611 33.0533 565.611 32.8C565.611 30.28 564.678 29.02 562.811 29.02C561.891 29.02 561.198 29.3267 560.731 29.94C560.278 30.54 560.031 31.26 559.991 32.1L559.971 32.86L559.991 33.64C560.018 34.4267 560.271 35.1133 560.751 35.7C561.231 36.2867 561.918 36.58 562.811 36.58ZM570.485 38C570.352 38 570.239 37.96 570.145 37.88C570.065 37.7867 570.025 37.6733 570.025 37.54V24.26C570.025 24.1267 570.065 24.02 570.145 23.94C570.239 23.8467 570.352 23.8 570.485 23.8H571.425C571.559 23.8 571.665 23.8467 571.745 23.94C571.839 24.02 571.885 24.1267 571.885 24.26V37.54C571.885 37.6733 571.839 37.7867 571.745 37.88C571.665 37.96 571.559 38 571.425 38H570.485ZM579.129 38.2C577.662 38.2 576.522 37.7867 575.709 36.96C574.909 36.1333 574.482 35.0333 574.429 33.66L574.409 32.8L574.429 31.94C574.482 30.58 574.915 29.4867 575.729 28.66C576.542 27.82 577.675 27.4 579.129 27.4C580.582 27.4 581.715 27.82 582.529 28.66C583.342 29.4867 583.775 30.58 583.829 31.94C583.842 32.0867 583.849 32.3733 583.849 32.8C583.849 33.2267 583.842 33.5133 583.829 33.66C583.775 35.0333 583.342 36.1333 582.529 36.96C581.729 37.7867 580.595 38.2 579.129 38.2ZM579.129 36.66C579.969 36.66 580.629 36.3933 581.109 35.86C581.602 35.3267 581.869 34.56 581.909 33.56C581.922 33.4267 581.929 33.1733 581.929 32.8C581.929 32.4267 581.922 32.1733 581.909 32.04C581.869 31.04 581.602 30.2733 581.109 29.74C580.629 29.2067 579.969 28.94 579.129 28.94C578.289 28.94 577.622 29.2067 577.129 29.74C576.635 30.2733 576.375 31.04 576.349 32.04L576.329 32.8L576.349 33.56C576.375 34.56 576.635 35.3267 577.129 35.86C577.622 36.3933 578.289 36.66 579.129 36.66ZM589.253 38.2C588.6 38.2 587.993 38.0667 587.433 37.8C586.873 37.5333 586.426 37.1733 586.093 36.72C585.773 36.2533 585.613 35.74 585.613 35.18C585.613 34.3 585.973 33.58 586.693 33.02C587.426 32.4467 588.413 32.0733 589.653 31.9L592.633 31.48V30.9C592.633 29.54 591.853 28.86 590.293 28.86C589.706 28.86 589.226 28.9867 588.853 29.24C588.48 29.48 588.2 29.7667 588.013 30.1C587.973 30.22 587.92 30.3067 587.853 30.36C587.8 30.4133 587.72 30.44 587.613 30.44H586.753C586.633 30.44 586.526 30.4 586.433 30.32C586.353 30.2267 586.313 30.12 586.313 30C586.326 29.68 586.473 29.32 586.753 28.92C587.046 28.5067 587.493 28.1533 588.093 27.86C588.693 27.5533 589.433 27.4 590.313 27.4C591.806 27.4 592.88 27.7533 593.533 28.46C594.186 29.1533 594.513 30.02 594.513 31.06V37.54C594.513 37.6733 594.466 37.7867 594.373 37.88C594.293 37.96 594.186 38 594.053 38H593.133C593 38 592.886 37.96 592.793 37.88C592.713 37.7867 592.673 37.6733 592.673 37.54V36.68C592.38 37.1067 591.953 37.4667 591.393 37.76C590.833 38.0533 590.12 38.2 589.253 38.2ZM589.673 36.7C590.54 36.7 591.246 36.42 591.793 35.86C592.353 35.2867 592.633 34.4667 592.633 33.4V32.84L590.313 33.18C589.366 33.3133 588.653 33.54 588.173 33.86C587.693 34.1667 587.453 34.56 587.453 35.04C587.453 35.5733 587.673 35.9867 588.113 36.28C588.553 36.56 589.073 36.7 589.673 36.7ZM601.188 38.2C599.802 38.2 598.755 37.7467 598.048 36.84C597.342 35.9333 596.968 34.7867 596.928 33.4L596.908 32.8L596.928 32.2C596.968 30.8267 597.342 29.6867 598.048 28.78C598.755 27.86 599.802 27.4 601.188 27.4C602.562 27.4 603.642 27.8867 604.428 28.86V24.26C604.428 24.1267 604.468 24.02 604.548 23.94C604.642 23.8467 604.755 23.8 604.888 23.8H605.848C605.982 23.8 606.088 23.8467 606.168 23.94C606.262 24.02 606.308 24.1267 606.308 24.26V37.54C606.308 37.6733 606.262 37.7867 606.168 37.88C606.088 37.96 605.982 38 605.848 38H604.948C604.815 38 604.702 37.96 604.608 37.88C604.528 37.7867 604.488 37.6733 604.488 37.54V36.7C603.715 37.7 602.615 38.2 601.188 38.2ZM601.608 36.58C602.528 36.58 603.215 36.28 603.668 35.68C604.135 35.0667 604.388 34.34 604.428 33.5C604.442 33.3533 604.448 33.1 604.448 32.74C604.448 32.3667 604.442 32.1067 604.428 31.96C604.402 31.1733 604.148 30.4867 603.668 29.9C603.188 29.3133 602.502 29.02 601.608 29.02C600.662 29.02 599.968 29.3133 599.528 29.9C599.102 30.4867 598.868 31.26 598.828 32.22L598.808 32.8C598.808 35.32 599.742 36.58 601.608 36.58ZM614.665 41.8C614.532 41.8 614.418 41.7533 614.325 41.66C614.245 41.58 614.205 41.4733 614.205 41.34V28.06C614.205 27.9267 614.245 27.82 614.325 27.74C614.418 27.6467 614.532 27.6 614.665 27.6H615.585C615.718 27.6 615.825 27.6467 615.905 27.74C615.998 27.82 616.045 27.9267 616.045 28.06V28.94C616.792 27.9133 617.885 27.4 619.325 27.4C620.725 27.4 621.772 27.84 622.465 28.72C623.172 29.6 623.552 30.7333 623.605 32.12C623.618 32.2667 623.625 32.4933 623.625 32.8C623.625 33.1067 623.618 33.3333 623.605 33.48C623.552 34.8533 623.172 35.9867 622.465 36.88C621.758 37.76 620.712 38.2 619.325 38.2C617.938 38.2 616.858 37.7 616.085 36.7V41.34C616.085 41.4733 616.045 41.58 615.965 41.66C615.885 41.7533 615.778 41.8 615.645 41.8H614.665ZM618.905 36.58C619.852 36.58 620.538 36.2867 620.965 35.7C621.405 35.1133 621.645 34.34 621.685 33.38C621.698 33.2467 621.705 33.0533 621.705 32.8C621.705 30.28 620.772 29.02 618.905 29.02C617.985 29.02 617.292 29.3267 616.825 29.94C616.372 30.54 616.125 31.26 616.085 32.1L616.065 32.86L616.085 33.64C616.112 34.4267 616.365 35.1133 616.845 35.7C617.325 36.2867 618.012 36.58 618.905 36.58ZM626.559 38C626.426 38 626.312 37.96 626.219 37.88C626.139 37.7867 626.099 37.6733 626.099 37.54V28.08C626.099 27.9467 626.139 27.8333 626.219 27.74C626.312 27.6467 626.426 27.6 626.559 27.6H627.479C627.612 27.6 627.726 27.6467 627.819 27.74C627.912 27.8333 627.959 27.9467 627.959 28.08V28.96C628.506 28.0533 629.439 27.6 630.759 27.6H631.539C631.672 27.6 631.779 27.6467 631.859 27.74C631.952 27.82 631.999 27.9267 631.999 28.06V28.88C631.999 29.0133 631.952 29.12 631.859 29.2C631.779 29.28 631.672 29.32 631.539 29.32H630.339C629.619 29.32 629.052 29.5333 628.639 29.96C628.226 30.3733 628.019 30.94 628.019 31.66V37.54C628.019 37.6733 627.972 37.7867 627.879 37.88C627.786 37.96 627.672 38 627.539 38H626.559ZM637.761 38.2C636.295 38.2 635.155 37.7867 634.341 36.96C633.541 36.1333 633.115 35.0333 633.061 33.66L633.041 32.8L633.061 31.94C633.115 30.58 633.548 29.4867 634.361 28.66C635.175 27.82 636.308 27.4 637.761 27.4C639.215 27.4 640.348 27.82 641.161 28.66C641.975 29.4867 642.408 30.58 642.461 31.94C642.475 32.0867 642.481 32.3733 642.481 32.8C642.481 33.2267 642.475 33.5133 642.461 33.66C642.408 35.0333 641.975 36.1333 641.161 36.96C640.361 37.7867 639.228 38.2 637.761 38.2ZM637.761 36.66C638.601 36.66 639.261 36.3933 639.741 35.86C640.235 35.3267 640.501 34.56 640.541 33.56C640.555 33.4267 640.561 33.1733 640.561 32.8C640.561 32.4267 640.555 32.1733 640.541 32.04C640.501 31.04 640.235 30.2733 639.741 29.74C639.261 29.2067 638.601 28.94 637.761 28.94C636.921 28.94 636.255 29.2067 635.761 29.74C635.268 30.2733 635.008 31.04 634.981 32.04L634.961 32.8L634.981 33.56C635.008 34.56 635.268 35.3267 635.761 35.86C636.255 36.3933 636.921 36.66 637.761 36.66ZM646.369 38C646.235 38 646.122 37.96 646.029 37.88C645.949 37.7867 645.909 37.6733 645.909 37.54V29.2H644.209C644.075 29.2 643.962 29.16 643.869 29.08C643.789 28.9867 643.749 28.8733 643.749 28.74V28.06C643.749 27.9267 643.789 27.82 643.869 27.74C643.962 27.6467 644.075 27.6 644.209 27.6H645.909V26.6C645.909 24.3333 647.055 23.2 649.349 23.2H652.429C652.562 23.2 652.669 23.2467 652.749 23.34C652.842 23.42 652.889 23.5267 652.889 23.66V24.34C652.889 24.4733 652.842 24.5867 652.749 24.68C652.669 24.76 652.562 24.8 652.429 24.8H649.389C648.789 24.8 648.369 24.96 648.129 25.28C647.889 25.5867 647.769 26.06 647.769 26.7V27.6H652.429C652.562 27.6 652.669 27.6467 652.749 27.74C652.842 27.82 652.889 27.9267 652.889 28.06V37.54C652.889 37.6733 652.842 37.7867 652.749 37.88C652.669 37.96 652.562 38 652.429 38H651.509C651.375 38 651.262 37.96 651.169 37.88C651.089 37.7867 651.049 37.6733 651.049 37.54V29.2H647.769V37.54C647.769 37.6733 647.722 37.7867 647.629 37.88C647.549 37.96 647.442 38 647.309 38H646.369ZM656.325 38C656.192 38 656.079 37.96 655.985 37.88C655.905 37.7867 655.865 37.6733 655.865 37.54V24.26C655.865 24.1267 655.905 24.02 655.985 23.94C656.079 23.8467 656.192 23.8 656.325 23.8H657.265C657.399 23.8 657.505 23.8467 657.585 23.94C657.679 24.02 657.725 24.1267 657.725 24.26V37.54C657.725 37.6733 657.679 37.7867 657.585 37.88C657.505 37.96 657.399 38 657.265 38H656.325ZM664.869 38.2C663.495 38.2 662.395 37.78 661.569 36.94C660.755 36.0867 660.309 34.9267 660.229 33.46L660.209 32.78L660.229 32.12C660.322 30.68 660.775 29.5333 661.589 28.68C662.415 27.8267 663.502 27.4 664.849 27.4C666.329 27.4 667.475 27.8733 668.289 28.82C669.102 29.7533 669.509 31.02 669.509 32.62V32.96C669.509 33.0933 669.462 33.2067 669.369 33.3C669.289 33.38 669.182 33.42 669.049 33.42H662.129V33.6C662.169 34.4667 662.429 35.2067 662.909 35.82C663.402 36.42 664.049 36.72 664.849 36.72C665.462 36.72 665.962 36.6 666.349 36.36C666.749 36.1067 667.042 35.8467 667.229 35.58C667.349 35.42 667.435 35.3267 667.489 35.3C667.555 35.26 667.669 35.24 667.829 35.24H668.809C668.929 35.24 669.029 35.2733 669.109 35.34C669.189 35.4067 669.229 35.5 669.229 35.62C669.229 35.9133 669.042 36.2667 668.669 36.68C668.309 37.0933 667.795 37.4533 667.129 37.76C666.475 38.0533 665.722 38.2 664.869 38.2ZM667.609 32.04V31.98C667.609 31.06 667.355 30.3133 666.849 29.74C666.355 29.1533 665.689 28.86 664.849 28.86C664.009 28.86 663.342 29.1533 662.849 29.74C662.369 30.3133 662.129 31.06 662.129 31.98V32.04H667.609ZM677.102 25.66C676.969 25.66 676.856 25.62 676.762 25.54C676.682 25.4467 676.642 25.3333 676.642 25.2V24.12C676.642 23.9867 676.682 23.8733 676.762 23.78C676.856 23.6867 676.969 23.64 677.102 23.64H678.362C678.496 23.64 678.609 23.6867 678.702 23.78C678.796 23.8733 678.842 23.9867 678.842 24.12V25.2C678.842 25.3333 678.796 25.4467 678.702 25.54C678.609 25.62 678.496 25.66 678.362 25.66H677.102ZM677.262 38C677.129 38 677.016 37.96 676.922 37.88C676.842 37.7867 676.802 37.6733 676.802 37.54V28.06C676.802 27.9267 676.842 27.82 676.922 27.74C677.016 27.6467 677.129 27.6 677.262 27.6H678.222C678.356 27.6 678.462 27.6467 678.542 27.74C678.636 27.82 678.682 27.9267 678.682 28.06V37.54C678.682 37.6733 678.636 37.7867 678.542 37.88C678.462 37.96 678.356 38 678.222 38H677.262ZM682.106 38C681.973 38 681.859 37.96 681.766 37.88C681.686 37.7867 681.646 37.6733 681.646 37.54V28.06C681.646 27.9267 681.686 27.82 681.766 27.74C681.859 27.6467 681.973 27.6 682.106 27.6H683.006C683.139 27.6 683.246 27.6467 683.326 27.74C683.419 27.82 683.466 27.9267 683.466 28.06V28.76C684.159 27.8533 685.126 27.4 686.366 27.4C687.846 27.4 688.893 28.0133 689.506 29.24C689.826 28.68 690.279 28.2333 690.866 27.9C691.453 27.5667 692.113 27.4 692.846 27.4C693.939 27.4 694.833 27.7733 695.526 28.52C696.219 29.2667 696.566 30.3467 696.566 31.76V37.54C696.566 37.6733 696.519 37.7867 696.426 37.88C696.346 37.96 696.239 38 696.106 38H695.166C695.033 38 694.919 37.96 694.826 37.88C694.746 37.7867 694.706 37.6733 694.706 37.54V31.94C694.706 30.9 694.486 30.1533 694.046 29.7C693.619 29.2467 693.053 29.02 692.346 29.02C691.719 29.02 691.179 29.2533 690.726 29.72C690.273 30.1733 690.046 30.9133 690.046 31.94V37.54C690.046 37.6733 689.999 37.7867 689.906 37.88C689.826 37.96 689.719 38 689.586 38H688.646C688.513 38 688.399 37.96 688.306 37.88C688.226 37.7867 688.186 37.6733 688.186 37.54V31.94C688.186 30.9 687.959 30.1533 687.506 29.7C687.066 29.2467 686.506 29.02 685.826 29.02C685.199 29.02 684.659 29.2533 684.206 29.72C683.753 30.1733 683.526 30.9067 683.526 31.92V37.54C683.526 37.6733 683.479 37.7867 683.386 37.88C683.306 37.96 683.199 38 683.066 38H682.106ZM702.319 38.2C701.666 38.2 701.059 38.0667 700.499 37.8C699.939 37.5333 699.493 37.1733 699.159 36.72C698.839 36.2533 698.679 35.74 698.679 35.18C698.679 34.3 699.039 33.58 699.759 33.02C700.493 32.4467 701.479 32.0733 702.719 31.9L705.699 31.48V30.9C705.699 29.54 704.919 28.86 703.359 28.86C702.773 28.86 702.293 28.9867 701.919 29.24C701.546 29.48 701.266 29.7667 701.079 30.1C701.039 30.22 700.986 30.3067 700.919 30.36C700.866 30.4133 700.786 30.44 700.679 30.44H699.819C699.699 30.44 699.593 30.4 699.499 30.32C699.419 30.2267 699.379 30.12 699.379 30C699.393 29.68 699.539 29.32 699.819 28.92C700.113 28.5067 700.559 28.1533 701.159 27.86C701.759 27.5533 702.499 27.4 703.379 27.4C704.873 27.4 705.946 27.7533 706.599 28.46C707.253 29.1533 707.579 30.02 707.579 31.06V37.54C707.579 37.6733 707.533 37.7867 707.439 37.88C707.359 37.96 707.253 38 707.119 38H706.199C706.066 38 705.953 37.96 705.859 37.88C705.779 37.7867 705.739 37.6733 705.739 37.54V36.68C705.446 37.1067 705.019 37.4667 704.459 37.76C703.899 38.0533 703.186 38.2 702.319 38.2ZM702.739 36.7C703.606 36.7 704.313 36.42 704.859 35.86C705.419 35.2867 705.699 34.4667 705.699 33.4V32.84L703.379 33.18C702.433 33.3133 701.719 33.54 701.239 33.86C700.759 34.1667 700.519 34.56 700.519 35.04C700.519 35.5733 700.739 35.9867 701.179 36.28C701.619 36.56 702.139 36.7 702.739 36.7ZM714.715 42.4C713.621 42.4 712.741 42.2133 712.075 41.84C711.408 41.48 710.935 41.0667 710.655 40.6C710.375 40.1333 710.221 39.7133 710.195 39.34C710.181 39.2067 710.221 39.0933 710.315 39C710.421 38.9067 710.535 38.86 710.655 38.86H711.615C711.735 38.86 711.835 38.8867 711.915 38.94C711.995 39.0067 712.061 39.12 712.115 39.28C712.275 39.7067 712.535 40.0733 712.895 40.38C713.268 40.7 713.841 40.86 714.615 40.86C715.601 40.86 716.328 40.6467 716.795 40.22C717.261 39.8067 717.495 39.0667 717.495 38V36.64C717.148 37.08 716.708 37.4333 716.175 37.7C715.641 37.9533 715.008 38.08 714.275 38.08C712.861 38.08 711.801 37.6333 711.095 36.74C710.401 35.8333 710.035 34.6867 709.995 33.3L709.975 32.74L709.995 32.2C710.035 30.8267 710.408 29.6867 711.115 28.78C711.821 27.86 712.875 27.4 714.275 27.4C715.675 27.4 716.768 27.9133 717.555 28.94V28.08C717.555 27.9467 717.595 27.8333 717.675 27.74C717.768 27.6467 717.881 27.6 718.015 27.6H718.935C719.068 27.6 719.181 27.6467 719.275 27.74C719.368 27.8333 719.415 27.9467 719.415 28.08V37.78C719.415 40.86 717.848 42.4 714.715 42.4ZM714.675 36.48C715.581 36.48 716.268 36.18 716.735 35.58C717.201 34.98 717.455 34.2667 717.495 33.44C717.508 33.32 717.515 33.0867 717.515 32.74C717.515 32.4067 717.508 32.18 717.495 32.06C717.455 31.2333 717.201 30.52 716.735 29.92C716.281 29.32 715.595 29.02 714.675 29.02C713.728 29.02 713.041 29.3133 712.615 29.9C712.188 30.4867 711.955 31.26 711.915 32.22L711.895 32.74L711.915 33.28C711.955 34.2267 712.188 35 712.615 35.6C713.041 36.1867 713.728 36.48 714.675 36.48ZM726.548 38.2C725.175 38.2 724.075 37.78 723.248 36.94C722.435 36.0867 721.988 34.9267 721.908 33.46L721.888 32.78L721.908 32.12C722.002 30.68 722.455 29.5333 723.268 28.68C724.095 27.8267 725.182 27.4 726.528 27.4C728.008 27.4 729.155 27.8733 729.968 28.82C730.782 29.7533 731.188 31.02 731.188 32.62V32.96C731.188 33.0933 731.142 33.2067 731.048 33.3C730.968 33.38 730.862 33.42 730.728 33.42H723.808V33.6C723.848 34.4667 724.108 35.2067 724.588 35.82C725.082 36.42 725.728 36.72 726.528 36.72C727.142 36.72 727.642 36.6 728.028 36.36C728.428 36.1067 728.722 35.8467 728.908 35.58C729.028 35.42 729.115 35.3267 729.168 35.3C729.235 35.26 729.348 35.24 729.508 35.24H730.488C730.608 35.24 730.708 35.2733 730.788 35.34C730.868 35.4067 730.908 35.5 730.908 35.62C730.908 35.9133 730.722 36.2667 730.348 36.68C729.988 37.0933 729.475 37.4533 728.808 37.76C728.155 38.0533 727.402 38.2 726.548 38.2ZM729.288 32.04V31.98C729.288 31.06 729.035 30.3133 728.528 29.74C728.035 29.1533 727.368 28.86 726.528 28.86C725.688 28.86 725.022 29.1533 724.528 29.74C724.048 30.3133 723.808 31.06 723.808 31.98V32.04H729.288ZM736.647 34.72C736.527 34.72 736.427 34.68 736.347 34.6C736.267 34.52 736.227 34.42 736.227 34.3V33.5C736.254 32.7933 736.434 32.1867 736.767 31.68C737.1 31.1733 737.587 30.5933 738.227 29.94C738.747 29.4067 739.127 28.9667 739.367 28.62C739.607 28.2733 739.727 27.8933 739.727 27.48C739.727 26.8667 739.467 26.38 738.947 26.02C738.44 25.66 737.847 25.48 737.167 25.48C735.58 25.48 734.647 26.28 734.367 27.88C734.3 28.1733 734.127 28.32 733.847 28.32H732.887C732.754 28.32 732.647 28.28 732.567 28.2C732.487 28.12 732.447 28.0133 732.447 27.88C732.474 27.1467 732.68 26.4733 733.067 25.86C733.467 25.2333 734.027 24.7333 734.747 24.36C735.467 23.9867 736.294 23.8 737.227 23.8C738.214 23.8 739.04 23.9733 739.707 24.32C740.387 24.6533 740.887 25.0933 741.207 25.64C741.527 26.1733 741.687 26.7467 741.687 27.36C741.687 28.04 741.534 28.6267 741.227 29.12C740.92 29.6133 740.46 30.1867 739.847 30.84C739.34 31.3733 738.96 31.8267 738.707 32.2C738.454 32.56 738.307 32.9667 738.267 33.42C738.24 33.7933 738.227 34.0733 738.227 34.26C738.16 34.5667 737.994 34.72 737.727 34.72H736.647ZM736.487 38C736.354 38 736.24 37.96 736.147 37.88C736.067 37.7867 736.027 37.6733 736.027 37.54V36.32C736.027 36.1867 736.067 36.08 736.147 36C736.24 35.9067 736.354 35.86 736.487 35.86H737.787C737.92 35.86 738.034 35.9067 738.127 36C738.22 36.08 738.267 36.1867 738.267 36.32V37.54C738.267 37.6733 738.22 37.7867 738.127 37.88C738.034 37.96 737.92 38 737.787 38H736.487Z" fill="#004A7C"/>
</svg>
