<svg width="800" height="242" viewBox="0 0 800 242" fill="none" xmlns="http://www.w3.org/2000/svg">
<rect width="800" height="242" fill="white"/>
<rect x="53.5" y="91.5" width="170" height="56" rx="4.5" stroke="#40434E"/>
<path d="M121.361 120.371C121.218 121.888 120.658 123.073 119.682 123.926C118.705 124.772 117.406 125.195 115.785 125.195C114.652 125.195 113.653 124.928 112.787 124.395C111.928 123.854 111.264 123.089 110.795 122.1C110.326 121.11 110.082 119.961 110.062 118.652V117.324C110.062 115.983 110.3 114.801 110.775 113.779C111.251 112.757 111.931 111.969 112.816 111.416C113.708 110.863 114.737 110.586 115.902 110.586C117.471 110.586 118.734 111.012 119.691 111.865C120.648 112.718 121.205 113.923 121.361 115.479H118.9C118.783 114.456 118.484 113.721 118.002 113.271C117.527 112.816 116.827 112.588 115.902 112.588C114.828 112.588 114.001 112.982 113.422 113.77C112.849 114.551 112.556 115.7 112.543 117.217V118.477C112.543 120.013 112.816 121.185 113.363 121.992C113.917 122.799 114.724 123.203 115.785 123.203C116.755 123.203 117.484 122.985 117.973 122.549C118.461 122.113 118.77 121.387 118.9 120.371H121.361ZM128.881 116.602C128.568 116.549 128.246 116.523 127.914 116.523C126.827 116.523 126.094 116.94 125.717 117.773V125H123.344V114.434H125.609L125.668 115.615C126.241 114.697 127.035 114.238 128.051 114.238C128.389 114.238 128.669 114.284 128.891 114.375L128.881 116.602ZM134.838 125.195C133.334 125.195 132.113 124.723 131.176 123.779C130.245 122.829 129.779 121.566 129.779 119.99V119.697C129.779 118.643 129.981 117.702 130.385 116.875C130.795 116.042 131.368 115.394 132.104 114.932C132.839 114.469 133.66 114.238 134.564 114.238C136.003 114.238 137.113 114.697 137.895 115.615C138.682 116.533 139.076 117.832 139.076 119.512V120.469H132.172C132.243 121.341 132.533 122.031 133.041 122.539C133.555 123.047 134.2 123.301 134.975 123.301C136.062 123.301 136.947 122.861 137.631 121.982L138.91 123.203C138.487 123.835 137.921 124.326 137.211 124.678C136.508 125.023 135.717 125.195 134.838 125.195ZM134.555 116.143C133.904 116.143 133.376 116.37 132.973 116.826C132.576 117.282 132.322 117.917 132.211 118.73H136.732V118.555C136.68 117.76 136.469 117.161 136.098 116.758C135.727 116.348 135.212 116.143 134.555 116.143ZM147.24 125C147.136 124.798 147.045 124.469 146.967 124.014C146.212 124.801 145.287 125.195 144.193 125.195C143.132 125.195 142.266 124.893 141.596 124.287C140.925 123.682 140.59 122.933 140.59 122.041C140.59 120.915 141.007 120.052 141.84 119.453C142.68 118.848 143.878 118.545 145.434 118.545H146.889V117.852C146.889 117.305 146.736 116.868 146.43 116.543C146.124 116.211 145.658 116.045 145.033 116.045C144.493 116.045 144.05 116.182 143.705 116.455C143.36 116.722 143.188 117.064 143.188 117.48H140.814C140.814 116.901 141.007 116.361 141.391 115.859C141.775 115.352 142.296 114.954 142.953 114.668C143.617 114.382 144.356 114.238 145.17 114.238C146.407 114.238 147.393 114.551 148.129 115.176C148.865 115.794 149.242 116.667 149.262 117.793V122.559C149.262 123.509 149.395 124.268 149.662 124.834V125H147.24ZM144.633 123.291C145.102 123.291 145.541 123.177 145.951 122.949C146.368 122.721 146.68 122.415 146.889 122.031V120.039H145.609C144.73 120.039 144.07 120.192 143.627 120.498C143.184 120.804 142.963 121.237 142.963 121.797C142.963 122.253 143.113 122.617 143.412 122.891C143.718 123.158 144.125 123.291 144.633 123.291ZM154.721 111.865V114.434H156.586V116.191H154.721V122.09C154.721 122.493 154.799 122.786 154.955 122.969C155.118 123.145 155.404 123.232 155.814 123.232C156.088 123.232 156.365 123.2 156.645 123.135V124.971C156.104 125.12 155.583 125.195 155.082 125.195C153.259 125.195 152.348 124.189 152.348 122.178V116.191H150.609V114.434H152.348V111.865H154.721ZM163.061 125.195C161.557 125.195 160.336 124.723 159.398 123.779C158.467 122.829 158.002 121.566 158.002 119.99V119.697C158.002 118.643 158.204 117.702 158.607 116.875C159.018 116.042 159.59 115.394 160.326 114.932C161.062 114.469 161.882 114.238 162.787 114.238C164.226 114.238 165.336 114.697 166.117 115.615C166.905 116.533 167.299 117.832 167.299 119.512V120.469H160.395C160.466 121.341 160.756 122.031 161.264 122.539C161.778 123.047 162.423 123.301 163.197 123.301C164.285 123.301 165.17 122.861 165.854 121.982L167.133 123.203C166.71 123.835 166.143 124.326 165.434 124.678C164.73 125.023 163.939 125.195 163.061 125.195ZM162.777 116.143C162.126 116.143 161.599 116.37 161.195 116.826C160.798 117.282 160.544 117.917 160.434 118.73H164.955V118.555C164.903 117.76 164.691 117.161 164.32 116.758C163.949 116.348 163.435 116.143 162.777 116.143Z" fill="#40434E"/>
<path d="M89.002 184.781L93.1035 195.68L97.1953 184.781H100.389V199H97.9277V194.312L98.1719 188.043L93.9727 199H92.2051L88.0156 188.053L88.2598 194.312V199H85.7988V184.781H89.002ZM109.402 199C109.298 198.798 109.207 198.469 109.129 198.014C108.374 198.801 107.449 199.195 106.355 199.195C105.294 199.195 104.428 198.893 103.758 198.287C103.087 197.682 102.752 196.933 102.752 196.041C102.752 194.915 103.169 194.052 104.002 193.453C104.842 192.848 106.04 192.545 107.596 192.545H109.051V191.852C109.051 191.305 108.898 190.868 108.592 190.543C108.286 190.211 107.82 190.045 107.195 190.045C106.655 190.045 106.212 190.182 105.867 190.455C105.522 190.722 105.35 191.064 105.35 191.48H102.977C102.977 190.901 103.169 190.361 103.553 189.859C103.937 189.352 104.458 188.954 105.115 188.668C105.779 188.382 106.518 188.238 107.332 188.238C108.569 188.238 109.555 188.551 110.291 189.176C111.027 189.794 111.404 190.667 111.424 191.793V196.559C111.424 197.509 111.557 198.268 111.824 198.834V199H109.402ZM106.795 197.291C107.264 197.291 107.703 197.177 108.113 196.949C108.53 196.721 108.842 196.415 109.051 196.031V194.039H107.771C106.893 194.039 106.232 194.192 105.789 194.498C105.346 194.804 105.125 195.237 105.125 195.797C105.125 196.253 105.275 196.617 105.574 196.891C105.88 197.158 106.287 197.291 106.795 197.291ZM117.449 195.602L119.598 188.434H122.127L117.928 200.602C117.283 202.379 116.189 203.268 114.646 203.268C114.301 203.268 113.921 203.209 113.504 203.092V201.256L113.953 201.285C114.552 201.285 115.001 201.174 115.301 200.953C115.607 200.738 115.848 200.374 116.023 199.859L116.365 198.951L112.654 188.434H115.213L117.449 195.602ZM132.771 193.824C132.771 195.465 132.404 196.77 131.668 197.74C130.939 198.71 129.933 199.195 128.65 199.195C127.413 199.195 126.45 198.749 125.76 197.857L125.643 199H123.494V184H125.867V189.449C126.551 188.642 127.472 188.238 128.631 188.238C129.92 188.238 130.932 188.717 131.668 189.674C132.404 190.631 132.771 191.969 132.771 193.688V193.824ZM130.398 193.619C130.398 192.473 130.197 191.614 129.793 191.041C129.389 190.468 128.803 190.182 128.035 190.182C127.007 190.182 126.284 190.631 125.867 191.529V195.885C126.29 196.803 127.02 197.262 128.055 197.262C128.797 197.262 129.37 196.985 129.773 196.432C130.177 195.878 130.385 195.042 130.398 193.922V193.619ZM139.422 199.195C137.918 199.195 136.697 198.723 135.76 197.779C134.829 196.829 134.363 195.566 134.363 193.99V193.697C134.363 192.643 134.565 191.702 134.969 190.875C135.379 190.042 135.952 189.394 136.688 188.932C137.423 188.469 138.243 188.238 139.148 188.238C140.587 188.238 141.697 188.697 142.479 189.615C143.266 190.533 143.66 191.832 143.66 193.512V194.469H136.756C136.827 195.341 137.117 196.031 137.625 196.539C138.139 197.047 138.784 197.301 139.559 197.301C140.646 197.301 141.531 196.861 142.215 195.982L143.494 197.203C143.071 197.835 142.505 198.326 141.795 198.678C141.092 199.023 140.301 199.195 139.422 199.195ZM139.139 190.143C138.488 190.143 137.96 190.37 137.557 190.826C137.16 191.282 136.906 191.917 136.795 192.73H141.316V192.555C141.264 191.76 141.053 191.161 140.682 190.758C140.311 190.348 139.796 190.143 139.139 190.143ZM153.016 199H150.643V184H153.016V199ZM161.922 199C161.818 198.798 161.727 198.469 161.648 198.014C160.893 198.801 159.969 199.195 158.875 199.195C157.814 199.195 156.948 198.893 156.277 198.287C155.607 197.682 155.271 196.933 155.271 196.041C155.271 194.915 155.688 194.052 156.521 193.453C157.361 192.848 158.559 192.545 160.115 192.545H161.57V191.852C161.57 191.305 161.417 190.868 161.111 190.543C160.805 190.211 160.34 190.045 159.715 190.045C159.174 190.045 158.732 190.182 158.387 190.455C158.042 190.722 157.869 191.064 157.869 191.48H155.496C155.496 190.901 155.688 190.361 156.072 189.859C156.456 189.352 156.977 188.954 157.635 188.668C158.299 188.382 159.038 188.238 159.852 188.238C161.089 188.238 162.075 188.551 162.811 189.176C163.546 189.794 163.924 190.667 163.943 191.793V196.559C163.943 197.509 164.077 198.268 164.344 198.834V199H161.922ZM159.314 197.291C159.783 197.291 160.223 197.177 160.633 196.949C161.049 196.721 161.362 196.415 161.57 196.031V194.039H160.291C159.412 194.039 158.751 194.192 158.309 194.498C157.866 194.804 157.645 195.237 157.645 195.797C157.645 196.253 157.794 196.617 158.094 196.891C158.4 197.158 158.807 197.291 159.314 197.291ZM169.402 185.865V188.434H171.268V190.191H169.402V196.09C169.402 196.493 169.48 196.786 169.637 196.969C169.799 197.145 170.086 197.232 170.496 197.232C170.77 197.232 171.046 197.2 171.326 197.135V198.971C170.786 199.12 170.265 199.195 169.764 199.195C167.941 199.195 167.029 198.189 167.029 196.178V190.191H165.291V188.434H167.029V185.865H169.402ZM177.742 199.195C176.238 199.195 175.018 198.723 174.08 197.779C173.149 196.829 172.684 195.566 172.684 193.99V193.697C172.684 192.643 172.885 191.702 173.289 190.875C173.699 190.042 174.272 189.394 175.008 188.932C175.743 188.469 176.564 188.238 177.469 188.238C178.908 188.238 180.018 188.697 180.799 189.615C181.587 190.533 181.98 191.832 181.98 193.512V194.469H175.076C175.148 195.341 175.438 196.031 175.945 196.539C176.46 197.047 177.104 197.301 177.879 197.301C178.966 197.301 179.852 196.861 180.535 195.982L181.814 197.203C181.391 197.835 180.825 198.326 180.115 198.678C179.412 199.023 178.621 199.195 177.742 199.195ZM177.459 190.143C176.808 190.143 176.281 190.37 175.877 190.826C175.48 191.282 175.226 191.917 175.115 192.73H179.637V192.555C179.585 191.76 179.373 191.161 179.002 190.758C178.631 190.348 178.117 190.143 177.459 190.143ZM189.363 190.602C189.051 190.549 188.729 190.523 188.396 190.523C187.309 190.523 186.577 190.94 186.199 191.773V199H183.826V188.434H186.092L186.15 189.615C186.723 188.697 187.518 188.238 188.533 188.238C188.872 188.238 189.152 188.284 189.373 188.375L189.363 190.602Z" fill="#004A7C"/>
<path d="M84.3535 200.953H189.646V201.93H84.3535V200.953Z" fill="#004A7C"/>
<path d="M71.657 57.2C69.8703 57.2 68.5103 56.72 67.577 55.76C66.657 54.8 66.1636 53.4733 66.097 51.78C66.0836 51.42 66.077 50.8333 66.077 50.02C66.077 49.1933 66.0836 48.5933 66.097 48.22C66.1636 46.54 66.6636 45.22 67.597 44.26C68.5303 43.2867 69.8836 42.8 71.657 42.8C72.8436 42.8 73.8503 43.0133 74.677 43.44C75.5036 43.8533 76.1303 44.4 76.557 45.08C76.9836 45.76 77.217 46.4867 77.257 47.26V47.3C77.257 47.4067 77.2103 47.5 77.117 47.58C77.037 47.6467 76.9436 47.68 76.837 47.68H75.737C75.4703 47.68 75.3036 47.5267 75.237 47.22C75.0103 46.22 74.6036 45.52 74.017 45.12C73.4303 44.7067 72.6436 44.5 71.657 44.5C69.3636 44.5 68.177 45.7733 68.097 48.32C68.0836 48.68 68.077 49.2333 68.077 49.98C68.077 50.7267 68.0836 51.2933 68.097 51.68C68.177 54.2267 69.3636 55.5 71.657 55.5C72.6436 55.5 73.4303 55.3 74.017 54.9C74.617 54.4867 75.0236 53.78 75.237 52.78C75.277 52.6067 75.337 52.4867 75.417 52.42C75.497 52.3533 75.6036 52.32 75.737 52.32H76.837C76.957 52.32 77.057 52.36 77.137 52.44C77.2303 52.5067 77.2703 52.6 77.257 52.72C77.217 53.5067 76.9836 54.24 76.557 54.92C76.1303 55.6 75.5036 56.1533 74.677 56.58C73.8503 56.9933 72.8436 57.2 71.657 57.2ZM80.1373 57C80.0039 57 79.8906 56.96 79.7973 56.88C79.7173 56.7867 79.6773 56.6733 79.6773 56.54V47.08C79.6773 46.9467 79.7173 46.8333 79.7973 46.74C79.8906 46.6467 80.0039 46.6 80.1373 46.6H81.0573C81.1906 46.6 81.3039 46.6467 81.3973 46.74C81.4906 46.8333 81.5373 46.9467 81.5373 47.08V47.96C82.0839 47.0533 83.0173 46.6 84.3373 46.6H85.1173C85.2506 46.6 85.3573 46.6467 85.4373 46.74C85.5306 46.82 85.5773 46.9267 85.5773 47.06V47.88C85.5773 48.0133 85.5306 48.12 85.4373 48.2C85.3573 48.28 85.2506 48.32 85.1173 48.32H83.9173C83.1973 48.32 82.6306 48.5333 82.2173 48.96C81.8039 49.3733 81.5973 49.94 81.5973 50.66V56.54C81.5973 56.6733 81.5506 56.7867 81.4573 56.88C81.3639 56.96 81.2506 57 81.1173 57H80.1373ZM91.2396 57.2C89.8663 57.2 88.7663 56.78 87.9396 55.94C87.1263 55.0867 86.6796 53.9267 86.5996 52.46L86.5796 51.78L86.5996 51.12C86.6929 49.68 87.1463 48.5333 87.9596 47.68C88.7863 46.8267 89.8729 46.4 91.2196 46.4C92.6996 46.4 93.8463 46.8733 94.6596 47.82C95.4729 48.7533 95.8796 50.02 95.8796 51.62V51.96C95.8796 52.0933 95.8329 52.2067 95.7396 52.3C95.6596 52.38 95.5529 52.42 95.4196 52.42H88.4996V52.6C88.5396 53.4667 88.7996 54.2067 89.2796 54.82C89.7729 55.42 90.4196 55.72 91.2196 55.72C91.8329 55.72 92.3329 55.6 92.7196 55.36C93.1196 55.1067 93.4129 54.8467 93.5996 54.58C93.7196 54.42 93.8063 54.3267 93.8596 54.3C93.9263 54.26 94.0396 54.24 94.1996 54.24H95.1796C95.2996 54.24 95.3996 54.2733 95.4796 54.34C95.5596 54.4067 95.5996 54.5 95.5996 54.62C95.5996 54.9133 95.4129 55.2667 95.0396 55.68C94.6796 56.0933 94.1663 56.4533 93.4996 56.76C92.8463 57.0533 92.0929 57.2 91.2396 57.2ZM93.9796 51.04V50.98C93.9796 50.06 93.7263 49.3133 93.2196 48.74C92.7263 48.1533 92.0596 47.86 91.2196 47.86C90.3796 47.86 89.7129 48.1533 89.2196 48.74C88.7396 49.3133 88.4996 50.06 88.4996 50.98V51.04H93.9796ZM101.171 57.2C100.518 57.2 99.911 57.0667 99.351 56.8C98.791 56.5333 98.3443 56.1733 98.011 55.72C97.691 55.2533 97.531 54.74 97.531 54.18C97.531 53.3 97.891 52.58 98.611 52.02C99.3443 51.4467 100.331 51.0733 101.571 50.9L104.551 50.48V49.9C104.551 48.54 103.771 47.86 102.211 47.86C101.624 47.86 101.144 47.9867 100.771 48.24C100.398 48.48 100.118 48.7667 99.931 49.1C99.891 49.22 99.8377 49.3067 99.771 49.36C99.7177 49.4133 99.6377 49.44 99.531 49.44H98.671C98.551 49.44 98.4443 49.4 98.351 49.32C98.271 49.2267 98.231 49.12 98.231 49C98.2443 48.68 98.391 48.32 98.671 47.92C98.9643 47.5067 99.411 47.1533 100.011 46.86C100.611 46.5533 101.351 46.4 102.231 46.4C103.724 46.4 104.798 46.7533 105.451 47.46C106.104 48.1533 106.431 49.02 106.431 50.06V56.54C106.431 56.6733 106.384 56.7867 106.291 56.88C106.211 56.96 106.104 57 105.971 57H105.051C104.918 57 104.804 56.96 104.711 56.88C104.631 56.7867 104.591 56.6733 104.591 56.54V55.68C104.298 56.1067 103.871 56.4667 103.311 56.76C102.751 57.0533 102.038 57.2 101.171 57.2ZM101.591 55.7C102.458 55.7 103.164 55.42 103.711 54.86C104.271 54.2867 104.551 53.4667 104.551 52.4V51.84L102.231 52.18C101.284 52.3133 100.571 52.54 100.091 52.86C99.611 53.1667 99.371 53.56 99.371 54.04C99.371 54.5733 99.591 54.9867 100.031 55.28C100.471 55.56 100.991 55.7 101.591 55.7ZM113.269 57C111.162 57 110.109 55.8267 110.109 53.48V48.2H108.549C108.415 48.2 108.302 48.16 108.209 48.08C108.129 47.9867 108.089 47.8733 108.089 47.74V47.06C108.089 46.9267 108.129 46.82 108.209 46.74C108.302 46.6467 108.415 46.6 108.549 46.6H110.109V43.26C110.109 43.1267 110.149 43.02 110.229 42.94C110.322 42.8467 110.435 42.8 110.569 42.8H111.509C111.642 42.8 111.749 42.8467 111.829 42.94C111.922 43.02 111.969 43.1267 111.969 43.26V46.6H114.449C114.582 46.6 114.689 46.6467 114.769 46.74C114.862 46.82 114.909 46.9267 114.909 47.06V47.74C114.909 47.8733 114.862 47.9867 114.769 48.08C114.689 48.16 114.582 48.2 114.449 48.2H111.969V53.34C111.969 54.0067 112.082 54.5133 112.309 54.86C112.535 55.1933 112.909 55.36 113.429 55.36H114.649C114.782 55.36 114.889 55.4067 114.969 55.5C115.062 55.58 115.109 55.6867 115.109 55.82V56.54C115.109 56.6733 115.062 56.7867 114.969 56.88C114.889 56.96 114.782 57 114.649 57H113.269ZM121.181 57.2C119.808 57.2 118.708 56.78 117.881 55.94C117.068 55.0867 116.621 53.9267 116.541 52.46L116.521 51.78L116.541 51.12C116.634 49.68 117.088 48.5333 117.901 47.68C118.728 46.8267 119.814 46.4 121.161 46.4C122.641 46.4 123.788 46.8733 124.601 47.82C125.414 48.7533 125.821 50.02 125.821 51.62V51.96C125.821 52.0933 125.774 52.2067 125.681 52.3C125.601 52.38 125.494 52.42 125.361 52.42H118.441V52.6C118.481 53.4667 118.741 54.2067 119.221 54.82C119.714 55.42 120.361 55.72 121.161 55.72C121.774 55.72 122.274 55.6 122.661 55.36C123.061 55.1067 123.354 54.8467 123.541 54.58C123.661 54.42 123.748 54.3267 123.801 54.3C123.868 54.26 123.981 54.24 124.141 54.24H125.121C125.241 54.24 125.341 54.2733 125.421 54.34C125.501 54.4067 125.541 54.5 125.541 54.62C125.541 54.9133 125.354 55.2667 124.981 55.68C124.621 56.0933 124.108 56.4533 123.441 56.76C122.788 57.0533 122.034 57.2 121.181 57.2ZM123.921 51.04V50.98C123.921 50.06 123.668 49.3133 123.161 48.74C122.668 48.1533 122.001 47.86 121.161 47.86C120.321 47.86 119.654 48.1533 119.161 48.74C118.681 49.3133 118.441 50.06 118.441 50.98V51.04H123.921ZM133.575 57C133.441 57 133.328 56.96 133.235 56.88C133.155 56.7867 133.115 56.6733 133.115 56.54V47.06C133.115 46.9267 133.155 46.82 133.235 46.74C133.328 46.6467 133.441 46.6 133.575 46.6H134.515C134.648 46.6 134.755 46.6467 134.835 46.74C134.928 46.82 134.975 46.9267 134.975 47.06V47.94C135.361 47.4467 135.815 47.0667 136.335 46.8C136.868 46.5333 137.528 46.4 138.315 46.4C139.595 46.4 140.588 46.8133 141.295 47.64C142.015 48.4533 142.375 49.54 142.375 50.9V56.54C142.375 56.6733 142.328 56.7867 142.235 56.88C142.155 56.96 142.048 57 141.915 57H140.915C140.781 57 140.668 56.96 140.575 56.88C140.495 56.7867 140.455 56.6733 140.455 56.54V51C140.455 50.0533 140.221 49.32 139.755 48.8C139.301 48.28 138.641 48.02 137.775 48.02C136.935 48.02 136.268 48.2867 135.775 48.82C135.281 49.34 135.035 50.0667 135.035 51V56.54C135.035 56.6733 134.988 56.7867 134.895 56.88C134.815 56.96 134.708 57 134.575 57H133.575ZM149.404 57.2C148.03 57.2 146.93 56.78 146.104 55.94C145.29 55.0867 144.844 53.9267 144.764 52.46L144.744 51.78L144.764 51.12C144.857 49.68 145.31 48.5333 146.124 47.68C146.95 46.8267 148.037 46.4 149.384 46.4C150.864 46.4 152.01 46.8733 152.824 47.82C153.637 48.7533 154.044 50.02 154.044 51.62V51.96C154.044 52.0933 153.997 52.2067 153.904 52.3C153.824 52.38 153.717 52.42 153.584 52.42H146.664V52.6C146.704 53.4667 146.964 54.2067 147.444 54.82C147.937 55.42 148.584 55.72 149.384 55.72C149.997 55.72 150.497 55.6 150.884 55.36C151.284 55.1067 151.577 54.8467 151.764 54.58C151.884 54.42 151.97 54.3267 152.024 54.3C152.09 54.26 152.204 54.24 152.364 54.24H153.344C153.464 54.24 153.564 54.2733 153.644 54.34C153.724 54.4067 153.764 54.5 153.764 54.62C153.764 54.9133 153.577 55.2667 153.204 55.68C152.844 56.0933 152.33 56.4533 151.664 56.76C151.01 57.0533 150.257 57.2 149.404 57.2ZM152.144 51.04V50.98C152.144 50.06 151.89 49.3133 151.384 48.74C150.89 48.1533 150.224 47.86 149.384 47.86C148.544 47.86 147.877 48.1533 147.384 48.74C146.904 49.3133 146.664 50.06 146.664 50.98V51.04H152.144ZM158.922 57C158.748 57 158.615 56.96 158.522 56.88C158.428 56.8 158.348 56.6733 158.282 56.5L155.442 47.22L155.402 47.02C155.402 46.9 155.442 46.8 155.522 46.72C155.615 46.64 155.715 46.6 155.822 46.6H156.702C156.835 46.6 156.942 46.64 157.022 46.72C157.115 46.7867 157.175 46.86 157.202 46.94L159.422 54.48L161.802 47.02C161.828 46.9133 161.888 46.82 161.982 46.74C162.075 46.6467 162.202 46.6 162.362 46.6H163.042C163.202 46.6 163.328 46.6467 163.422 46.74C163.515 46.82 163.575 46.9133 163.602 47.02L165.982 54.48L168.202 46.94C168.215 46.8733 168.262 46.8 168.342 46.72C168.435 46.64 168.548 46.6 168.682 46.6H169.582C169.688 46.6 169.782 46.64 169.862 46.72C169.942 46.8 169.982 46.9 169.982 47.02L169.942 47.22L167.122 56.5C167.055 56.6733 166.975 56.8 166.882 56.88C166.788 56.96 166.648 57 166.462 57H165.682C165.322 57 165.102 56.8333 165.022 56.5L162.702 49.34L160.382 56.5C160.275 56.8333 160.048 57 159.702 57H158.922ZM177.759 57C177.626 57 177.513 56.96 177.419 56.88C177.339 56.7867 177.299 56.6733 177.299 56.54V48.2H175.599C175.466 48.2 175.353 48.16 175.259 48.08C175.179 47.9867 175.139 47.8733 175.139 47.74V47.06C175.139 46.9267 175.179 46.82 175.259 46.74C175.353 46.6467 175.466 46.6 175.599 46.6H177.299V45.6C177.299 43.3333 178.446 42.2 180.739 42.2H183.819C183.953 42.2 184.059 42.2467 184.139 42.34C184.233 42.42 184.279 42.5267 184.279 42.66V43.34C184.279 43.4733 184.233 43.5867 184.139 43.68C184.059 43.76 183.953 43.8 183.819 43.8H180.779C180.179 43.8 179.759 43.96 179.519 44.28C179.279 44.5867 179.159 45.06 179.159 45.7V46.6H183.819C183.953 46.6 184.059 46.6467 184.139 46.74C184.233 46.82 184.279 46.9267 184.279 47.06V56.54C184.279 56.6733 184.233 56.7867 184.139 56.88C184.059 56.96 183.953 57 183.819 57H182.899C182.766 57 182.653 56.96 182.559 56.88C182.479 56.7867 182.439 56.6733 182.439 56.54V48.2H179.159V56.54C179.159 56.6733 179.113 56.7867 179.019 56.88C178.939 56.96 178.833 57 178.699 57H177.759ZM187.716 57C187.583 57 187.469 56.96 187.376 56.88C187.296 56.7867 187.256 56.6733 187.256 56.54V43.26C187.256 43.1267 187.296 43.02 187.376 42.94C187.469 42.8467 187.583 42.8 187.716 42.8H188.656C188.789 42.8 188.896 42.8467 188.976 42.94C189.069 43.02 189.116 43.1267 189.116 43.26V56.54C189.116 56.6733 189.069 56.7867 188.976 56.88C188.896 56.96 188.789 57 188.656 57H187.716ZM196.259 57.2C194.886 57.2 193.786 56.78 192.959 55.94C192.146 55.0867 191.699 53.9267 191.619 52.46L191.599 51.78L191.619 51.12C191.712 49.68 192.166 48.5333 192.979 47.68C193.806 46.8267 194.892 46.4 196.239 46.4C197.719 46.4 198.866 46.8733 199.679 47.82C200.492 48.7533 200.899 50.02 200.899 51.62V51.96C200.899 52.0933 200.852 52.2067 200.759 52.3C200.679 52.38 200.572 52.42 200.439 52.42H193.519V52.6C193.559 53.4667 193.819 54.2067 194.299 54.82C194.792 55.42 195.439 55.72 196.239 55.72C196.852 55.72 197.352 55.6 197.739 55.36C198.139 55.1067 198.432 54.8467 198.619 54.58C198.739 54.42 198.826 54.3267 198.879 54.3C198.946 54.26 199.059 54.24 199.219 54.24H200.199C200.319 54.24 200.419 54.2733 200.499 54.34C200.579 54.4067 200.619 54.5 200.619 54.62C200.619 54.9133 200.432 55.2667 200.059 55.68C199.699 56.0933 199.186 56.4533 198.519 56.76C197.866 57.0533 197.112 57.2 196.259 57.2ZM198.999 51.04V50.98C198.999 50.06 198.746 49.3133 198.239 48.74C197.746 48.1533 197.079 47.86 196.239 47.86C195.399 47.86 194.732 48.1533 194.239 48.74C193.759 49.3133 193.519 50.06 193.519 50.98V51.04H198.999ZM206.358 53.72C206.238 53.72 206.138 53.68 206.058 53.6C205.978 53.52 205.938 53.42 205.938 53.3V52.5C205.965 51.7933 206.145 51.1867 206.478 50.68C206.811 50.1733 207.298 49.5933 207.938 48.94C208.458 48.4067 208.838 47.9667 209.078 47.62C209.318 47.2733 209.438 46.8933 209.438 46.48C209.438 45.8667 209.178 45.38 208.658 45.02C208.151 44.66 207.558 44.48 206.878 44.48C205.291 44.48 204.358 45.28 204.078 46.88C204.011 47.1733 203.838 47.32 203.558 47.32H202.598C202.465 47.32 202.358 47.28 202.278 47.2C202.198 47.12 202.158 47.0133 202.158 46.88C202.185 46.1467 202.391 45.4733 202.778 44.86C203.178 44.2333 203.738 43.7333 204.458 43.36C205.178 42.9867 206.005 42.8 206.938 42.8C207.925 42.8 208.751 42.9733 209.418 43.32C210.098 43.6533 210.598 44.0933 210.918 44.64C211.238 45.1733 211.398 45.7467 211.398 46.36C211.398 47.04 211.245 47.6267 210.938 48.12C210.631 48.6133 210.171 49.1867 209.558 49.84C209.051 50.3733 208.671 50.8267 208.418 51.2C208.165 51.56 208.018 51.9667 207.978 52.42C207.951 52.7933 207.938 53.0733 207.938 53.26C207.871 53.5667 207.705 53.72 207.438 53.72H206.358ZM206.198 57C206.065 57 205.951 56.96 205.858 56.88C205.778 56.7867 205.738 56.6733 205.738 56.54V55.32C205.738 55.1867 205.778 55.08 205.858 55C205.951 54.9067 206.065 54.86 206.198 54.86H207.498C207.631 54.86 207.745 54.9067 207.838 55C207.931 55.08 207.978 55.1867 207.978 55.32V56.54C207.978 56.6733 207.931 56.7867 207.838 56.88C207.745 56.96 207.631 57 207.498 57H206.198Z" fill="#40434E"/>
<path d="M326.2 119C326.067 119 325.953 118.96 325.86 118.88C325.78 118.787 325.74 118.673 325.74 118.54V105.48C325.74 105.333 325.78 105.22 325.86 105.14C325.953 105.047 326.067 105 326.2 105H334.36C334.507 105 334.62 105.047 334.7 105.14C334.793 105.22 334.84 105.333 334.84 105.48V106.28C334.84 106.413 334.793 106.527 334.7 106.62C334.62 106.7 334.507 106.74 334.36 106.74H327.68V111.4H333.96C334.107 111.4 334.22 111.447 334.3 111.54C334.393 111.62 334.44 111.733 334.44 111.88V112.68C334.44 112.813 334.393 112.927 334.3 113.02C334.207 113.1 334.093 113.14 333.96 113.14H327.68V118.54C327.68 118.673 327.633 118.787 327.54 118.88C327.447 118.96 327.333 119 327.2 119H326.2ZM340.825 119.2C339.558 119.2 338.578 118.793 337.885 117.98C337.192 117.153 336.845 116.06 336.845 114.7V109.06C336.845 108.927 336.885 108.82 336.965 108.74C337.058 108.647 337.172 108.6 337.305 108.6H338.305C338.438 108.6 338.545 108.647 338.625 108.74C338.718 108.82 338.765 108.927 338.765 109.06V114.6C338.765 116.587 339.632 117.58 341.365 117.58C342.205 117.58 342.872 117.32 343.365 116.8C343.858 116.267 344.105 115.533 344.105 114.6V109.06C344.105 108.927 344.145 108.82 344.225 108.74C344.318 108.647 344.432 108.6 344.565 108.6H345.565C345.698 108.6 345.805 108.647 345.885 108.74C345.965 108.82 346.005 108.927 346.005 109.06V118.54C346.005 118.673 345.965 118.787 345.885 118.88C345.805 118.96 345.698 119 345.565 119H344.625C344.492 119 344.378 118.96 344.285 118.88C344.205 118.787 344.165 118.673 344.165 118.54V117.66C343.792 118.167 343.338 118.553 342.805 118.82C342.272 119.073 341.612 119.2 340.825 119.2ZM349.456 119C349.323 119 349.209 118.96 349.116 118.88C349.036 118.787 348.996 118.673 348.996 118.54V105.26C348.996 105.127 349.036 105.02 349.116 104.94C349.209 104.847 349.323 104.8 349.456 104.8H350.396C350.529 104.8 350.636 104.847 350.716 104.94C350.809 105.02 350.856 105.127 350.856 105.26V118.54C350.856 118.673 350.809 118.787 350.716 118.88C350.636 118.96 350.529 119 350.396 119H349.456ZM354.319 119C354.186 119 354.073 118.96 353.979 118.88C353.899 118.787 353.859 118.673 353.859 118.54V105.26C353.859 105.127 353.899 105.02 353.979 104.94C354.073 104.847 354.186 104.8 354.319 104.8H355.259C355.393 104.8 355.499 104.847 355.579 104.94C355.673 105.02 355.719 105.127 355.719 105.26V118.54C355.719 118.673 355.673 118.787 355.579 118.88C355.499 118.96 355.393 119 355.259 119H354.319ZM367.865 119.2C366.398 119.2 365.258 118.787 364.445 117.96C363.645 117.133 363.218 116.033 363.165 114.66L363.145 113.8L363.165 112.94C363.218 111.58 363.652 110.487 364.465 109.66C365.278 108.82 366.412 108.4 367.865 108.4C369.318 108.4 370.452 108.82 371.265 109.66C372.078 110.487 372.512 111.58 372.565 112.94C372.578 113.087 372.585 113.373 372.585 113.8C372.585 114.227 372.578 114.513 372.565 114.66C372.512 116.033 372.078 117.133 371.265 117.96C370.465 118.787 369.332 119.2 367.865 119.2ZM367.865 117.66C368.705 117.66 369.365 117.393 369.845 116.86C370.338 116.327 370.605 115.56 370.645 114.56C370.658 114.427 370.665 114.173 370.665 113.8C370.665 113.427 370.658 113.173 370.645 113.04C370.605 112.04 370.338 111.273 369.845 110.74C369.365 110.207 368.705 109.94 367.865 109.94C367.025 109.94 366.358 110.207 365.865 110.74C365.372 111.273 365.112 112.04 365.085 113.04L365.065 113.8L365.085 114.56C365.112 115.56 365.372 116.327 365.865 116.86C366.358 117.393 367.025 117.66 367.865 117.66ZM376.472 119C376.339 119 376.226 118.96 376.132 118.88C376.052 118.787 376.012 118.673 376.012 118.54V110.2H374.312C374.179 110.2 374.066 110.16 373.972 110.08C373.892 109.987 373.852 109.873 373.852 109.74V109.06C373.852 108.927 373.892 108.82 373.972 108.74C374.066 108.647 374.179 108.6 374.312 108.6H376.012V107.6C376.012 105.333 377.159 104.2 379.452 104.2H380.652C380.786 104.2 380.892 104.247 380.972 104.34C381.066 104.42 381.112 104.527 381.112 104.66V105.34C381.112 105.473 381.066 105.587 380.972 105.68C380.892 105.76 380.786 105.8 380.652 105.8H379.492C378.892 105.8 378.472 105.96 378.232 106.28C377.992 106.587 377.872 107.06 377.872 107.7V108.6H380.452C380.586 108.6 380.692 108.647 380.772 108.74C380.866 108.82 380.912 108.927 380.912 109.06V109.74C380.912 109.873 380.866 109.987 380.772 110.08C380.692 110.16 380.586 110.2 380.452 110.2H377.872V118.54C377.872 118.673 377.826 118.787 377.732 118.88C377.652 118.96 377.546 119 377.412 119H376.472ZM390.021 119.2C389.367 119.2 388.761 119.067 388.201 118.8C387.641 118.533 387.194 118.173 386.861 117.72C386.541 117.253 386.381 116.74 386.381 116.18C386.381 115.3 386.741 114.58 387.461 114.02C388.194 113.447 389.181 113.073 390.421 112.9L393.401 112.48V111.9C393.401 110.54 392.621 109.86 391.061 109.86C390.474 109.86 389.994 109.987 389.621 110.24C389.247 110.48 388.967 110.767 388.781 111.1C388.741 111.22 388.687 111.307 388.621 111.36C388.567 111.413 388.487 111.44 388.381 111.44H387.521C387.401 111.44 387.294 111.4 387.201 111.32C387.121 111.227 387.081 111.12 387.081 111C387.094 110.68 387.241 110.32 387.521 109.92C387.814 109.507 388.261 109.153 388.861 108.86C389.461 108.553 390.201 108.4 391.081 108.4C392.574 108.4 393.647 108.753 394.301 109.46C394.954 110.153 395.281 111.02 395.281 112.06V118.54C395.281 118.673 395.234 118.787 395.141 118.88C395.061 118.96 394.954 119 394.821 119H393.901C393.767 119 393.654 118.96 393.561 118.88C393.481 118.787 393.441 118.673 393.441 118.54V117.68C393.147 118.107 392.721 118.467 392.161 118.76C391.601 119.053 390.887 119.2 390.021 119.2ZM390.441 117.7C391.307 117.7 392.014 117.42 392.561 116.86C393.121 116.287 393.401 115.467 393.401 114.4V113.84L391.081 114.18C390.134 114.313 389.421 114.54 388.941 114.86C388.461 115.167 388.221 115.56 388.221 116.04C388.221 116.573 388.441 116.987 388.881 117.28C389.321 117.56 389.841 117.7 390.441 117.7ZM398.616 119C398.482 119 398.369 118.96 398.276 118.88C398.196 118.787 398.156 118.673 398.156 118.54V109.06C398.156 108.927 398.196 108.82 398.276 108.74C398.369 108.647 398.482 108.6 398.616 108.6H399.516C399.649 108.6 399.756 108.647 399.836 108.74C399.929 108.82 399.976 108.927 399.976 109.06V109.76C400.669 108.853 401.636 108.4 402.876 108.4C404.356 108.4 405.402 109.013 406.016 110.24C406.336 109.68 406.789 109.233 407.376 108.9C407.962 108.567 408.622 108.4 409.356 108.4C410.449 108.4 411.342 108.773 412.036 109.52C412.729 110.267 413.076 111.347 413.076 112.76V118.54C413.076 118.673 413.029 118.787 412.936 118.88C412.856 118.96 412.749 119 412.616 119H411.676C411.542 119 411.429 118.96 411.336 118.88C411.256 118.787 411.216 118.673 411.216 118.54V112.94C411.216 111.9 410.996 111.153 410.556 110.7C410.129 110.247 409.562 110.02 408.856 110.02C408.229 110.02 407.689 110.253 407.236 110.72C406.782 111.173 406.556 111.913 406.556 112.94V118.54C406.556 118.673 406.509 118.787 406.416 118.88C406.336 118.96 406.229 119 406.096 119H405.156C405.022 119 404.909 118.96 404.816 118.88C404.736 118.787 404.696 118.673 404.696 118.54V112.94C404.696 111.9 404.469 111.153 404.016 110.7C403.576 110.247 403.016 110.02 402.336 110.02C401.709 110.02 401.169 110.253 400.716 110.72C400.262 111.173 400.036 111.907 400.036 112.92V118.54C400.036 118.673 399.989 118.787 399.896 118.88C399.816 118.96 399.709 119 399.576 119H398.616ZM418.829 119.2C418.176 119.2 417.569 119.067 417.009 118.8C416.449 118.533 416.003 118.173 415.669 117.72C415.349 117.253 415.189 116.74 415.189 116.18C415.189 115.3 415.549 114.58 416.269 114.02C417.003 113.447 417.989 113.073 419.229 112.9L422.209 112.48V111.9C422.209 110.54 421.429 109.86 419.869 109.86C419.283 109.86 418.803 109.987 418.429 110.24C418.056 110.48 417.776 110.767 417.589 111.1C417.549 111.22 417.496 111.307 417.429 111.36C417.376 111.413 417.296 111.44 417.189 111.44H416.329C416.209 111.44 416.103 111.4 416.009 111.32C415.929 111.227 415.889 111.12 415.889 111C415.903 110.68 416.049 110.32 416.329 109.92C416.623 109.507 417.069 109.153 417.669 108.86C418.269 108.553 419.009 108.4 419.889 108.4C421.383 108.4 422.456 108.753 423.109 109.46C423.763 110.153 424.089 111.02 424.089 112.06V118.54C424.089 118.673 424.043 118.787 423.949 118.88C423.869 118.96 423.763 119 423.629 119H422.709C422.576 119 422.463 118.96 422.369 118.88C422.289 118.787 422.249 118.673 422.249 118.54V117.68C421.956 118.107 421.529 118.467 420.969 118.76C420.409 119.053 419.696 119.2 418.829 119.2ZM419.249 117.7C420.116 117.7 420.823 117.42 421.369 116.86C421.929 116.287 422.209 115.467 422.209 114.4V113.84L419.889 114.18C418.943 114.313 418.229 114.54 417.749 114.86C417.269 115.167 417.029 115.56 417.029 116.04C417.029 116.573 417.249 116.987 417.689 117.28C418.129 117.56 418.649 117.7 419.249 117.7ZM426.764 119C426.631 119 426.518 118.96 426.424 118.88C426.344 118.787 426.304 118.673 426.304 118.54V117.84C426.304 117.733 426.331 117.627 426.384 117.52C426.451 117.4 426.518 117.293 426.584 117.2L432.104 110.18H426.944C426.811 110.18 426.698 110.14 426.604 110.06C426.524 109.967 426.484 109.853 426.484 109.72V109.06C426.484 108.927 426.524 108.82 426.604 108.74C426.698 108.647 426.811 108.6 426.944 108.6H434.064C434.198 108.6 434.304 108.647 434.384 108.74C434.478 108.82 434.524 108.927 434.524 109.06V109.8C434.524 109.907 434.491 110.013 434.424 110.12C434.371 110.227 434.311 110.327 434.244 110.42L428.784 117.42H434.464C434.611 117.42 434.724 117.46 434.804 117.54C434.884 117.62 434.924 117.733 434.924 117.88V118.54C434.924 118.673 434.878 118.787 434.784 118.88C434.704 118.96 434.598 119 434.464 119H426.764ZM437.44 106.66C437.307 106.66 437.193 106.62 437.1 106.54C437.02 106.447 436.98 106.333 436.98 106.2V105.12C436.98 104.987 437.02 104.873 437.1 104.78C437.193 104.687 437.307 104.64 437.44 104.64H438.7C438.833 104.64 438.947 104.687 439.04 104.78C439.133 104.873 439.18 104.987 439.18 105.12V106.2C439.18 106.333 439.133 106.447 439.04 106.54C438.947 106.62 438.833 106.66 438.7 106.66H437.44ZM437.6 119C437.467 119 437.353 118.96 437.26 118.88C437.18 118.787 437.14 118.673 437.14 118.54V109.06C437.14 108.927 437.18 108.82 437.26 108.74C437.353 108.647 437.467 108.6 437.6 108.6H438.56C438.693 108.6 438.8 108.647 438.88 108.74C438.973 108.82 439.02 108.927 439.02 109.06V118.54C439.02 118.673 438.973 118.787 438.88 118.88C438.8 118.96 438.693 119 438.56 119H437.6ZM442.444 119C442.311 119 442.197 118.96 442.104 118.88C442.024 118.787 441.984 118.673 441.984 118.54V109.06C441.984 108.927 442.024 108.82 442.104 108.74C442.197 108.647 442.311 108.6 442.444 108.6H443.384C443.517 108.6 443.624 108.647 443.704 108.74C443.797 108.82 443.844 108.927 443.844 109.06V109.94C444.231 109.447 444.684 109.067 445.204 108.8C445.737 108.533 446.397 108.4 447.184 108.4C448.464 108.4 449.457 108.813 450.164 109.64C450.884 110.453 451.244 111.54 451.244 112.9V118.54C451.244 118.673 451.197 118.787 451.104 118.88C451.024 118.96 450.917 119 450.784 119H449.784C449.651 119 449.537 118.96 449.444 118.88C449.364 118.787 449.324 118.673 449.324 118.54V113C449.324 112.053 449.091 111.32 448.624 110.8C448.171 110.28 447.511 110.02 446.644 110.02C445.804 110.02 445.137 110.287 444.644 110.82C444.151 111.34 443.904 112.067 443.904 113V118.54C443.904 118.673 443.857 118.787 443.764 118.88C443.684 118.96 443.577 119 443.444 119H442.444ZM458.373 123.4C457.279 123.4 456.399 123.213 455.733 122.84C455.066 122.48 454.593 122.067 454.313 121.6C454.033 121.133 453.879 120.713 453.853 120.34C453.839 120.207 453.879 120.093 453.973 120C454.079 119.907 454.193 119.86 454.313 119.86H455.273C455.393 119.86 455.493 119.887 455.573 119.94C455.653 120.007 455.719 120.12 455.773 120.28C455.933 120.707 456.193 121.073 456.553 121.38C456.926 121.7 457.499 121.86 458.273 121.86C459.259 121.86 459.986 121.647 460.453 121.22C460.919 120.807 461.153 120.067 461.153 119V117.64C460.806 118.08 460.366 118.433 459.833 118.7C459.299 118.953 458.666 119.08 457.933 119.08C456.519 119.08 455.459 118.633 454.753 117.74C454.059 116.833 453.693 115.687 453.653 114.3L453.633 113.74L453.653 113.2C453.693 111.827 454.066 110.687 454.773 109.78C455.479 108.86 456.533 108.4 457.933 108.4C459.333 108.4 460.426 108.913 461.213 109.94V109.08C461.213 108.947 461.253 108.833 461.333 108.74C461.426 108.647 461.539 108.6 461.673 108.6H462.593C462.726 108.6 462.839 108.647 462.933 108.74C463.026 108.833 463.073 108.947 463.073 109.08V118.78C463.073 121.86 461.506 123.4 458.373 123.4ZM458.333 117.48C459.239 117.48 459.926 117.18 460.393 116.58C460.859 115.98 461.113 115.267 461.153 114.44C461.166 114.32 461.173 114.087 461.173 113.74C461.173 113.407 461.166 113.18 461.153 113.06C461.113 112.233 460.859 111.52 460.393 110.92C459.939 110.32 459.253 110.02 458.333 110.02C457.386 110.02 456.699 110.313 456.273 110.9C455.846 111.487 455.613 112.26 455.573 113.22L455.553 113.74L455.573 114.28C455.613 115.227 455.846 116 456.273 116.6C456.699 117.187 457.386 117.48 458.333 117.48ZM471.409 119C471.275 119 471.162 118.96 471.069 118.88C470.989 118.787 470.949 118.673 470.949 118.54V109.08C470.949 108.947 470.989 108.833 471.069 108.74C471.162 108.647 471.275 108.6 471.409 108.6H472.329C472.462 108.6 472.575 108.647 472.669 108.74C472.762 108.833 472.809 108.947 472.809 109.08V109.96C473.355 109.053 474.289 108.6 475.609 108.6H476.389C476.522 108.6 476.629 108.647 476.709 108.74C476.802 108.82 476.849 108.927 476.849 109.06V109.88C476.849 110.013 476.802 110.12 476.709 110.2C476.629 110.28 476.522 110.32 476.389 110.32H475.189C474.469 110.32 473.902 110.533 473.489 110.96C473.075 111.373 472.869 111.94 472.869 112.66V118.54C472.869 118.673 472.822 118.787 472.729 118.88C472.635 118.96 472.522 119 472.389 119H471.409ZM482.511 119.2C481.138 119.2 480.038 118.78 479.211 117.94C478.398 117.087 477.951 115.927 477.871 114.46L477.851 113.78L477.871 113.12C477.964 111.68 478.418 110.533 479.231 109.68C480.058 108.827 481.144 108.4 482.491 108.4C483.971 108.4 485.118 108.873 485.931 109.82C486.744 110.753 487.151 112.02 487.151 113.62V113.96C487.151 114.093 487.104 114.207 487.011 114.3C486.931 114.38 486.824 114.42 486.691 114.42H479.771V114.6C479.811 115.467 480.071 116.207 480.551 116.82C481.044 117.42 481.691 117.72 482.491 117.72C483.104 117.72 483.604 117.6 483.991 117.36C484.391 117.107 484.684 116.847 484.871 116.58C484.991 116.42 485.078 116.327 485.131 116.3C485.198 116.26 485.311 116.24 485.471 116.24H486.451C486.571 116.24 486.671 116.273 486.751 116.34C486.831 116.407 486.871 116.5 486.871 116.62C486.871 116.913 486.684 117.267 486.311 117.68C485.951 118.093 485.438 118.453 484.771 118.76C484.118 119.053 483.364 119.2 482.511 119.2ZM485.251 113.04V112.98C485.251 112.06 484.998 111.313 484.491 110.74C483.998 110.153 483.331 109.86 482.491 109.86C481.651 109.86 480.984 110.153 480.491 110.74C480.011 111.313 479.771 112.06 479.771 112.98V113.04H485.251ZM493.743 119.2C492.316 119.2 491.196 118.8 490.383 118C489.583 117.187 489.156 116.053 489.103 114.6L489.083 113.8L489.103 113C489.156 111.547 489.583 110.42 490.383 109.62C491.196 108.807 492.316 108.4 493.743 108.4C494.703 108.4 495.516 108.573 496.183 108.92C496.849 109.267 497.343 109.693 497.663 110.2C497.996 110.707 498.176 111.213 498.203 111.72C498.216 111.853 498.176 111.96 498.083 112.04C497.989 112.12 497.876 112.16 497.743 112.16H496.783C496.649 112.16 496.549 112.133 496.483 112.08C496.416 112.027 496.349 111.92 496.283 111.76C496.056 111.12 495.736 110.667 495.323 110.4C494.909 110.12 494.389 109.98 493.763 109.98C492.936 109.98 492.276 110.24 491.783 110.76C491.303 111.267 491.043 112.047 491.002 113.1L490.983 113.82L491.002 114.5C491.043 115.567 491.303 116.353 491.783 116.86C492.263 117.367 492.923 117.62 493.763 117.62C494.389 117.62 494.909 117.487 495.323 117.22C495.736 116.94 496.056 116.48 496.283 115.84C496.349 115.68 496.416 115.573 496.483 115.52C496.549 115.453 496.649 115.42 496.783 115.42H497.743C497.876 115.42 497.989 115.467 498.083 115.56C498.176 115.64 498.216 115.747 498.203 115.88C498.176 116.373 497.996 116.88 497.663 117.4C497.343 117.907 496.849 118.333 496.183 118.68C495.529 119.027 494.716 119.2 493.743 119.2ZM500.878 106.66C500.744 106.66 500.631 106.62 500.538 106.54C500.458 106.447 500.418 106.333 500.418 106.2V105.12C500.418 104.987 500.458 104.873 500.538 104.78C500.631 104.687 500.744 104.64 500.878 104.64H502.138C502.271 104.64 502.384 104.687 502.478 104.78C502.571 104.873 502.618 104.987 502.618 105.12V106.2C502.618 106.333 502.571 106.447 502.478 106.54C502.384 106.62 502.271 106.66 502.138 106.66H500.878ZM501.038 119C500.904 119 500.791 118.96 500.698 118.88C500.618 118.787 500.578 118.673 500.578 118.54V109.06C500.578 108.927 500.618 108.82 500.698 108.74C500.791 108.647 500.904 108.6 501.038 108.6H501.998C502.131 108.6 502.238 108.647 502.318 108.74C502.411 108.82 502.458 108.927 502.458 109.06V118.54C502.458 118.673 502.411 118.787 502.318 118.88C502.238 118.96 502.131 119 501.998 119H501.038ZM505.901 122.8C505.768 122.8 505.655 122.753 505.561 122.66C505.481 122.58 505.441 122.473 505.441 122.34V109.06C505.441 108.927 505.481 108.82 505.561 108.74C505.655 108.647 505.768 108.6 505.901 108.6H506.821C506.955 108.6 507.061 108.647 507.141 108.74C507.235 108.82 507.281 108.927 507.281 109.06V109.94C508.028 108.913 509.121 108.4 510.561 108.4C511.961 108.4 513.008 108.84 513.701 109.72C514.408 110.6 514.788 111.733 514.841 113.12C514.855 113.267 514.861 113.493 514.861 113.8C514.861 114.107 514.855 114.333 514.841 114.48C514.788 115.853 514.408 116.987 513.701 117.88C512.995 118.76 511.948 119.2 510.561 119.2C509.175 119.2 508.095 118.7 507.321 117.7V122.34C507.321 122.473 507.281 122.58 507.201 122.66C507.121 122.753 507.015 122.8 506.881 122.8H505.901ZM510.141 117.58C511.088 117.58 511.775 117.287 512.201 116.7C512.641 116.113 512.881 115.34 512.921 114.38C512.935 114.247 512.941 114.053 512.941 113.8C512.941 111.28 512.008 110.02 510.141 110.02C509.221 110.02 508.528 110.327 508.061 110.94C507.608 111.54 507.361 112.26 507.321 113.1L507.301 113.86L507.321 114.64C507.348 115.427 507.601 116.113 508.081 116.7C508.561 117.287 509.248 117.58 510.141 117.58ZM521.495 119.2C520.122 119.2 519.022 118.78 518.195 117.94C517.382 117.087 516.935 115.927 516.855 114.46L516.835 113.78L516.855 113.12C516.949 111.68 517.402 110.533 518.215 109.68C519.042 108.827 520.129 108.4 521.475 108.4C522.955 108.4 524.102 108.873 524.915 109.82C525.729 110.753 526.135 112.02 526.135 113.62V113.96C526.135 114.093 526.089 114.207 525.995 114.3C525.915 114.38 525.809 114.42 525.675 114.42H518.755V114.6C518.795 115.467 519.055 116.207 519.535 116.82C520.029 117.42 520.675 117.72 521.475 117.72C522.089 117.72 522.589 117.6 522.975 117.36C523.375 117.107 523.669 116.847 523.855 116.58C523.975 116.42 524.062 116.327 524.115 116.3C524.182 116.26 524.295 116.24 524.455 116.24H525.435C525.555 116.24 525.655 116.273 525.735 116.34C525.815 116.407 525.855 116.5 525.855 116.62C525.855 116.913 525.669 117.267 525.295 117.68C524.935 118.093 524.422 118.453 523.755 118.76C523.102 119.053 522.349 119.2 521.495 119.2ZM524.235 113.04V112.98C524.235 112.06 523.982 111.313 523.475 110.74C522.982 110.153 522.315 109.86 521.475 109.86C520.635 109.86 519.969 110.153 519.475 110.74C518.995 111.313 518.755 112.06 518.755 112.98V113.04H524.235ZM532.127 119.2C531.194 119.2 530.407 119.053 529.767 118.76C529.14 118.453 528.667 118.107 528.347 117.72C528.04 117.333 527.887 117.013 527.887 116.76C527.887 116.627 527.934 116.527 528.027 116.46C528.134 116.38 528.24 116.34 528.347 116.34H529.247C529.38 116.34 529.5 116.407 529.607 116.54C529.927 116.913 530.274 117.207 530.647 117.42C531.02 117.633 531.52 117.74 532.147 117.74C532.84 117.74 533.4 117.607 533.827 117.34C534.267 117.06 534.487 116.68 534.487 116.2C534.487 115.88 534.394 115.62 534.207 115.42C534.034 115.207 533.727 115.027 533.287 114.88C532.86 114.72 532.22 114.547 531.367 114.36C530.207 114.107 529.38 113.74 528.887 113.26C528.407 112.78 528.167 112.16 528.167 111.4C528.167 110.893 528.314 110.413 528.607 109.96C528.914 109.493 529.354 109.12 529.927 108.84C530.514 108.547 531.214 108.4 532.027 108.4C532.88 108.4 533.607 108.54 534.207 108.82C534.807 109.1 535.254 109.433 535.547 109.82C535.854 110.193 536.007 110.507 536.007 110.76C536.007 110.88 535.96 110.98 535.867 111.06C535.787 111.14 535.687 111.18 535.567 111.18H534.727C534.567 111.18 534.434 111.113 534.327 110.98C534.114 110.727 533.927 110.533 533.767 110.4C533.62 110.253 533.4 110.127 533.107 110.02C532.827 109.913 532.467 109.86 532.027 109.86C531.387 109.86 530.894 110 530.547 110.28C530.2 110.547 530.027 110.9 530.027 111.34C530.027 111.62 530.1 111.86 530.247 112.06C530.394 112.247 530.674 112.42 531.087 112.58C531.514 112.74 532.127 112.907 532.927 113.08C534.194 113.347 535.087 113.733 535.607 114.24C536.14 114.733 536.407 115.367 536.407 116.14C536.407 116.713 536.24 117.233 535.907 117.7C535.574 118.167 535.08 118.533 534.427 118.8C533.787 119.067 533.02 119.2 532.127 119.2ZM538.582 120.5C538.476 120.5 538.389 120.46 538.322 120.38C538.269 120.3 538.249 120.2 538.262 120.08L538.722 117.22C538.776 116.833 538.962 116.64 539.282 116.64H540.622C540.716 116.64 540.789 116.673 540.842 116.74C540.909 116.807 540.942 116.887 540.942 116.98C540.942 117.047 540.922 117.153 540.882 117.3L539.822 120.04C539.756 120.2 539.682 120.313 539.602 120.38C539.522 120.46 539.402 120.5 539.242 120.5H538.582ZM552.235 119C550.129 119 549.075 117.827 549.075 115.48V110.2H547.515C547.382 110.2 547.269 110.16 547.175 110.08C547.095 109.987 547.055 109.873 547.055 109.74V109.06C547.055 108.927 547.095 108.82 547.175 108.74C547.269 108.647 547.382 108.6 547.515 108.6H549.075V105.26C549.075 105.127 549.115 105.02 549.195 104.94C549.289 104.847 549.402 104.8 549.535 104.8H550.475C550.609 104.8 550.715 104.847 550.795 104.94C550.889 105.02 550.935 105.127 550.935 105.26V108.6H553.415C553.549 108.6 553.655 108.647 553.735 108.74C553.829 108.82 553.875 108.927 553.875 109.06V109.74C553.875 109.873 553.829 109.987 553.735 110.08C553.655 110.16 553.549 110.2 553.415 110.2H550.935V115.34C550.935 116.007 551.049 116.513 551.275 116.86C551.502 117.193 551.875 117.36 552.395 117.36H553.615C553.749 117.36 553.855 117.407 553.935 117.5C554.029 117.58 554.075 117.687 554.075 117.82V118.54C554.075 118.673 554.029 118.787 553.935 118.88C553.855 118.96 553.749 119 553.615 119H552.235ZM556.468 119C556.334 119 556.221 118.96 556.128 118.88C556.048 118.787 556.008 118.673 556.008 118.54V105.26C556.008 105.127 556.048 105.02 556.128 104.94C556.221 104.847 556.334 104.8 556.468 104.8H557.468C557.601 104.8 557.708 104.847 557.788 104.94C557.881 105.02 557.928 105.127 557.928 105.26V109.92C558.314 109.427 558.768 109.053 559.288 108.8C559.808 108.533 560.454 108.4 561.228 108.4C562.508 108.4 563.501 108.813 564.208 109.64C564.928 110.453 565.288 111.54 565.288 112.9V118.54C565.288 118.673 565.241 118.787 565.148 118.88C565.068 118.96 564.961 119 564.828 119H563.828C563.694 119 563.581 118.96 563.488 118.88C563.408 118.787 563.368 118.673 563.368 118.54V113C563.368 112.053 563.134 111.32 562.668 110.8C562.214 110.28 561.554 110.02 560.688 110.02C559.848 110.02 559.174 110.287 558.668 110.82C558.174 111.34 557.928 112.067 557.928 113V118.54C557.928 118.673 557.881 118.787 557.788 118.88C557.708 118.96 557.601 119 557.468 119H556.468ZM568.475 106.66C568.342 106.66 568.229 106.62 568.135 106.54C568.055 106.447 568.015 106.333 568.015 106.2V105.12C568.015 104.987 568.055 104.873 568.135 104.78C568.229 104.687 568.342 104.64 568.475 104.64H569.735C569.869 104.64 569.982 104.687 570.075 104.78C570.169 104.873 570.215 104.987 570.215 105.12V106.2C570.215 106.333 570.169 106.447 570.075 106.54C569.982 106.62 569.869 106.66 569.735 106.66H568.475ZM568.635 119C568.502 119 568.389 118.96 568.295 118.88C568.215 118.787 568.175 118.673 568.175 118.54V109.06C568.175 108.927 568.215 108.82 568.295 108.74C568.389 108.647 568.502 108.6 568.635 108.6H569.595C569.729 108.6 569.835 108.647 569.915 108.74C570.009 108.82 570.055 108.927 570.055 109.06V118.54C570.055 118.673 570.009 118.787 569.915 118.88C569.835 118.96 569.729 119 569.595 119H568.635ZM576.619 119.2C575.686 119.2 574.899 119.053 574.259 118.76C573.632 118.453 573.159 118.107 572.839 117.72C572.532 117.333 572.379 117.013 572.379 116.76C572.379 116.627 572.426 116.527 572.519 116.46C572.626 116.38 572.732 116.34 572.839 116.34H573.739C573.872 116.34 573.992 116.407 574.099 116.54C574.419 116.913 574.766 117.207 575.139 117.42C575.512 117.633 576.012 117.74 576.639 117.74C577.332 117.74 577.892 117.607 578.319 117.34C578.759 117.06 578.979 116.68 578.979 116.2C578.979 115.88 578.886 115.62 578.699 115.42C578.526 115.207 578.219 115.027 577.779 114.88C577.352 114.72 576.712 114.547 575.859 114.36C574.699 114.107 573.872 113.74 573.379 113.26C572.899 112.78 572.659 112.16 572.659 111.4C572.659 110.893 572.806 110.413 573.099 109.96C573.406 109.493 573.846 109.12 574.419 108.84C575.006 108.547 575.706 108.4 576.519 108.4C577.372 108.4 578.099 108.54 578.699 108.82C579.299 109.1 579.746 109.433 580.039 109.82C580.346 110.193 580.499 110.507 580.499 110.76C580.499 110.88 580.452 110.98 580.359 111.06C580.279 111.14 580.179 111.18 580.059 111.18H579.219C579.059 111.18 578.926 111.113 578.819 110.98C578.606 110.727 578.419 110.533 578.259 110.4C578.112 110.253 577.892 110.127 577.599 110.02C577.319 109.913 576.959 109.86 576.519 109.86C575.879 109.86 575.386 110 575.039 110.28C574.692 110.547 574.519 110.9 574.519 111.34C574.519 111.62 574.592 111.86 574.739 112.06C574.886 112.247 575.166 112.42 575.579 112.58C576.006 112.74 576.619 112.907 577.419 113.08C578.686 113.347 579.579 113.733 580.099 114.24C580.632 114.733 580.899 115.367 580.899 116.14C580.899 116.713 580.732 117.233 580.399 117.7C580.066 118.167 579.572 118.533 578.919 118.8C578.279 119.067 577.512 119.2 576.619 119.2ZM593.257 119.2C591.817 119.2 590.723 118.7 589.977 117.7V118.54C589.977 118.673 589.93 118.787 589.837 118.88C589.757 118.96 589.65 119 589.517 119H588.597C588.463 119 588.35 118.96 588.257 118.88C588.177 118.787 588.137 118.673 588.137 118.54V105.26C588.137 105.127 588.177 105.02 588.257 104.94C588.35 104.847 588.463 104.8 588.597 104.8H589.577C589.71 104.8 589.817 104.847 589.897 104.94C589.977 105.02 590.017 105.127 590.017 105.26V109.86C590.803 108.887 591.883 108.4 593.257 108.4C594.643 108.4 595.69 108.86 596.397 109.78C597.103 110.687 597.483 111.827 597.537 113.2C597.55 113.347 597.557 113.547 597.557 113.8C597.557 114.053 597.55 114.253 597.537 114.4C597.483 115.787 597.103 116.933 596.397 117.84C595.69 118.747 594.643 119.2 593.257 119.2ZM592.837 117.58C593.783 117.58 594.47 117.287 594.897 116.7C595.337 116.113 595.577 115.34 595.617 114.38C595.63 114.247 595.637 114.053 595.637 113.8C595.637 111.28 594.703 110.02 592.837 110.02C591.943 110.02 591.257 110.313 590.777 110.9C590.297 111.487 590.043 112.173 590.017 112.96L589.997 113.74L590.017 114.5C590.057 115.34 590.303 116.067 590.757 116.68C591.223 117.28 591.917 117.58 592.837 117.58ZM604.271 119.2C602.805 119.2 601.665 118.787 600.851 117.96C600.051 117.133 599.625 116.033 599.571 114.66L599.551 113.8L599.571 112.94C599.625 111.58 600.058 110.487 600.871 109.66C601.685 108.82 602.818 108.4 604.271 108.4C605.725 108.4 606.858 108.82 607.671 109.66C608.485 110.487 608.918 111.58 608.971 112.94C608.985 113.087 608.991 113.373 608.991 113.8C608.991 114.227 608.985 114.513 608.971 114.66C608.918 116.033 608.485 117.133 607.671 117.96C606.871 118.787 605.738 119.2 604.271 119.2ZM604.271 117.66C605.111 117.66 605.771 117.393 606.251 116.86C606.745 116.327 607.011 115.56 607.051 114.56C607.065 114.427 607.071 114.173 607.071 113.8C607.071 113.427 607.065 113.173 607.051 113.04C607.011 112.04 606.745 111.273 606.251 110.74C605.771 110.207 605.111 109.94 604.271 109.94C603.431 109.94 602.765 110.207 602.271 110.74C601.778 111.273 601.518 112.04 601.491 113.04L601.471 113.8L601.491 114.56C601.518 115.56 601.778 116.327 602.271 116.86C602.765 117.393 603.431 117.66 604.271 117.66ZM615.756 119.2C614.289 119.2 613.149 118.787 612.336 117.96C611.536 117.133 611.109 116.033 611.056 114.66L611.036 113.8L611.056 112.94C611.109 111.58 611.542 110.487 612.356 109.66C613.169 108.82 614.302 108.4 615.756 108.4C617.209 108.4 618.342 108.82 619.156 109.66C619.969 110.487 620.402 111.58 620.456 112.94C620.469 113.087 620.476 113.373 620.476 113.8C620.476 114.227 620.469 114.513 620.456 114.66C620.402 116.033 619.969 117.133 619.156 117.96C618.356 118.787 617.222 119.2 615.756 119.2ZM615.756 117.66C616.596 117.66 617.256 117.393 617.736 116.86C618.229 116.327 618.496 115.56 618.536 114.56C618.549 114.427 618.556 114.173 618.556 113.8C618.556 113.427 618.549 113.173 618.536 113.04C618.496 112.04 618.229 111.273 617.736 110.74C617.256 110.207 616.596 109.94 615.756 109.94C614.916 109.94 614.249 110.207 613.756 110.74C613.262 111.273 613.002 112.04 612.976 113.04L612.956 113.8L612.976 114.56C613.002 115.56 613.262 116.327 613.756 116.86C614.249 117.393 614.916 117.66 615.756 117.66ZM623.46 119C623.327 119 623.213 118.96 623.12 118.88C623.04 118.787 623 118.673 623 118.54V105.26C623 105.127 623.04 105.02 623.12 104.94C623.213 104.847 623.327 104.8 623.46 104.8H624.4C624.533 104.8 624.64 104.847 624.72 104.94C624.813 105.02 624.86 105.127 624.86 105.26V112.22L628.8 108.94C628.84 108.913 628.907 108.86 629 108.78C629.093 108.713 629.18 108.667 629.26 108.64C629.353 108.613 629.467 108.6 629.6 108.6H630.66C630.78 108.6 630.88 108.64 630.96 108.72C631.04 108.8 631.08 108.9 631.08 109.02C631.08 109.167 631 109.293 630.84 109.4L626.22 113.24L631.34 118.22C631.5 118.353 631.58 118.473 631.58 118.58C631.58 118.7 631.54 118.8 631.46 118.88C631.38 118.96 631.28 119 631.16 119H630.12C629.92 119 629.773 118.98 629.68 118.94C629.6 118.9 629.48 118.807 629.32 118.66L624.86 114.4V118.54C624.86 118.673 624.813 118.787 624.72 118.88C624.64 118.96 624.533 119 624.4 119H623.46ZM640.291 119C640.117 119 639.984 118.96 639.891 118.88C639.797 118.8 639.717 118.673 639.651 118.5L636.811 109.22L636.771 109.02C636.771 108.9 636.811 108.8 636.891 108.72C636.984 108.64 637.084 108.6 637.191 108.6H638.071C638.204 108.6 638.311 108.64 638.391 108.72C638.484 108.787 638.544 108.86 638.571 108.94L640.791 116.48L643.171 109.02C643.197 108.913 643.257 108.82 643.351 108.74C643.444 108.647 643.571 108.6 643.731 108.6H644.411C644.571 108.6 644.697 108.647 644.791 108.74C644.884 108.82 644.944 108.913 644.971 109.02L647.351 116.48L649.571 108.94C649.584 108.873 649.631 108.8 649.711 108.72C649.804 108.64 649.917 108.6 650.051 108.6H650.951C651.057 108.6 651.151 108.64 651.231 108.72C651.311 108.8 651.351 108.9 651.351 109.02L651.311 109.22L648.491 118.5C648.424 118.673 648.344 118.8 648.251 118.88C648.157 118.96 648.017 119 647.831 119H647.051C646.691 119 646.471 118.833 646.391 118.5L644.071 111.34L641.751 118.5C641.644 118.833 641.417 119 641.071 119H640.291ZM653.866 106.66C653.733 106.66 653.619 106.62 653.526 106.54C653.446 106.447 653.406 106.333 653.406 106.2V105.12C653.406 104.987 653.446 104.873 653.526 104.78C653.619 104.687 653.733 104.64 653.866 104.64H655.126C655.259 104.64 655.373 104.687 655.466 104.78C655.559 104.873 655.606 104.987 655.606 105.12V106.2C655.606 106.333 655.559 106.447 655.466 106.54C655.373 106.62 655.259 106.66 655.126 106.66H653.866ZM654.026 119C653.893 119 653.779 118.96 653.686 118.88C653.606 118.787 653.566 118.673 653.566 118.54V109.06C653.566 108.927 653.606 108.82 653.686 108.74C653.779 108.647 653.893 108.6 654.026 108.6H654.986C655.119 108.6 655.226 108.647 655.306 108.74C655.399 108.82 655.446 108.927 655.446 109.06V118.54C655.446 118.673 655.399 118.787 655.306 118.88C655.226 118.96 655.119 119 654.986 119H654.026ZM658.89 119C658.756 119 658.643 118.96 658.55 118.88C658.47 118.787 658.43 118.673 658.43 118.54V105.26C658.43 105.127 658.47 105.02 658.55 104.94C658.643 104.847 658.756 104.8 658.89 104.8H659.83C659.963 104.8 660.07 104.847 660.15 104.94C660.243 105.02 660.29 105.127 660.29 105.26V118.54C660.29 118.673 660.243 118.787 660.15 118.88C660.07 118.96 659.963 119 659.83 119H658.89ZM663.753 119C663.62 119 663.506 118.96 663.413 118.88C663.333 118.787 663.293 118.673 663.293 118.54V105.26C663.293 105.127 663.333 105.02 663.413 104.94C663.506 104.847 663.62 104.8 663.753 104.8H664.693C664.826 104.8 664.933 104.847 665.013 104.94C665.106 105.02 665.153 105.127 665.153 105.26V118.54C665.153 118.673 665.106 118.787 665.013 118.88C664.933 118.96 664.826 119 664.693 119H663.753ZM329.68 143.2C328.253 143.2 327.133 142.8 326.32 142C325.52 141.187 325.093 140.053 325.04 138.6L325.02 137.8L325.04 137C325.093 135.547 325.52 134.42 326.32 133.62C327.133 132.807 328.253 132.4 329.68 132.4C330.64 132.4 331.453 132.573 332.12 132.92C332.787 133.267 333.28 133.693 333.6 134.2C333.933 134.707 334.113 135.213 334.14 135.72C334.153 135.853 334.113 135.96 334.02 136.04C333.927 136.12 333.813 136.16 333.68 136.16H332.72C332.587 136.16 332.487 136.133 332.42 136.08C332.353 136.027 332.287 135.92 332.22 135.76C331.993 135.12 331.673 134.667 331.26 134.4C330.847 134.12 330.327 133.98 329.7 133.98C328.873 133.98 328.213 134.24 327.72 134.76C327.24 135.267 326.98 136.047 326.94 137.1L326.92 137.82L326.94 138.5C326.98 139.567 327.24 140.353 327.72 140.86C328.2 141.367 328.86 141.62 329.7 141.62C330.327 141.62 330.847 141.487 331.26 141.22C331.673 140.94 331.993 140.48 332.22 139.84C332.287 139.68 332.353 139.573 332.42 139.52C332.487 139.453 332.587 139.42 332.72 139.42H333.68C333.813 139.42 333.927 139.467 334.02 139.56C334.113 139.64 334.153 139.747 334.14 139.88C334.113 140.373 333.933 140.88 333.6 141.4C333.28 141.907 332.787 142.333 332.12 142.68C331.467 143.027 330.653 143.2 329.68 143.2ZM336.995 143C336.862 143 336.748 142.96 336.655 142.88C336.575 142.787 336.535 142.673 336.535 142.54V129.26C336.535 129.127 336.575 129.02 336.655 128.94C336.748 128.847 336.862 128.8 336.995 128.8H337.995C338.128 128.8 338.235 128.847 338.315 128.94C338.408 129.02 338.455 129.127 338.455 129.26V133.92C338.842 133.427 339.295 133.053 339.815 132.8C340.335 132.533 340.982 132.4 341.755 132.4C343.035 132.4 344.028 132.813 344.735 133.64C345.455 134.453 345.815 135.54 345.815 136.9V142.54C345.815 142.673 345.768 142.787 345.675 142.88C345.595 142.96 345.488 143 345.355 143H344.355C344.222 143 344.108 142.96 344.015 142.88C343.935 142.787 343.895 142.673 343.895 142.54V137C343.895 136.053 343.662 135.32 343.195 134.8C342.742 134.28 342.082 134.02 341.215 134.02C340.375 134.02 339.702 134.287 339.195 134.82C338.702 135.34 338.455 136.067 338.455 137V142.54C338.455 142.673 338.408 142.787 338.315 142.88C338.235 142.96 338.128 143 337.995 143H336.995ZM351.603 143.2C350.949 143.2 350.343 143.067 349.783 142.8C349.223 142.533 348.776 142.173 348.443 141.72C348.123 141.253 347.963 140.74 347.963 140.18C347.963 139.3 348.323 138.58 349.043 138.02C349.776 137.447 350.763 137.073 352.003 136.9L354.983 136.48V135.9C354.983 134.54 354.203 133.86 352.643 133.86C352.056 133.86 351.576 133.987 351.203 134.24C350.829 134.48 350.549 134.767 350.363 135.1C350.323 135.22 350.269 135.307 350.203 135.36C350.149 135.413 350.069 135.44 349.963 135.44H349.103C348.983 135.44 348.876 135.4 348.783 135.32C348.703 135.227 348.663 135.12 348.663 135C348.676 134.68 348.823 134.32 349.103 133.92C349.396 133.507 349.843 133.153 350.443 132.86C351.043 132.553 351.783 132.4 352.663 132.4C354.156 132.4 355.229 132.753 355.883 133.46C356.536 134.153 356.863 135.02 356.863 136.06V142.54C356.863 142.673 356.816 142.787 356.723 142.88C356.643 142.96 356.536 143 356.403 143H355.483C355.349 143 355.236 142.96 355.143 142.88C355.063 142.787 355.023 142.673 355.023 142.54V141.68C354.729 142.107 354.303 142.467 353.743 142.76C353.183 143.053 352.469 143.2 351.603 143.2ZM352.023 141.7C352.889 141.7 353.596 141.42 354.143 140.86C354.703 140.287 354.983 139.467 354.983 138.4V137.84L352.663 138.18C351.716 138.313 351.003 138.54 350.523 138.86C350.043 139.167 349.803 139.56 349.803 140.04C349.803 140.573 350.023 140.987 350.463 141.28C350.903 141.56 351.423 141.7 352.023 141.7ZM360.198 143C360.064 143 359.951 142.96 359.858 142.88C359.778 142.787 359.738 142.673 359.738 142.54V133.06C359.738 132.927 359.778 132.82 359.858 132.74C359.951 132.647 360.064 132.6 360.198 132.6H361.138C361.271 132.6 361.378 132.647 361.458 132.74C361.551 132.82 361.598 132.927 361.598 133.06V133.94C361.984 133.447 362.438 133.067 362.958 132.8C363.491 132.533 364.151 132.4 364.938 132.4C366.218 132.4 367.211 132.813 367.918 133.64C368.638 134.453 368.998 135.54 368.998 136.9V142.54C368.998 142.673 368.951 142.787 368.858 142.88C368.778 142.96 368.671 143 368.538 143H367.538C367.404 143 367.291 142.96 367.198 142.88C367.118 142.787 367.078 142.673 367.078 142.54V137C367.078 136.053 366.844 135.32 366.378 134.8C365.924 134.28 365.264 134.02 364.398 134.02C363.558 134.02 362.891 134.287 362.398 134.82C361.904 135.34 361.658 136.067 361.658 137V142.54C361.658 142.673 361.611 142.787 361.518 142.88C361.438 142.96 361.331 143 361.198 143H360.198ZM376.127 147.4C375.033 147.4 374.153 147.213 373.487 146.84C372.82 146.48 372.347 146.067 372.067 145.6C371.787 145.133 371.633 144.713 371.607 144.34C371.593 144.207 371.633 144.093 371.727 144C371.833 143.907 371.947 143.86 372.067 143.86H373.027C373.147 143.86 373.247 143.887 373.327 143.94C373.407 144.007 373.473 144.12 373.527 144.28C373.687 144.707 373.947 145.073 374.307 145.38C374.68 145.7 375.253 145.86 376.027 145.86C377.013 145.86 377.74 145.647 378.207 145.22C378.673 144.807 378.907 144.067 378.907 143V141.64C378.56 142.08 378.12 142.433 377.587 142.7C377.053 142.953 376.42 143.08 375.687 143.08C374.273 143.08 373.213 142.633 372.507 141.74C371.813 140.833 371.447 139.687 371.407 138.3L371.387 137.74L371.407 137.2C371.447 135.827 371.82 134.687 372.527 133.78C373.233 132.86 374.287 132.4 375.687 132.4C377.087 132.4 378.18 132.913 378.967 133.94V133.08C378.967 132.947 379.007 132.833 379.087 132.74C379.18 132.647 379.293 132.6 379.427 132.6H380.347C380.48 132.6 380.593 132.647 380.687 132.74C380.78 132.833 380.827 132.947 380.827 133.08V142.78C380.827 145.86 379.26 147.4 376.127 147.4ZM376.087 141.48C376.993 141.48 377.68 141.18 378.147 140.58C378.613 139.98 378.867 139.267 378.907 138.44C378.92 138.32 378.927 138.087 378.927 137.74C378.927 137.407 378.92 137.18 378.907 137.06C378.867 136.233 378.613 135.52 378.147 134.92C377.693 134.32 377.007 134.02 376.087 134.02C375.14 134.02 374.453 134.313 374.027 134.9C373.6 135.487 373.367 136.26 373.327 137.22L373.307 137.74L373.327 138.28C373.367 139.227 373.6 140 374.027 140.6C374.453 141.187 375.14 141.48 376.087 141.48ZM387.96 143.2C386.587 143.2 385.487 142.78 384.66 141.94C383.847 141.087 383.4 139.927 383.32 138.46L383.3 137.78L383.32 137.12C383.414 135.68 383.867 134.533 384.68 133.68C385.507 132.827 386.594 132.4 387.94 132.4C389.42 132.4 390.567 132.873 391.38 133.82C392.194 134.753 392.6 136.02 392.6 137.62V137.96C392.6 138.093 392.554 138.207 392.46 138.3C392.38 138.38 392.274 138.42 392.14 138.42H385.22V138.6C385.26 139.467 385.52 140.207 386 140.82C386.494 141.42 387.14 141.72 387.94 141.72C388.554 141.72 389.054 141.6 389.44 141.36C389.84 141.107 390.134 140.847 390.32 140.58C390.44 140.42 390.527 140.327 390.58 140.3C390.647 140.26 390.76 140.24 390.92 140.24H391.9C392.02 140.24 392.12 140.273 392.2 140.34C392.28 140.407 392.32 140.5 392.32 140.62C392.32 140.913 392.134 141.267 391.76 141.68C391.4 142.093 390.887 142.453 390.22 142.76C389.567 143.053 388.814 143.2 387.96 143.2ZM390.7 137.04V136.98C390.7 136.06 390.447 135.313 389.94 134.74C389.447 134.153 388.78 133.86 387.94 133.86C387.1 133.86 386.434 134.153 385.94 134.74C385.46 135.313 385.22 136.06 385.22 136.98V137.04H390.7ZM401.167 146.8C401.061 146.8 400.967 146.76 400.887 146.68C400.807 146.6 400.767 146.507 400.767 146.4C400.767 146.307 400.801 146.187 400.867 146.04L402.407 142.38L398.587 133.36C398.521 133.187 398.487 133.073 398.487 133.02C398.487 132.9 398.527 132.8 398.607 132.72C398.687 132.64 398.787 132.6 398.907 132.6H399.887C400.101 132.6 400.261 132.713 400.367 132.94L403.407 140.22L406.527 132.94C406.634 132.713 406.801 132.6 407.027 132.6H407.967C408.087 132.6 408.187 132.64 408.267 132.72C408.347 132.8 408.387 132.893 408.387 133C408.387 133.04 408.354 133.16 408.287 133.36L402.607 146.46C402.501 146.687 402.334 146.8 402.107 146.8H401.167ZM414.291 143.2C412.824 143.2 411.684 142.787 410.871 141.96C410.071 141.133 409.644 140.033 409.591 138.66L409.571 137.8L409.591 136.94C409.644 135.58 410.077 134.487 410.891 133.66C411.704 132.82 412.837 132.4 414.291 132.4C415.744 132.4 416.877 132.82 417.691 133.66C418.504 134.487 418.937 135.58 418.991 136.94C419.004 137.087 419.011 137.373 419.011 137.8C419.011 138.227 419.004 138.513 418.991 138.66C418.937 140.033 418.504 141.133 417.691 141.96C416.891 142.787 415.757 143.2 414.291 143.2ZM414.291 141.66C415.131 141.66 415.791 141.393 416.271 140.86C416.764 140.327 417.031 139.56 417.071 138.56C417.084 138.427 417.091 138.173 417.091 137.8C417.091 137.427 417.084 137.173 417.071 137.04C417.031 136.04 416.764 135.273 416.271 134.74C415.791 134.207 415.131 133.94 414.291 133.94C413.451 133.94 412.784 134.207 412.291 134.74C411.797 135.273 411.537 136.04 411.511 137.04L411.491 137.8L411.511 138.56C411.537 139.56 411.797 140.327 412.291 140.86C412.784 141.393 413.451 141.66 414.291 141.66ZM425.395 143.2C424.128 143.2 423.148 142.793 422.455 141.98C421.762 141.153 421.415 140.06 421.415 138.7V133.06C421.415 132.927 421.455 132.82 421.535 132.74C421.628 132.647 421.742 132.6 421.875 132.6H422.875C423.008 132.6 423.115 132.647 423.195 132.74C423.288 132.82 423.335 132.927 423.335 133.06V138.6C423.335 140.587 424.202 141.58 425.935 141.58C426.775 141.58 427.442 141.32 427.935 140.8C428.428 140.267 428.675 139.533 428.675 138.6V133.06C428.675 132.927 428.715 132.82 428.795 132.74C428.888 132.647 429.002 132.6 429.135 132.6H430.135C430.268 132.6 430.375 132.647 430.455 132.74C430.535 132.82 430.575 132.927 430.575 133.06V142.54C430.575 142.673 430.535 142.787 430.455 142.88C430.375 142.96 430.268 143 430.135 143H429.195C429.062 143 428.948 142.96 428.855 142.88C428.775 142.787 428.735 142.673 428.735 142.54V141.66C428.362 142.167 427.908 142.553 427.375 142.82C426.842 143.073 426.182 143.2 425.395 143.2ZM434.006 143C433.873 143 433.76 142.96 433.666 142.88C433.586 142.787 433.546 142.673 433.546 142.54V133.08C433.546 132.947 433.586 132.833 433.666 132.74C433.76 132.647 433.873 132.6 434.006 132.6H434.926C435.06 132.6 435.173 132.647 435.266 132.74C435.36 132.833 435.406 132.947 435.406 133.08V133.96C435.953 133.053 436.886 132.6 438.206 132.6H438.986C439.12 132.6 439.226 132.647 439.306 132.74C439.4 132.82 439.446 132.927 439.446 133.06V133.88C439.446 134.013 439.4 134.12 439.306 134.2C439.226 134.28 439.12 134.32 438.986 134.32H437.786C437.066 134.32 436.5 134.533 436.086 134.96C435.673 135.373 435.466 135.94 435.466 136.66V142.54C435.466 142.673 435.42 142.787 435.326 142.88C435.233 142.96 435.12 143 434.986 143H434.006ZM446.058 143C445.924 143 445.811 142.96 445.718 142.88C445.638 142.787 445.598 142.673 445.598 142.54V129.26C445.598 129.127 445.638 129.02 445.718 128.94C445.811 128.847 445.924 128.8 446.058 128.8H446.998C447.131 128.8 447.238 128.847 447.318 128.94C447.411 129.02 447.458 129.127 447.458 129.26V142.54C447.458 142.673 447.411 142.787 447.318 142.88C447.238 142.96 447.131 143 446.998 143H446.058ZM450.741 130.66C450.608 130.66 450.494 130.62 450.401 130.54C450.321 130.447 450.281 130.333 450.281 130.2V129.12C450.281 128.987 450.321 128.873 450.401 128.78C450.494 128.687 450.608 128.64 450.741 128.64H452.001C452.134 128.64 452.248 128.687 452.341 128.78C452.434 128.873 452.481 128.987 452.481 129.12V130.2C452.481 130.333 452.434 130.447 452.341 130.54C452.248 130.62 452.134 130.66 452.001 130.66H450.741ZM450.901 143C450.768 143 450.654 142.96 450.561 142.88C450.481 142.787 450.441 142.673 450.441 142.54V133.06C450.441 132.927 450.481 132.82 450.561 132.74C450.654 132.647 450.768 132.6 450.901 132.6H451.861C451.994 132.6 452.101 132.647 452.181 132.74C452.274 132.82 452.321 132.927 452.321 133.06V142.54C452.321 142.673 452.274 142.787 452.181 142.88C452.101 142.96 451.994 143 451.861 143H450.901ZM456.785 143C456.651 143 456.538 142.96 456.445 142.88C456.365 142.787 456.325 142.673 456.325 142.54V134.2H454.625C454.491 134.2 454.378 134.16 454.285 134.08C454.205 133.987 454.165 133.873 454.165 133.74V133.06C454.165 132.927 454.205 132.82 454.285 132.74C454.378 132.647 454.491 132.6 454.625 132.6H456.325V131.6C456.325 129.333 457.471 128.2 459.765 128.2H460.965C461.098 128.2 461.205 128.247 461.285 128.34C461.378 128.42 461.425 128.527 461.425 128.66V129.34C461.425 129.473 461.378 129.587 461.285 129.68C461.205 129.76 461.098 129.8 460.965 129.8H459.805C459.205 129.8 458.785 129.96 458.545 130.28C458.305 130.587 458.185 131.06 458.185 131.7V132.6H460.765C460.898 132.6 461.005 132.647 461.085 132.74C461.178 132.82 461.225 132.927 461.225 133.06V133.74C461.225 133.873 461.178 133.987 461.085 134.08C461.005 134.16 460.898 134.2 460.765 134.2H458.185V142.54C458.185 142.673 458.138 142.787 458.045 142.88C457.965 142.96 457.858 143 457.725 143H456.785ZM466.945 143.2C465.571 143.2 464.471 142.78 463.645 141.94C462.831 141.087 462.385 139.927 462.305 138.46L462.285 137.78L462.305 137.12C462.398 135.68 462.851 134.533 463.665 133.68C464.491 132.827 465.578 132.4 466.925 132.4C468.405 132.4 469.551 132.873 470.365 133.82C471.178 134.753 471.585 136.02 471.585 137.62V137.96C471.585 138.093 471.538 138.207 471.445 138.3C471.365 138.38 471.258 138.42 471.125 138.42H464.205V138.6C464.245 139.467 464.505 140.207 464.985 140.82C465.478 141.42 466.125 141.72 466.925 141.72C467.538 141.72 468.038 141.6 468.425 141.36C468.825 141.107 469.118 140.847 469.305 140.58C469.425 140.42 469.511 140.327 469.565 140.3C469.631 140.26 469.745 140.24 469.905 140.24H470.885C471.005 140.24 471.105 140.273 471.185 140.34C471.265 140.407 471.305 140.5 471.305 140.62C471.305 140.913 471.118 141.267 470.745 141.68C470.385 142.093 469.871 142.453 469.205 142.76C468.551 143.053 467.798 143.2 466.945 143.2ZM469.685 137.04V136.98C469.685 136.06 469.431 135.313 468.925 134.74C468.431 134.153 467.765 133.86 466.925 133.86C466.085 133.86 465.418 134.153 464.925 134.74C464.445 135.313 464.205 136.06 464.205 136.98V137.04H469.685ZM474.296 143C474.163 143 474.049 142.96 473.956 142.88C473.876 142.787 473.836 142.673 473.836 142.54V141.1C473.836 140.967 473.876 140.86 473.956 140.78C474.049 140.687 474.163 140.64 474.296 140.64H475.736C475.869 140.64 475.983 140.687 476.076 140.78C476.169 140.86 476.216 140.967 476.216 141.1V142.54C476.216 142.673 476.169 142.787 476.076 142.88C475.983 142.96 475.869 143 475.736 143H474.296Z" fill="#7C7C7C"/>
<path d="M484.478 143C484.344 143 484.231 142.953 484.138 142.86C484.044 142.767 483.998 142.653 483.998 142.52V129.5C483.998 129.353 484.038 129.233 484.118 129.14C484.211 129.047 484.331 129 484.478 129H489.358C493.278 129 495.278 130.813 495.358 134.44C495.384 135.213 495.398 135.733 495.398 136C495.398 136.253 495.384 136.767 495.358 137.54C495.304 139.407 494.804 140.787 493.858 141.68C492.911 142.56 491.444 143 489.458 143H484.478ZM489.358 140.7C490.478 140.7 491.284 140.453 491.778 139.96C492.271 139.453 492.531 138.627 492.558 137.48C492.584 136.68 492.598 136.18 492.598 135.98C492.598 135.767 492.584 135.273 492.558 134.5C492.531 133.407 492.251 132.6 491.718 132.08C491.198 131.56 490.378 131.3 489.258 131.3H486.778V140.7H489.358ZM502.42 143.2C500.86 143.2 499.653 142.8 498.8 142C497.947 141.187 497.487 140.08 497.42 138.68L497.4 137.8L497.42 136.92C497.487 135.533 497.953 134.433 498.82 133.62C499.687 132.807 500.887 132.4 502.42 132.4C503.953 132.4 505.153 132.807 506.02 133.62C506.887 134.433 507.353 135.533 507.42 136.92C507.433 137.08 507.44 137.373 507.44 137.8C507.44 138.227 507.433 138.52 507.42 138.68C507.353 140.08 506.893 141.187 506.04 142C505.187 142.8 503.98 143.2 502.42 143.2ZM502.42 141.22C503.127 141.22 503.673 141 504.06 140.56C504.447 140.107 504.66 139.447 504.7 138.58C504.713 138.447 504.72 138.187 504.72 137.8C504.72 137.413 504.713 137.153 504.7 137.02C504.66 136.153 504.447 135.5 504.06 135.06C503.673 134.607 503.127 134.38 502.42 134.38C501.713 134.38 501.167 134.607 500.78 135.06C500.393 135.5 500.18 136.153 500.14 137.02L500.12 137.8L500.14 138.58C500.18 139.447 500.393 140.107 500.78 140.56C501.167 141 501.713 141.22 502.42 141.22ZM512.203 143C512.03 143 511.89 142.96 511.783 142.88C511.69 142.787 511.61 142.66 511.543 142.5L508.683 133.22C508.67 133.18 508.663 133.12 508.663 133.04C508.663 132.92 508.703 132.82 508.783 132.74C508.876 132.647 508.976 132.6 509.083 132.6H510.563C510.71 132.6 510.83 132.64 510.923 132.72C511.016 132.8 511.076 132.887 511.103 132.98L513.063 139.6L515.143 133.04C515.183 132.92 515.25 132.82 515.343 132.74C515.45 132.647 515.583 132.6 515.743 132.6H516.743C516.903 132.6 517.03 132.647 517.123 132.74C517.23 132.82 517.303 132.92 517.343 133.04L519.423 139.6L521.383 132.98C521.396 132.887 521.45 132.8 521.543 132.72C521.65 132.64 521.77 132.6 521.903 132.6H523.383C523.503 132.6 523.603 132.647 523.683 132.74C523.776 132.82 523.823 132.92 523.823 133.04L523.783 133.22L520.923 142.5C520.87 142.66 520.79 142.787 520.683 142.88C520.59 142.96 520.456 143 520.283 143H518.983C518.636 143 518.416 142.833 518.323 142.5L516.243 136.18L514.163 142.5C514.056 142.833 513.83 143 513.483 143H512.203ZM526.249 143C526.116 143 526.003 142.953 525.909 142.86C525.816 142.767 525.769 142.653 525.769 142.52V133.08C525.769 132.947 525.816 132.833 525.909 132.74C526.003 132.647 526.116 132.6 526.249 132.6H527.889C528.023 132.6 528.136 132.647 528.229 132.74C528.323 132.833 528.369 132.947 528.369 133.08V133.9C529.156 132.9 530.269 132.4 531.709 132.4C532.936 132.4 533.909 132.807 534.629 133.62C535.349 134.42 535.709 135.513 535.709 136.9V142.52C535.709 142.653 535.663 142.767 535.569 142.86C535.489 142.953 535.376 143 535.229 143H533.469C533.336 143 533.223 142.953 533.129 142.86C533.036 142.767 532.989 142.653 532.989 142.52V137.02C532.989 136.233 532.796 135.627 532.409 135.2C532.036 134.76 531.489 134.54 530.769 134.54C530.063 134.54 529.503 134.76 529.089 135.2C528.689 135.64 528.489 136.247 528.489 137.02V142.52C528.489 142.653 528.443 142.767 528.349 142.86C528.269 142.953 528.156 143 528.009 143H526.249ZM538.75 143C538.616 143 538.503 142.953 538.41 142.86C538.316 142.767 538.27 142.653 538.27 142.52V129.28C538.27 129.133 538.316 129.02 538.41 128.94C538.503 128.847 538.616 128.8 538.75 128.8H540.41C540.556 128.8 540.67 128.847 540.75 128.94C540.843 129.02 540.89 129.133 540.89 129.28V142.52C540.89 142.653 540.843 142.767 540.75 142.86C540.67 142.953 540.556 143 540.41 143H538.75ZM548.143 143.2C546.583 143.2 545.376 142.8 544.523 142C543.669 141.187 543.209 140.08 543.143 138.68L543.123 137.8L543.143 136.92C543.209 135.533 543.676 134.433 544.543 133.62C545.409 132.807 546.609 132.4 548.143 132.4C549.676 132.4 550.876 132.807 551.743 133.62C552.609 134.433 553.076 135.533 553.143 136.92C553.156 137.08 553.163 137.373 553.163 137.8C553.163 138.227 553.156 138.52 553.143 138.68C553.076 140.08 552.616 141.187 551.763 142C550.909 142.8 549.703 143.2 548.143 143.2ZM548.143 141.22C548.849 141.22 549.396 141 549.783 140.56C550.169 140.107 550.383 139.447 550.423 138.58C550.436 138.447 550.443 138.187 550.443 137.8C550.443 137.413 550.436 137.153 550.423 137.02C550.383 136.153 550.169 135.5 549.783 135.06C549.396 134.607 548.849 134.38 548.143 134.38C547.436 134.38 546.889 134.607 546.503 135.06C546.116 135.5 545.903 136.153 545.863 137.02L545.843 137.8L545.863 138.58C545.903 139.447 546.116 140.107 546.503 140.56C546.889 141 547.436 141.22 548.143 141.22ZM558.399 143.2C557.719 143.2 557.092 143.067 556.519 142.8C555.959 142.52 555.512 142.147 555.179 141.68C554.859 141.213 554.699 140.7 554.699 140.14C554.699 139.233 555.065 138.5 555.799 137.94C556.532 137.38 557.539 137 558.819 136.8L561.559 136.4V135.98C561.559 135.393 561.412 134.953 561.119 134.66C560.825 134.367 560.352 134.22 559.699 134.22C559.259 134.22 558.899 134.307 558.619 134.48C558.352 134.64 558.139 134.8 557.979 134.96C557.819 135.133 557.712 135.247 557.659 135.3C557.605 135.46 557.505 135.54 557.359 135.54H555.819C555.699 135.54 555.592 135.5 555.499 135.42C555.419 135.34 555.379 135.233 555.379 135.1C555.392 134.767 555.552 134.387 555.859 133.96C556.179 133.533 556.665 133.167 557.319 132.86C557.972 132.553 558.772 132.4 559.719 132.4C561.292 132.4 562.439 132.753 563.159 133.46C563.879 134.167 564.239 135.093 564.239 136.24V142.52C564.239 142.653 564.192 142.767 564.099 142.86C564.019 142.953 563.905 143 563.759 143H562.139C562.005 143 561.892 142.953 561.799 142.86C561.705 142.767 561.659 142.653 561.659 142.52V141.74C561.365 142.167 560.945 142.52 560.399 142.8C559.865 143.067 559.199 143.2 558.399 143.2ZM559.079 141.3C559.812 141.3 560.412 141.06 560.879 140.58C561.345 140.1 561.579 139.4 561.579 138.48V138.06L559.579 138.38C558.805 138.5 558.219 138.693 557.819 138.96C557.432 139.227 557.239 139.553 557.239 139.94C557.239 140.367 557.419 140.7 557.779 140.94C558.139 141.18 558.572 141.3 559.079 141.3ZM570.664 143.2C569.318 143.2 568.284 142.767 567.564 141.9C566.844 141.033 566.458 139.88 566.404 138.44L566.384 137.78L566.404 137.14C566.444 135.74 566.824 134.6 567.544 133.72C568.278 132.84 569.318 132.4 570.664 132.4C571.958 132.4 572.984 132.84 573.744 133.72V129.28C573.744 129.133 573.791 129.02 573.884 128.94C573.978 128.847 574.091 128.8 574.224 128.8H575.924C576.071 128.8 576.184 128.847 576.264 128.94C576.358 129.02 576.404 129.133 576.404 129.28V142.52C576.404 142.653 576.358 142.767 576.264 142.86C576.184 142.953 576.071 143 575.924 143H574.344C574.211 143 574.098 142.953 574.004 142.86C573.911 142.767 573.864 142.653 573.864 142.52V141.78C573.104 142.727 572.038 143.2 570.664 143.2ZM571.404 141.06C572.178 141.06 572.751 140.813 573.124 140.32C573.498 139.827 573.704 139.22 573.744 138.5C573.758 138.34 573.764 138.08 573.764 137.72C573.764 137.373 573.758 137.12 573.744 136.96C573.718 136.293 573.504 135.727 573.104 135.26C572.718 134.78 572.151 134.54 571.404 134.54C569.964 134.54 569.198 135.427 569.104 137.2L569.084 137.8L569.104 138.4C569.198 140.173 569.964 141.06 571.404 141.06ZM587.95 143C586.736 143 585.823 142.687 585.21 142.06C584.61 141.42 584.31 140.487 584.31 139.26V134.72H582.73C582.596 134.72 582.483 134.673 582.39 134.58C582.296 134.473 582.25 134.353 582.25 134.22V133.08C582.25 132.947 582.296 132.833 582.39 132.74C582.483 132.647 582.596 132.6 582.73 132.6H584.31V129.28C584.31 129.133 584.356 129.02 584.45 128.94C584.543 128.847 584.656 128.8 584.79 128.8H586.41C586.556 128.8 586.67 128.847 586.75 128.94C586.843 129.02 586.89 129.133 586.89 129.28V132.6H589.39C589.536 132.6 589.65 132.647 589.73 132.74C589.823 132.82 589.87 132.933 589.87 133.08V134.22C589.87 134.367 589.823 134.487 589.73 134.58C589.636 134.673 589.523 134.72 589.39 134.72H586.89V139.06C586.89 139.633 586.99 140.067 587.19 140.36C587.39 140.653 587.723 140.8 588.19 140.8H589.57C589.703 140.8 589.816 140.847 589.91 140.94C590.003 141.033 590.05 141.147 590.05 141.28V142.52C590.05 142.653 590.003 142.767 589.91 142.86C589.83 142.953 589.716 143 589.57 143H587.95ZM592.324 143C592.191 143 592.077 142.953 591.984 142.86C591.891 142.767 591.844 142.653 591.844 142.52V129.28C591.844 129.133 591.891 129.02 591.984 128.94C592.077 128.847 592.191 128.8 592.324 128.8H594.104C594.251 128.8 594.364 128.847 594.444 128.94C594.537 129.02 594.584 129.133 594.584 129.28V133.84C595.384 132.88 596.464 132.4 597.824 132.4C599.051 132.4 600.031 132.807 600.764 133.62C601.497 134.42 601.864 135.513 601.864 136.9V142.52C601.864 142.653 601.817 142.767 601.724 142.86C601.644 142.953 601.531 143 601.384 143H599.584C599.451 143 599.337 142.953 599.244 142.86C599.151 142.767 599.104 142.653 599.104 142.52V137.02C599.104 136.233 598.911 135.627 598.524 135.2C598.151 134.76 597.604 134.54 596.884 134.54C596.177 134.54 595.617 134.76 595.204 135.2C594.791 135.64 594.584 136.247 594.584 137.02V142.52C594.584 142.653 594.537 142.767 594.444 142.86C594.364 142.953 594.251 143 594.104 143H592.324ZM608.882 143.2C607.402 143.2 606.222 142.773 605.342 141.92C604.475 141.053 604.015 139.84 603.962 138.28L603.942 137.78L603.962 137.28C604.029 135.76 604.495 134.567 605.362 133.7C606.242 132.833 607.415 132.4 608.882 132.4C610.455 132.4 611.669 132.88 612.522 133.84C613.389 134.8 613.822 136.08 613.822 137.68V138.1C613.822 138.233 613.775 138.347 613.682 138.44C613.589 138.533 613.469 138.58 613.322 138.58H606.682V138.74C606.709 139.473 606.909 140.093 607.282 140.6C607.669 141.093 608.195 141.34 608.862 141.34C609.649 141.34 610.282 141.033 610.762 140.42C610.882 140.273 610.975 140.18 611.042 140.14C611.122 140.1 611.235 140.08 611.382 140.08H613.102C613.222 140.08 613.322 140.12 613.402 140.2C613.495 140.267 613.542 140.353 613.542 140.46C613.542 140.78 613.349 141.16 612.962 141.6C612.589 142.027 612.049 142.4 611.342 142.72C610.635 143.04 609.815 143.2 608.882 143.2ZM611.102 136.9V136.84C611.102 136.053 610.902 135.42 610.502 134.94C610.115 134.46 609.575 134.22 608.882 134.22C608.189 134.22 607.649 134.46 607.262 134.94C606.875 135.42 606.682 136.053 606.682 136.84V136.9H611.102ZM624.995 143.2C623.515 143.2 622.335 142.773 621.455 141.92C620.589 141.053 620.129 139.84 620.075 138.28L620.055 137.78L620.075 137.28C620.142 135.76 620.609 134.567 621.475 133.7C622.355 132.833 623.529 132.4 624.995 132.4C626.569 132.4 627.782 132.88 628.635 133.84C629.502 134.8 629.935 136.08 629.935 137.68V138.1C629.935 138.233 629.889 138.347 629.795 138.44C629.702 138.533 629.582 138.58 629.435 138.58H622.795V138.74C622.822 139.473 623.022 140.093 623.395 140.6C623.782 141.093 624.309 141.34 624.975 141.34C625.762 141.34 626.395 141.033 626.875 140.42C626.995 140.273 627.089 140.18 627.155 140.14C627.235 140.1 627.349 140.08 627.495 140.08H629.215C629.335 140.08 629.435 140.12 629.515 140.2C629.609 140.267 629.655 140.353 629.655 140.46C629.655 140.78 629.462 141.16 629.075 141.6C628.702 142.027 628.162 142.4 627.455 142.72C626.749 143.04 625.929 143.2 624.995 143.2ZM627.215 136.9V136.84C627.215 136.053 627.015 135.42 626.615 134.94C626.229 134.46 625.689 134.22 624.995 134.22C624.302 134.22 623.762 134.46 623.375 134.94C622.989 135.42 622.795 136.053 622.795 136.84V136.9H627.215ZM637.818 143.2C636.445 143.2 635.378 142.727 634.618 141.78V142.52C634.618 142.653 634.572 142.767 634.478 142.86C634.398 142.953 634.285 143 634.138 143H632.558C632.425 143 632.312 142.953 632.218 142.86C632.125 142.767 632.078 142.653 632.078 142.52V129.28C632.078 129.133 632.125 129.02 632.218 128.94C632.312 128.847 632.425 128.8 632.558 128.8H634.258C634.405 128.8 634.518 128.847 634.598 128.94C634.692 129.02 634.738 129.133 634.738 129.28V133.72C635.498 132.84 636.525 132.4 637.818 132.4C639.165 132.4 640.198 132.84 640.918 133.72C641.638 134.6 642.025 135.74 642.078 137.14C642.092 137.3 642.098 137.513 642.098 137.78C642.098 138.06 642.092 138.28 642.078 138.44C642.025 139.88 641.638 141.033 640.918 141.9C640.198 142.767 639.165 143.2 637.818 143.2ZM637.078 141.06C638.518 141.06 639.285 140.173 639.378 138.4C639.392 138.267 639.398 138.067 639.398 137.8C639.398 137.533 639.392 137.333 639.378 137.2C639.285 135.427 638.518 134.54 637.078 134.54C636.332 134.54 635.758 134.78 635.358 135.26C634.972 135.727 634.765 136.293 634.738 136.96L634.718 137.72L634.738 138.5C634.778 139.22 634.985 139.827 635.358 140.32C635.732 140.813 636.305 141.06 637.078 141.06ZM648.924 143.2C647.364 143.2 646.157 142.8 645.304 142C644.451 141.187 643.991 140.08 643.924 138.68L643.904 137.8L643.924 136.92C643.991 135.533 644.457 134.433 645.324 133.62C646.191 132.807 647.391 132.4 648.924 132.4C650.457 132.4 651.657 132.807 652.524 133.62C653.391 134.433 653.857 135.533 653.924 136.92C653.937 137.08 653.944 137.373 653.944 137.8C653.944 138.227 653.937 138.52 653.924 138.68C653.857 140.08 653.397 141.187 652.544 142C651.691 142.8 650.484 143.2 648.924 143.2ZM648.924 141.22C649.631 141.22 650.177 141 650.564 140.56C650.951 140.107 651.164 139.447 651.204 138.58C651.217 138.447 651.224 138.187 651.224 137.8C651.224 137.413 651.217 137.153 651.204 137.02C651.164 136.153 650.951 135.5 650.564 135.06C650.177 134.607 649.631 134.38 648.924 134.38C648.217 134.38 647.671 134.607 647.284 135.06C646.897 135.5 646.684 136.153 646.644 137.02L646.624 137.8L646.644 138.58C646.684 139.447 646.897 140.107 647.284 140.56C647.671 141 648.217 141.22 648.924 141.22ZM660.76 143.2C659.2 143.2 657.993 142.8 657.14 142C656.287 141.187 655.827 140.08 655.76 138.68L655.74 137.8L655.76 136.92C655.827 135.533 656.293 134.433 657.16 133.62C658.027 132.807 659.227 132.4 660.76 132.4C662.293 132.4 663.493 132.807 664.36 133.62C665.227 134.433 665.693 135.533 665.76 136.92C665.773 137.08 665.78 137.373 665.78 137.8C665.78 138.227 665.773 138.52 665.76 138.68C665.693 140.08 665.233 141.187 664.38 142C663.527 142.8 662.32 143.2 660.76 143.2ZM660.76 141.22C661.467 141.22 662.013 141 662.4 140.56C662.787 140.107 663 139.447 663.04 138.58C663.053 138.447 663.06 138.187 663.06 137.8C663.06 137.413 663.053 137.153 663.04 137.02C663 136.153 662.787 135.5 662.4 135.06C662.013 134.607 661.467 134.38 660.76 134.38C660.053 134.38 659.507 134.607 659.12 135.06C658.733 135.5 658.52 136.153 658.48 137.02L658.46 137.8L658.48 138.58C658.52 139.447 658.733 140.107 659.12 140.56C659.507 141 660.053 141.22 660.76 141.22ZM668.496 143C668.362 143 668.249 142.953 668.156 142.86C668.062 142.767 668.016 142.653 668.016 142.52V129.28C668.016 129.133 668.062 129.02 668.156 128.94C668.249 128.847 668.362 128.8 668.496 128.8H670.116C670.262 128.8 670.376 128.847 670.456 128.94C670.549 129.02 670.596 129.133 670.596 129.28V136.12L673.956 132.94C673.996 132.913 674.062 132.86 674.156 132.78C674.236 132.713 674.316 132.667 674.396 132.64C674.476 132.613 674.576 132.6 674.696 132.6H676.556C676.689 132.6 676.796 132.64 676.876 132.72C676.956 132.8 676.996 132.907 676.996 133.04C676.996 133.16 676.929 133.28 676.796 133.4L672.676 137.26L677.296 142.22C677.429 142.353 677.496 142.467 677.496 142.56C677.496 142.693 677.449 142.8 677.356 142.88C677.276 142.96 677.176 143 677.056 143H675.156C674.969 143 674.829 142.98 674.736 142.94C674.656 142.887 674.549 142.793 674.416 142.66L670.596 138.64V142.52C670.596 142.653 670.549 142.767 670.456 142.86C670.376 142.953 670.262 143 670.116 143H668.496ZM683.905 143C683.772 143 683.659 142.953 683.565 142.86C683.472 142.767 683.425 142.653 683.425 142.52V133.08C683.425 132.947 683.472 132.833 683.565 132.74C683.659 132.647 683.772 132.6 683.905 132.6H685.545C685.679 132.6 685.792 132.647 685.885 132.74C685.979 132.833 686.025 132.947 686.025 133.08V133.9C686.812 132.9 687.925 132.4 689.365 132.4C690.592 132.4 691.565 132.807 692.285 133.62C693.005 134.42 693.365 135.513 693.365 136.9V142.52C693.365 142.653 693.319 142.767 693.225 142.86C693.145 142.953 693.032 143 692.885 143H691.125C690.992 143 690.879 142.953 690.785 142.86C690.692 142.767 690.645 142.653 690.645 142.52V137.02C690.645 136.233 690.452 135.627 690.065 135.2C689.692 134.76 689.145 134.54 688.425 134.54C687.719 134.54 687.159 134.76 686.745 135.2C686.345 135.64 686.145 136.247 686.145 137.02V142.52C686.145 142.653 686.099 142.767 686.005 142.86C685.925 142.953 685.812 143 685.665 143H683.905ZM700.506 143.2C698.946 143.2 697.739 142.8 696.886 142C696.033 141.187 695.573 140.08 695.506 138.68L695.486 137.8L695.506 136.92C695.573 135.533 696.039 134.433 696.906 133.62C697.773 132.807 698.973 132.4 700.506 132.4C702.039 132.4 703.239 132.807 704.106 133.62C704.973 134.433 705.439 135.533 705.506 136.92C705.519 137.08 705.526 137.373 705.526 137.8C705.526 138.227 705.519 138.52 705.506 138.68C705.439 140.08 704.979 141.187 704.126 142C703.273 142.8 702.066 143.2 700.506 143.2ZM700.506 141.22C701.213 141.22 701.759 141 702.146 140.56C702.533 140.107 702.746 139.447 702.786 138.58C702.799 138.447 702.806 138.187 702.806 137.8C702.806 137.413 702.799 137.153 702.786 137.02C702.746 136.153 702.533 135.5 702.146 135.06C701.759 134.607 701.213 134.38 700.506 134.38C699.799 134.38 699.253 134.607 698.866 135.06C698.479 135.5 698.266 136.153 698.226 137.02L698.206 137.8L698.226 138.58C698.266 139.447 698.479 140.107 698.866 140.56C699.253 141 699.799 141.22 700.506 141.22ZM710.289 143C710.116 143 709.976 142.96 709.869 142.88C709.776 142.787 709.696 142.66 709.629 142.5L706.769 133.22C706.756 133.18 706.749 133.12 706.749 133.04C706.749 132.92 706.789 132.82 706.869 132.74C706.962 132.647 707.062 132.6 707.169 132.6H708.649C708.796 132.6 708.916 132.64 709.009 132.72C709.102 132.8 709.162 132.887 709.189 132.98L711.149 139.6L713.229 133.04C713.269 132.92 713.336 132.82 713.429 132.74C713.536 132.647 713.669 132.6 713.829 132.6H714.829C714.989 132.6 715.116 132.647 715.209 132.74C715.316 132.82 715.389 132.92 715.429 133.04L717.509 139.6L719.469 132.98C719.482 132.887 719.536 132.8 719.629 132.72C719.736 132.64 719.856 132.6 719.989 132.6H721.469C721.589 132.6 721.689 132.647 721.769 132.74C721.862 132.82 721.909 132.92 721.909 133.04L721.869 133.22L719.009 142.5C718.956 142.66 718.876 142.787 718.769 142.88C718.676 142.96 718.542 143 718.369 143H717.069C716.722 143 716.502 142.833 716.409 142.5L714.329 136.18L712.249 142.5C712.142 142.833 711.916 143 711.569 143H710.289Z" fill="#004A7C"/>
<path d="M482.438 144.5H722.529V145.5H482.438V144.5Z" fill="#004A7C"/>
</svg>
