<svg width="1200" height="600" viewBox="0 0 1200 600" fill="none" xmlns="http://www.w3.org/2000/svg">
<g clip-path="url(#clip0)">
<rect width="1200" height="600" fill="white"/>
<rect width="1200" height="600" fill="url(#paint0_linear)"/>
<g filter="url(#filter0_d)">
<rect x="300" y="225" width="600" height="150" rx="30" fill="url(#paint1_linear)"/>
</g>
<g filter="url(#filter1_i)">
<path d="M484.616 322.64C478.728 322.64 474.162 321.125 470.92 318.096C467.72 315.067 466.013 310.8 465.8 305.296C465.757 304.144 465.736 302.267 465.736 299.664C465.736 297.019 465.757 295.099 465.8 293.904C466.013 288.443 467.741 284.197 470.984 281.168C474.269 278.096 478.813 276.56 484.616 276.56C488.413 276.56 491.72 277.221 494.536 278.544C497.352 279.824 499.528 281.595 501.064 283.856C502.6 286.075 503.41 288.592 503.496 291.408V291.536C503.496 291.877 503.346 292.176 503.048 292.432C502.792 292.645 502.493 292.752 502.152 292.752H496.072C495.56 292.752 495.176 292.645 494.92 292.432C494.664 292.219 494.45 291.813 494.28 291.216C493.597 288.528 492.466 286.651 490.888 285.584C489.309 284.475 487.197 283.92 484.552 283.92C478.408 283.92 475.208 287.355 474.952 294.224C474.909 295.376 474.888 297.147 474.888 299.536C474.888 301.925 474.909 303.739 474.952 304.976C475.208 311.845 478.408 315.28 484.552 315.28C487.197 315.28 489.309 314.725 490.888 313.616C492.509 312.507 493.64 310.629 494.28 307.984C494.408 307.387 494.6 306.981 494.856 306.768C495.154 306.555 495.56 306.448 496.072 306.448H502.152C502.536 306.448 502.856 306.576 503.112 306.832C503.41 307.088 503.538 307.408 503.496 307.792C503.41 310.608 502.6 313.147 501.064 315.408C499.528 317.627 497.352 319.397 494.536 320.72C491.72 322 488.413 322.64 484.616 322.64ZM511.918 322C511.491 322 511.128 321.851 510.83 321.552C510.531 321.253 510.382 320.891 510.382 320.464V278.096C510.382 277.627 510.531 277.264 510.83 277.008C511.128 276.709 511.491 276.56 511.918 276.56H517.23C517.699 276.56 518.062 276.709 518.318 277.008C518.616 277.264 518.766 277.627 518.766 278.096V320.464C518.766 320.891 518.616 321.253 518.318 321.552C518.062 321.851 517.699 322 517.23 322H511.918ZM528.535 283.216C528.109 283.216 527.746 283.067 527.447 282.768C527.149 282.469 526.999 282.107 526.999 281.68V277.072C526.999 276.645 527.149 276.283 527.447 275.984C527.746 275.685 528.109 275.536 528.535 275.536H534.359C534.786 275.536 535.149 275.685 535.447 275.984C535.789 276.283 535.959 276.645 535.959 277.072V281.68C535.959 282.107 535.81 282.469 535.511 282.768C535.213 283.067 534.829 283.216 534.359 283.216H528.535ZM528.791 322C528.365 322 528.002 321.851 527.703 321.552C527.405 321.253 527.255 320.891 527.255 320.464V290.256C527.255 289.829 527.405 289.467 527.703 289.168C528.002 288.869 528.365 288.72 528.791 288.72H534.103C534.573 288.72 534.935 288.869 535.191 289.168C535.49 289.424 535.639 289.787 535.639 290.256V320.464C535.639 320.891 535.49 321.253 535.191 321.552C534.935 321.851 534.573 322 534.103 322H528.791ZM558.53 322.64C553.837 322.64 550.082 321.339 547.266 318.736C544.493 316.133 543.021 312.528 542.85 307.92L542.786 305.36L542.85 302.8C543.021 298.192 544.493 294.587 547.266 291.984C550.082 289.381 553.837 288.08 558.53 288.08C561.858 288.08 564.674 288.677 566.978 289.872C569.325 291.067 571.053 292.539 572.162 294.288C573.314 295.995 573.933 297.616 574.018 299.152C574.061 299.579 573.912 299.941 573.57 300.24C573.272 300.539 572.909 300.688 572.482 300.688H566.85C566.424 300.688 566.082 300.603 565.826 300.432C565.613 300.219 565.4 299.877 565.186 299.408C564.546 297.744 563.693 296.549 562.626 295.824C561.602 295.099 560.28 294.736 558.658 294.736C556.482 294.736 554.776 295.44 553.538 296.848C552.301 298.213 551.64 300.304 551.554 303.12L551.49 305.488L551.554 307.6C551.725 313.189 554.093 315.984 558.658 315.984C560.322 315.984 561.666 315.621 562.69 314.896C563.714 314.171 564.546 312.976 565.186 311.312C565.4 310.843 565.613 310.523 565.826 310.352C566.082 310.139 566.424 310.032 566.85 310.032H572.482C572.909 310.032 573.272 310.181 573.57 310.48C573.912 310.779 574.061 311.141 574.018 311.568C573.933 313.061 573.336 314.661 572.226 316.368C571.117 318.075 569.41 319.547 567.106 320.784C564.802 322.021 561.944 322.64 558.53 322.64ZM582.293 322C581.866 322 581.503 321.851 581.205 321.552C580.906 321.253 580.757 320.891 580.757 320.464V278.096C580.757 277.627 580.906 277.264 581.205 277.008C581.503 276.709 581.866 276.56 582.293 276.56H587.477C587.946 276.56 588.309 276.709 588.565 277.008C588.863 277.264 589.013 277.627 589.013 278.096V299.984L599.765 289.808C599.893 289.723 600.106 289.552 600.405 289.296C600.661 289.083 600.917 288.933 601.173 288.848C601.429 288.763 601.749 288.72 602.133 288.72H608.085C608.511 288.72 608.853 288.848 609.109 289.104C609.365 289.36 609.493 289.701 609.493 290.128C609.493 290.512 609.279 290.896 608.853 291.28L595.669 303.632L610.453 319.504C610.879 319.931 611.093 320.293 611.093 320.592C611.093 321.019 610.943 321.36 610.645 321.616C610.389 321.872 610.069 322 609.685 322H603.605C603.007 322 602.559 321.936 602.261 321.808C602.005 321.637 601.663 321.339 601.237 320.912L589.013 308.048V320.464C589.013 320.891 588.863 321.253 588.565 321.552C588.309 321.851 587.946 322 587.477 322H582.293ZM631.604 322C631.177 322 630.814 321.851 630.516 321.552C630.217 321.253 630.068 320.891 630.068 320.464V290.256C630.068 289.829 630.217 289.467 630.516 289.168C630.814 288.869 631.177 288.72 631.604 288.72H636.596C637.022 288.72 637.385 288.869 637.684 289.168C637.982 289.467 638.132 289.829 638.132 290.256V292.432C640.35 289.531 643.444 288.08 647.412 288.08C652.148 288.08 655.454 289.979 657.332 293.776C658.356 292.069 659.806 290.704 661.684 289.68C663.561 288.613 665.588 288.08 667.764 288.08C671.262 288.08 674.121 289.275 676.34 291.664C678.558 294.053 679.668 297.531 679.668 302.096V320.464C679.668 320.891 679.518 321.253 679.22 321.552C678.964 321.851 678.601 322 678.132 322H672.884C672.457 322 672.094 321.851 671.796 321.552C671.497 321.253 671.348 320.891 671.348 320.464V302.608C671.348 299.92 670.772 297.979 669.62 296.784C668.51 295.547 667.017 294.928 665.14 294.928C663.476 294.928 662.046 295.547 660.852 296.784C659.7 298.021 659.124 299.963 659.124 302.608V320.464C659.124 320.891 658.974 321.253 658.676 321.552C658.377 321.851 658.014 322 657.588 322H652.34C651.913 322 651.55 321.851 651.252 321.552C650.953 321.253 650.804 320.891 650.804 320.464V302.608C650.804 299.92 650.206 297.979 649.012 296.784C647.86 295.547 646.388 294.928 644.596 294.928C642.889 294.928 641.438 295.547 640.244 296.784C639.092 298.021 638.516 299.963 638.516 302.608V320.464C638.516 320.891 638.366 321.253 638.068 321.552C637.769 321.851 637.406 322 636.98 322H631.604ZM702.154 322.64C697.418 322.64 693.642 321.275 690.826 318.544C688.052 315.771 686.58 311.888 686.41 306.896L686.346 305.296L686.41 303.696C686.623 298.832 688.116 295.013 690.89 292.24C693.706 289.467 697.46 288.08 702.154 288.08C707.188 288.08 711.071 289.616 713.802 292.688C716.575 295.76 717.962 299.856 717.962 304.976V306.32C717.962 306.747 717.812 307.109 717.514 307.408C717.215 307.707 716.831 307.856 716.362 307.856H695.114V308.368C695.199 310.715 695.839 312.699 697.034 314.32C698.271 315.899 699.956 316.688 702.09 316.688C704.607 316.688 706.634 315.707 708.17 313.744C708.554 313.275 708.852 312.976 709.066 312.848C709.322 312.72 709.684 312.656 710.154 312.656H715.658C716.042 312.656 716.362 312.784 716.618 313.04C716.916 313.253 717.066 313.531 717.066 313.872C717.066 314.896 716.447 316.112 715.21 317.52C714.015 318.885 712.287 320.08 710.026 321.104C707.764 322.128 705.14 322.64 702.154 322.64ZM709.258 302.48V302.288C709.258 299.771 708.618 297.744 707.338 296.208C706.1 294.672 704.372 293.904 702.154 293.904C699.935 293.904 698.207 294.672 696.97 296.208C695.732 297.744 695.114 299.771 695.114 302.288V302.48H709.258ZM726.483 309.584C726.057 309.584 725.694 309.435 725.395 309.136C725.097 308.837 724.947 308.475 724.947 308.048V278.736C724.947 278.309 725.097 277.947 725.395 277.648C725.694 277.349 726.057 277.2 726.483 277.2H731.667C732.137 277.2 732.499 277.349 732.755 277.648C733.054 277.904 733.203 278.267 733.203 278.736V308.048C733.203 308.475 733.054 308.837 732.755 309.136C732.499 309.435 732.137 309.584 731.667 309.584H726.483ZM726.099 322C725.673 322 725.31 321.851 725.011 321.552C724.713 321.253 724.563 320.891 724.563 320.464V314.512C724.563 314.043 724.713 313.659 725.011 313.36C725.31 313.061 725.673 312.912 726.099 312.912H732.051C732.521 312.912 732.905 313.061 733.203 313.36C733.502 313.659 733.651 314.043 733.651 314.512V320.464C733.651 320.891 733.502 321.253 733.203 321.552C732.905 321.851 732.521 322 732.051 322H726.099Z" fill="white"/>
</g>
</g>
<defs>
<filter id="filter0_d" x="295" y="225" width="610" height="160" filterUnits="userSpaceOnUse" color-interpolation-filters="sRGB">
<feFlood flood-opacity="0" result="BackgroundImageFix"/>
<feColorMatrix in="SourceAlpha" type="matrix" values="0 0 0 0 0 0 0 0 0 0 0 0 0 0 0 0 0 0 127 0"/>
<feOffset dy="5"/>
<feGaussianBlur stdDeviation="2.5"/>
<feColorMatrix type="matrix" values="0 0 0 0 0 0 0 0 0 0 0 0 0 0 0 0 0 0 0.4 0"/>
<feBlend mode="normal" in2="BackgroundImageFix" result="effect1_dropShadow"/>
<feBlend mode="normal" in="SourceGraphic" in2="effect1_dropShadow" result="shape"/>
</filter>
<filter id="filter1_i" x="465.736" y="275.536" width="267.915" height="49.104" filterUnits="userSpaceOnUse" color-interpolation-filters="sRGB">
<feFlood flood-opacity="0" result="BackgroundImageFix"/>
<feBlend mode="normal" in="SourceGraphic" in2="BackgroundImageFix" result="shape"/>
<feColorMatrix in="SourceAlpha" type="matrix" values="0 0 0 0 0 0 0 0 0 0 0 0 0 0 0 0 0 0 127 0" result="hardAlpha"/>
<feOffset dy="2"/>
<feGaussianBlur stdDeviation="1"/>
<feComposite in2="hardAlpha" operator="arithmetic" k2="-1" k3="1"/>
<feColorMatrix type="matrix" values="0 0 0 0 0 0 0 0 0 0 0 0 0 0 0 0 0 0 0.25 0"/>
<feBlend mode="normal" in2="shape" result="effect1_innerShadow"/>
</filter>
<linearGradient id="paint0_linear" x1="1367.5" y1="-90.5001" x2="-494" y2="844.5" gradientUnits="userSpaceOnUse">
<stop stop-color="#004A7C"/>
<stop offset="1" stop-color="#E8F1F5"/>
</linearGradient>
<linearGradient id="paint1_linear" x1="600" y1="39" x2="600" y2="375" gradientUnits="userSpaceOnUse">
<stop stop-color="white" stop-opacity="0.58"/>
<stop offset="1" stop-color="#227C9D"/>
</linearGradient>
<clipPath id="clip0">
<rect width="1200" height="600" fill="white"/>
</clipPath>
</defs>
</svg>
