<svg width="800" height="331" viewBox="0 0 800 331" fill="none" xmlns="http://www.w3.org/2000/svg">
<rect width="800" height="330.802" fill="white"/>
<rect x="44.5" y="77.5" width="170" height="56" rx="4.5" fill="#E8F1F5" stroke="#004A7C"/>
<rect x="44.5" y="163.5" width="170" height="56" rx="4.5" fill="#E8F1F5" stroke="#004A7C"/>
<rect x="44.5" y="248.5" width="170" height="56" rx="4.5" fill="#E8F1F5" stroke="#004A7C"/>
<rect x="273.5" y="77.5" width="170" height="56" rx="4.5" fill="white" stroke="#40434E"/>
<rect x="501.5" y="77.5" width="255" height="56" rx="4.5" fill="white" stroke="#40434E"/>
<rect x="273.5" y="163.5" width="170" height="56" rx="4.5" fill="white" stroke="#40434E"/>
<rect x="501.5" y="163.5" width="255" height="56" rx="4.5" fill="white" stroke="#40434E"/>
<rect x="273.5" y="248.5" width="170" height="56" rx="4.5" fill="white" stroke="#40434E"/>
<rect x="501.5" y="248.5" width="255" height="56" rx="4.5" fill="white" stroke="#40434E"/>
<path d="M104.028 113.2C102.188 113.2 100.762 112.727 99.7484 111.78C98.7484 110.833 98.215 109.5 98.1484 107.78C98.135 107.42 98.1284 106.833 98.1284 106.02C98.1284 105.193 98.135 104.593 98.1484 104.22C98.215 102.513 98.755 101.187 99.7684 100.24C100.795 99.28 102.215 98.8 104.028 98.8C105.215 98.8 106.248 99.0067 107.128 99.42C108.008 99.82 108.688 100.373 109.168 101.08C109.648 101.773 109.902 102.56 109.928 103.44V103.48C109.928 103.587 109.882 103.68 109.788 103.76C109.708 103.827 109.615 103.86 109.508 103.86H107.608C107.448 103.86 107.328 103.827 107.248 103.76C107.168 103.693 107.102 103.567 107.048 103.38C106.835 102.54 106.482 101.953 105.988 101.62C105.495 101.273 104.835 101.1 104.008 101.1C102.088 101.1 101.088 102.173 101.008 104.32C100.995 104.68 100.988 105.233 100.988 105.98C100.988 106.727 100.995 107.293 101.008 107.68C101.088 109.827 102.088 110.9 104.008 110.9C104.835 110.9 105.495 110.727 105.988 110.38C106.495 110.033 106.848 109.447 107.048 108.62C107.088 108.433 107.148 108.307 107.228 108.24C107.322 108.173 107.448 108.14 107.608 108.14H109.508C109.628 108.14 109.728 108.18 109.808 108.26C109.902 108.34 109.942 108.44 109.928 108.56C109.902 109.44 109.648 110.233 109.168 110.94C108.688 111.633 108.008 112.187 107.128 112.6C106.248 113 105.215 113.2 104.028 113.2ZM112.54 113C112.407 113 112.294 112.953 112.2 112.86C112.107 112.767 112.06 112.653 112.06 112.52V103.1C112.06 102.967 112.107 102.853 112.2 102.76C112.294 102.653 112.407 102.6 112.54 102.6H114.16C114.307 102.6 114.427 102.647 114.52 102.74C114.614 102.833 114.66 102.953 114.66 103.1V103.92C114.98 103.493 115.38 103.167 115.86 102.94C116.354 102.713 116.914 102.6 117.54 102.6H118.36C118.507 102.6 118.62 102.647 118.7 102.74C118.794 102.82 118.84 102.933 118.84 103.08V104.52C118.84 104.653 118.794 104.767 118.7 104.86C118.62 104.953 118.507 105 118.36 105H116.8C116.174 105 115.68 105.18 115.32 105.54C114.96 105.9 114.78 106.393 114.78 107.02V112.52C114.78 112.653 114.734 112.767 114.64 112.86C114.547 112.953 114.427 113 114.28 113H112.54ZM124.743 113.2C123.263 113.2 122.083 112.773 121.203 111.92C120.337 111.053 119.877 109.84 119.823 108.28L119.803 107.78L119.823 107.28C119.89 105.76 120.357 104.567 121.223 103.7C122.103 102.833 123.277 102.4 124.743 102.4C126.317 102.4 127.53 102.88 128.383 103.84C129.25 104.8 129.683 106.08 129.683 107.68V108.1C129.683 108.233 129.637 108.347 129.543 108.44C129.45 108.533 129.33 108.58 129.183 108.58H122.543V108.74C122.57 109.473 122.77 110.093 123.143 110.6C123.53 111.093 124.057 111.34 124.723 111.34C125.51 111.34 126.143 111.033 126.623 110.42C126.743 110.273 126.837 110.18 126.903 110.14C126.983 110.1 127.097 110.08 127.243 110.08H128.963C129.083 110.08 129.183 110.12 129.263 110.2C129.357 110.267 129.403 110.353 129.403 110.46C129.403 110.78 129.21 111.16 128.823 111.6C128.45 112.027 127.91 112.4 127.203 112.72C126.497 113.04 125.677 113.2 124.743 113.2ZM126.963 106.9V106.84C126.963 106.053 126.763 105.42 126.363 104.94C125.977 104.46 125.437 104.22 124.743 104.22C124.05 104.22 123.51 104.46 123.123 104.94C122.737 105.42 122.543 106.053 122.543 106.84V106.9H126.963ZM134.826 113.2C134.146 113.2 133.52 113.067 132.946 112.8C132.386 112.52 131.94 112.147 131.606 111.68C131.286 111.213 131.126 110.7 131.126 110.14C131.126 109.233 131.493 108.5 132.226 107.94C132.96 107.38 133.966 107 135.246 106.8L137.986 106.4V105.98C137.986 105.393 137.84 104.953 137.546 104.66C137.253 104.367 136.78 104.22 136.126 104.22C135.686 104.22 135.326 104.307 135.046 104.48C134.78 104.64 134.566 104.8 134.406 104.96C134.246 105.133 134.14 105.247 134.086 105.3C134.033 105.46 133.933 105.54 133.786 105.54H132.246C132.126 105.54 132.02 105.5 131.926 105.42C131.846 105.34 131.806 105.233 131.806 105.1C131.82 104.767 131.98 104.387 132.286 103.96C132.606 103.533 133.093 103.167 133.746 102.86C134.4 102.553 135.2 102.4 136.146 102.4C137.72 102.4 138.866 102.753 139.586 103.46C140.306 104.167 140.666 105.093 140.666 106.24V112.52C140.666 112.653 140.62 112.767 140.526 112.86C140.446 112.953 140.333 113 140.186 113H138.566C138.433 113 138.32 112.953 138.226 112.86C138.133 112.767 138.086 112.653 138.086 112.52V111.74C137.793 112.167 137.373 112.52 136.826 112.8C136.293 113.067 135.626 113.2 134.826 113.2ZM135.506 111.3C136.24 111.3 136.84 111.06 137.306 110.58C137.773 110.1 138.006 109.4 138.006 108.48V108.06L136.006 108.38C135.233 108.5 134.646 108.693 134.246 108.96C133.86 109.227 133.666 109.553 133.666 109.94C133.666 110.367 133.846 110.7 134.206 110.94C134.566 111.18 135 111.3 135.506 111.3ZM147.834 113C146.621 113 145.708 112.687 145.094 112.06C144.494 111.42 144.194 110.487 144.194 109.26V104.72H142.614C142.481 104.72 142.368 104.673 142.274 104.58C142.181 104.473 142.134 104.353 142.134 104.22V103.08C142.134 102.947 142.181 102.833 142.274 102.74C142.368 102.647 142.481 102.6 142.614 102.6H144.194V99.28C144.194 99.1333 144.241 99.02 144.334 98.94C144.428 98.8467 144.541 98.8 144.674 98.8H146.294C146.441 98.8 146.554 98.8467 146.634 98.94C146.728 99.02 146.774 99.1333 146.774 99.28V102.6H149.274C149.421 102.6 149.534 102.647 149.614 102.74C149.708 102.82 149.754 102.933 149.754 103.08V104.22C149.754 104.367 149.708 104.487 149.614 104.58C149.521 104.673 149.408 104.72 149.274 104.72H146.774V109.06C146.774 109.633 146.874 110.067 147.074 110.36C147.274 110.653 147.608 110.8 148.074 110.8H149.454C149.588 110.8 149.701 110.847 149.794 110.94C149.888 111.033 149.934 111.147 149.934 111.28V112.52C149.934 112.653 149.888 112.767 149.794 112.86C149.714 112.953 149.601 113 149.454 113H147.834ZM156.189 113.2C154.709 113.2 153.529 112.773 152.649 111.92C151.782 111.053 151.322 109.84 151.269 108.28L151.249 107.78L151.269 107.28C151.335 105.76 151.802 104.567 152.669 103.7C153.549 102.833 154.722 102.4 156.189 102.4C157.762 102.4 158.975 102.88 159.829 103.84C160.695 104.8 161.129 106.08 161.129 107.68V108.1C161.129 108.233 161.082 108.347 160.989 108.44C160.895 108.533 160.775 108.58 160.629 108.58H153.989V108.74C154.015 109.473 154.215 110.093 154.589 110.6C154.975 111.093 155.502 111.34 156.169 111.34C156.955 111.34 157.589 111.033 158.069 110.42C158.189 110.273 158.282 110.18 158.349 110.14C158.429 110.1 158.542 110.08 158.689 110.08H160.409C160.529 110.08 160.629 110.12 160.709 110.2C160.802 110.267 160.849 110.353 160.849 110.46C160.849 110.78 160.655 111.16 160.269 111.6C159.895 112.027 159.355 112.4 158.649 112.72C157.942 113.04 157.122 113.2 156.189 113.2ZM158.409 106.9V106.84C158.409 106.053 158.209 105.42 157.809 104.94C157.422 104.46 156.882 104.22 156.189 104.22C155.495 104.22 154.955 104.46 154.569 104.94C154.182 105.42 153.989 106.053 153.989 106.84V106.9H158.409Z" fill="#004A7C"/>
<path d="M98.5301 44C98.4234 44 98.3234 43.96 98.2301 43.88C98.1501 43.8 98.1101 43.7 98.1101 43.58L98.1501 43.4L102.97 30.5C103.063 30.1667 103.297 30 103.67 30H105.85C106.197 30 106.43 30.1667 106.55 30.5L111.37 43.4C111.383 43.44 111.39 43.5 111.39 43.58C111.39 43.7 111.35 43.8 111.27 43.88C111.19 43.96 111.097 44 110.99 44H109.25C109.077 44 108.943 43.96 108.85 43.88C108.757 43.8 108.697 43.7133 108.67 43.62L107.73 41.18H101.79L100.85 43.62C100.743 43.8733 100.55 44 100.27 44H98.5301ZM107.03 38.88L104.75 32.7L102.49 38.88H107.03ZM117.4 44.2C115.933 44.2 114.76 43.7933 113.88 42.98C113.013 42.1667 112.553 41.04 112.5 39.6L112.48 38.8L112.5 38C112.553 36.56 113.013 35.4333 113.88 34.62C114.76 33.8067 115.933 33.4 117.4 33.4C118.44 33.4 119.32 33.5867 120.04 33.96C120.773 34.3333 121.313 34.7933 121.66 35.34C122.02 35.8733 122.213 36.38 122.24 36.86C122.253 36.9933 122.207 37.1067 122.1 37.2C122.007 37.2933 121.893 37.34 121.76 37.34H120C119.867 37.34 119.76 37.3133 119.68 37.26C119.613 37.1933 119.547 37.0867 119.48 36.94C119.28 36.42 119.013 36.0467 118.68 35.82C118.36 35.5933 117.947 35.48 117.44 35.48C116.76 35.48 116.227 35.7 115.84 36.14C115.453 36.5667 115.247 37.22 115.22 38.1L115.2 38.84L115.22 39.5C115.273 41.2467 116.013 42.12 117.44 42.12C117.96 42.12 118.38 42.0067 118.7 41.78C119.02 41.5533 119.28 41.18 119.48 40.66C119.547 40.5133 119.613 40.4133 119.68 40.36C119.76 40.2933 119.867 40.26 120 40.26H121.76C121.893 40.26 122.007 40.3067 122.1 40.4C122.207 40.4933 122.253 40.6067 122.24 40.74C122.213 41.2067 122.027 41.7067 121.68 42.24C121.333 42.7733 120.8 43.2333 120.08 43.62C119.36 44.0067 118.467 44.2 117.4 44.2ZM129.026 44C127.813 44 126.899 43.6867 126.286 43.06C125.686 42.42 125.386 41.4867 125.386 40.26V35.72H123.806C123.673 35.72 123.559 35.6733 123.466 35.58C123.373 35.4733 123.326 35.3533 123.326 35.22V34.08C123.326 33.9467 123.373 33.8333 123.466 33.74C123.559 33.6467 123.673 33.6 123.806 33.6H125.386V30.28C125.386 30.1333 125.433 30.02 125.526 29.94C125.619 29.8467 125.733 29.8 125.866 29.8H127.486C127.633 29.8 127.746 29.8467 127.826 29.94C127.919 30.02 127.966 30.1333 127.966 30.28V33.6H130.466C130.613 33.6 130.726 33.6467 130.806 33.74C130.899 33.82 130.946 33.9333 130.946 34.08V35.22C130.946 35.3667 130.899 35.4867 130.806 35.58C130.713 35.6733 130.599 35.72 130.466 35.72H127.966V40.06C127.966 40.6333 128.066 41.0667 128.266 41.36C128.466 41.6533 128.799 41.8 129.266 41.8H130.646C130.779 41.8 130.893 41.8467 130.986 41.94C131.079 42.0333 131.126 42.1467 131.126 42.28V43.52C131.126 43.6533 131.079 43.7667 130.986 43.86C130.906 43.9533 130.793 44 130.646 44H129.026ZM133.3 31.88C133.167 31.88 133.053 31.8333 132.96 31.74C132.867 31.6467 132.82 31.5333 132.82 31.4V29.96C132.82 29.8267 132.867 29.7133 132.96 29.62C133.053 29.5267 133.167 29.48 133.3 29.48H135.12C135.253 29.48 135.367 29.5267 135.46 29.62C135.567 29.7133 135.62 29.8267 135.62 29.96V31.4C135.62 31.5333 135.573 31.6467 135.48 31.74C135.387 31.8333 135.267 31.88 135.12 31.88H133.3ZM133.38 44C133.247 44 133.133 43.9533 133.04 43.86C132.947 43.7667 132.9 43.6533 132.9 43.52V34.08C132.9 33.9467 132.947 33.8333 133.04 33.74C133.133 33.6467 133.247 33.6 133.38 33.6H135.04C135.187 33.6 135.3 33.6467 135.38 33.74C135.473 33.82 135.52 33.9333 135.52 34.08V43.52C135.52 43.6533 135.473 43.7667 135.38 43.86C135.3 43.9533 135.187 44 135.04 44H133.38ZM142.774 44.2C141.214 44.2 140.007 43.8 139.154 43C138.3 42.1867 137.84 41.08 137.774 39.68L137.754 38.8L137.774 37.92C137.84 36.5333 138.307 35.4333 139.174 34.62C140.04 33.8067 141.24 33.4 142.774 33.4C144.307 33.4 145.507 33.8067 146.374 34.62C147.24 35.4333 147.707 36.5333 147.774 37.92C147.787 38.08 147.794 38.3733 147.794 38.8C147.794 39.2267 147.787 39.52 147.774 39.68C147.707 41.08 147.247 42.1867 146.394 43C145.54 43.8 144.334 44.2 142.774 44.2ZM142.774 42.22C143.48 42.22 144.027 42 144.414 41.56C144.8 41.1067 145.014 40.4467 145.054 39.58C145.067 39.4467 145.074 39.1867 145.074 38.8C145.074 38.4133 145.067 38.1533 145.054 38.02C145.014 37.1533 144.8 36.5 144.414 36.06C144.027 35.6067 143.48 35.38 142.774 35.38C142.067 35.38 141.52 35.6067 141.134 36.06C140.747 36.5 140.534 37.1533 140.494 38.02L140.474 38.8L140.494 39.58C140.534 40.4467 140.747 41.1067 141.134 41.56C141.52 42 142.067 42.22 142.774 42.22ZM150.489 44C150.356 44 150.243 43.9533 150.149 43.86C150.056 43.7667 150.009 43.6533 150.009 43.52V34.08C150.009 33.9467 150.056 33.8333 150.149 33.74C150.243 33.6467 150.356 33.6 150.489 33.6H152.129C152.263 33.6 152.376 33.6467 152.469 33.74C152.563 33.8333 152.609 33.9467 152.609 34.08V34.9C153.396 33.9 154.509 33.4 155.949 33.4C157.176 33.4 158.149 33.8067 158.869 34.62C159.589 35.42 159.949 36.5133 159.949 37.9V43.52C159.949 43.6533 159.903 43.7667 159.809 43.86C159.729 43.9533 159.616 44 159.469 44H157.709C157.576 44 157.463 43.9533 157.369 43.86C157.276 43.7667 157.229 43.6533 157.229 43.52V38.02C157.229 37.2333 157.036 36.6267 156.649 36.2C156.276 35.76 155.729 35.54 155.009 35.54C154.303 35.54 153.743 35.76 153.329 36.2C152.929 36.64 152.729 37.2467 152.729 38.02V43.52C152.729 43.6533 152.683 43.7667 152.589 43.86C152.509 43.9533 152.396 44 152.249 44H150.489Z" fill="#40434E"/>
<path d="M107.351 198C107.217 198 107.104 197.953 107.011 197.86C106.917 197.767 106.871 197.653 106.871 197.52V184.5C106.871 184.353 106.911 184.233 106.991 184.14C107.084 184.047 107.204 184 107.351 184H113.151C114.711 184 115.871 184.347 116.631 185.04C117.404 185.72 117.791 186.653 117.791 187.84C117.791 188.533 117.617 189.127 117.271 189.62C116.937 190.1 116.544 190.447 116.091 190.66C116.651 190.913 117.117 191.327 117.491 191.9C117.877 192.473 118.071 193.127 118.071 193.86C118.071 195.1 117.651 196.1 116.811 196.86C115.984 197.62 114.817 198 113.311 198H107.351ZM112.791 189.74C113.484 189.74 114.011 189.573 114.371 189.24C114.731 188.907 114.911 188.46 114.911 187.9C114.911 187.327 114.731 186.887 114.371 186.58C114.011 186.26 113.484 186.1 112.791 186.1H109.651V189.74H112.791ZM112.991 195.88C113.684 195.88 114.224 195.693 114.611 195.32C114.997 194.933 115.191 194.447 115.191 193.86C115.191 193.26 114.997 192.773 114.611 192.4C114.224 192.013 113.684 191.82 112.991 191.82H109.651V195.88H112.991ZM124.941 198.2C123.381 198.2 122.175 197.8 121.321 197C120.468 196.187 120.008 195.08 119.941 193.68L119.921 192.8L119.941 191.92C120.008 190.533 120.475 189.433 121.341 188.62C122.208 187.807 123.408 187.4 124.941 187.4C126.475 187.4 127.675 187.807 128.541 188.62C129.408 189.433 129.875 190.533 129.941 191.92C129.955 192.08 129.961 192.373 129.961 192.8C129.961 193.227 129.955 193.52 129.941 193.68C129.875 195.08 129.415 196.187 128.561 197C127.708 197.8 126.501 198.2 124.941 198.2ZM124.941 196.22C125.648 196.22 126.195 196 126.581 195.56C126.968 195.107 127.181 194.447 127.221 193.58C127.235 193.447 127.241 193.187 127.241 192.8C127.241 192.413 127.235 192.153 127.221 192.02C127.181 191.153 126.968 190.5 126.581 190.06C126.195 189.607 125.648 189.38 124.941 189.38C124.235 189.38 123.688 189.607 123.301 190.06C122.915 190.5 122.701 191.153 122.661 192.02L122.641 192.8L122.661 193.58C122.701 194.447 122.915 195.107 123.301 195.56C123.688 196 124.235 196.22 124.941 196.22ZM136.777 198.2C135.217 198.2 134.011 197.8 133.157 197C132.304 196.187 131.844 195.08 131.777 193.68L131.757 192.8L131.777 191.92C131.844 190.533 132.311 189.433 133.177 188.62C134.044 187.807 135.244 187.4 136.777 187.4C138.311 187.4 139.511 187.807 140.377 188.62C141.244 189.433 141.711 190.533 141.777 191.92C141.791 192.08 141.797 192.373 141.797 192.8C141.797 193.227 141.791 193.52 141.777 193.68C141.711 195.08 141.251 196.187 140.397 197C139.544 197.8 138.337 198.2 136.777 198.2ZM136.777 196.22C137.484 196.22 138.031 196 138.417 195.56C138.804 195.107 139.017 194.447 139.057 193.58C139.071 193.447 139.077 193.187 139.077 192.8C139.077 192.413 139.071 192.153 139.057 192.02C139.017 191.153 138.804 190.5 138.417 190.06C138.031 189.607 137.484 189.38 136.777 189.38C136.071 189.38 135.524 189.607 135.137 190.06C134.751 190.5 134.537 191.153 134.497 192.02L134.477 192.8L134.497 193.58C134.537 194.447 134.751 195.107 135.137 195.56C135.524 196 136.071 196.22 136.777 196.22ZM144.513 198C144.38 198 144.267 197.953 144.173 197.86C144.08 197.767 144.033 197.653 144.033 197.52V184.28C144.033 184.133 144.08 184.02 144.173 183.94C144.267 183.847 144.38 183.8 144.513 183.8H146.133C146.28 183.8 146.393 183.847 146.473 183.94C146.567 184.02 146.613 184.133 146.613 184.28V191.12L149.973 187.94C150.013 187.913 150.08 187.86 150.173 187.78C150.253 187.713 150.333 187.667 150.413 187.64C150.493 187.613 150.593 187.6 150.713 187.6H152.573C152.707 187.6 152.813 187.64 152.893 187.72C152.973 187.8 153.013 187.907 153.013 188.04C153.013 188.16 152.947 188.28 152.813 188.4L148.693 192.26L153.313 197.22C153.447 197.353 153.513 197.467 153.513 197.56C153.513 197.693 153.467 197.8 153.373 197.88C153.293 197.96 153.193 198 153.073 198H151.173C150.987 198 150.847 197.98 150.753 197.94C150.673 197.887 150.567 197.793 150.433 197.66L146.613 193.64V197.52C146.613 197.653 146.567 197.767 146.473 197.86C146.393 197.953 146.28 198 146.133 198H144.513Z" fill="#004A7C"/>
<path d="M102.958 284.2C101.158 284.2 99.7584 283.74 98.7584 282.82C97.7584 281.9 97.2584 280.507 97.2584 278.64V270.5C97.2584 270.353 97.2984 270.233 97.3784 270.14C97.4717 270.047 97.5917 270 97.7384 270H99.5584C99.705 270 99.8184 270.047 99.8984 270.14C99.9917 270.233 100.038 270.353 100.038 270.5V278.64C100.038 279.707 100.292 280.513 100.798 281.06C101.305 281.593 102.025 281.86 102.958 281.86C103.892 281.86 104.605 281.593 105.098 281.06C105.605 280.513 105.858 279.707 105.858 278.64V270.5C105.858 270.353 105.905 270.233 105.998 270.14C106.092 270.047 106.212 270 106.358 270H108.158C108.305 270 108.418 270.047 108.498 270.14C108.592 270.233 108.638 270.353 108.638 270.5V278.64C108.638 280.507 108.138 281.9 107.138 282.82C106.152 283.74 104.758 284.2 102.958 284.2ZM111.896 287.8C111.763 287.8 111.65 287.753 111.556 287.66C111.463 287.58 111.416 287.467 111.416 287.32V274.08C111.416 273.933 111.463 273.82 111.556 273.74C111.65 273.647 111.763 273.6 111.896 273.6H113.476C113.623 273.6 113.736 273.647 113.816 273.74C113.91 273.82 113.956 273.933 113.956 274.08V274.88C114.703 273.893 115.77 273.4 117.156 273.4C118.503 273.4 119.536 273.827 120.256 274.68C120.976 275.52 121.363 276.66 121.416 278.1C121.43 278.26 121.436 278.493 121.436 278.8C121.436 279.12 121.43 279.36 121.416 279.52C121.363 280.92 120.976 282.053 120.256 282.92C119.536 283.773 118.503 284.2 117.156 284.2C115.81 284.2 114.783 283.727 114.076 282.78V287.32C114.076 287.467 114.03 287.58 113.936 287.66C113.856 287.753 113.743 287.8 113.596 287.8H111.896ZM116.416 282.06C117.856 282.06 118.623 281.173 118.716 279.4C118.73 279.267 118.736 279.067 118.736 278.8C118.736 278.533 118.73 278.333 118.716 278.2C118.623 276.427 117.856 275.54 116.416 275.54C115.643 275.54 115.07 275.787 114.696 276.28C114.323 276.773 114.116 277.38 114.076 278.1L114.056 278.86L114.076 279.64C114.103 280.307 114.31 280.88 114.696 281.36C115.096 281.827 115.67 282.06 116.416 282.06ZM124.181 284C124.048 284 123.935 283.953 123.841 283.86C123.748 283.767 123.701 283.653 123.701 283.52V270.28C123.701 270.133 123.748 270.02 123.841 269.94C123.935 269.847 124.048 269.8 124.181 269.8H125.841C125.988 269.8 126.101 269.847 126.181 269.94C126.275 270.02 126.321 270.133 126.321 270.28V283.52C126.321 283.653 126.275 283.767 126.181 283.86C126.101 283.953 125.988 284 125.841 284H124.181ZM133.574 284.2C132.014 284.2 130.808 283.8 129.954 283C129.101 282.187 128.641 281.08 128.574 279.68L128.554 278.8L128.574 277.92C128.641 276.533 129.108 275.433 129.974 274.62C130.841 273.807 132.041 273.4 133.574 273.4C135.108 273.4 136.308 273.807 137.174 274.62C138.041 275.433 138.508 276.533 138.574 277.92C138.588 278.08 138.594 278.373 138.594 278.8C138.594 279.227 138.588 279.52 138.574 279.68C138.508 281.08 138.048 282.187 137.194 283C136.341 283.8 135.134 284.2 133.574 284.2ZM133.574 282.22C134.281 282.22 134.828 282 135.214 281.56C135.601 281.107 135.814 280.447 135.854 279.58C135.868 279.447 135.874 279.187 135.874 278.8C135.874 278.413 135.868 278.153 135.854 278.02C135.814 277.153 135.601 276.5 135.214 276.06C134.828 275.607 134.281 275.38 133.574 275.38C132.868 275.38 132.321 275.607 131.934 276.06C131.548 276.5 131.334 277.153 131.294 278.02L131.274 278.8L131.294 279.58C131.334 280.447 131.548 281.107 131.934 281.56C132.321 282 132.868 282.22 133.574 282.22ZM143.83 284.2C143.15 284.2 142.524 284.067 141.95 283.8C141.39 283.52 140.944 283.147 140.61 282.68C140.29 282.213 140.13 281.7 140.13 281.14C140.13 280.233 140.497 279.5 141.23 278.94C141.964 278.38 142.97 278 144.25 277.8L146.99 277.4V276.98C146.99 276.393 146.844 275.953 146.55 275.66C146.257 275.367 145.784 275.22 145.13 275.22C144.69 275.22 144.33 275.307 144.05 275.48C143.784 275.64 143.57 275.8 143.41 275.96C143.25 276.133 143.144 276.247 143.09 276.3C143.037 276.46 142.937 276.54 142.79 276.54H141.25C141.13 276.54 141.024 276.5 140.93 276.42C140.85 276.34 140.81 276.233 140.81 276.1C140.824 275.767 140.984 275.387 141.29 274.96C141.61 274.533 142.097 274.167 142.75 273.86C143.404 273.553 144.204 273.4 145.15 273.4C146.724 273.4 147.87 273.753 148.59 274.46C149.31 275.167 149.67 276.093 149.67 277.24V283.52C149.67 283.653 149.624 283.767 149.53 283.86C149.45 283.953 149.337 284 149.19 284H147.57C147.437 284 147.324 283.953 147.23 283.86C147.137 283.767 147.09 283.653 147.09 283.52V282.74C146.797 283.167 146.377 283.52 145.83 283.8C145.297 284.067 144.63 284.2 143.83 284.2ZM144.51 282.3C145.244 282.3 145.844 282.06 146.31 281.58C146.777 281.1 147.01 280.4 147.01 279.48V279.06L145.01 279.38C144.237 279.5 143.65 279.693 143.25 279.96C142.864 280.227 142.67 280.553 142.67 280.94C142.67 281.367 142.85 281.7 143.21 281.94C143.57 282.18 144.004 282.3 144.51 282.3ZM156.096 284.2C154.749 284.2 153.716 283.767 152.996 282.9C152.276 282.033 151.889 280.88 151.836 279.44L151.816 278.78L151.836 278.14C151.876 276.74 152.256 275.6 152.976 274.72C153.709 273.84 154.749 273.4 156.096 273.4C157.389 273.4 158.416 273.84 159.176 274.72V270.28C159.176 270.133 159.223 270.02 159.316 269.94C159.409 269.847 159.523 269.8 159.656 269.8H161.356C161.503 269.8 161.616 269.847 161.696 269.94C161.789 270.02 161.836 270.133 161.836 270.28V283.52C161.836 283.653 161.789 283.767 161.696 283.86C161.616 283.953 161.503 284 161.356 284H159.776C159.643 284 159.529 283.953 159.436 283.86C159.343 283.767 159.296 283.653 159.296 283.52V282.78C158.536 283.727 157.469 284.2 156.096 284.2ZM156.836 282.06C157.609 282.06 158.183 281.813 158.556 281.32C158.929 280.827 159.136 280.22 159.176 279.5C159.189 279.34 159.196 279.08 159.196 278.72C159.196 278.373 159.189 278.12 159.176 277.96C159.149 277.293 158.936 276.727 158.536 276.26C158.149 275.78 157.583 275.54 156.836 275.54C155.396 275.54 154.629 276.427 154.536 278.2L154.516 278.8L154.536 279.4C154.629 281.173 155.396 282.06 156.836 282.06Z" fill="#004A7C"/>
<path d="M324.723 113C324.59 113 324.477 112.96 324.383 112.88C324.303 112.787 324.263 112.673 324.263 112.54V99.48C324.263 99.3333 324.303 99.22 324.383 99.14C324.477 99.0467 324.59 99 324.723 99H325.643C325.883 99 326.05 99.0933 326.143 99.28L332.783 109.48V99.48C332.783 99.3333 332.823 99.22 332.903 99.14C332.997 99.0467 333.11 99 333.243 99H334.203C334.35 99 334.463 99.0467 334.543 99.14C334.637 99.22 334.683 99.3333 334.683 99.48V112.52C334.683 112.653 334.637 112.767 334.543 112.86C334.463 112.953 334.357 113 334.223 113H333.263C333.063 113 332.903 112.907 332.783 112.72L326.163 102.62V112.54C326.163 112.673 326.117 112.787 326.023 112.88C325.93 112.96 325.817 113 325.683 113H324.723ZM342.07 113.2C340.696 113.2 339.596 112.78 338.77 111.94C337.956 111.087 337.51 109.927 337.43 108.46L337.41 107.78L337.43 107.12C337.523 105.68 337.976 104.533 338.79 103.68C339.616 102.827 340.703 102.4 342.05 102.4C343.53 102.4 344.676 102.873 345.49 103.82C346.303 104.753 346.71 106.02 346.71 107.62V107.96C346.71 108.093 346.663 108.207 346.57 108.3C346.49 108.38 346.383 108.42 346.25 108.42H339.33V108.6C339.37 109.467 339.63 110.207 340.11 110.82C340.603 111.42 341.25 111.72 342.05 111.72C342.663 111.72 343.163 111.6 343.55 111.36C343.95 111.107 344.243 110.847 344.43 110.58C344.55 110.42 344.636 110.327 344.69 110.3C344.756 110.26 344.87 110.24 345.03 110.24H346.01C346.13 110.24 346.23 110.273 346.31 110.34C346.39 110.407 346.43 110.5 346.43 110.62C346.43 110.913 346.243 111.267 345.87 111.68C345.51 112.093 344.996 112.453 344.33 112.76C343.676 113.053 342.923 113.2 342.07 113.2ZM344.81 107.04V106.98C344.81 106.06 344.556 105.313 344.05 104.74C343.556 104.153 342.89 103.86 342.05 103.86C341.21 103.86 340.543 104.153 340.05 104.74C339.57 105.313 339.33 106.06 339.33 106.98V107.04H344.81ZM351.588 113C351.414 113 351.281 112.96 351.188 112.88C351.094 112.8 351.014 112.673 350.948 112.5L348.108 103.22L348.068 103.02C348.068 102.9 348.108 102.8 348.188 102.72C348.281 102.64 348.381 102.6 348.488 102.6H349.368C349.501 102.6 349.608 102.64 349.688 102.72C349.781 102.787 349.841 102.86 349.868 102.94L352.088 110.48L354.468 103.02C354.494 102.913 354.554 102.82 354.648 102.74C354.741 102.647 354.868 102.6 355.028 102.6H355.708C355.868 102.6 355.994 102.647 356.088 102.74C356.181 102.82 356.241 102.913 356.268 103.02L358.648 110.48L360.868 102.94C360.881 102.873 360.928 102.8 361.008 102.72C361.101 102.64 361.214 102.6 361.348 102.6H362.248C362.354 102.6 362.448 102.64 362.528 102.72C362.608 102.8 362.648 102.9 362.648 103.02L362.608 103.22L359.788 112.5C359.721 112.673 359.641 112.8 359.548 112.88C359.454 112.96 359.314 113 359.128 113H358.348C357.988 113 357.768 112.833 357.688 112.5L355.368 105.34L353.048 112.5C352.941 112.833 352.714 113 352.368 113H351.588ZM370.425 113C370.292 113 370.179 112.96 370.085 112.88C370.005 112.787 369.965 112.673 369.965 112.54V104.2H368.265C368.132 104.2 368.019 104.16 367.925 104.08C367.845 103.987 367.805 103.873 367.805 103.74V103.06C367.805 102.927 367.845 102.82 367.925 102.74C368.019 102.647 368.132 102.6 368.265 102.6H369.965V101.6C369.965 99.3333 371.112 98.2 373.405 98.2H376.485C376.619 98.2 376.725 98.2467 376.805 98.34C376.899 98.42 376.945 98.5267 376.945 98.66V99.34C376.945 99.4733 376.899 99.5867 376.805 99.68C376.725 99.76 376.619 99.8 376.485 99.8H373.445C372.845 99.8 372.425 99.96 372.185 100.28C371.945 100.587 371.825 101.06 371.825 101.7V102.6H376.485C376.619 102.6 376.725 102.647 376.805 102.74C376.899 102.82 376.945 102.927 376.945 103.06V112.54C376.945 112.673 376.899 112.787 376.805 112.88C376.725 112.96 376.619 113 376.485 113H375.565C375.432 113 375.319 112.96 375.225 112.88C375.145 112.787 375.105 112.673 375.105 112.54V104.2H371.825V112.54C371.825 112.673 371.779 112.787 371.685 112.88C371.605 112.96 371.499 113 371.365 113H370.425ZM380.382 113C380.249 113 380.135 112.96 380.042 112.88C379.962 112.787 379.922 112.673 379.922 112.54V99.26C379.922 99.1267 379.962 99.02 380.042 98.94C380.135 98.8467 380.249 98.8 380.382 98.8H381.322C381.455 98.8 381.562 98.8467 381.642 98.94C381.735 99.02 381.782 99.1267 381.782 99.26V112.54C381.782 112.673 381.735 112.787 381.642 112.88C381.562 112.96 381.455 113 381.322 113H380.382ZM388.925 113.2C387.552 113.2 386.452 112.78 385.625 111.94C384.812 111.087 384.365 109.927 384.285 108.46L384.265 107.78L384.285 107.12C384.378 105.68 384.832 104.533 385.645 103.68C386.472 102.827 387.558 102.4 388.905 102.4C390.385 102.4 391.532 102.873 392.345 103.82C393.158 104.753 393.565 106.02 393.565 107.62V107.96C393.565 108.093 393.518 108.207 393.425 108.3C393.345 108.38 393.238 108.42 393.105 108.42H386.185V108.6C386.225 109.467 386.485 110.207 386.965 110.82C387.458 111.42 388.105 111.72 388.905 111.72C389.518 111.72 390.018 111.6 390.405 111.36C390.805 111.107 391.098 110.847 391.285 110.58C391.405 110.42 391.492 110.327 391.545 110.3C391.612 110.26 391.725 110.24 391.885 110.24H392.865C392.985 110.24 393.085 110.273 393.165 110.34C393.245 110.407 393.285 110.5 393.285 110.62C393.285 110.913 393.098 111.267 392.725 111.68C392.365 112.093 391.852 112.453 391.185 112.76C390.532 113.053 389.778 113.2 388.925 113.2ZM391.665 107.04V106.98C391.665 106.06 391.412 105.313 390.905 104.74C390.412 104.153 389.745 103.86 388.905 103.86C388.065 103.86 387.398 104.153 386.905 104.74C386.425 105.313 386.185 106.06 386.185 106.98V107.04H391.665Z" fill="#40434E"/>
<path d="M567.813 113.2C566.027 113.2 564.667 112.72 563.733 111.76C562.813 110.8 562.32 109.473 562.253 107.78C562.24 107.42 562.233 106.833 562.233 106.02C562.233 105.193 562.24 104.593 562.253 104.22C562.32 102.54 562.82 101.22 563.753 100.26C564.687 99.2867 566.04 98.8 567.813 98.8C569 98.8 570.007 99.0133 570.833 99.44C571.66 99.8533 572.287 100.4 572.713 101.08C573.14 101.76 573.373 102.487 573.413 103.26V103.3C573.413 103.407 573.367 103.5 573.273 103.58C573.193 103.647 573.1 103.68 572.993 103.68H571.893C571.627 103.68 571.46 103.527 571.393 103.22C571.167 102.22 570.76 101.52 570.173 101.12C569.587 100.707 568.8 100.5 567.813 100.5C565.52 100.5 564.333 101.773 564.253 104.32C564.24 104.68 564.233 105.233 564.233 105.98C564.233 106.727 564.24 107.293 564.253 107.68C564.333 110.227 565.52 111.5 567.813 111.5C568.8 111.5 569.587 111.3 570.173 110.9C570.773 110.487 571.18 109.78 571.393 108.78C571.433 108.607 571.493 108.487 571.573 108.42C571.653 108.353 571.76 108.32 571.893 108.32H572.993C573.113 108.32 573.213 108.36 573.293 108.44C573.387 108.507 573.427 108.6 573.413 108.72C573.373 109.507 573.14 110.24 572.713 110.92C572.287 111.6 571.66 112.153 570.833 112.58C570.007 112.993 569 113.2 567.813 113.2ZM576.294 113C576.16 113 576.047 112.96 575.954 112.88C575.874 112.787 575.834 112.673 575.834 112.54V103.08C575.834 102.947 575.874 102.833 575.954 102.74C576.047 102.647 576.16 102.6 576.294 102.6H577.214C577.347 102.6 577.46 102.647 577.554 102.74C577.647 102.833 577.694 102.947 577.694 103.08V103.96C578.24 103.053 579.174 102.6 580.494 102.6H581.274C581.407 102.6 581.514 102.647 581.594 102.74C581.687 102.82 581.734 102.927 581.734 103.06V103.88C581.734 104.013 581.687 104.12 581.594 104.2C581.514 104.28 581.407 104.32 581.274 104.32H580.074C579.354 104.32 578.787 104.533 578.374 104.96C577.96 105.373 577.754 105.94 577.754 106.66V112.54C577.754 112.673 577.707 112.787 577.614 112.88C577.52 112.96 577.407 113 577.274 113H576.294ZM587.396 113.2C586.023 113.2 584.923 112.78 584.096 111.94C583.283 111.087 582.836 109.927 582.756 108.46L582.736 107.78L582.756 107.12C582.849 105.68 583.303 104.533 584.116 103.68C584.943 102.827 586.029 102.4 587.376 102.4C588.856 102.4 590.003 102.873 590.816 103.82C591.629 104.753 592.036 106.02 592.036 107.62V107.96C592.036 108.093 591.989 108.207 591.896 108.3C591.816 108.38 591.709 108.42 591.576 108.42H584.656V108.6C584.696 109.467 584.956 110.207 585.436 110.82C585.929 111.42 586.576 111.72 587.376 111.72C587.989 111.72 588.489 111.6 588.876 111.36C589.276 111.107 589.569 110.847 589.756 110.58C589.876 110.42 589.963 110.327 590.016 110.3C590.083 110.26 590.196 110.24 590.356 110.24H591.336C591.456 110.24 591.556 110.273 591.636 110.34C591.716 110.407 591.756 110.5 591.756 110.62C591.756 110.913 591.569 111.267 591.196 111.68C590.836 112.093 590.323 112.453 589.656 112.76C589.003 113.053 588.249 113.2 587.396 113.2ZM590.136 107.04V106.98C590.136 106.06 589.883 105.313 589.376 104.74C588.883 104.153 588.216 103.86 587.376 103.86C586.536 103.86 585.869 104.153 585.376 104.74C584.896 105.313 584.656 106.06 584.656 106.98V107.04H590.136ZM597.327 113.2C596.674 113.2 596.067 113.067 595.507 112.8C594.947 112.533 594.501 112.173 594.167 111.72C593.847 111.253 593.687 110.74 593.687 110.18C593.687 109.3 594.047 108.58 594.767 108.02C595.501 107.447 596.487 107.073 597.727 106.9L600.707 106.48V105.9C600.707 104.54 599.927 103.86 598.367 103.86C597.781 103.86 597.301 103.987 596.927 104.24C596.554 104.48 596.274 104.767 596.087 105.1C596.047 105.22 595.994 105.307 595.927 105.36C595.874 105.413 595.794 105.44 595.687 105.44H594.827C594.707 105.44 594.601 105.4 594.507 105.32C594.427 105.227 594.387 105.12 594.387 105C594.401 104.68 594.547 104.32 594.827 103.92C595.121 103.507 595.567 103.153 596.167 102.86C596.767 102.553 597.507 102.4 598.387 102.4C599.881 102.4 600.954 102.753 601.607 103.46C602.261 104.153 602.587 105.02 602.587 106.06V112.54C602.587 112.673 602.541 112.787 602.447 112.88C602.367 112.96 602.261 113 602.127 113H601.207C601.074 113 600.961 112.96 600.867 112.88C600.787 112.787 600.747 112.673 600.747 112.54V111.68C600.454 112.107 600.027 112.467 599.467 112.76C598.907 113.053 598.194 113.2 597.327 113.2ZM597.747 111.7C598.614 111.7 599.321 111.42 599.867 110.86C600.427 110.287 600.707 109.467 600.707 108.4V107.84L598.387 108.18C597.441 108.313 596.727 108.54 596.247 108.86C595.767 109.167 595.527 109.56 595.527 110.04C595.527 110.573 595.747 110.987 596.187 111.28C596.627 111.56 597.147 111.7 597.747 111.7ZM609.425 113C607.318 113 606.265 111.827 606.265 109.48V104.2H604.705C604.571 104.2 604.458 104.16 604.365 104.08C604.285 103.987 604.245 103.873 604.245 103.74V103.06C604.245 102.927 604.285 102.82 604.365 102.74C604.458 102.647 604.571 102.6 604.705 102.6H606.265V99.26C606.265 99.1267 606.305 99.02 606.385 98.94C606.478 98.8467 606.591 98.8 606.725 98.8H607.665C607.798 98.8 607.905 98.8467 607.985 98.94C608.078 99.02 608.125 99.1267 608.125 99.26V102.6H610.605C610.738 102.6 610.845 102.647 610.925 102.74C611.018 102.82 611.065 102.927 611.065 103.06V103.74C611.065 103.873 611.018 103.987 610.925 104.08C610.845 104.16 610.738 104.2 610.605 104.2H608.125V109.34C608.125 110.007 608.238 110.513 608.465 110.86C608.691 111.193 609.065 111.36 609.585 111.36H610.805C610.938 111.36 611.045 111.407 611.125 111.5C611.218 111.58 611.265 111.687 611.265 111.82V112.54C611.265 112.673 611.218 112.787 611.125 112.88C611.045 112.96 610.938 113 610.805 113H609.425ZM617.337 113.2C615.964 113.2 614.864 112.78 614.037 111.94C613.224 111.087 612.777 109.927 612.697 108.46L612.677 107.78L612.697 107.12C612.791 105.68 613.244 104.533 614.057 103.68C614.884 102.827 615.971 102.4 617.317 102.4C618.797 102.4 619.944 102.873 620.757 103.82C621.571 104.753 621.977 106.02 621.977 107.62V107.96C621.977 108.093 621.931 108.207 621.837 108.3C621.757 108.38 621.651 108.42 621.517 108.42H614.597V108.6C614.637 109.467 614.897 110.207 615.377 110.82C615.871 111.42 616.517 111.72 617.317 111.72C617.931 111.72 618.431 111.6 618.817 111.36C619.217 111.107 619.511 110.847 619.697 110.58C619.817 110.42 619.904 110.327 619.957 110.3C620.024 110.26 620.137 110.24 620.297 110.24H621.277C621.397 110.24 621.497 110.273 621.577 110.34C621.657 110.407 621.697 110.5 621.697 110.62C621.697 110.913 621.511 111.267 621.137 111.68C620.777 112.093 620.264 112.453 619.597 112.76C618.944 113.053 618.191 113.2 617.337 113.2ZM620.077 107.04V106.98C620.077 106.06 619.824 105.313 619.317 104.74C618.824 104.153 618.157 103.86 617.317 103.86C616.477 103.86 615.811 104.153 615.317 104.74C614.837 105.313 614.597 106.06 614.597 106.98V107.04H620.077ZM629.731 113C629.598 113 629.484 112.96 629.391 112.88C629.311 112.787 629.271 112.673 629.271 112.54V103.06C629.271 102.927 629.311 102.82 629.391 102.74C629.484 102.647 629.598 102.6 629.731 102.6H630.671C630.804 102.6 630.911 102.647 630.991 102.74C631.084 102.82 631.131 102.927 631.131 103.06V103.94C631.518 103.447 631.971 103.067 632.491 102.8C633.024 102.533 633.684 102.4 634.471 102.4C635.751 102.4 636.744 102.813 637.451 103.64C638.171 104.453 638.531 105.54 638.531 106.9V112.54C638.531 112.673 638.484 112.787 638.391 112.88C638.311 112.96 638.204 113 638.071 113H637.071C636.938 113 636.824 112.96 636.731 112.88C636.651 112.787 636.611 112.673 636.611 112.54V107C636.611 106.053 636.378 105.32 635.911 104.8C635.458 104.28 634.798 104.02 633.931 104.02C633.091 104.02 632.424 104.287 631.931 104.82C631.438 105.34 631.191 106.067 631.191 107V112.54C631.191 112.673 631.144 112.787 631.051 112.88C630.971 112.96 630.864 113 630.731 113H629.731ZM645.56 113.2C644.187 113.2 643.087 112.78 642.26 111.94C641.447 111.087 641 109.927 640.92 108.46L640.9 107.78L640.92 107.12C641.013 105.68 641.467 104.533 642.28 103.68C643.107 102.827 644.193 102.4 645.54 102.4C647.02 102.4 648.167 102.873 648.98 103.82C649.793 104.753 650.2 106.02 650.2 107.62V107.96C650.2 108.093 650.153 108.207 650.06 108.3C649.98 108.38 649.873 108.42 649.74 108.42H642.82V108.6C642.86 109.467 643.12 110.207 643.6 110.82C644.093 111.42 644.74 111.72 645.54 111.72C646.153 111.72 646.653 111.6 647.04 111.36C647.44 111.107 647.733 110.847 647.92 110.58C648.04 110.42 648.127 110.327 648.18 110.3C648.247 110.26 648.36 110.24 648.52 110.24H649.5C649.62 110.24 649.72 110.273 649.8 110.34C649.88 110.407 649.92 110.5 649.92 110.62C649.92 110.913 649.733 111.267 649.36 111.68C649 112.093 648.487 112.453 647.82 112.76C647.167 113.053 646.413 113.2 645.56 113.2ZM648.3 107.04V106.98C648.3 106.06 648.047 105.313 647.54 104.74C647.047 104.153 646.38 103.86 645.54 103.86C644.7 103.86 644.033 104.153 643.54 104.74C643.06 105.313 642.82 106.06 642.82 106.98V107.04H648.3ZM655.078 113C654.905 113 654.771 112.96 654.678 112.88C654.585 112.8 654.505 112.673 654.438 112.5L651.598 103.22L651.558 103.02C651.558 102.9 651.598 102.8 651.678 102.72C651.771 102.64 651.871 102.6 651.978 102.6H652.858C652.991 102.6 653.098 102.64 653.178 102.72C653.271 102.787 653.331 102.86 653.358 102.94L655.578 110.48L657.958 103.02C657.985 102.913 658.045 102.82 658.138 102.74C658.231 102.647 658.358 102.6 658.518 102.6H659.198C659.358 102.6 659.485 102.647 659.578 102.74C659.671 102.82 659.731 102.913 659.758 103.02L662.138 110.48L664.358 102.94C664.371 102.873 664.418 102.8 664.498 102.72C664.591 102.64 664.705 102.6 664.838 102.6H665.738C665.845 102.6 665.938 102.64 666.018 102.72C666.098 102.8 666.138 102.9 666.138 103.02L666.098 103.22L663.278 112.5C663.211 112.673 663.131 112.8 663.038 112.88C662.945 112.96 662.805 113 662.618 113H661.838C661.478 113 661.258 112.833 661.178 112.5L658.858 105.34L656.538 112.5C656.431 112.833 656.205 113 655.858 113H655.078ZM673.916 113C673.782 113 673.669 112.96 673.576 112.88C673.496 112.787 673.456 112.673 673.456 112.54V104.2H671.756C671.622 104.2 671.509 104.16 671.416 104.08C671.336 103.987 671.296 103.873 671.296 103.74V103.06C671.296 102.927 671.336 102.82 671.416 102.74C671.509 102.647 671.622 102.6 671.756 102.6H673.456V101.6C673.456 99.3333 674.602 98.2 676.896 98.2H679.976C680.109 98.2 680.216 98.2467 680.296 98.34C680.389 98.42 680.436 98.5267 680.436 98.66V99.34C680.436 99.4733 680.389 99.5867 680.296 99.68C680.216 99.76 680.109 99.8 679.976 99.8H676.936C676.336 99.8 675.916 99.96 675.676 100.28C675.436 100.587 675.316 101.06 675.316 101.7V102.6H679.976C680.109 102.6 680.216 102.647 680.296 102.74C680.389 102.82 680.436 102.927 680.436 103.06V112.54C680.436 112.673 680.389 112.787 680.296 112.88C680.216 112.96 680.109 113 679.976 113H679.056C678.922 113 678.809 112.96 678.716 112.88C678.636 112.787 678.596 112.673 678.596 112.54V104.2H675.316V112.54C675.316 112.673 675.269 112.787 675.176 112.88C675.096 112.96 674.989 113 674.856 113H673.916ZM683.872 113C683.739 113 683.625 112.96 683.532 112.88C683.452 112.787 683.412 112.673 683.412 112.54V99.26C683.412 99.1267 683.452 99.02 683.532 98.94C683.625 98.8467 683.739 98.8 683.872 98.8H684.812C684.945 98.8 685.052 98.8467 685.132 98.94C685.225 99.02 685.272 99.1267 685.272 99.26V112.54C685.272 112.673 685.225 112.787 685.132 112.88C685.052 112.96 684.945 113 684.812 113H683.872ZM692.415 113.2C691.042 113.2 689.942 112.78 689.115 111.94C688.302 111.087 687.855 109.927 687.775 108.46L687.755 107.78L687.775 107.12C687.869 105.68 688.322 104.533 689.135 103.68C689.962 102.827 691.049 102.4 692.395 102.4C693.875 102.4 695.022 102.873 695.835 103.82C696.649 104.753 697.055 106.02 697.055 107.62V107.96C697.055 108.093 697.009 108.207 696.915 108.3C696.835 108.38 696.729 108.42 696.595 108.42H689.675V108.6C689.715 109.467 689.975 110.207 690.455 110.82C690.949 111.42 691.595 111.72 692.395 111.72C693.009 111.72 693.509 111.6 693.895 111.36C694.295 111.107 694.589 110.847 694.775 110.58C694.895 110.42 694.982 110.327 695.035 110.3C695.102 110.26 695.215 110.24 695.375 110.24H696.355C696.475 110.24 696.575 110.273 696.655 110.34C696.735 110.407 696.775 110.5 696.775 110.62C696.775 110.913 696.589 111.267 696.215 111.68C695.855 112.093 695.342 112.453 694.675 112.76C694.022 113.053 693.269 113.2 692.415 113.2ZM695.155 107.04V106.98C695.155 106.06 694.902 105.313 694.395 104.74C693.902 104.153 693.235 103.86 692.395 103.86C691.555 103.86 690.889 104.153 690.395 104.74C689.915 105.313 689.675 106.06 689.675 106.98V107.04H695.155Z" fill="#40434E"/>
<path d="M332.458 44C332.325 44 332.211 43.9533 332.118 43.86C332.025 43.7667 331.978 43.6533 331.978 43.52V32.46H328.278C328.145 32.46 328.031 32.4133 327.938 32.32C327.845 32.2267 327.798 32.1133 327.798 31.98V30.5C327.798 30.3533 327.838 30.2333 327.918 30.14C328.011 30.0467 328.131 30 328.278 30H338.478C338.625 30 338.745 30.0467 338.838 30.14C338.931 30.2333 338.978 30.3533 338.978 30.5V31.98C338.978 32.1133 338.931 32.2267 338.838 32.32C338.745 32.4133 338.625 32.46 338.478 32.46H334.798V43.52C334.798 43.6533 334.751 43.7667 334.658 43.86C334.565 43.9533 334.445 44 334.298 44H332.458ZM341.99 44.2C341.31 44.2 340.684 44.0667 340.11 43.8C339.55 43.52 339.104 43.1467 338.77 42.68C338.45 42.2133 338.29 41.7 338.29 41.14C338.29 40.2333 338.657 39.5 339.39 38.94C340.124 38.38 341.13 38 342.41 37.8L345.15 37.4V36.98C345.15 36.3933 345.004 35.9533 344.71 35.66C344.417 35.3667 343.944 35.22 343.29 35.22C342.85 35.22 342.49 35.3067 342.21 35.48C341.944 35.64 341.73 35.8 341.57 35.96C341.41 36.1333 341.304 36.2467 341.25 36.3C341.197 36.46 341.097 36.54 340.95 36.54H339.41C339.29 36.54 339.184 36.5 339.09 36.42C339.01 36.34 338.97 36.2333 338.97 36.1C338.984 35.7667 339.144 35.3867 339.45 34.96C339.77 34.5333 340.257 34.1667 340.91 33.86C341.564 33.5533 342.364 33.4 343.31 33.4C344.884 33.4 346.03 33.7533 346.75 34.46C347.47 35.1667 347.83 36.0933 347.83 37.24V43.52C347.83 43.6533 347.784 43.7667 347.69 43.86C347.61 43.9533 347.497 44 347.35 44H345.73C345.597 44 345.484 43.9533 345.39 43.86C345.297 43.7667 345.25 43.6533 345.25 43.52V42.74C344.957 43.1667 344.537 43.52 343.99 43.8C343.457 44.0667 342.79 44.2 341.99 44.2ZM342.67 42.3C343.404 42.3 344.004 42.06 344.47 41.58C344.937 41.1 345.17 40.4 345.17 39.48V39.06L343.17 39.38C342.397 39.5 341.81 39.6933 341.41 39.96C341.024 40.2267 340.83 40.5533 340.83 40.94C340.83 41.3667 341.01 41.7 341.37 41.94C341.73 42.18 342.164 42.3 342.67 42.3ZM350.876 44C350.743 44 350.63 43.9533 350.536 43.86C350.443 43.7667 350.396 43.6533 350.396 43.52V34.1C350.396 33.9667 350.443 33.8533 350.536 33.76C350.63 33.6533 350.743 33.6 350.876 33.6H352.496C352.643 33.6 352.763 33.6467 352.856 33.74C352.95 33.8333 352.996 33.9533 352.996 34.1V34.92C353.316 34.4933 353.716 34.1667 354.196 33.94C354.69 33.7133 355.25 33.6 355.876 33.6H356.696C356.843 33.6 356.956 33.6467 357.036 33.74C357.13 33.82 357.176 33.9333 357.176 34.08V35.52C357.176 35.6533 357.13 35.7667 357.036 35.86C356.956 35.9533 356.843 36 356.696 36H355.136C354.51 36 354.016 36.18 353.656 36.54C353.296 36.9 353.116 37.3933 353.116 38.02V43.52C353.116 43.6533 353.07 43.7667 352.976 43.86C352.883 43.9533 352.763 44 352.616 44H350.876ZM363.28 48.4C362.093 48.4 361.133 48.2 360.4 47.8C359.666 47.4133 359.146 46.9667 358.84 46.46C358.533 45.9533 358.38 45.52 358.38 45.16C358.38 45.04 358.426 44.9333 358.52 44.84C358.626 44.7467 358.74 44.7 358.86 44.7H360.6C360.72 44.7 360.82 44.7267 360.9 44.78C360.993 44.8467 361.066 44.96 361.12 45.12C361.253 45.48 361.466 45.78 361.76 46.02C362.066 46.2733 362.54 46.4 363.18 46.4C363.98 46.4 364.566 46.22 364.94 45.86C365.326 45.5 365.52 44.88 365.52 44V42.64C364.786 43.5067 363.76 43.94 362.44 43.94C361.053 43.94 360.006 43.5133 359.3 42.66C358.606 41.8067 358.233 40.66 358.18 39.22L358.16 38.68L358.18 38.14C358.233 36.7267 358.613 35.5867 359.32 34.72C360.026 33.84 361.066 33.4 362.44 33.4C363.146 33.4 363.766 33.5333 364.3 33.8C364.833 34.0667 365.28 34.4333 365.64 34.9V34.1C365.64 33.9533 365.686 33.8333 365.78 33.74C365.873 33.6467 365.986 33.6 366.12 33.6H367.74C367.873 33.6 367.986 33.6533 368.08 33.76C368.173 33.8533 368.22 33.9667 368.22 34.1L368.24 43.74C368.24 45.22 367.826 46.3667 367 47.18C366.173 47.9933 364.933 48.4 363.28 48.4ZM363.18 41.82C363.94 41.82 364.506 41.58 364.88 41.1C365.266 40.62 365.48 40.0333 365.52 39.34C365.533 39.2333 365.54 39.0133 365.54 38.68C365.54 38.36 365.533 38.1467 365.52 38.04C365.48 37.3333 365.266 36.74 364.88 36.26C364.506 35.78 363.94 35.54 363.18 35.54C361.74 35.54 360.98 36.4267 360.9 38.2L360.88 38.68C360.88 39.6267 361.046 40.3867 361.38 40.96C361.726 41.5333 362.326 41.82 363.18 41.82ZM375.384 44.2C373.904 44.2 372.724 43.7733 371.844 42.92C370.977 42.0533 370.517 40.84 370.464 39.28L370.444 38.78L370.464 38.28C370.531 36.76 370.997 35.5667 371.864 34.7C372.744 33.8333 373.917 33.4 375.384 33.4C376.957 33.4 378.171 33.88 379.024 34.84C379.891 35.8 380.324 37.08 380.324 38.68V39.1C380.324 39.2333 380.277 39.3467 380.184 39.44C380.091 39.5333 379.971 39.58 379.824 39.58H373.184V39.74C373.211 40.4733 373.411 41.0933 373.784 41.6C374.171 42.0933 374.697 42.34 375.364 42.34C376.151 42.34 376.784 42.0333 377.264 41.42C377.384 41.2733 377.477 41.18 377.544 41.14C377.624 41.1 377.737 41.08 377.884 41.08H379.604C379.724 41.08 379.824 41.12 379.904 41.2C379.997 41.2667 380.044 41.3533 380.044 41.46C380.044 41.78 379.851 42.16 379.464 42.6C379.091 43.0267 378.551 43.4 377.844 43.72C377.137 44.04 376.317 44.2 375.384 44.2ZM377.604 37.9V37.84C377.604 37.0533 377.404 36.42 377.004 35.94C376.617 35.46 376.077 35.22 375.384 35.22C374.691 35.22 374.151 35.46 373.764 35.94C373.377 36.42 373.184 37.0533 373.184 37.84V37.9H377.604ZM387.108 44C385.895 44 384.981 43.6867 384.368 43.06C383.768 42.42 383.468 41.4867 383.468 40.26V35.72H381.888C381.755 35.72 381.641 35.6733 381.548 35.58C381.455 35.4733 381.408 35.3533 381.408 35.22V34.08C381.408 33.9467 381.455 33.8333 381.548 33.74C381.641 33.6467 381.755 33.6 381.888 33.6H383.468V30.28C383.468 30.1333 383.515 30.02 383.608 29.94C383.701 29.8467 383.815 29.8 383.948 29.8H385.568C385.715 29.8 385.828 29.8467 385.908 29.94C386.001 30.02 386.048 30.1333 386.048 30.28V33.6H388.548C388.695 33.6 388.808 33.6467 388.888 33.74C388.981 33.82 389.028 33.9333 389.028 34.08V35.22C389.028 35.3667 388.981 35.4867 388.888 35.58C388.795 35.6733 388.681 35.72 388.548 35.72H386.048V40.06C386.048 40.6333 386.148 41.0667 386.348 41.36C386.548 41.6533 386.881 41.8 387.348 41.8H388.728C388.861 41.8 388.975 41.8467 389.068 41.94C389.161 42.0333 389.208 42.1467 389.208 42.28V43.52C389.208 43.6533 389.161 43.7667 389.068 43.86C388.988 43.9533 388.875 44 388.728 44H387.108Z" fill="#40434E"/>
<path d="M617.368 44.2C615.528 44.2 614.102 43.7267 613.088 42.78C612.088 41.8333 611.555 40.5 611.488 38.78C611.475 38.42 611.468 37.8333 611.468 37.02C611.468 36.1933 611.475 35.5933 611.488 35.22C611.555 33.5133 612.095 32.1867 613.108 31.24C614.135 30.28 615.555 29.8 617.368 29.8C618.555 29.8 619.588 30.0067 620.468 30.42C621.348 30.82 622.028 31.3733 622.508 32.08C622.988 32.7733 623.242 33.56 623.268 34.44V34.48C623.268 34.5867 623.222 34.68 623.128 34.76C623.048 34.8267 622.955 34.86 622.848 34.86H620.948C620.788 34.86 620.668 34.8267 620.588 34.76C620.508 34.6933 620.442 34.5667 620.388 34.38C620.175 33.54 619.822 32.9533 619.328 32.62C618.835 32.2733 618.175 32.1 617.348 32.1C615.428 32.1 614.428 33.1733 614.348 35.32C614.335 35.68 614.328 36.2333 614.328 36.98C614.328 37.7267 614.335 38.2933 614.348 38.68C614.428 40.8267 615.428 41.9 617.348 41.9C618.175 41.9 618.835 41.7267 619.328 41.38C619.835 41.0333 620.188 40.4467 620.388 39.62C620.428 39.4333 620.488 39.3067 620.568 39.24C620.662 39.1733 620.788 39.14 620.948 39.14H622.848C622.968 39.14 623.068 39.18 623.148 39.26C623.242 39.34 623.282 39.44 623.268 39.56C623.242 40.44 622.988 41.2333 622.508 41.94C622.028 42.6333 621.348 43.1867 620.468 43.6C619.588 44 618.555 44.2 617.368 44.2ZM629.2 44C629.067 44 628.953 43.9533 628.86 43.86C628.767 43.7667 628.72 43.6533 628.72 43.52V32.46H625.02C624.887 32.46 624.773 32.4133 624.68 32.32C624.587 32.2267 624.54 32.1133 624.54 31.98V30.5C624.54 30.3533 624.58 30.2333 624.66 30.14C624.753 30.0467 624.873 30 625.02 30H635.22C635.367 30 635.487 30.0467 635.58 30.14C635.673 30.2333 635.72 30.3533 635.72 30.5V31.98C635.72 32.1133 635.673 32.2267 635.58 32.32C635.487 32.4133 635.367 32.46 635.22 32.46H631.54V43.52C631.54 43.6533 631.493 43.7667 631.4 43.86C631.307 43.9533 631.187 44 631.04 44H629.2ZM635.425 44C635.318 44 635.218 43.96 635.125 43.88C635.045 43.8 635.005 43.7 635.005 43.58L635.045 43.4L639.865 30.5C639.958 30.1667 640.191 30 640.565 30H642.745C643.091 30 643.325 30.1667 643.445 30.5L648.265 43.4C648.278 43.44 648.285 43.5 648.285 43.58C648.285 43.7 648.245 43.8 648.165 43.88C648.085 43.96 647.991 44 647.885 44H646.145C645.971 44 645.838 43.96 645.745 43.88C645.651 43.8 645.591 43.7133 645.565 43.62L644.625 41.18H638.685L637.745 43.62C637.638 43.8733 637.445 44 637.165 44H635.425ZM643.925 38.88L641.645 32.7L639.385 38.88H643.925Z" fill="#40434E"/>
<path d="M308.911 198C308.778 198 308.664 197.96 308.571 197.88C308.491 197.787 308.451 197.673 308.451 197.54V184.48C308.451 184.333 308.491 184.22 308.571 184.14C308.664 184.047 308.778 184 308.911 184H309.931C310.078 184 310.191 184.047 310.271 184.14C310.364 184.22 310.411 184.333 310.411 184.48V190H317.291V184.48C317.291 184.333 317.331 184.22 317.411 184.14C317.504 184.047 317.618 184 317.751 184H318.771C318.918 184 319.031 184.047 319.111 184.14C319.204 184.22 319.251 184.333 319.251 184.48V197.54C319.251 197.673 319.204 197.787 319.111 197.88C319.018 197.96 318.904 198 318.771 198H317.751C317.618 198 317.504 197.96 317.411 197.88C317.331 197.787 317.291 197.673 317.291 197.54V191.8H310.411V197.54C310.411 197.673 310.364 197.787 310.271 197.88C310.178 197.96 310.064 198 309.931 198H308.911ZM326.728 198.2C325.262 198.2 324.122 197.787 323.308 196.96C322.508 196.133 322.082 195.033 322.028 193.66L322.008 192.8L322.028 191.94C322.082 190.58 322.515 189.487 323.328 188.66C324.142 187.82 325.275 187.4 326.728 187.4C328.182 187.4 329.315 187.82 330.128 188.66C330.942 189.487 331.375 190.58 331.428 191.94C331.442 192.087 331.448 192.373 331.448 192.8C331.448 193.227 331.442 193.513 331.428 193.66C331.375 195.033 330.942 196.133 330.128 196.96C329.328 197.787 328.195 198.2 326.728 198.2ZM326.728 196.66C327.568 196.66 328.228 196.393 328.708 195.86C329.202 195.327 329.468 194.56 329.508 193.56C329.522 193.427 329.528 193.173 329.528 192.8C329.528 192.427 329.522 192.173 329.508 192.04C329.468 191.04 329.202 190.273 328.708 189.74C328.228 189.207 327.568 188.94 326.728 188.94C325.888 188.94 325.222 189.207 324.728 189.74C324.235 190.273 323.975 191.04 323.948 192.04L323.928 192.8L323.948 193.56C323.975 194.56 324.235 195.327 324.728 195.86C325.222 196.393 325.888 196.66 326.728 196.66ZM337.915 198C335.808 198 334.755 196.827 334.755 194.48V189.2H333.195C333.062 189.2 332.948 189.16 332.855 189.08C332.775 188.987 332.735 188.873 332.735 188.74V188.06C332.735 187.927 332.775 187.82 332.855 187.74C332.948 187.647 333.062 187.6 333.195 187.6H334.755V184.26C334.755 184.127 334.795 184.02 334.875 183.94C334.968 183.847 335.082 183.8 335.215 183.8H336.155C336.288 183.8 336.395 183.847 336.475 183.94C336.568 184.02 336.615 184.127 336.615 184.26V187.6H339.095C339.228 187.6 339.335 187.647 339.415 187.74C339.508 187.82 339.555 187.927 339.555 188.06V188.74C339.555 188.873 339.508 188.987 339.415 189.08C339.335 189.16 339.228 189.2 339.095 189.2H336.615V194.34C336.615 195.007 336.728 195.513 336.955 195.86C337.182 196.193 337.555 196.36 338.075 196.36H339.295C339.428 196.36 339.535 196.407 339.615 196.5C339.708 196.58 339.755 196.687 339.755 196.82V197.54C339.755 197.673 339.708 197.787 339.615 197.88C339.535 197.96 339.428 198 339.295 198H337.915ZM345.828 198.2C344.454 198.2 343.354 197.78 342.528 196.94C341.714 196.087 341.268 194.927 341.188 193.46L341.168 192.78L341.188 192.12C341.281 190.68 341.734 189.533 342.548 188.68C343.374 187.827 344.461 187.4 345.808 187.4C347.288 187.4 348.434 187.873 349.248 188.82C350.061 189.753 350.467 191.02 350.467 192.62V192.96C350.467 193.093 350.421 193.207 350.328 193.3C350.248 193.38 350.141 193.42 350.008 193.42H343.088V193.6C343.128 194.467 343.388 195.207 343.868 195.82C344.361 196.42 345.008 196.72 345.808 196.72C346.421 196.72 346.921 196.6 347.308 196.36C347.708 196.107 348.001 195.847 348.188 195.58C348.308 195.42 348.394 195.327 348.448 195.3C348.514 195.26 348.628 195.24 348.788 195.24H349.768C349.888 195.24 349.988 195.273 350.068 195.34C350.148 195.407 350.188 195.5 350.188 195.62C350.188 195.913 350.001 196.267 349.628 196.68C349.268 197.093 348.754 197.453 348.088 197.76C347.434 198.053 346.681 198.2 345.828 198.2ZM348.568 192.04V191.98C348.568 191.06 348.314 190.313 347.808 189.74C347.314 189.153 346.648 188.86 345.808 188.86C344.968 188.86 344.301 189.153 343.808 189.74C343.328 190.313 343.088 191.06 343.088 191.98V192.04H348.568ZM353.339 198C353.206 198 353.092 197.96 352.999 197.88C352.919 197.787 352.879 197.673 352.879 197.54V184.26C352.879 184.127 352.919 184.02 352.999 183.94C353.092 183.847 353.206 183.8 353.339 183.8H354.279C354.412 183.8 354.519 183.847 354.599 183.94C354.692 184.02 354.739 184.127 354.739 184.26V197.54C354.739 197.673 354.692 197.787 354.599 197.88C354.519 197.96 354.412 198 354.279 198H353.339ZM363.085 198C362.951 198 362.838 197.96 362.745 197.88C362.665 197.787 362.625 197.673 362.625 197.54V188.08C362.625 187.947 362.665 187.833 362.745 187.74C362.838 187.647 362.951 187.6 363.085 187.6H364.005C364.138 187.6 364.251 187.647 364.345 187.74C364.438 187.833 364.485 187.947 364.485 188.08V188.96C365.031 188.053 365.965 187.6 367.285 187.6H368.065C368.198 187.6 368.305 187.647 368.385 187.74C368.478 187.82 368.525 187.927 368.525 188.06V188.88C368.525 189.013 368.478 189.12 368.385 189.2C368.305 189.28 368.198 189.32 368.065 189.32H366.865C366.145 189.32 365.578 189.533 365.165 189.96C364.751 190.373 364.545 190.94 364.545 191.66V197.54C364.545 197.673 364.498 197.787 364.405 197.88C364.311 197.96 364.198 198 364.065 198H363.085ZM374.287 198.2C372.82 198.2 371.68 197.787 370.867 196.96C370.067 196.133 369.64 195.033 369.587 193.66L369.567 192.8L369.587 191.94C369.64 190.58 370.074 189.487 370.887 188.66C371.7 187.82 372.834 187.4 374.287 187.4C375.74 187.4 376.874 187.82 377.687 188.66C378.5 189.487 378.934 190.58 378.987 191.94C379 192.087 379.007 192.373 379.007 192.8C379.007 193.227 379 193.513 378.987 193.66C378.934 195.033 378.5 196.133 377.687 196.96C376.887 197.787 375.754 198.2 374.287 198.2ZM374.287 196.66C375.127 196.66 375.787 196.393 376.267 195.86C376.76 195.327 377.027 194.56 377.067 193.56C377.08 193.427 377.087 193.173 377.087 192.8C377.087 192.427 377.08 192.173 377.067 192.04C377.027 191.04 376.76 190.273 376.267 189.74C375.787 189.207 375.127 188.94 374.287 188.94C373.447 188.94 372.78 189.207 372.287 189.74C371.794 190.273 371.534 191.04 371.507 192.04L371.487 192.8L371.507 193.56C371.534 194.56 371.794 195.327 372.287 195.86C372.78 196.393 373.447 196.66 374.287 196.66ZM385.771 198.2C384.305 198.2 383.165 197.787 382.351 196.96C381.551 196.133 381.125 195.033 381.071 193.66L381.051 192.8L381.071 191.94C381.125 190.58 381.558 189.487 382.371 188.66C383.185 187.82 384.318 187.4 385.771 187.4C387.225 187.4 388.358 187.82 389.171 188.66C389.985 189.487 390.418 190.58 390.471 191.94C390.485 192.087 390.491 192.373 390.491 192.8C390.491 193.227 390.485 193.513 390.471 193.66C390.418 195.033 389.985 196.133 389.171 196.96C388.371 197.787 387.238 198.2 385.771 198.2ZM385.771 196.66C386.611 196.66 387.271 196.393 387.751 195.86C388.245 195.327 388.511 194.56 388.551 193.56C388.565 193.427 388.571 193.173 388.571 192.8C388.571 192.427 388.565 192.173 388.551 192.04C388.511 191.04 388.245 190.273 387.751 189.74C387.271 189.207 386.611 188.94 385.771 188.94C384.931 188.94 384.265 189.207 383.771 189.74C383.278 190.273 383.018 191.04 382.991 192.04L382.971 192.8L382.991 193.56C383.018 194.56 383.278 195.327 383.771 195.86C384.265 196.393 384.931 196.66 385.771 196.66ZM393.456 198C393.322 198 393.209 197.96 393.116 197.88C393.036 197.787 392.996 197.673 392.996 197.54V188.06C392.996 187.927 393.036 187.82 393.116 187.74C393.209 187.647 393.322 187.6 393.456 187.6H394.356C394.489 187.6 394.596 187.647 394.676 187.74C394.769 187.82 394.816 187.927 394.816 188.06V188.76C395.509 187.853 396.476 187.4 397.716 187.4C399.196 187.4 400.242 188.013 400.856 189.24C401.176 188.68 401.629 188.233 402.216 187.9C402.802 187.567 403.462 187.4 404.196 187.4C405.289 187.4 406.182 187.773 406.876 188.52C407.569 189.267 407.916 190.347 407.916 191.76V197.54C407.916 197.673 407.869 197.787 407.776 197.88C407.696 197.96 407.589 198 407.456 198H406.516C406.382 198 406.269 197.96 406.176 197.88C406.096 197.787 406.056 197.673 406.056 197.54V191.94C406.056 190.9 405.836 190.153 405.396 189.7C404.969 189.247 404.402 189.02 403.696 189.02C403.069 189.02 402.529 189.253 402.076 189.72C401.622 190.173 401.396 190.913 401.396 191.94V197.54C401.396 197.673 401.349 197.787 401.256 197.88C401.176 197.96 401.069 198 400.936 198H399.996C399.862 198 399.749 197.96 399.656 197.88C399.576 197.787 399.536 197.673 399.536 197.54V191.94C399.536 190.9 399.309 190.153 398.856 189.7C398.416 189.247 397.856 189.02 397.176 189.02C396.549 189.02 396.009 189.253 395.556 189.72C395.102 190.173 394.876 190.907 394.876 191.92V197.54C394.876 197.673 394.829 197.787 394.736 197.88C394.656 197.96 394.549 198 394.416 198H393.456Z" fill="#40434E"/>
<path d="M555.782 198C555.649 198 555.535 197.96 555.442 197.88C555.362 197.787 555.322 197.673 555.322 197.54V184.48C555.322 184.333 555.362 184.22 555.442 184.14C555.535 184.047 555.649 184 555.782 184H561.262C562.689 184 563.762 184.34 564.482 185.02C565.202 185.7 565.562 186.593 565.562 187.7C565.562 188.447 565.389 189.067 565.042 189.56C564.709 190.053 564.309 190.413 563.842 190.64C564.402 190.92 564.875 191.353 565.262 191.94C565.649 192.527 565.842 193.2 565.842 193.96C565.842 194.707 565.669 195.387 565.322 196C564.989 196.613 564.489 197.1 563.822 197.46C563.155 197.82 562.355 198 561.422 198H555.782ZM560.962 189.92C561.802 189.92 562.442 189.727 562.882 189.34C563.335 188.953 563.562 188.413 563.562 187.72C563.562 187.04 563.342 186.52 562.902 186.16C562.462 185.8 561.815 185.62 560.962 185.62H557.282V189.92H560.962ZM561.162 196.38C562.002 196.38 562.655 196.153 563.122 195.7C563.602 195.247 563.842 194.667 563.842 193.96C563.842 193.227 563.602 192.64 563.122 192.2C562.655 191.747 562.002 191.52 561.162 191.52H557.282V196.38H561.162ZM572.681 198.2C571.215 198.2 570.075 197.787 569.261 196.96C568.461 196.133 568.035 195.033 567.981 193.66L567.961 192.8L567.981 191.94C568.035 190.58 568.468 189.487 569.281 188.66C570.095 187.82 571.228 187.4 572.681 187.4C574.135 187.4 575.268 187.82 576.081 188.66C576.895 189.487 577.328 190.58 577.381 191.94C577.395 192.087 577.401 192.373 577.401 192.8C577.401 193.227 577.395 193.513 577.381 193.66C577.328 195.033 576.895 196.133 576.081 196.96C575.281 197.787 574.148 198.2 572.681 198.2ZM572.681 196.66C573.521 196.66 574.181 196.393 574.661 195.86C575.155 195.327 575.421 194.56 575.461 193.56C575.475 193.427 575.481 193.173 575.481 192.8C575.481 192.427 575.475 192.173 575.461 192.04C575.421 191.04 575.155 190.273 574.661 189.74C574.181 189.207 573.521 188.94 572.681 188.94C571.841 188.94 571.175 189.207 570.681 189.74C570.188 190.273 569.928 191.04 569.901 192.04L569.881 192.8L569.901 193.56C569.928 194.56 570.188 195.327 570.681 195.86C571.175 196.393 571.841 196.66 572.681 196.66ZM584.166 198.2C582.699 198.2 581.559 197.787 580.746 196.96C579.946 196.133 579.519 195.033 579.466 193.66L579.446 192.8L579.466 191.94C579.519 190.58 579.952 189.487 580.766 188.66C581.579 187.82 582.712 187.4 584.166 187.4C585.619 187.4 586.752 187.82 587.566 188.66C588.379 189.487 588.812 190.58 588.866 191.94C588.879 192.087 588.886 192.373 588.886 192.8C588.886 193.227 588.879 193.513 588.866 193.66C588.812 195.033 588.379 196.133 587.566 196.96C586.766 197.787 585.632 198.2 584.166 198.2ZM584.166 196.66C585.006 196.66 585.666 196.393 586.146 195.86C586.639 195.327 586.906 194.56 586.946 193.56C586.959 193.427 586.966 193.173 586.966 192.8C586.966 192.427 586.959 192.173 586.946 192.04C586.906 191.04 586.639 190.273 586.146 189.74C585.666 189.207 585.006 188.94 584.166 188.94C583.326 188.94 582.659 189.207 582.166 189.74C581.672 190.273 581.412 191.04 581.386 192.04L581.366 192.8L581.386 193.56C581.412 194.56 581.672 195.327 582.166 195.86C582.659 196.393 583.326 196.66 584.166 196.66ZM591.87 198C591.737 198 591.623 197.96 591.53 197.88C591.45 197.787 591.41 197.673 591.41 197.54V184.26C591.41 184.127 591.45 184.02 591.53 183.94C591.623 183.847 591.737 183.8 591.87 183.8H592.81C592.943 183.8 593.05 183.847 593.13 183.94C593.223 184.02 593.27 184.127 593.27 184.26V191.22L597.21 187.94C597.25 187.913 597.317 187.86 597.41 187.78C597.503 187.713 597.59 187.667 597.67 187.64C597.763 187.613 597.877 187.6 598.01 187.6H599.07C599.19 187.6 599.29 187.64 599.37 187.72C599.45 187.8 599.49 187.9 599.49 188.02C599.49 188.167 599.41 188.293 599.25 188.4L594.63 192.24L599.75 197.22C599.91 197.353 599.99 197.473 599.99 197.58C599.99 197.7 599.95 197.8 599.87 197.88C599.79 197.96 599.69 198 599.57 198H598.53C598.33 198 598.183 197.98 598.09 197.94C598.01 197.9 597.89 197.807 597.73 197.66L593.27 193.4V197.54C593.27 197.673 593.223 197.787 593.13 197.88C593.05 197.96 592.943 198 592.81 198H591.87ZM606.89 198C606.756 198 606.643 197.96 606.55 197.88C606.47 197.787 606.43 197.673 606.43 197.54V184.26C606.43 184.127 606.47 184.02 606.55 183.94C606.643 183.847 606.756 183.8 606.89 183.8H607.89C608.023 183.8 608.13 183.847 608.21 183.94C608.303 184.02 608.35 184.127 608.35 184.26V188.92C608.736 188.427 609.19 188.053 609.71 187.8C610.23 187.533 610.876 187.4 611.65 187.4C612.93 187.4 613.923 187.813 614.63 188.64C615.35 189.453 615.71 190.54 615.71 191.9V197.54C615.71 197.673 615.663 197.787 615.57 197.88C615.49 197.96 615.383 198 615.25 198H614.25C614.116 198 614.003 197.96 613.91 197.88C613.83 197.787 613.79 197.673 613.79 197.54V192C613.79 191.053 613.556 190.32 613.09 189.8C612.636 189.28 611.976 189.02 611.11 189.02C610.27 189.02 609.596 189.287 609.09 189.82C608.596 190.34 608.35 191.067 608.35 192V197.54C608.35 197.673 608.303 197.787 608.21 197.88C608.13 197.96 608.023 198 607.89 198H606.89ZM622.857 198.2C621.391 198.2 620.251 197.787 619.437 196.96C618.637 196.133 618.211 195.033 618.157 193.66L618.137 192.8L618.157 191.94C618.211 190.58 618.644 189.487 619.457 188.66C620.271 187.82 621.404 187.4 622.857 187.4C624.311 187.4 625.444 187.82 626.257 188.66C627.071 189.487 627.504 190.58 627.557 191.94C627.571 192.087 627.577 192.373 627.577 192.8C627.577 193.227 627.571 193.513 627.557 193.66C627.504 195.033 627.071 196.133 626.257 196.96C625.457 197.787 624.324 198.2 622.857 198.2ZM622.857 196.66C623.697 196.66 624.357 196.393 624.837 195.86C625.331 195.327 625.597 194.56 625.637 193.56C625.651 193.427 625.657 193.173 625.657 192.8C625.657 192.427 625.651 192.173 625.637 192.04C625.597 191.04 625.331 190.273 624.837 189.74C624.357 189.207 623.697 188.94 622.857 188.94C622.017 188.94 621.351 189.207 620.857 189.74C620.364 190.273 620.104 191.04 620.077 192.04L620.057 192.8L620.077 193.56C620.104 194.56 620.364 195.327 620.857 195.86C621.351 196.393 622.017 196.66 622.857 196.66ZM634.044 198C631.937 198 630.884 196.827 630.884 194.48V189.2H629.324C629.191 189.2 629.077 189.16 628.984 189.08C628.904 188.987 628.864 188.873 628.864 188.74V188.06C628.864 187.927 628.904 187.82 628.984 187.74C629.077 187.647 629.191 187.6 629.324 187.6H630.884V184.26C630.884 184.127 630.924 184.02 631.004 183.94C631.097 183.847 631.211 183.8 631.344 183.8H632.284C632.417 183.8 632.524 183.847 632.604 183.94C632.697 184.02 632.744 184.127 632.744 184.26V187.6H635.224C635.357 187.6 635.464 187.647 635.544 187.74C635.637 187.82 635.684 187.927 635.684 188.06V188.74C635.684 188.873 635.637 188.987 635.544 189.08C635.464 189.16 635.357 189.2 635.224 189.2H632.744V194.34C632.744 195.007 632.857 195.513 633.084 195.86C633.311 196.193 633.684 196.36 634.204 196.36H635.424C635.557 196.36 635.664 196.407 635.744 196.5C635.837 196.58 635.884 196.687 635.884 196.82V197.54C635.884 197.673 635.837 197.787 635.744 197.88C635.664 197.96 635.557 198 635.424 198H634.044ZM641.956 198.2C640.583 198.2 639.483 197.78 638.656 196.94C637.843 196.087 637.396 194.927 637.316 193.46L637.296 192.78L637.316 192.12C637.41 190.68 637.863 189.533 638.676 188.68C639.503 187.827 640.59 187.4 641.936 187.4C643.416 187.4 644.563 187.873 645.376 188.82C646.19 189.753 646.596 191.02 646.596 192.62V192.96C646.596 193.093 646.55 193.207 646.456 193.3C646.376 193.38 646.27 193.42 646.136 193.42H639.216V193.6C639.256 194.467 639.516 195.207 639.996 195.82C640.49 196.42 641.136 196.72 641.936 196.72C642.55 196.72 643.05 196.6 643.436 196.36C643.836 196.107 644.13 195.847 644.316 195.58C644.436 195.42 644.523 195.327 644.576 195.3C644.643 195.26 644.756 195.24 644.916 195.24H645.896C646.016 195.24 646.116 195.273 646.196 195.34C646.276 195.407 646.316 195.5 646.316 195.62C646.316 195.913 646.13 196.267 645.756 196.68C645.396 197.093 644.883 197.453 644.216 197.76C643.563 198.053 642.81 198.2 641.956 198.2ZM644.696 192.04V191.98C644.696 191.06 644.443 190.313 643.936 189.74C643.443 189.153 642.776 188.86 641.936 188.86C641.096 188.86 640.43 189.153 639.936 189.74C639.456 190.313 639.216 191.06 639.216 191.98V192.04H644.696ZM649.468 198C649.334 198 649.221 197.96 649.128 197.88C649.048 197.787 649.008 197.673 649.008 197.54V184.26C649.008 184.127 649.048 184.02 649.128 183.94C649.221 183.847 649.334 183.8 649.468 183.8H650.408C650.541 183.8 650.648 183.847 650.728 183.94C650.821 184.02 650.868 184.127 650.868 184.26V197.54C650.868 197.673 650.821 197.787 650.728 197.88C650.648 197.96 650.541 198 650.408 198H649.468ZM659.213 198C659.08 198 658.967 197.96 658.873 197.88C658.793 197.787 658.753 197.673 658.753 197.54V188.08C658.753 187.947 658.793 187.833 658.873 187.74C658.967 187.647 659.08 187.6 659.213 187.6H660.133C660.267 187.6 660.38 187.647 660.473 187.74C660.567 187.833 660.613 187.947 660.613 188.08V188.96C661.16 188.053 662.093 187.6 663.413 187.6H664.193C664.327 187.6 664.433 187.647 664.513 187.74C664.607 187.82 664.653 187.927 664.653 188.06V188.88C664.653 189.013 664.607 189.12 664.513 189.2C664.433 189.28 664.327 189.32 664.193 189.32H662.993C662.273 189.32 661.707 189.533 661.293 189.96C660.88 190.373 660.673 190.94 660.673 191.66V197.54C660.673 197.673 660.627 197.787 660.533 197.88C660.44 197.96 660.327 198 660.193 198H659.213ZM670.416 198.2C668.949 198.2 667.809 197.787 666.996 196.96C666.196 196.133 665.769 195.033 665.716 193.66L665.696 192.8L665.716 191.94C665.769 190.58 666.202 189.487 667.016 188.66C667.829 187.82 668.962 187.4 670.416 187.4C671.869 187.4 673.002 187.82 673.816 188.66C674.629 189.487 675.062 190.58 675.116 191.94C675.129 192.087 675.136 192.373 675.136 192.8C675.136 193.227 675.129 193.513 675.116 193.66C675.062 195.033 674.629 196.133 673.816 196.96C673.016 197.787 671.882 198.2 670.416 198.2ZM670.416 196.66C671.256 196.66 671.916 196.393 672.396 195.86C672.889 195.327 673.156 194.56 673.196 193.56C673.209 193.427 673.216 193.173 673.216 192.8C673.216 192.427 673.209 192.173 673.196 192.04C673.156 191.04 672.889 190.273 672.396 189.74C671.916 189.207 671.256 188.94 670.416 188.94C669.576 188.94 668.909 189.207 668.416 189.74C667.922 190.273 667.662 191.04 667.636 192.04L667.616 192.8L667.636 193.56C667.662 194.56 667.922 195.327 668.416 195.86C668.909 196.393 669.576 196.66 670.416 196.66ZM681.9 198.2C680.433 198.2 679.293 197.787 678.48 196.96C677.68 196.133 677.253 195.033 677.2 193.66L677.18 192.8L677.2 191.94C677.253 190.58 677.687 189.487 678.5 188.66C679.313 187.82 680.447 187.4 681.9 187.4C683.353 187.4 684.487 187.82 685.3 188.66C686.113 189.487 686.547 190.58 686.6 191.94C686.613 192.087 686.62 192.373 686.62 192.8C686.62 193.227 686.613 193.513 686.6 193.66C686.547 195.033 686.113 196.133 685.3 196.96C684.5 197.787 683.367 198.2 681.9 198.2ZM681.9 196.66C682.74 196.66 683.4 196.393 683.88 195.86C684.373 195.327 684.64 194.56 684.68 193.56C684.693 193.427 684.7 193.173 684.7 192.8C684.7 192.427 684.693 192.173 684.68 192.04C684.64 191.04 684.373 190.273 683.88 189.74C683.4 189.207 682.74 188.94 681.9 188.94C681.06 188.94 680.393 189.207 679.9 189.74C679.407 190.273 679.147 191.04 679.12 192.04L679.1 192.8L679.12 193.56C679.147 194.56 679.407 195.327 679.9 195.86C680.393 196.393 681.06 196.66 681.9 196.66ZM689.585 198C689.451 198 689.338 197.96 689.245 197.88C689.165 197.787 689.125 197.673 689.125 197.54V188.06C689.125 187.927 689.165 187.82 689.245 187.74C689.338 187.647 689.451 187.6 689.585 187.6H690.485C690.618 187.6 690.725 187.647 690.805 187.74C690.898 187.82 690.945 187.927 690.945 188.06V188.76C691.638 187.853 692.605 187.4 693.845 187.4C695.325 187.4 696.371 188.013 696.985 189.24C697.305 188.68 697.758 188.233 698.345 187.9C698.931 187.567 699.591 187.4 700.325 187.4C701.418 187.4 702.311 187.773 703.005 188.52C703.698 189.267 704.045 190.347 704.045 191.76V197.54C704.045 197.673 703.998 197.787 703.905 197.88C703.825 197.96 703.718 198 703.585 198H702.645C702.511 198 702.398 197.96 702.305 197.88C702.225 197.787 702.185 197.673 702.185 197.54V191.94C702.185 190.9 701.965 190.153 701.525 189.7C701.098 189.247 700.531 189.02 699.825 189.02C699.198 189.02 698.658 189.253 698.205 189.72C697.751 190.173 697.525 190.913 697.525 191.94V197.54C697.525 197.673 697.478 197.787 697.385 197.88C697.305 197.96 697.198 198 697.065 198H696.125C695.991 198 695.878 197.96 695.785 197.88C695.705 197.787 695.665 197.673 695.665 197.54V191.94C695.665 190.9 695.438 190.153 694.985 189.7C694.545 189.247 693.985 189.02 693.305 189.02C692.678 189.02 692.138 189.253 691.685 189.72C691.231 190.173 691.005 190.907 691.005 191.92V197.54C691.005 197.673 690.958 197.787 690.865 197.88C690.785 197.96 690.678 198 690.545 198H689.585Z" fill="#40434E"/>
<path d="M300.544 284C300.41 284 300.297 283.96 300.204 283.88C300.124 283.787 300.084 283.673 300.084 283.54V270.48C300.084 270.333 300.124 270.22 300.204 270.14C300.297 270.047 300.41 270 300.544 270H305.624C307.13 270 308.317 270.367 309.184 271.1C310.05 271.833 310.484 272.893 310.484 274.28C310.484 275.667 310.05 276.727 309.184 277.46C308.33 278.18 307.144 278.54 305.624 278.54H302.084V283.54C302.084 283.673 302.037 283.787 301.944 283.88C301.85 283.96 301.737 284 301.604 284H300.544ZM305.524 276.86C306.497 276.86 307.23 276.64 307.724 276.2C308.23 275.76 308.484 275.12 308.484 274.28C308.484 273.44 308.237 272.8 307.744 272.36C307.25 271.907 306.51 271.68 305.524 271.68H302.064V276.86H305.524ZM313.116 284C312.982 284 312.869 283.96 312.776 283.88C312.696 283.787 312.656 283.673 312.656 283.54V274.08C312.656 273.947 312.696 273.833 312.776 273.74C312.869 273.647 312.982 273.6 313.116 273.6H314.036C314.169 273.6 314.282 273.647 314.376 273.74C314.469 273.833 314.516 273.947 314.516 274.08V274.96C315.062 274.053 315.996 273.6 317.316 273.6H318.096C318.229 273.6 318.336 273.647 318.416 273.74C318.509 273.82 318.556 273.927 318.556 274.06V274.88C318.556 275.013 318.509 275.12 318.416 275.2C318.336 275.28 318.229 275.32 318.096 275.32H316.896C316.176 275.32 315.609 275.533 315.196 275.96C314.782 276.373 314.576 276.94 314.576 277.66V283.54C314.576 283.673 314.529 283.787 314.436 283.88C314.342 283.96 314.229 284 314.096 284H313.116ZM324.318 284.2C322.851 284.2 321.711 283.787 320.898 282.96C320.098 282.133 319.671 281.033 319.618 279.66L319.598 278.8L319.618 277.94C319.671 276.58 320.105 275.487 320.918 274.66C321.731 273.82 322.865 273.4 324.318 273.4C325.771 273.4 326.905 273.82 327.718 274.66C328.531 275.487 328.965 276.58 329.018 277.94C329.031 278.087 329.038 278.373 329.038 278.8C329.038 279.227 329.031 279.513 329.018 279.66C328.965 281.033 328.531 282.133 327.718 282.96C326.918 283.787 325.785 284.2 324.318 284.2ZM324.318 282.66C325.158 282.66 325.818 282.393 326.298 281.86C326.791 281.327 327.058 280.56 327.098 279.56C327.111 279.427 327.118 279.173 327.118 278.8C327.118 278.427 327.111 278.173 327.098 278.04C327.058 277.04 326.791 276.273 326.298 275.74C325.818 275.207 325.158 274.94 324.318 274.94C323.478 274.94 322.811 275.207 322.318 275.74C321.825 276.273 321.565 277.04 321.538 278.04L321.518 278.8L321.538 279.56C321.565 280.56 321.825 281.327 322.318 281.86C322.811 282.393 323.478 282.66 324.318 282.66ZM332.925 284C332.792 284 332.679 283.96 332.585 283.88C332.505 283.787 332.465 283.673 332.465 283.54V275.2H330.765C330.632 275.2 330.519 275.16 330.425 275.08C330.345 274.987 330.305 274.873 330.305 274.74V274.06C330.305 273.927 330.345 273.82 330.425 273.74C330.519 273.647 330.632 273.6 330.765 273.6H332.465V272.6C332.465 270.333 333.612 269.2 335.905 269.2H338.985C339.119 269.2 339.225 269.247 339.305 269.34C339.399 269.42 339.445 269.527 339.445 269.66V270.34C339.445 270.473 339.399 270.587 339.305 270.68C339.225 270.76 339.119 270.8 338.985 270.8H335.945C335.345 270.8 334.925 270.96 334.685 271.28C334.445 271.587 334.325 272.06 334.325 272.7V273.6H338.985C339.119 273.6 339.225 273.647 339.305 273.74C339.399 273.82 339.445 273.927 339.445 274.06V283.54C339.445 283.673 339.399 283.787 339.305 283.88C339.225 283.96 339.119 284 338.985 284H338.065C337.932 284 337.819 283.96 337.725 283.88C337.645 283.787 337.605 283.673 337.605 283.54V275.2H334.325V283.54C334.325 283.673 334.279 283.787 334.185 283.88C334.105 283.96 333.999 284 333.865 284H332.925ZM342.882 284C342.749 284 342.635 283.96 342.542 283.88C342.462 283.787 342.422 283.673 342.422 283.54V270.26C342.422 270.127 342.462 270.02 342.542 269.94C342.635 269.847 342.749 269.8 342.882 269.8H343.822C343.955 269.8 344.062 269.847 344.142 269.94C344.235 270.02 344.282 270.127 344.282 270.26V283.54C344.282 283.673 344.235 283.787 344.142 283.88C344.062 283.96 343.955 284 343.822 284H342.882ZM351.425 284.2C350.052 284.2 348.952 283.78 348.125 282.94C347.312 282.087 346.865 280.927 346.785 279.46L346.765 278.78L346.785 278.12C346.878 276.68 347.332 275.533 348.145 274.68C348.972 273.827 350.058 273.4 351.405 273.4C352.885 273.4 354.032 273.873 354.845 274.82C355.658 275.753 356.065 277.02 356.065 278.62V278.96C356.065 279.093 356.018 279.207 355.925 279.3C355.845 279.38 355.738 279.42 355.605 279.42H348.685V279.6C348.725 280.467 348.985 281.207 349.465 281.82C349.958 282.42 350.605 282.72 351.405 282.72C352.018 282.72 352.518 282.6 352.905 282.36C353.305 282.107 353.598 281.847 353.785 281.58C353.905 281.42 353.992 281.327 354.045 281.3C354.112 281.26 354.225 281.24 354.385 281.24H355.365C355.485 281.24 355.585 281.273 355.665 281.34C355.745 281.407 355.785 281.5 355.785 281.62C355.785 281.913 355.598 282.267 355.225 282.68C354.865 283.093 354.352 283.453 353.685 283.76C353.032 284.053 352.278 284.2 351.425 284.2ZM354.165 278.04V277.98C354.165 277.06 353.912 276.313 353.405 275.74C352.912 275.153 352.245 274.86 351.405 274.86C350.565 274.86 349.898 275.153 349.405 275.74C348.925 276.313 348.685 277.06 348.685 277.98V278.04H354.165ZM363.659 271.66C363.526 271.66 363.412 271.62 363.319 271.54C363.239 271.447 363.199 271.333 363.199 271.2V270.12C363.199 269.987 363.239 269.873 363.319 269.78C363.412 269.687 363.526 269.64 363.659 269.64H364.919C365.052 269.64 365.166 269.687 365.259 269.78C365.352 269.873 365.399 269.987 365.399 270.12V271.2C365.399 271.333 365.352 271.447 365.259 271.54C365.166 271.62 365.052 271.66 364.919 271.66H363.659ZM363.819 284C363.686 284 363.572 283.96 363.479 283.88C363.399 283.787 363.359 283.673 363.359 283.54V274.06C363.359 273.927 363.399 273.82 363.479 273.74C363.572 273.647 363.686 273.6 363.819 273.6H364.779C364.912 273.6 365.019 273.647 365.099 273.74C365.192 273.82 365.239 273.927 365.239 274.06V283.54C365.239 283.673 365.192 283.787 365.099 283.88C365.019 283.96 364.912 284 364.779 284H363.819ZM368.663 284C368.529 284 368.416 283.96 368.323 283.88C368.243 283.787 368.203 283.673 368.203 283.54V274.06C368.203 273.927 368.243 273.82 368.323 273.74C368.416 273.647 368.529 273.6 368.663 273.6H369.563C369.696 273.6 369.803 273.647 369.883 273.74C369.976 273.82 370.023 273.927 370.023 274.06V274.76C370.716 273.853 371.683 273.4 372.923 273.4C374.403 273.4 375.449 274.013 376.063 275.24C376.383 274.68 376.836 274.233 377.423 273.9C378.009 273.567 378.669 273.4 379.403 273.4C380.496 273.4 381.389 273.773 382.083 274.52C382.776 275.267 383.123 276.347 383.123 277.76V283.54C383.123 283.673 383.076 283.787 382.983 283.88C382.903 283.96 382.796 284 382.663 284H381.723C381.589 284 381.476 283.96 381.383 283.88C381.303 283.787 381.263 283.673 381.263 283.54V277.94C381.263 276.9 381.043 276.153 380.603 275.7C380.176 275.247 379.609 275.02 378.903 275.02C378.276 275.02 377.736 275.253 377.283 275.72C376.829 276.173 376.603 276.913 376.603 277.94V283.54C376.603 283.673 376.556 283.787 376.463 283.88C376.383 283.96 376.276 284 376.143 284H375.203C375.069 284 374.956 283.96 374.863 283.88C374.783 283.787 374.743 283.673 374.743 283.54V277.94C374.743 276.9 374.516 276.153 374.063 275.7C373.623 275.247 373.063 275.02 372.383 275.02C371.756 275.02 371.216 275.253 370.763 275.72C370.309 276.173 370.083 276.907 370.083 277.92V283.54C370.083 283.673 370.036 283.787 369.943 283.88C369.863 283.96 369.756 284 369.623 284H368.663ZM388.876 284.2C388.223 284.2 387.616 284.067 387.056 283.8C386.496 283.533 386.049 283.173 385.716 282.72C385.396 282.253 385.236 281.74 385.236 281.18C385.236 280.3 385.596 279.58 386.316 279.02C387.049 278.447 388.036 278.073 389.276 277.9L392.256 277.48V276.9C392.256 275.54 391.476 274.86 389.916 274.86C389.329 274.86 388.849 274.987 388.476 275.24C388.103 275.48 387.823 275.767 387.636 276.1C387.596 276.22 387.543 276.307 387.476 276.36C387.423 276.413 387.343 276.44 387.236 276.44H386.376C386.256 276.44 386.149 276.4 386.056 276.32C385.976 276.227 385.936 276.12 385.936 276C385.949 275.68 386.096 275.32 386.376 274.92C386.669 274.507 387.116 274.153 387.716 273.86C388.316 273.553 389.056 273.4 389.936 273.4C391.429 273.4 392.503 273.753 393.156 274.46C393.809 275.153 394.136 276.02 394.136 277.06V283.54C394.136 283.673 394.089 283.787 393.996 283.88C393.916 283.96 393.809 284 393.676 284H392.756C392.623 284 392.509 283.96 392.416 283.88C392.336 283.787 392.296 283.673 392.296 283.54V282.68C392.003 283.107 391.576 283.467 391.016 283.76C390.456 284.053 389.743 284.2 388.876 284.2ZM389.296 282.7C390.163 282.7 390.869 282.42 391.416 281.86C391.976 281.287 392.256 280.467 392.256 279.4V278.84L389.936 279.18C388.989 279.313 388.276 279.54 387.796 279.86C387.316 280.167 387.076 280.56 387.076 281.04C387.076 281.573 387.296 281.987 387.736 282.28C388.176 282.56 388.696 282.7 389.296 282.7ZM401.271 288.4C400.178 288.4 399.298 288.213 398.631 287.84C397.965 287.48 397.491 287.067 397.211 286.6C396.931 286.133 396.778 285.713 396.751 285.34C396.738 285.207 396.778 285.093 396.871 285C396.978 284.907 397.091 284.86 397.211 284.86H398.171C398.291 284.86 398.391 284.887 398.471 284.94C398.551 285.007 398.618 285.12 398.671 285.28C398.831 285.707 399.091 286.073 399.451 286.38C399.825 286.7 400.398 286.86 401.171 286.86C402.158 286.86 402.885 286.647 403.351 286.22C403.818 285.807 404.051 285.067 404.051 284V282.64C403.705 283.08 403.265 283.433 402.731 283.7C402.198 283.953 401.565 284.08 400.831 284.08C399.418 284.08 398.358 283.633 397.651 282.74C396.958 281.833 396.591 280.687 396.551 279.3L396.531 278.74L396.551 278.2C396.591 276.827 396.965 275.687 397.671 274.78C398.378 273.86 399.431 273.4 400.831 273.4C402.231 273.4 403.325 273.913 404.111 274.94V274.08C404.111 273.947 404.151 273.833 404.231 273.74C404.325 273.647 404.438 273.6 404.571 273.6H405.491C405.625 273.6 405.738 273.647 405.831 273.74C405.925 273.833 405.971 273.947 405.971 274.08V283.78C405.971 286.86 404.405 288.4 401.271 288.4ZM401.231 282.48C402.138 282.48 402.825 282.18 403.291 281.58C403.758 280.98 404.011 280.267 404.051 279.44C404.065 279.32 404.071 279.087 404.071 278.74C404.071 278.407 404.065 278.18 404.051 278.06C404.011 277.233 403.758 276.52 403.291 275.92C402.838 275.32 402.151 275.02 401.231 275.02C400.285 275.02 399.598 275.313 399.171 275.9C398.745 276.487 398.511 277.26 398.471 278.22L398.451 278.74L398.471 279.28C398.511 280.227 398.745 281 399.171 281.6C399.598 282.187 400.285 282.48 401.231 282.48ZM413.105 284.2C411.732 284.2 410.632 283.78 409.805 282.94C408.992 282.087 408.545 280.927 408.465 279.46L408.445 278.78L408.465 278.12C408.558 276.68 409.012 275.533 409.825 274.68C410.652 273.827 411.738 273.4 413.085 273.4C414.565 273.4 415.712 273.873 416.525 274.82C417.338 275.753 417.745 277.02 417.745 278.62V278.96C417.745 279.093 417.698 279.207 417.605 279.3C417.525 279.38 417.418 279.42 417.285 279.42H410.365V279.6C410.405 280.467 410.665 281.207 411.145 281.82C411.638 282.42 412.285 282.72 413.085 282.72C413.698 282.72 414.198 282.6 414.585 282.36C414.985 282.107 415.278 281.847 415.465 281.58C415.585 281.42 415.672 281.327 415.725 281.3C415.792 281.26 415.905 281.24 416.065 281.24H417.045C417.165 281.24 417.265 281.273 417.345 281.34C417.425 281.407 417.465 281.5 417.465 281.62C417.465 281.913 417.278 282.267 416.905 282.68C416.545 283.093 416.032 283.453 415.365 283.76C414.712 284.053 413.958 284.2 413.105 284.2ZM415.845 278.04V277.98C415.845 277.06 415.592 276.313 415.085 275.74C414.592 275.153 413.925 274.86 413.085 274.86C412.245 274.86 411.578 275.153 411.085 275.74C410.605 276.313 410.365 277.06 410.365 277.98V278.04H415.845Z" fill="#40434E"/>
<path d="M541.264 284.2C539.544 284.2 538.211 283.74 537.264 282.82C536.331 281.887 535.864 280.48 535.864 278.6V270.48C535.864 270.333 535.904 270.22 535.984 270.14C536.077 270.047 536.191 270 536.324 270H537.344C537.491 270 537.604 270.047 537.684 270.14C537.777 270.22 537.824 270.333 537.824 270.48V278.64C537.824 279.92 538.124 280.88 538.724 281.52C539.324 282.16 540.171 282.48 541.264 282.48C542.357 282.48 543.204 282.16 543.804 281.52C544.404 280.88 544.704 279.92 544.704 278.64V270.48C544.704 270.333 544.744 270.22 544.824 270.14C544.917 270.047 545.031 270 545.164 270H546.204C546.337 270 546.444 270.047 546.524 270.14C546.617 270.233 546.664 270.347 546.664 270.48V278.6C546.664 280.48 546.191 281.887 545.244 282.82C544.311 283.74 542.984 284.2 541.264 284.2ZM550.228 287.8C550.094 287.8 549.981 287.753 549.888 287.66C549.808 287.58 549.768 287.473 549.768 287.34V274.06C549.768 273.927 549.808 273.82 549.888 273.74C549.981 273.647 550.094 273.6 550.228 273.6H551.148C551.281 273.6 551.388 273.647 551.468 273.74C551.561 273.82 551.608 273.927 551.608 274.06V274.94C552.354 273.913 553.448 273.4 554.888 273.4C556.288 273.4 557.334 273.84 558.028 274.72C558.734 275.6 559.114 276.733 559.168 278.12C559.181 278.267 559.188 278.493 559.188 278.8C559.188 279.107 559.181 279.333 559.168 279.48C559.114 280.853 558.734 281.987 558.028 282.88C557.321 283.76 556.274 284.2 554.888 284.2C553.501 284.2 552.421 283.7 551.648 282.7V287.34C551.648 287.473 551.608 287.58 551.528 287.66C551.448 287.753 551.341 287.8 551.208 287.8H550.228ZM554.468 282.58C555.414 282.58 556.101 282.287 556.528 281.7C556.968 281.113 557.208 280.34 557.248 279.38C557.261 279.247 557.268 279.053 557.268 278.8C557.268 276.28 556.334 275.02 554.468 275.02C553.548 275.02 552.854 275.327 552.388 275.94C551.934 276.54 551.688 277.26 551.648 278.1L551.628 278.86L551.648 279.64C551.674 280.427 551.928 281.113 552.408 281.7C552.888 282.287 553.574 282.58 554.468 282.58ZM562.142 284C562.008 284 561.895 283.96 561.802 283.88C561.722 283.787 561.682 283.673 561.682 283.54V270.26C561.682 270.127 561.722 270.02 561.802 269.94C561.895 269.847 562.008 269.8 562.142 269.8H563.082C563.215 269.8 563.322 269.847 563.402 269.94C563.495 270.02 563.542 270.127 563.542 270.26V283.54C563.542 283.673 563.495 283.787 563.402 283.88C563.322 283.96 563.215 284 563.082 284H562.142ZM570.785 284.2C569.318 284.2 568.178 283.787 567.365 282.96C566.565 282.133 566.138 281.033 566.085 279.66L566.065 278.8L566.085 277.94C566.138 276.58 566.572 275.487 567.385 274.66C568.198 273.82 569.332 273.4 570.785 273.4C572.238 273.4 573.372 273.82 574.185 274.66C574.998 275.487 575.432 276.58 575.485 277.94C575.498 278.087 575.505 278.373 575.505 278.8C575.505 279.227 575.498 279.513 575.485 279.66C575.432 281.033 574.998 282.133 574.185 282.96C573.385 283.787 572.252 284.2 570.785 284.2ZM570.785 282.66C571.625 282.66 572.285 282.393 572.765 281.86C573.258 281.327 573.525 280.56 573.565 279.56C573.578 279.427 573.585 279.173 573.585 278.8C573.585 278.427 573.578 278.173 573.565 278.04C573.525 277.04 573.258 276.273 572.765 275.74C572.285 275.207 571.625 274.94 570.785 274.94C569.945 274.94 569.278 275.207 568.785 275.74C568.292 276.273 568.032 277.04 568.005 278.04L567.985 278.8L568.005 279.56C568.032 280.56 568.292 281.327 568.785 281.86C569.278 282.393 569.945 282.66 570.785 282.66ZM580.909 284.2C580.256 284.2 579.649 284.067 579.089 283.8C578.529 283.533 578.083 283.173 577.749 282.72C577.429 282.253 577.269 281.74 577.269 281.18C577.269 280.3 577.629 279.58 578.349 279.02C579.083 278.447 580.069 278.073 581.309 277.9L584.289 277.48V276.9C584.289 275.54 583.509 274.86 581.949 274.86C581.363 274.86 580.883 274.987 580.509 275.24C580.136 275.48 579.856 275.767 579.669 276.1C579.629 276.22 579.576 276.307 579.509 276.36C579.456 276.413 579.376 276.44 579.269 276.44H578.409C578.289 276.44 578.183 276.4 578.089 276.32C578.009 276.227 577.969 276.12 577.969 276C577.983 275.68 578.129 275.32 578.409 274.92C578.703 274.507 579.149 274.153 579.749 273.86C580.349 273.553 581.089 273.4 581.969 273.4C583.463 273.4 584.536 273.753 585.189 274.46C585.843 275.153 586.169 276.02 586.169 277.06V283.54C586.169 283.673 586.123 283.787 586.029 283.88C585.949 283.96 585.843 284 585.709 284H584.789C584.656 284 584.543 283.96 584.449 283.88C584.369 283.787 584.329 283.673 584.329 283.54V282.68C584.036 283.107 583.609 283.467 583.049 283.76C582.489 284.053 581.776 284.2 580.909 284.2ZM581.329 282.7C582.196 282.7 582.903 282.42 583.449 281.86C584.009 281.287 584.289 280.467 584.289 279.4V278.84L581.969 279.18C581.023 279.313 580.309 279.54 579.829 279.86C579.349 280.167 579.109 280.56 579.109 281.04C579.109 281.573 579.329 281.987 579.769 282.28C580.209 282.56 580.729 282.7 581.329 282.7ZM592.844 284.2C591.458 284.2 590.411 283.747 589.704 282.84C588.998 281.933 588.624 280.787 588.584 279.4L588.564 278.8L588.584 278.2C588.624 276.827 588.998 275.687 589.704 274.78C590.411 273.86 591.458 273.4 592.844 273.4C594.218 273.4 595.298 273.887 596.084 274.86V270.26C596.084 270.127 596.124 270.02 596.204 269.94C596.298 269.847 596.411 269.8 596.544 269.8H597.504C597.638 269.8 597.744 269.847 597.824 269.94C597.918 270.02 597.964 270.127 597.964 270.26V283.54C597.964 283.673 597.918 283.787 597.824 283.88C597.744 283.96 597.638 284 597.504 284H596.604C596.471 284 596.358 283.96 596.264 283.88C596.184 283.787 596.144 283.673 596.144 283.54V282.7C595.371 283.7 594.271 284.2 592.844 284.2ZM593.264 282.58C594.184 282.58 594.871 282.28 595.324 281.68C595.791 281.067 596.044 280.34 596.084 279.5C596.098 279.353 596.104 279.1 596.104 278.74C596.104 278.367 596.098 278.107 596.084 277.96C596.058 277.173 595.804 276.487 595.324 275.9C594.844 275.313 594.158 275.02 593.264 275.02C592.318 275.02 591.624 275.313 591.184 275.9C590.758 276.487 590.524 277.26 590.484 278.22L590.464 278.8C590.464 281.32 591.398 282.58 593.264 282.58ZM606.321 287.8C606.188 287.8 606.075 287.753 605.981 287.66C605.901 287.58 605.861 287.473 605.861 287.34V274.06C605.861 273.927 605.901 273.82 605.981 273.74C606.075 273.647 606.188 273.6 606.321 273.6H607.241C607.375 273.6 607.481 273.647 607.561 273.74C607.655 273.82 607.701 273.927 607.701 274.06V274.94C608.448 273.913 609.541 273.4 610.981 273.4C612.381 273.4 613.428 273.84 614.121 274.72C614.828 275.6 615.208 276.733 615.261 278.12C615.275 278.267 615.281 278.493 615.281 278.8C615.281 279.107 615.275 279.333 615.261 279.48C615.208 280.853 614.828 281.987 614.121 282.88C613.415 283.76 612.368 284.2 610.981 284.2C609.595 284.2 608.515 283.7 607.741 282.7V287.34C607.741 287.473 607.701 287.58 607.621 287.66C607.541 287.753 607.435 287.8 607.301 287.8H606.321ZM610.561 282.58C611.508 282.58 612.195 282.287 612.621 281.7C613.061 281.113 613.301 280.34 613.341 279.38C613.355 279.247 613.361 279.053 613.361 278.8C613.361 276.28 612.428 275.02 610.561 275.02C609.641 275.02 608.948 275.327 608.481 275.94C608.028 276.54 607.781 277.26 607.741 278.1L607.721 278.86L607.741 279.64C607.768 280.427 608.021 281.113 608.501 281.7C608.981 282.287 609.668 282.58 610.561 282.58ZM618.215 284C618.082 284 617.969 283.96 617.875 283.88C617.795 283.787 617.755 283.673 617.755 283.54V274.08C617.755 273.947 617.795 273.833 617.875 273.74C617.969 273.647 618.082 273.6 618.215 273.6H619.135C619.269 273.6 619.382 273.647 619.475 273.74C619.569 273.833 619.615 273.947 619.615 274.08V274.96C620.162 274.053 621.095 273.6 622.415 273.6H623.195C623.329 273.6 623.435 273.647 623.515 273.74C623.609 273.82 623.655 273.927 623.655 274.06V274.88C623.655 275.013 623.609 275.12 623.515 275.2C623.435 275.28 623.329 275.32 623.195 275.32H621.995C621.275 275.32 620.709 275.533 620.295 275.96C619.882 276.373 619.675 276.94 619.675 277.66V283.54C619.675 283.673 619.629 283.787 619.535 283.88C619.442 283.96 619.329 284 619.195 284H618.215ZM629.418 284.2C627.951 284.2 626.811 283.787 625.998 282.96C625.198 282.133 624.771 281.033 624.718 279.66L624.698 278.8L624.718 277.94C624.771 276.58 625.204 275.487 626.018 274.66C626.831 273.82 627.964 273.4 629.418 273.4C630.871 273.4 632.004 273.82 632.818 274.66C633.631 275.487 634.064 276.58 634.118 277.94C634.131 278.087 634.138 278.373 634.138 278.8C634.138 279.227 634.131 279.513 634.118 279.66C634.064 281.033 633.631 282.133 632.818 282.96C632.018 283.787 630.884 284.2 629.418 284.2ZM629.418 282.66C630.258 282.66 630.918 282.393 631.398 281.86C631.891 281.327 632.158 280.56 632.198 279.56C632.211 279.427 632.218 279.173 632.218 278.8C632.218 278.427 632.211 278.173 632.198 278.04C632.158 277.04 631.891 276.273 631.398 275.74C630.918 275.207 630.258 274.94 629.418 274.94C628.578 274.94 627.911 275.207 627.418 275.74C626.924 276.273 626.664 277.04 626.638 278.04L626.618 278.8L626.638 279.56C626.664 280.56 626.924 281.327 627.418 281.86C627.911 282.393 628.578 282.66 629.418 282.66ZM638.025 284C637.892 284 637.778 283.96 637.685 283.88C637.605 283.787 637.565 283.673 637.565 283.54V275.2H635.865C635.732 275.2 635.618 275.16 635.525 275.08C635.445 274.987 635.405 274.873 635.405 274.74V274.06C635.405 273.927 635.445 273.82 635.525 273.74C635.618 273.647 635.732 273.6 635.865 273.6H637.565V272.6C637.565 270.333 638.712 269.2 641.005 269.2H644.085C644.218 269.2 644.325 269.247 644.405 269.34C644.498 269.42 644.545 269.527 644.545 269.66V270.34C644.545 270.473 644.498 270.587 644.405 270.68C644.325 270.76 644.218 270.8 644.085 270.8H641.045C640.445 270.8 640.025 270.96 639.785 271.28C639.545 271.587 639.425 272.06 639.425 272.7V273.6H644.085C644.218 273.6 644.325 273.647 644.405 273.74C644.498 273.82 644.545 273.927 644.545 274.06V283.54C644.545 283.673 644.498 283.787 644.405 283.88C644.325 283.96 644.218 284 644.085 284H643.165C643.032 284 642.918 283.96 642.825 283.88C642.745 283.787 642.705 283.673 642.705 283.54V275.2H639.425V283.54C639.425 283.673 639.378 283.787 639.285 283.88C639.205 283.96 639.098 284 638.965 284H638.025ZM647.981 284C647.848 284 647.735 283.96 647.641 283.88C647.561 283.787 647.521 283.673 647.521 283.54V270.26C647.521 270.127 647.561 270.02 647.641 269.94C647.735 269.847 647.848 269.8 647.981 269.8H648.921C649.055 269.8 649.161 269.847 649.241 269.94C649.335 270.02 649.381 270.127 649.381 270.26V283.54C649.381 283.673 649.335 283.787 649.241 283.88C649.161 283.96 649.055 284 648.921 284H647.981ZM656.525 284.2C655.151 284.2 654.051 283.78 653.225 282.94C652.411 282.087 651.965 280.927 651.885 279.46L651.865 278.78L651.885 278.12C651.978 276.68 652.431 275.533 653.245 274.68C654.071 273.827 655.158 273.4 656.505 273.4C657.985 273.4 659.131 273.873 659.945 274.82C660.758 275.753 661.165 277.02 661.165 278.62V278.96C661.165 279.093 661.118 279.207 661.025 279.3C660.945 279.38 660.838 279.42 660.705 279.42H653.785V279.6C653.825 280.467 654.085 281.207 654.565 281.82C655.058 282.42 655.705 282.72 656.505 282.72C657.118 282.72 657.618 282.6 658.005 282.36C658.405 282.107 658.698 281.847 658.885 281.58C659.005 281.42 659.091 281.327 659.145 281.3C659.211 281.26 659.325 281.24 659.485 281.24H660.465C660.585 281.24 660.685 281.273 660.765 281.34C660.845 281.407 660.885 281.5 660.885 281.62C660.885 281.913 660.698 282.267 660.325 282.68C659.965 283.093 659.451 283.453 658.785 283.76C658.131 284.053 657.378 284.2 656.525 284.2ZM659.265 278.04V277.98C659.265 277.06 659.011 276.313 658.505 275.74C658.011 275.153 657.345 274.86 656.505 274.86C655.665 274.86 654.998 275.153 654.505 275.74C654.025 276.313 653.785 277.06 653.785 277.98V278.04H659.265ZM668.759 271.66C668.625 271.66 668.512 271.62 668.419 271.54C668.339 271.447 668.299 271.333 668.299 271.2V270.12C668.299 269.987 668.339 269.873 668.419 269.78C668.512 269.687 668.625 269.64 668.759 269.64H670.019C670.152 269.64 670.265 269.687 670.359 269.78C670.452 269.873 670.499 269.987 670.499 270.12V271.2C670.499 271.333 670.452 271.447 670.359 271.54C670.265 271.62 670.152 271.66 670.019 271.66H668.759ZM668.919 284C668.785 284 668.672 283.96 668.579 283.88C668.499 283.787 668.459 283.673 668.459 283.54V274.06C668.459 273.927 668.499 273.82 668.579 273.74C668.672 273.647 668.785 273.6 668.919 273.6H669.879C670.012 273.6 670.119 273.647 670.199 273.74C670.292 273.82 670.339 273.927 670.339 274.06V283.54C670.339 283.673 670.292 283.787 670.199 283.88C670.119 283.96 670.012 284 669.879 284H668.919ZM673.762 284C673.629 284 673.516 283.96 673.422 283.88C673.342 283.787 673.302 283.673 673.302 283.54V274.06C673.302 273.927 673.342 273.82 673.422 273.74C673.516 273.647 673.629 273.6 673.762 273.6H674.662C674.796 273.6 674.902 273.647 674.982 273.74C675.076 273.82 675.122 273.927 675.122 274.06V274.76C675.816 273.853 676.782 273.4 678.022 273.4C679.502 273.4 680.549 274.013 681.162 275.24C681.482 274.68 681.936 274.233 682.522 273.9C683.109 273.567 683.769 273.4 684.502 273.4C685.596 273.4 686.489 273.773 687.182 274.52C687.876 275.267 688.222 276.347 688.222 277.76V283.54C688.222 283.673 688.176 283.787 688.082 283.88C688.002 283.96 687.896 284 687.762 284H686.822C686.689 284 686.576 283.96 686.482 283.88C686.402 283.787 686.362 283.673 686.362 283.54V277.94C686.362 276.9 686.142 276.153 685.702 275.7C685.276 275.247 684.709 275.02 684.002 275.02C683.376 275.02 682.836 275.253 682.382 275.72C681.929 276.173 681.702 276.913 681.702 277.94V283.54C681.702 283.673 681.656 283.787 681.562 283.88C681.482 283.96 681.376 284 681.242 284H680.302C680.169 284 680.056 283.96 679.962 283.88C679.882 283.787 679.842 283.673 679.842 283.54V277.94C679.842 276.9 679.616 276.153 679.162 275.7C678.722 275.247 678.162 275.02 677.482 275.02C676.856 275.02 676.316 275.253 675.862 275.72C675.409 276.173 675.182 276.907 675.182 277.92V283.54C675.182 283.673 675.136 283.787 675.042 283.88C674.962 283.96 674.856 284 674.722 284H673.762ZM693.976 284.2C693.322 284.2 692.716 284.067 692.156 283.8C691.596 283.533 691.149 283.173 690.816 282.72C690.496 282.253 690.336 281.74 690.336 281.18C690.336 280.3 690.696 279.58 691.416 279.02C692.149 278.447 693.136 278.073 694.376 277.9L697.356 277.48V276.9C697.356 275.54 696.576 274.86 695.016 274.86C694.429 274.86 693.949 274.987 693.576 275.24C693.202 275.48 692.922 275.767 692.736 276.1C692.696 276.22 692.642 276.307 692.576 276.36C692.522 276.413 692.442 276.44 692.336 276.44H691.476C691.356 276.44 691.249 276.4 691.156 276.32C691.076 276.227 691.036 276.12 691.036 276C691.049 275.68 691.196 275.32 691.476 274.92C691.769 274.507 692.216 274.153 692.816 273.86C693.416 273.553 694.156 273.4 695.036 273.4C696.529 273.4 697.602 273.753 698.256 274.46C698.909 275.153 699.236 276.02 699.236 277.06V283.54C699.236 283.673 699.189 283.787 699.096 283.88C699.016 283.96 698.909 284 698.776 284H697.856C697.722 284 697.609 283.96 697.516 283.88C697.436 283.787 697.396 283.673 697.396 283.54V282.68C697.102 283.107 696.676 283.467 696.116 283.76C695.556 284.053 694.842 284.2 693.976 284.2ZM694.396 282.7C695.262 282.7 695.969 282.42 696.516 281.86C697.076 281.287 697.356 280.467 697.356 279.4V278.84L695.036 279.18C694.089 279.313 693.376 279.54 692.896 279.86C692.416 280.167 692.176 280.56 692.176 281.04C692.176 281.573 692.396 281.987 692.836 282.28C693.276 282.56 693.796 282.7 694.396 282.7ZM706.371 288.4C705.278 288.4 704.398 288.213 703.731 287.84C703.064 287.48 702.591 287.067 702.311 286.6C702.031 286.133 701.878 285.713 701.851 285.34C701.838 285.207 701.878 285.093 701.971 285C702.078 284.907 702.191 284.86 702.311 284.86H703.271C703.391 284.86 703.491 284.887 703.571 284.94C703.651 285.007 703.718 285.12 703.771 285.28C703.931 285.707 704.191 286.073 704.551 286.38C704.924 286.7 705.498 286.86 706.271 286.86C707.258 286.86 707.984 286.647 708.451 286.22C708.918 285.807 709.151 285.067 709.151 284V282.64C708.804 283.08 708.364 283.433 707.831 283.7C707.298 283.953 706.664 284.08 705.931 284.08C704.518 284.08 703.458 283.633 702.751 282.74C702.058 281.833 701.691 280.687 701.651 279.3L701.631 278.74L701.651 278.2C701.691 276.827 702.064 275.687 702.771 274.78C703.478 273.86 704.531 273.4 705.931 273.4C707.331 273.4 708.424 273.913 709.211 274.94V274.08C709.211 273.947 709.251 273.833 709.331 273.74C709.424 273.647 709.538 273.6 709.671 273.6H710.591C710.724 273.6 710.838 273.647 710.931 273.74C711.024 273.833 711.071 273.947 711.071 274.08V283.78C711.071 286.86 709.504 288.4 706.371 288.4ZM706.331 282.48C707.238 282.48 707.924 282.18 708.391 281.58C708.858 280.98 709.111 280.267 709.151 279.44C709.164 279.32 709.171 279.087 709.171 278.74C709.171 278.407 709.164 278.18 709.151 278.06C709.111 277.233 708.858 276.52 708.391 275.92C707.938 275.32 707.251 275.02 706.331 275.02C705.384 275.02 704.698 275.313 704.271 275.9C703.844 276.487 703.611 277.26 703.571 278.22L703.551 278.74L703.571 279.28C703.611 280.227 703.844 281 704.271 281.6C704.698 282.187 705.384 282.48 706.331 282.48ZM718.204 284.2C716.831 284.2 715.731 283.78 714.904 282.94C714.091 282.087 713.644 280.927 713.564 279.46L713.544 278.78L713.564 278.12C713.658 276.68 714.111 275.533 714.924 274.68C715.751 273.827 716.838 273.4 718.184 273.4C719.664 273.4 720.811 273.873 721.624 274.82C722.438 275.753 722.844 277.02 722.844 278.62V278.96C722.844 279.093 722.798 279.207 722.704 279.3C722.624 279.38 722.518 279.42 722.384 279.42H715.464V279.6C715.504 280.467 715.764 281.207 716.244 281.82C716.738 282.42 717.384 282.72 718.184 282.72C718.798 282.72 719.298 282.6 719.684 282.36C720.084 282.107 720.378 281.847 720.564 281.58C720.684 281.42 720.771 281.327 720.824 281.3C720.891 281.26 721.004 281.24 721.164 281.24H722.144C722.264 281.24 722.364 281.273 722.444 281.34C722.524 281.407 722.564 281.5 722.564 281.62C722.564 281.913 722.378 282.267 722.004 282.68C721.644 283.093 721.131 283.453 720.464 283.76C719.811 284.053 719.058 284.2 718.204 284.2ZM720.944 278.04V277.98C720.944 277.06 720.691 276.313 720.184 275.74C719.691 275.153 719.024 274.86 718.184 274.86C717.344 274.86 716.678 275.153 716.184 275.74C715.704 276.313 715.464 277.06 715.464 277.98V278.04H720.944Z" fill="#40434E"/>
</svg>
