<svg width="600" height="280" viewBox="0 0 600 280" fill="none" xmlns="http://www.w3.org/2000/svg">
<rect width="600" height="280" fill="white"/>
<rect x="158.5" y="55.5" width="299" height="35" rx="4.5" fill="white" stroke="#40434E"/>
<rect x="158.5" y="194.5" width="299" height="35" rx="4.5" fill="white" stroke="#40434E"/>
<path d="M160.2 40C160.067 40 159.953 39.96 159.86 39.88C159.78 39.7867 159.74 39.6733 159.74 39.54V26.48C159.74 26.3333 159.78 26.22 159.86 26.14C159.953 26.0467 160.067 26 160.2 26H165.28C166.787 26 167.973 26.3667 168.84 27.1C169.707 27.8333 170.14 28.8933 170.14 30.28C170.14 31.6667 169.707 32.7267 168.84 33.46C167.987 34.18 166.8 34.54 165.28 34.54H161.74V39.54C161.74 39.6733 161.693 39.7867 161.6 39.88C161.507 39.96 161.393 40 161.26 40H160.2ZM165.18 32.86C166.153 32.86 166.887 32.64 167.38 32.2C167.887 31.76 168.14 31.12 168.14 30.28C168.14 29.44 167.893 28.8 167.4 28.36C166.907 27.9067 166.167 27.68 165.18 27.68H161.72V32.86H165.18ZM175.017 40.2C174.363 40.2 173.757 40.0667 173.197 39.8C172.637 39.5333 172.19 39.1733 171.857 38.72C171.537 38.2533 171.377 37.74 171.377 37.18C171.377 36.3 171.737 35.58 172.457 35.02C173.19 34.4467 174.177 34.0733 175.417 33.9L178.397 33.48V32.9C178.397 31.54 177.617 30.86 176.057 30.86C175.47 30.86 174.99 30.9867 174.617 31.24C174.243 31.48 173.963 31.7667 173.777 32.1C173.737 32.22 173.683 32.3067 173.617 32.36C173.563 32.4133 173.483 32.44 173.377 32.44H172.517C172.397 32.44 172.29 32.4 172.197 32.32C172.117 32.2267 172.077 32.12 172.077 32C172.09 31.68 172.237 31.32 172.517 30.92C172.81 30.5067 173.257 30.1533 173.857 29.86C174.457 29.5533 175.197 29.4 176.077 29.4C177.57 29.4 178.643 29.7533 179.297 30.46C179.95 31.1533 180.277 32.02 180.277 33.06V39.54C180.277 39.6733 180.23 39.7867 180.137 39.88C180.057 39.96 179.95 40 179.817 40H178.897C178.763 40 178.65 39.96 178.557 39.88C178.477 39.7867 178.437 39.6733 178.437 39.54V38.68C178.143 39.1067 177.717 39.4667 177.157 39.76C176.597 40.0533 175.883 40.2 175.017 40.2ZM175.437 38.7C176.303 38.7 177.01 38.42 177.557 37.86C178.117 37.2867 178.397 36.4667 178.397 35.4V34.84L176.077 35.18C175.13 35.3133 174.417 35.54 173.937 35.86C173.457 36.1667 173.217 36.56 173.217 37.04C173.217 37.5733 173.437 37.9867 173.877 38.28C174.317 38.56 174.837 38.7 175.437 38.7ZM186.752 40.2C185.819 40.2 185.032 40.0533 184.392 39.76C183.765 39.4533 183.292 39.1067 182.972 38.72C182.665 38.3333 182.512 38.0133 182.512 37.76C182.512 37.6267 182.559 37.5267 182.652 37.46C182.759 37.38 182.865 37.34 182.972 37.34H183.872C184.005 37.34 184.125 37.4067 184.232 37.54C184.552 37.9133 184.899 38.2067 185.272 38.42C185.645 38.6333 186.145 38.74 186.772 38.74C187.465 38.74 188.025 38.6067 188.452 38.34C188.892 38.06 189.112 37.68 189.112 37.2C189.112 36.88 189.019 36.62 188.832 36.42C188.659 36.2067 188.352 36.0267 187.912 35.88C187.485 35.72 186.845 35.5467 185.992 35.36C184.832 35.1067 184.005 34.74 183.512 34.26C183.032 33.78 182.792 33.16 182.792 32.4C182.792 31.8933 182.939 31.4133 183.232 30.96C183.539 30.4933 183.979 30.12 184.552 29.84C185.139 29.5467 185.839 29.4 186.652 29.4C187.505 29.4 188.232 29.54 188.832 29.82C189.432 30.1 189.879 30.4333 190.172 30.82C190.479 31.1933 190.632 31.5067 190.632 31.76C190.632 31.88 190.585 31.98 190.492 32.06C190.412 32.14 190.312 32.18 190.192 32.18H189.352C189.192 32.18 189.059 32.1133 188.952 31.98C188.739 31.7267 188.552 31.5333 188.392 31.4C188.245 31.2533 188.025 31.1267 187.732 31.02C187.452 30.9133 187.092 30.86 186.652 30.86C186.012 30.86 185.519 31 185.172 31.28C184.825 31.5467 184.652 31.9 184.652 32.34C184.652 32.62 184.725 32.86 184.872 33.06C185.019 33.2467 185.299 33.42 185.712 33.58C186.139 33.74 186.752 33.9067 187.552 34.08C188.819 34.3467 189.712 34.7333 190.232 35.24C190.765 35.7333 191.032 36.3667 191.032 37.14C191.032 37.7133 190.865 38.2333 190.532 38.7C190.199 39.1667 189.705 39.5333 189.052 39.8C188.412 40.0667 187.645 40.2 186.752 40.2ZM196.947 40.2C196.014 40.2 195.227 40.0533 194.587 39.76C193.961 39.4533 193.487 39.1067 193.167 38.72C192.861 38.3333 192.707 38.0133 192.707 37.76C192.707 37.6267 192.754 37.5267 192.847 37.46C192.954 37.38 193.061 37.34 193.167 37.34H194.067C194.201 37.34 194.321 37.4067 194.427 37.54C194.747 37.9133 195.094 38.2067 195.467 38.42C195.841 38.6333 196.341 38.74 196.967 38.74C197.661 38.74 198.221 38.6067 198.647 38.34C199.087 38.06 199.307 37.68 199.307 37.2C199.307 36.88 199.214 36.62 199.027 36.42C198.854 36.2067 198.547 36.0267 198.107 35.88C197.681 35.72 197.041 35.5467 196.187 35.36C195.027 35.1067 194.201 34.74 193.707 34.26C193.227 33.78 192.987 33.16 192.987 32.4C192.987 31.8933 193.134 31.4133 193.427 30.96C193.734 30.4933 194.174 30.12 194.747 29.84C195.334 29.5467 196.034 29.4 196.847 29.4C197.701 29.4 198.427 29.54 199.027 29.82C199.627 30.1 200.074 30.4333 200.367 30.82C200.674 31.1933 200.827 31.5067 200.827 31.76C200.827 31.88 200.781 31.98 200.687 32.06C200.607 32.14 200.507 32.18 200.387 32.18H199.547C199.387 32.18 199.254 32.1133 199.147 31.98C198.934 31.7267 198.747 31.5333 198.587 31.4C198.441 31.2533 198.221 31.1267 197.927 31.02C197.647 30.9133 197.287 30.86 196.847 30.86C196.207 30.86 195.714 31 195.367 31.28C195.021 31.5467 194.847 31.9 194.847 32.34C194.847 32.62 194.921 32.86 195.067 33.06C195.214 33.2467 195.494 33.42 195.907 33.58C196.334 33.74 196.947 33.9067 197.747 34.08C199.014 34.3467 199.907 34.7333 200.427 35.24C200.961 35.7333 201.227 36.3667 201.227 37.14C201.227 37.7133 201.061 38.2333 200.727 38.7C200.394 39.1667 199.901 39.5333 199.247 39.8C198.607 40.0667 197.841 40.2 196.947 40.2ZM206.029 40C205.856 40 205.722 39.96 205.629 39.88C205.536 39.8 205.456 39.6733 205.389 39.5L202.549 30.22L202.509 30.02C202.509 29.9 202.549 29.8 202.629 29.72C202.722 29.64 202.822 29.6 202.929 29.6H203.809C203.942 29.6 204.049 29.64 204.129 29.72C204.222 29.7867 204.282 29.86 204.309 29.94L206.529 37.48L208.909 30.02C208.936 29.9133 208.996 29.82 209.089 29.74C209.182 29.6467 209.309 29.6 209.469 29.6H210.149C210.309 29.6 210.436 29.6467 210.529 29.74C210.622 29.82 210.682 29.9133 210.709 30.02L213.089 37.48L215.309 29.94C215.322 29.8733 215.369 29.8 215.449 29.72C215.542 29.64 215.656 29.6 215.789 29.6H216.689C216.796 29.6 216.889 29.64 216.969 29.72C217.049 29.8 217.089 29.9 217.089 30.02L217.049 30.22L214.229 39.5C214.162 39.6733 214.082 39.8 213.989 39.88C213.896 39.96 213.756 40 213.569 40H212.789C212.429 40 212.209 39.8333 212.129 39.5L209.809 32.34L207.489 39.5C207.382 39.8333 207.156 40 206.809 40H206.029ZM223.291 40.2C221.824 40.2 220.684 39.7867 219.871 38.96C219.071 38.1333 218.644 37.0333 218.591 35.66L218.571 34.8L218.591 33.94C218.644 32.58 219.077 31.4867 219.891 30.66C220.704 29.82 221.837 29.4 223.291 29.4C224.744 29.4 225.877 29.82 226.691 30.66C227.504 31.4867 227.937 32.58 227.991 33.94C228.004 34.0867 228.011 34.3733 228.011 34.8C228.011 35.2267 228.004 35.5133 227.991 35.66C227.937 37.0333 227.504 38.1333 226.691 38.96C225.891 39.7867 224.757 40.2 223.291 40.2ZM223.291 38.66C224.131 38.66 224.791 38.3933 225.271 37.86C225.764 37.3267 226.031 36.56 226.071 35.56C226.084 35.4267 226.091 35.1733 226.091 34.8C226.091 34.4267 226.084 34.1733 226.071 34.04C226.031 33.04 225.764 32.2733 225.271 31.74C224.791 31.2067 224.131 30.94 223.291 30.94C222.451 30.94 221.784 31.2067 221.291 31.74C220.797 32.2733 220.537 33.04 220.511 34.04L220.491 34.8L220.511 35.56C220.537 36.56 220.797 37.3267 221.291 37.86C221.784 38.3933 222.451 38.66 223.291 38.66ZM230.975 40C230.842 40 230.728 39.96 230.635 39.88C230.555 39.7867 230.515 39.6733 230.515 39.54V30.08C230.515 29.9467 230.555 29.8333 230.635 29.74C230.728 29.6467 230.842 29.6 230.975 29.6H231.895C232.028 29.6 232.142 29.6467 232.235 29.74C232.328 29.8333 232.375 29.9467 232.375 30.08V30.96C232.922 30.0533 233.855 29.6 235.175 29.6H235.955C236.088 29.6 236.195 29.6467 236.275 29.74C236.368 29.82 236.415 29.9267 236.415 30.06V30.88C236.415 31.0133 236.368 31.12 236.275 31.2C236.195 31.28 236.088 31.32 235.955 31.32H234.755C234.035 31.32 233.468 31.5333 233.055 31.96C232.642 32.3733 232.435 32.94 232.435 33.66V39.54C232.435 39.6733 232.388 39.7867 232.295 39.88C232.202 39.96 232.088 40 231.955 40H230.975ZM241.698 40.2C240.311 40.2 239.265 39.7467 238.558 38.84C237.851 37.9333 237.478 36.7867 237.438 35.4L237.418 34.8L237.438 34.2C237.478 32.8267 237.851 31.6867 238.558 30.78C239.265 29.86 240.311 29.4 241.698 29.4C243.071 29.4 244.151 29.8867 244.938 30.86V26.26C244.938 26.1267 244.978 26.02 245.058 25.94C245.151 25.8467 245.265 25.8 245.398 25.8H246.358C246.491 25.8 246.598 25.8467 246.678 25.94C246.771 26.02 246.818 26.1267 246.818 26.26V39.54C246.818 39.6733 246.771 39.7867 246.678 39.88C246.598 39.96 246.491 40 246.358 40H245.458C245.325 40 245.211 39.96 245.118 39.88C245.038 39.7867 244.998 39.6733 244.998 39.54V38.7C244.225 39.7 243.125 40.2 241.698 40.2ZM242.118 38.58C243.038 38.58 243.725 38.28 244.178 37.68C244.645 37.0667 244.898 36.34 244.938 35.5C244.951 35.3533 244.958 35.1 244.958 34.74C244.958 34.3667 244.951 34.1067 244.938 33.96C244.911 33.1733 244.658 32.4867 244.178 31.9C243.698 31.3133 243.011 31.02 242.118 31.02C241.171 31.02 240.478 31.3133 240.038 31.9C239.611 32.4867 239.378 33.26 239.338 34.22L239.318 34.8C239.318 37.32 240.251 38.58 242.118 38.58Z" fill="#40434E"/>
<path d="M160.2 179C160.067 179 159.953 178.96 159.86 178.88C159.78 178.787 159.74 178.673 159.74 178.54V165.48C159.74 165.333 159.78 165.22 159.86 165.14C159.953 165.047 160.067 165 160.2 165H165.28C166.787 165 167.973 165.367 168.84 166.1C169.707 166.833 170.14 167.893 170.14 169.28C170.14 170.667 169.707 171.727 168.84 172.46C167.987 173.18 166.8 173.54 165.28 173.54H161.74V178.54C161.74 178.673 161.693 178.787 161.6 178.88C161.507 178.96 161.393 179 161.26 179H160.2ZM165.18 171.86C166.153 171.86 166.887 171.64 167.38 171.2C167.887 170.76 168.14 170.12 168.14 169.28C168.14 168.44 167.893 167.8 167.4 167.36C166.907 166.907 166.167 166.68 165.18 166.68H161.72V171.86H165.18ZM175.017 179.2C174.363 179.2 173.757 179.067 173.197 178.8C172.637 178.533 172.19 178.173 171.857 177.72C171.537 177.253 171.377 176.74 171.377 176.18C171.377 175.3 171.737 174.58 172.457 174.02C173.19 173.447 174.177 173.073 175.417 172.9L178.397 172.48V171.9C178.397 170.54 177.617 169.86 176.057 169.86C175.47 169.86 174.99 169.987 174.617 170.24C174.243 170.48 173.963 170.767 173.777 171.1C173.737 171.22 173.683 171.307 173.617 171.36C173.563 171.413 173.483 171.44 173.377 171.44H172.517C172.397 171.44 172.29 171.4 172.197 171.32C172.117 171.227 172.077 171.12 172.077 171C172.09 170.68 172.237 170.32 172.517 169.92C172.81 169.507 173.257 169.153 173.857 168.86C174.457 168.553 175.197 168.4 176.077 168.4C177.57 168.4 178.643 168.753 179.297 169.46C179.95 170.153 180.277 171.02 180.277 172.06V178.54C180.277 178.673 180.23 178.787 180.137 178.88C180.057 178.96 179.95 179 179.817 179H178.897C178.763 179 178.65 178.96 178.557 178.88C178.477 178.787 178.437 178.673 178.437 178.54V177.68C178.143 178.107 177.717 178.467 177.157 178.76C176.597 179.053 175.883 179.2 175.017 179.2ZM175.437 177.7C176.303 177.7 177.01 177.42 177.557 176.86C178.117 176.287 178.397 175.467 178.397 174.4V173.84L176.077 174.18C175.13 174.313 174.417 174.54 173.937 174.86C173.457 175.167 173.217 175.56 173.217 176.04C173.217 176.573 173.437 176.987 173.877 177.28C174.317 177.56 174.837 177.7 175.437 177.7ZM186.752 179.2C185.819 179.2 185.032 179.053 184.392 178.76C183.765 178.453 183.292 178.107 182.972 177.72C182.665 177.333 182.512 177.013 182.512 176.76C182.512 176.627 182.559 176.527 182.652 176.46C182.759 176.38 182.865 176.34 182.972 176.34H183.872C184.005 176.34 184.125 176.407 184.232 176.54C184.552 176.913 184.899 177.207 185.272 177.42C185.645 177.633 186.145 177.74 186.772 177.74C187.465 177.74 188.025 177.607 188.452 177.34C188.892 177.06 189.112 176.68 189.112 176.2C189.112 175.88 189.019 175.62 188.832 175.42C188.659 175.207 188.352 175.027 187.912 174.88C187.485 174.72 186.845 174.547 185.992 174.36C184.832 174.107 184.005 173.74 183.512 173.26C183.032 172.78 182.792 172.16 182.792 171.4C182.792 170.893 182.939 170.413 183.232 169.96C183.539 169.493 183.979 169.12 184.552 168.84C185.139 168.547 185.839 168.4 186.652 168.4C187.505 168.4 188.232 168.54 188.832 168.82C189.432 169.1 189.879 169.433 190.172 169.82C190.479 170.193 190.632 170.507 190.632 170.76C190.632 170.88 190.585 170.98 190.492 171.06C190.412 171.14 190.312 171.18 190.192 171.18H189.352C189.192 171.18 189.059 171.113 188.952 170.98C188.739 170.727 188.552 170.533 188.392 170.4C188.245 170.253 188.025 170.127 187.732 170.02C187.452 169.913 187.092 169.86 186.652 169.86C186.012 169.86 185.519 170 185.172 170.28C184.825 170.547 184.652 170.9 184.652 171.34C184.652 171.62 184.725 171.86 184.872 172.06C185.019 172.247 185.299 172.42 185.712 172.58C186.139 172.74 186.752 172.907 187.552 173.08C188.819 173.347 189.712 173.733 190.232 174.24C190.765 174.733 191.032 175.367 191.032 176.14C191.032 176.713 190.865 177.233 190.532 177.7C190.199 178.167 189.705 178.533 189.052 178.8C188.412 179.067 187.645 179.2 186.752 179.2ZM196.947 179.2C196.014 179.2 195.227 179.053 194.587 178.76C193.961 178.453 193.487 178.107 193.167 177.72C192.861 177.333 192.707 177.013 192.707 176.76C192.707 176.627 192.754 176.527 192.847 176.46C192.954 176.38 193.061 176.34 193.167 176.34H194.067C194.201 176.34 194.321 176.407 194.427 176.54C194.747 176.913 195.094 177.207 195.467 177.42C195.841 177.633 196.341 177.74 196.967 177.74C197.661 177.74 198.221 177.607 198.647 177.34C199.087 177.06 199.307 176.68 199.307 176.2C199.307 175.88 199.214 175.62 199.027 175.42C198.854 175.207 198.547 175.027 198.107 174.88C197.681 174.72 197.041 174.547 196.187 174.36C195.027 174.107 194.201 173.74 193.707 173.26C193.227 172.78 192.987 172.16 192.987 171.4C192.987 170.893 193.134 170.413 193.427 169.96C193.734 169.493 194.174 169.12 194.747 168.84C195.334 168.547 196.034 168.4 196.847 168.4C197.701 168.4 198.427 168.54 199.027 168.82C199.627 169.1 200.074 169.433 200.367 169.82C200.674 170.193 200.827 170.507 200.827 170.76C200.827 170.88 200.781 170.98 200.687 171.06C200.607 171.14 200.507 171.18 200.387 171.18H199.547C199.387 171.18 199.254 171.113 199.147 170.98C198.934 170.727 198.747 170.533 198.587 170.4C198.441 170.253 198.221 170.127 197.927 170.02C197.647 169.913 197.287 169.86 196.847 169.86C196.207 169.86 195.714 170 195.367 170.28C195.021 170.547 194.847 170.9 194.847 171.34C194.847 171.62 194.921 171.86 195.067 172.06C195.214 172.247 195.494 172.42 195.907 172.58C196.334 172.74 196.947 172.907 197.747 173.08C199.014 173.347 199.907 173.733 200.427 174.24C200.961 174.733 201.227 175.367 201.227 176.14C201.227 176.713 201.061 177.233 200.727 177.7C200.394 178.167 199.901 178.533 199.247 178.8C198.607 179.067 197.841 179.2 196.947 179.2ZM206.029 179C205.856 179 205.722 178.96 205.629 178.88C205.536 178.8 205.456 178.673 205.389 178.5L202.549 169.22L202.509 169.02C202.509 168.9 202.549 168.8 202.629 168.72C202.722 168.64 202.822 168.6 202.929 168.6H203.809C203.942 168.6 204.049 168.64 204.129 168.72C204.222 168.787 204.282 168.86 204.309 168.94L206.529 176.48L208.909 169.02C208.936 168.913 208.996 168.82 209.089 168.74C209.182 168.647 209.309 168.6 209.469 168.6H210.149C210.309 168.6 210.436 168.647 210.529 168.74C210.622 168.82 210.682 168.913 210.709 169.02L213.089 176.48L215.309 168.94C215.322 168.873 215.369 168.8 215.449 168.72C215.542 168.64 215.656 168.6 215.789 168.6H216.689C216.796 168.6 216.889 168.64 216.969 168.72C217.049 168.8 217.089 168.9 217.089 169.02L217.049 169.22L214.229 178.5C214.162 178.673 214.082 178.8 213.989 178.88C213.896 178.96 213.756 179 213.569 179H212.789C212.429 179 212.209 178.833 212.129 178.5L209.809 171.34L207.489 178.5C207.382 178.833 207.156 179 206.809 179H206.029ZM223.291 179.2C221.824 179.2 220.684 178.787 219.871 177.96C219.071 177.133 218.644 176.033 218.591 174.66L218.571 173.8L218.591 172.94C218.644 171.58 219.077 170.487 219.891 169.66C220.704 168.82 221.837 168.4 223.291 168.4C224.744 168.4 225.877 168.82 226.691 169.66C227.504 170.487 227.937 171.58 227.991 172.94C228.004 173.087 228.011 173.373 228.011 173.8C228.011 174.227 228.004 174.513 227.991 174.66C227.937 176.033 227.504 177.133 226.691 177.96C225.891 178.787 224.757 179.2 223.291 179.2ZM223.291 177.66C224.131 177.66 224.791 177.393 225.271 176.86C225.764 176.327 226.031 175.56 226.071 174.56C226.084 174.427 226.091 174.173 226.091 173.8C226.091 173.427 226.084 173.173 226.071 173.04C226.031 172.04 225.764 171.273 225.271 170.74C224.791 170.207 224.131 169.94 223.291 169.94C222.451 169.94 221.784 170.207 221.291 170.74C220.797 171.273 220.537 172.04 220.511 173.04L220.491 173.8L220.511 174.56C220.537 175.56 220.797 176.327 221.291 176.86C221.784 177.393 222.451 177.66 223.291 177.66ZM230.975 179C230.842 179 230.728 178.96 230.635 178.88C230.555 178.787 230.515 178.673 230.515 178.54V169.08C230.515 168.947 230.555 168.833 230.635 168.74C230.728 168.647 230.842 168.6 230.975 168.6H231.895C232.028 168.6 232.142 168.647 232.235 168.74C232.328 168.833 232.375 168.947 232.375 169.08V169.96C232.922 169.053 233.855 168.6 235.175 168.6H235.955C236.088 168.6 236.195 168.647 236.275 168.74C236.368 168.82 236.415 168.927 236.415 169.06V169.88C236.415 170.013 236.368 170.12 236.275 170.2C236.195 170.28 236.088 170.32 235.955 170.32H234.755C234.035 170.32 233.468 170.533 233.055 170.96C232.642 171.373 232.435 171.94 232.435 172.66V178.54C232.435 178.673 232.388 178.787 232.295 178.88C232.202 178.96 232.088 179 231.955 179H230.975ZM241.698 179.2C240.311 179.2 239.265 178.747 238.558 177.84C237.851 176.933 237.478 175.787 237.438 174.4L237.418 173.8L237.438 173.2C237.478 171.827 237.851 170.687 238.558 169.78C239.265 168.86 240.311 168.4 241.698 168.4C243.071 168.4 244.151 168.887 244.938 169.86V165.26C244.938 165.127 244.978 165.02 245.058 164.94C245.151 164.847 245.265 164.8 245.398 164.8H246.358C246.491 164.8 246.598 164.847 246.678 164.94C246.771 165.02 246.818 165.127 246.818 165.26V178.54C246.818 178.673 246.771 178.787 246.678 178.88C246.598 178.96 246.491 179 246.358 179H245.458C245.325 179 245.211 178.96 245.118 178.88C245.038 178.787 244.998 178.673 244.998 178.54V177.7C244.225 178.7 243.125 179.2 241.698 179.2ZM242.118 177.58C243.038 177.58 243.725 177.28 244.178 176.68C244.645 176.067 244.898 175.34 244.938 174.5C244.951 174.353 244.958 174.1 244.958 173.74C244.958 173.367 244.951 173.107 244.938 172.96C244.911 172.173 244.658 171.487 244.178 170.9C243.698 170.313 243.011 170.02 242.118 170.02C241.171 170.02 240.478 170.313 240.038 170.9C239.611 171.487 239.378 172.26 239.338 173.22L239.318 173.8C239.318 176.32 240.251 177.58 242.118 177.58Z" fill="#40434E"/>
<path d="M172.584 76.152C171.88 76.152 171.272 75.904 170.76 75.408C170.248 74.896 169.992 74.288 169.992 73.584C169.992 72.864 170.248 72.256 170.76 71.76C171.272 71.248 171.88 70.992 172.584 70.992C173.288 70.992 173.888 71.248 174.384 71.76C174.896 72.256 175.152 72.864 175.152 73.584C175.152 74.288 174.896 74.896 174.384 75.408C173.888 75.904 173.288 76.152 172.584 76.152ZM181.748 76.152C181.044 76.152 180.436 75.904 179.924 75.408C179.412 74.896 179.156 74.288 179.156 73.584C179.156 72.864 179.412 72.256 179.924 71.76C180.436 71.248 181.044 70.992 181.748 70.992C182.452 70.992 183.052 71.248 183.548 71.76C184.06 72.256 184.316 72.864 184.316 73.584C184.316 74.288 184.06 74.896 183.548 75.408C183.052 75.904 182.452 76.152 181.748 76.152ZM190.912 76.152C190.208 76.152 189.6 75.904 189.088 75.408C188.576 74.896 188.32 74.288 188.32 73.584C188.32 72.864 188.576 72.256 189.088 71.76C189.6 71.248 190.208 70.992 190.912 70.992C191.616 70.992 192.216 71.248 192.712 71.76C193.224 72.256 193.48 72.864 193.48 73.584C193.48 74.288 193.224 74.896 192.712 75.408C192.216 75.904 191.616 76.152 190.912 76.152ZM200.076 76.152C199.372 76.152 198.764 75.904 198.252 75.408C197.74 74.896 197.484 74.288 197.484 73.584C197.484 72.864 197.74 72.256 198.252 71.76C198.764 71.248 199.372 70.992 200.076 70.992C200.78 70.992 201.38 71.248 201.876 71.76C202.388 72.256 202.644 72.864 202.644 73.584C202.644 74.288 202.388 74.896 201.876 75.408C201.38 75.904 200.78 76.152 200.076 76.152ZM209.24 76.152C208.536 76.152 207.928 75.904 207.416 75.408C206.904 74.896 206.648 74.288 206.648 73.584C206.648 72.864 206.904 72.256 207.416 71.76C207.928 71.248 208.536 70.992 209.24 70.992C209.944 70.992 210.544 71.248 211.04 71.76C211.552 72.256 211.808 72.864 211.808 73.584C211.808 74.288 211.552 74.896 211.04 75.408C210.544 75.904 209.944 76.152 209.24 76.152ZM218.404 76.152C217.7 76.152 217.092 75.904 216.58 75.408C216.068 74.896 215.812 74.288 215.812 73.584C215.812 72.864 216.068 72.256 216.58 71.76C217.092 71.248 217.7 70.992 218.404 70.992C219.108 70.992 219.708 71.248 220.204 71.76C220.716 72.256 220.972 72.864 220.972 73.584C220.972 74.288 220.716 74.896 220.204 75.408C219.708 75.904 219.108 76.152 218.404 76.152ZM227.568 76.152C226.864 76.152 226.256 75.904 225.744 75.408C225.232 74.896 224.976 74.288 224.976 73.584C224.976 72.864 225.232 72.256 225.744 71.76C226.256 71.248 226.864 70.992 227.568 70.992C228.272 70.992 228.872 71.248 229.368 71.76C229.88 72.256 230.136 72.864 230.136 73.584C230.136 74.288 229.88 74.896 229.368 75.408C228.872 75.904 228.272 76.152 227.568 76.152ZM236.732 76.152C236.028 76.152 235.42 75.904 234.908 75.408C234.396 74.896 234.14 74.288 234.14 73.584C234.14 72.864 234.396 72.256 234.908 71.76C235.42 71.248 236.028 70.992 236.732 70.992C237.436 70.992 238.036 71.248 238.532 71.76C239.044 72.256 239.3 72.864 239.3 73.584C239.3 74.288 239.044 74.896 238.532 75.408C238.036 75.904 237.436 76.152 236.732 76.152ZM245.897 76.152C245.193 76.152 244.585 75.904 244.073 75.408C243.561 74.896 243.305 74.288 243.305 73.584C243.305 72.864 243.561 72.256 244.073 71.76C244.585 71.248 245.193 70.992 245.897 70.992C246.601 70.992 247.201 71.248 247.697 71.76C248.209 72.256 248.465 72.864 248.465 73.584C248.465 74.288 248.209 74.896 247.697 75.408C247.201 75.904 246.601 76.152 245.897 76.152ZM255.061 76.152C254.357 76.152 253.749 75.904 253.237 75.408C252.725 74.896 252.469 74.288 252.469 73.584C252.469 72.864 252.725 72.256 253.237 71.76C253.749 71.248 254.357 70.992 255.061 70.992C255.765 70.992 256.365 71.248 256.861 71.76C257.373 72.256 257.629 72.864 257.629 73.584C257.629 74.288 257.373 74.896 256.861 75.408C256.365 75.904 255.765 76.152 255.061 76.152ZM264.225 76.152C263.521 76.152 262.913 75.904 262.401 75.408C261.889 74.896 261.633 74.288 261.633 73.584C261.633 72.864 261.889 72.256 262.401 71.76C262.913 71.248 263.521 70.992 264.225 70.992C264.929 70.992 265.529 71.248 266.025 71.76C266.537 72.256 266.793 72.864 266.793 73.584C266.793 74.288 266.537 74.896 266.025 75.408C265.529 75.904 264.929 76.152 264.225 76.152ZM273.389 76.152C272.685 76.152 272.077 75.904 271.565 75.408C271.053 74.896 270.797 74.288 270.797 73.584C270.797 72.864 271.053 72.256 271.565 71.76C272.077 71.248 272.685 70.992 273.389 70.992C274.093 70.992 274.693 71.248 275.189 71.76C275.701 72.256 275.957 72.864 275.957 73.584C275.957 74.288 275.701 74.896 275.189 75.408C274.693 75.904 274.093 76.152 273.389 76.152ZM282.553 76.152C281.849 76.152 281.241 75.904 280.729 75.408C280.217 74.896 279.961 74.288 279.961 73.584C279.961 72.864 280.217 72.256 280.729 71.76C281.241 71.248 281.849 70.992 282.553 70.992C283.257 70.992 283.857 71.248 284.353 71.76C284.865 72.256 285.121 72.864 285.121 73.584C285.121 74.288 284.865 74.896 284.353 75.408C283.857 75.904 283.257 76.152 282.553 76.152ZM291.717 76.152C291.013 76.152 290.405 75.904 289.893 75.408C289.381 74.896 289.125 74.288 289.125 73.584C289.125 72.864 289.381 72.256 289.893 71.76C290.405 71.248 291.013 70.992 291.717 70.992C292.421 70.992 293.021 71.248 293.517 71.76C294.029 72.256 294.285 72.864 294.285 73.584C294.285 74.288 294.029 74.896 293.517 75.408C293.021 75.904 292.421 76.152 291.717 76.152Z" fill="#40434E"/>
<path d="M172.584 215.152C171.88 215.152 171.272 214.904 170.76 214.408C170.248 213.896 169.992 213.288 169.992 212.584C169.992 211.864 170.248 211.256 170.76 210.76C171.272 210.248 171.88 209.992 172.584 209.992C173.288 209.992 173.888 210.248 174.384 210.76C174.896 211.256 175.152 211.864 175.152 212.584C175.152 213.288 174.896 213.896 174.384 214.408C173.888 214.904 173.288 215.152 172.584 215.152ZM181.748 215.152C181.044 215.152 180.436 214.904 179.924 214.408C179.412 213.896 179.156 213.288 179.156 212.584C179.156 211.864 179.412 211.256 179.924 210.76C180.436 210.248 181.044 209.992 181.748 209.992C182.452 209.992 183.052 210.248 183.548 210.76C184.06 211.256 184.316 211.864 184.316 212.584C184.316 213.288 184.06 213.896 183.548 214.408C183.052 214.904 182.452 215.152 181.748 215.152ZM190.912 215.152C190.208 215.152 189.6 214.904 189.088 214.408C188.576 213.896 188.32 213.288 188.32 212.584C188.32 211.864 188.576 211.256 189.088 210.76C189.6 210.248 190.208 209.992 190.912 209.992C191.616 209.992 192.216 210.248 192.712 210.76C193.224 211.256 193.48 211.864 193.48 212.584C193.48 213.288 193.224 213.896 192.712 214.408C192.216 214.904 191.616 215.152 190.912 215.152ZM200.076 215.152C199.372 215.152 198.764 214.904 198.252 214.408C197.74 213.896 197.484 213.288 197.484 212.584C197.484 211.864 197.74 211.256 198.252 210.76C198.764 210.248 199.372 209.992 200.076 209.992C200.78 209.992 201.38 210.248 201.876 210.76C202.388 211.256 202.644 211.864 202.644 212.584C202.644 213.288 202.388 213.896 201.876 214.408C201.38 214.904 200.78 215.152 200.076 215.152ZM209.24 215.152C208.536 215.152 207.928 214.904 207.416 214.408C206.904 213.896 206.648 213.288 206.648 212.584C206.648 211.864 206.904 211.256 207.416 210.76C207.928 210.248 208.536 209.992 209.24 209.992C209.944 209.992 210.544 210.248 211.04 210.76C211.552 211.256 211.808 211.864 211.808 212.584C211.808 213.288 211.552 213.896 211.04 214.408C210.544 214.904 209.944 215.152 209.24 215.152ZM218.404 215.152C217.7 215.152 217.092 214.904 216.58 214.408C216.068 213.896 215.812 213.288 215.812 212.584C215.812 211.864 216.068 211.256 216.58 210.76C217.092 210.248 217.7 209.992 218.404 209.992C219.108 209.992 219.708 210.248 220.204 210.76C220.716 211.256 220.972 211.864 220.972 212.584C220.972 213.288 220.716 213.896 220.204 214.408C219.708 214.904 219.108 215.152 218.404 215.152ZM227.568 215.152C226.864 215.152 226.256 214.904 225.744 214.408C225.232 213.896 224.976 213.288 224.976 212.584C224.976 211.864 225.232 211.256 225.744 210.76C226.256 210.248 226.864 209.992 227.568 209.992C228.272 209.992 228.872 210.248 229.368 210.76C229.88 211.256 230.136 211.864 230.136 212.584C230.136 213.288 229.88 213.896 229.368 214.408C228.872 214.904 228.272 215.152 227.568 215.152ZM236.732 215.152C236.028 215.152 235.42 214.904 234.908 214.408C234.396 213.896 234.14 213.288 234.14 212.584C234.14 211.864 234.396 211.256 234.908 210.76C235.42 210.248 236.028 209.992 236.732 209.992C237.436 209.992 238.036 210.248 238.532 210.76C239.044 211.256 239.3 211.864 239.3 212.584C239.3 213.288 239.044 213.896 238.532 214.408C238.036 214.904 237.436 215.152 236.732 215.152ZM245.897 215.152C245.193 215.152 244.585 214.904 244.073 214.408C243.561 213.896 243.305 213.288 243.305 212.584C243.305 211.864 243.561 211.256 244.073 210.76C244.585 210.248 245.193 209.992 245.897 209.992C246.601 209.992 247.201 210.248 247.697 210.76C248.209 211.256 248.465 211.864 248.465 212.584C248.465 213.288 248.209 213.896 247.697 214.408C247.201 214.904 246.601 215.152 245.897 215.152ZM255.061 215.152C254.357 215.152 253.749 214.904 253.237 214.408C252.725 213.896 252.469 213.288 252.469 212.584C252.469 211.864 252.725 211.256 253.237 210.76C253.749 210.248 254.357 209.992 255.061 209.992C255.765 209.992 256.365 210.248 256.861 210.76C257.373 211.256 257.629 211.864 257.629 212.584C257.629 213.288 257.373 213.896 256.861 214.408C256.365 214.904 255.765 215.152 255.061 215.152ZM264.225 215.152C263.521 215.152 262.913 214.904 262.401 214.408C261.889 213.896 261.633 213.288 261.633 212.584C261.633 211.864 261.889 211.256 262.401 210.76C262.913 210.248 263.521 209.992 264.225 209.992C264.929 209.992 265.529 210.248 266.025 210.76C266.537 211.256 266.793 211.864 266.793 212.584C266.793 213.288 266.537 213.896 266.025 214.408C265.529 214.904 264.929 215.152 264.225 215.152ZM273.389 215.152C272.685 215.152 272.077 214.904 271.565 214.408C271.053 213.896 270.797 213.288 270.797 212.584C270.797 211.864 271.053 211.256 271.565 210.76C272.077 210.248 272.685 209.992 273.389 209.992C274.093 209.992 274.693 210.248 275.189 210.76C275.701 211.256 275.957 211.864 275.957 212.584C275.957 213.288 275.701 213.896 275.189 214.408C274.693 214.904 274.093 215.152 273.389 215.152ZM282.553 215.152C281.849 215.152 281.241 214.904 280.729 214.408C280.217 213.896 279.961 213.288 279.961 212.584C279.961 211.864 280.217 211.256 280.729 210.76C281.241 210.248 281.849 209.992 282.553 209.992C283.257 209.992 283.857 210.248 284.353 210.76C284.865 211.256 285.121 211.864 285.121 212.584C285.121 213.288 284.865 213.896 284.353 214.408C283.857 214.904 283.257 215.152 282.553 215.152ZM291.717 215.152C291.013 215.152 290.405 214.904 289.893 214.408C289.381 213.896 289.125 213.288 289.125 212.584C289.125 211.864 289.381 211.256 289.893 210.76C290.405 210.248 291.013 209.992 291.717 209.992C292.421 209.992 293.021 210.248 293.517 210.76C294.029 211.256 294.285 211.864 294.285 212.584C294.285 213.288 294.029 213.896 293.517 214.408C293.021 214.904 292.421 215.152 291.717 215.152Z" fill="#40434E"/>
<path d="M159.76 116C159.653 116 159.563 115.968 159.488 115.904C159.424 115.829 159.392 115.739 159.392 115.632V105.184C159.392 105.067 159.424 104.976 159.488 104.912C159.563 104.837 159.653 104.8 159.76 104.8H163.824C165.029 104.8 165.979 105.093 166.672 105.68C167.365 106.267 167.712 107.115 167.712 108.224C167.712 109.333 167.365 110.181 166.672 110.768C165.989 111.344 165.04 111.632 163.824 111.632H160.992V115.632C160.992 115.739 160.955 115.829 160.88 115.904C160.805 115.968 160.715 116 160.608 116H159.76ZM163.744 110.288C164.523 110.288 165.109 110.112 165.504 109.76C165.909 109.408 166.112 108.896 166.112 108.224C166.112 107.552 165.915 107.04 165.52 106.688C165.125 106.325 164.533 106.144 163.744 106.144H160.976V110.288H163.744ZM169.834 116C169.727 116 169.636 115.968 169.562 115.904C169.498 115.829 169.466 115.739 169.466 115.632V105.008C169.466 104.901 169.498 104.816 169.562 104.752C169.636 104.677 169.727 104.64 169.834 104.64H170.586C170.692 104.64 170.778 104.677 170.842 104.752C170.916 104.816 170.954 104.901 170.954 105.008V115.632C170.954 115.739 170.916 115.829 170.842 115.904C170.778 115.968 170.692 116 170.586 116H169.834ZM176.668 116.16C175.57 116.16 174.69 115.824 174.028 115.152C173.378 114.469 173.02 113.541 172.956 112.368L172.94 111.824L172.956 111.296C173.031 110.144 173.394 109.227 174.044 108.544C174.706 107.861 175.575 107.52 176.652 107.52C177.836 107.52 178.754 107.899 179.404 108.656C180.055 109.403 180.38 110.416 180.38 111.696V111.968C180.38 112.075 180.343 112.165 180.268 112.24C180.204 112.304 180.119 112.336 180.012 112.336H174.476V112.48C174.508 113.173 174.716 113.765 175.1 114.256C175.495 114.736 176.012 114.976 176.652 114.976C177.143 114.976 177.543 114.88 177.852 114.688C178.172 114.485 178.407 114.277 178.556 114.064C178.652 113.936 178.722 113.861 178.764 113.84C178.818 113.808 178.908 113.792 179.036 113.792H179.82C179.916 113.792 179.996 113.819 180.06 113.872C180.124 113.925 180.156 114 180.156 114.096C180.156 114.331 180.007 114.613 179.708 114.944C179.42 115.275 179.01 115.563 178.476 115.808C177.954 116.043 177.351 116.16 176.668 116.16ZM178.86 111.232V111.184C178.86 110.448 178.658 109.851 178.252 109.392C177.858 108.923 177.324 108.688 176.652 108.688C175.98 108.688 175.447 108.923 175.052 109.392C174.668 109.851 174.476 110.448 174.476 111.184V111.232H178.86ZM184.613 116.16C184.091 116.16 183.605 116.053 183.157 115.84C182.709 115.627 182.352 115.339 182.085 114.976C181.829 114.603 181.701 114.192 181.701 113.744C181.701 113.04 181.989 112.464 182.565 112.016C183.152 111.557 183.941 111.259 184.933 111.12L187.317 110.784V110.32C187.317 109.232 186.693 108.688 185.445 108.688C184.976 108.688 184.592 108.789 184.293 108.992C183.995 109.184 183.771 109.413 183.621 109.68C183.589 109.776 183.547 109.845 183.493 109.888C183.451 109.931 183.387 109.952 183.301 109.952H182.613C182.517 109.952 182.432 109.92 182.357 109.856C182.293 109.781 182.261 109.696 182.261 109.6C182.272 109.344 182.389 109.056 182.613 108.736C182.848 108.405 183.205 108.123 183.685 107.888C184.165 107.643 184.757 107.52 185.461 107.52C186.656 107.52 187.515 107.803 188.037 108.368C188.56 108.923 188.821 109.616 188.821 110.448V115.632C188.821 115.739 188.784 115.829 188.709 115.904C188.645 115.968 188.56 116 188.453 116H187.717C187.611 116 187.52 115.968 187.445 115.904C187.381 115.829 187.349 115.739 187.349 115.632V114.944C187.115 115.285 186.773 115.573 186.325 115.808C185.877 116.043 185.307 116.16 184.613 116.16ZM184.949 114.96C185.643 114.96 186.208 114.736 186.645 114.288C187.093 113.829 187.317 113.173 187.317 112.32V111.872L185.461 112.144C184.704 112.251 184.133 112.432 183.749 112.688C183.365 112.933 183.173 113.248 183.173 113.632C183.173 114.059 183.349 114.389 183.701 114.624C184.053 114.848 184.469 114.96 184.949 114.96ZM194.002 116.16C193.255 116.16 192.626 116.043 192.114 115.808C191.612 115.563 191.234 115.285 190.978 114.976C190.732 114.667 190.61 114.411 190.61 114.208C190.61 114.101 190.647 114.021 190.722 113.968C190.807 113.904 190.892 113.872 190.978 113.872H191.698C191.804 113.872 191.9 113.925 191.986 114.032C192.242 114.331 192.519 114.565 192.818 114.736C193.116 114.907 193.516 114.992 194.018 114.992C194.572 114.992 195.02 114.885 195.362 114.672C195.714 114.448 195.89 114.144 195.89 113.76C195.89 113.504 195.815 113.296 195.666 113.136C195.527 112.965 195.282 112.821 194.93 112.704C194.588 112.576 194.076 112.437 193.394 112.288C192.466 112.085 191.804 111.792 191.41 111.408C191.026 111.024 190.834 110.528 190.834 109.92C190.834 109.515 190.951 109.131 191.186 108.768C191.431 108.395 191.783 108.096 192.242 107.872C192.711 107.637 193.271 107.52 193.922 107.52C194.604 107.52 195.186 107.632 195.666 107.856C196.146 108.08 196.503 108.347 196.738 108.656C196.983 108.955 197.106 109.205 197.106 109.408C197.106 109.504 197.068 109.584 196.994 109.648C196.93 109.712 196.85 109.744 196.754 109.744H196.082C195.954 109.744 195.847 109.691 195.762 109.584C195.591 109.381 195.442 109.227 195.314 109.12C195.196 109.003 195.02 108.901 194.786 108.816C194.562 108.731 194.274 108.688 193.922 108.688C193.41 108.688 193.015 108.8 192.738 109.024C192.46 109.237 192.322 109.52 192.322 109.872C192.322 110.096 192.38 110.288 192.498 110.448C192.615 110.597 192.839 110.736 193.17 110.864C193.511 110.992 194.002 111.125 194.641 111.264C195.655 111.477 196.37 111.787 196.786 112.192C197.212 112.587 197.426 113.093 197.426 113.712C197.426 114.171 197.292 114.587 197.026 114.96C196.759 115.333 196.364 115.627 195.842 115.84C195.33 116.053 194.716 116.16 194.002 116.16ZM202.606 116.16C201.507 116.16 200.627 115.824 199.966 115.152C199.315 114.469 198.958 113.541 198.894 112.368L198.878 111.824L198.894 111.296C198.968 110.144 199.331 109.227 199.982 108.544C200.643 107.861 201.512 107.52 202.59 107.52C203.774 107.52 204.691 107.899 205.342 108.656C205.992 109.403 206.318 110.416 206.318 111.696V111.968C206.318 112.075 206.28 112.165 206.206 112.24C206.142 112.304 206.056 112.336 205.95 112.336H200.414V112.48C200.446 113.173 200.654 113.765 201.038 114.256C201.432 114.736 201.95 114.976 202.59 114.976C203.08 114.976 203.48 114.88 203.79 114.688C204.11 114.485 204.344 114.277 204.494 114.064C204.59 113.936 204.659 113.861 204.702 113.84C204.755 113.808 204.846 113.792 204.974 113.792H205.758C205.854 113.792 205.934 113.819 205.998 113.872C206.062 113.925 206.094 114 206.094 114.096C206.094 114.331 205.944 114.613 205.646 114.944C205.358 115.275 204.947 115.563 204.414 115.808C203.891 116.043 203.288 116.16 202.606 116.16ZM204.798 111.232V111.184C204.798 110.448 204.595 109.851 204.19 109.392C203.795 108.923 203.262 108.688 202.59 108.688C201.918 108.688 201.384 108.923 200.99 109.392C200.606 109.851 200.414 110.448 200.414 111.184V111.232H204.798ZM215.481 116.16C214.382 116.16 213.502 115.824 212.841 115.152C212.19 114.469 211.833 113.541 211.769 112.368L211.753 111.824L211.769 111.296C211.843 110.144 212.206 109.227 212.857 108.544C213.518 107.861 214.387 107.52 215.465 107.52C216.649 107.52 217.566 107.899 218.217 108.656C218.867 109.403 219.193 110.416 219.193 111.696V111.968C219.193 112.075 219.155 112.165 219.081 112.24C219.017 112.304 218.931 112.336 218.825 112.336H213.289V112.48C213.321 113.173 213.529 113.765 213.913 114.256C214.307 114.736 214.825 114.976 215.465 114.976C215.955 114.976 216.355 114.88 216.665 114.688C216.985 114.485 217.219 114.277 217.369 114.064C217.465 113.936 217.534 113.861 217.577 113.84C217.63 113.808 217.721 113.792 217.849 113.792H218.633C218.729 113.792 218.809 113.819 218.873 113.872C218.937 113.925 218.969 114 218.969 114.096C218.969 114.331 218.819 114.613 218.521 114.944C218.233 115.275 217.822 115.563 217.289 115.808C216.766 116.043 216.163 116.16 215.481 116.16ZM217.673 111.232V111.184C217.673 110.448 217.47 109.851 217.065 109.392C216.67 108.923 216.137 108.688 215.465 108.688C214.793 108.688 214.259 108.923 213.865 109.392C213.481 109.851 213.289 110.448 213.289 111.184V111.232H217.673ZM221.474 116C221.367 116 221.277 115.968 221.202 115.904C221.138 115.829 221.106 115.739 221.106 115.632V108.048C221.106 107.941 221.138 107.856 221.202 107.792C221.277 107.717 221.367 107.68 221.474 107.68H222.226C222.333 107.68 222.418 107.717 222.482 107.792C222.557 107.856 222.594 107.941 222.594 108.048V108.752C222.903 108.357 223.266 108.053 223.682 107.84C224.109 107.627 224.637 107.52 225.266 107.52C226.29 107.52 227.085 107.851 227.65 108.512C228.226 109.163 228.514 110.032 228.514 111.12V115.632C228.514 115.739 228.477 115.829 228.402 115.904C228.338 115.968 228.253 116 228.146 116H227.346C227.239 116 227.149 115.968 227.074 115.904C227.01 115.829 226.978 115.739 226.978 115.632V111.2C226.978 110.443 226.791 109.856 226.418 109.44C226.055 109.024 225.527 108.816 224.834 108.816C224.162 108.816 223.629 109.029 223.234 109.456C222.839 109.872 222.642 110.453 222.642 111.2V115.632C222.642 115.739 222.605 115.829 222.53 115.904C222.466 115.968 222.381 116 222.274 116H221.474ZM233.948 116C232.262 116 231.42 115.061 231.42 113.184V108.96H230.172C230.065 108.96 229.974 108.928 229.9 108.864C229.836 108.789 229.804 108.699 229.804 108.592V108.048C229.804 107.941 229.836 107.856 229.9 107.792C229.974 107.717 230.065 107.68 230.172 107.68H231.42V105.008C231.42 104.901 231.452 104.816 231.516 104.752C231.59 104.677 231.681 104.64 231.788 104.64H232.54C232.646 104.64 232.732 104.677 232.796 104.752C232.87 104.816 232.908 104.901 232.908 105.008V107.68H234.892C234.998 107.68 235.084 107.717 235.148 107.792C235.222 107.856 235.26 107.941 235.26 108.048V108.592C235.26 108.699 235.222 108.789 235.148 108.864C235.084 108.928 234.998 108.96 234.892 108.96H232.908V113.072C232.908 113.605 232.998 114.011 233.18 114.288C233.361 114.555 233.66 114.688 234.076 114.688H235.052C235.158 114.688 235.244 114.725 235.308 114.8C235.382 114.864 235.42 114.949 235.42 115.056V115.632C235.42 115.739 235.382 115.829 235.308 115.904C235.244 115.968 235.158 116 235.052 116H233.948ZM240.278 116.16C239.179 116.16 238.299 115.824 237.638 115.152C236.987 114.469 236.63 113.541 236.566 112.368L236.55 111.824L236.566 111.296C236.64 110.144 237.003 109.227 237.654 108.544C238.315 107.861 239.184 107.52 240.262 107.52C241.446 107.52 242.363 107.899 243.014 108.656C243.664 109.403 243.99 110.416 243.99 111.696V111.968C243.99 112.075 243.952 112.165 243.878 112.24C243.814 112.304 243.728 112.336 243.622 112.336H238.086V112.48C238.118 113.173 238.326 113.765 238.71 114.256C239.104 114.736 239.622 114.976 240.262 114.976C240.752 114.976 241.152 114.88 241.462 114.688C241.782 114.485 242.016 114.277 242.166 114.064C242.262 113.936 242.331 113.861 242.374 113.84C242.427 113.808 242.518 113.792 242.646 113.792H243.43C243.526 113.792 243.606 113.819 243.67 113.872C243.734 113.925 243.766 114 243.766 114.096C243.766 114.331 243.616 114.613 243.318 114.944C243.03 115.275 242.619 115.563 242.086 115.808C241.563 116.043 240.96 116.16 240.278 116.16ZM242.47 111.232V111.184C242.47 110.448 242.267 109.851 241.862 109.392C241.467 108.923 240.934 108.688 240.262 108.688C239.59 108.688 239.056 108.923 238.662 109.392C238.278 109.851 238.086 110.448 238.086 111.184V111.232H242.47ZM246.271 116C246.164 116 246.073 115.968 245.999 115.904C245.935 115.829 245.903 115.739 245.903 115.632V108.064C245.903 107.957 245.935 107.867 245.999 107.792C246.073 107.717 246.164 107.68 246.271 107.68H247.007C247.113 107.68 247.204 107.717 247.279 107.792C247.353 107.867 247.391 107.957 247.391 108.064V108.768C247.828 108.043 248.575 107.68 249.631 107.68H250.255C250.361 107.68 250.447 107.717 250.511 107.792C250.585 107.856 250.623 107.941 250.623 108.048V108.704C250.623 108.811 250.585 108.896 250.511 108.96C250.447 109.024 250.361 109.056 250.255 109.056H249.295C248.719 109.056 248.265 109.227 247.935 109.568C247.604 109.899 247.439 110.352 247.439 110.928V115.632C247.439 115.739 247.401 115.829 247.327 115.904C247.252 115.968 247.161 116 247.055 116H246.271ZM258.432 116C256.747 116 255.904 115.061 255.904 113.184V108.96H254.656C254.549 108.96 254.459 108.928 254.384 108.864C254.32 108.789 254.288 108.699 254.288 108.592V108.048C254.288 107.941 254.32 107.856 254.384 107.792C254.459 107.717 254.549 107.68 254.656 107.68H255.904V105.008C255.904 104.901 255.936 104.816 256 104.752C256.075 104.677 256.165 104.64 256.272 104.64H257.024C257.131 104.64 257.216 104.677 257.28 104.752C257.355 104.816 257.392 104.901 257.392 105.008V107.68H259.376C259.483 107.68 259.568 107.717 259.632 107.792C259.707 107.856 259.744 107.941 259.744 108.048V108.592C259.744 108.699 259.707 108.789 259.632 108.864C259.568 108.928 259.483 108.96 259.376 108.96H257.392V113.072C257.392 113.605 257.483 114.011 257.664 114.288C257.845 114.555 258.144 114.688 258.56 114.688H259.536C259.643 114.688 259.728 114.725 259.792 114.8C259.867 114.864 259.904 114.949 259.904 115.056V115.632C259.904 115.739 259.867 115.829 259.792 115.904C259.728 115.968 259.643 116 259.536 116H258.432ZM261.818 116C261.711 116 261.621 115.968 261.546 115.904C261.482 115.829 261.45 115.739 261.45 115.632V105.008C261.45 104.901 261.482 104.816 261.546 104.752C261.621 104.677 261.711 104.64 261.818 104.64H262.618C262.725 104.64 262.81 104.677 262.874 104.752C262.949 104.816 262.986 104.901 262.986 105.008V108.736C263.295 108.341 263.658 108.043 264.074 107.84C264.49 107.627 265.007 107.52 265.626 107.52C266.65 107.52 267.445 107.851 268.01 108.512C268.586 109.163 268.874 110.032 268.874 111.12V115.632C268.874 115.739 268.837 115.829 268.762 115.904C268.698 115.968 268.613 116 268.506 116H267.706C267.599 116 267.509 115.968 267.434 115.904C267.37 115.829 267.338 115.739 267.338 115.632V111.2C267.338 110.443 267.151 109.856 266.778 109.44C266.415 109.024 265.887 108.816 265.194 108.816C264.522 108.816 263.983 109.029 263.578 109.456C263.183 109.872 262.986 110.453 262.986 111.2V115.632C262.986 115.739 262.949 115.829 262.874 115.904C262.81 115.968 262.725 116 262.618 116H261.818ZM274.512 116.16C273.413 116.16 272.533 115.824 271.872 115.152C271.221 114.469 270.864 113.541 270.8 112.368L270.784 111.824L270.8 111.296C270.875 110.144 271.237 109.227 271.888 108.544C272.549 107.861 273.419 107.52 274.496 107.52C275.68 107.52 276.597 107.899 277.248 108.656C277.899 109.403 278.224 110.416 278.224 111.696V111.968C278.224 112.075 278.187 112.165 278.112 112.24C278.048 112.304 277.963 112.336 277.856 112.336H272.32V112.48C272.352 113.173 272.56 113.765 272.944 114.256C273.339 114.736 273.856 114.976 274.496 114.976C274.987 114.976 275.387 114.88 275.696 114.688C276.016 114.485 276.251 114.277 276.4 114.064C276.496 113.936 276.565 113.861 276.608 113.84C276.661 113.808 276.752 113.792 276.88 113.792H277.664C277.76 113.792 277.84 113.819 277.904 113.872C277.968 113.925 278 114 278 114.096C278 114.331 277.851 114.613 277.552 114.944C277.264 115.275 276.853 115.563 276.32 115.808C275.797 116.043 275.195 116.16 274.512 116.16ZM276.704 111.232V111.184C276.704 110.448 276.501 109.851 276.096 109.392C275.701 108.923 275.168 108.688 274.496 108.688C273.824 108.688 273.291 108.923 272.896 109.392C272.512 109.851 272.32 110.448 272.32 111.184V111.232H276.704ZM287.419 116.16C286.278 116.16 285.382 115.84 284.731 115.2C284.091 114.549 283.75 113.643 283.707 112.48L283.691 111.84L283.707 111.2C283.75 110.037 284.091 109.136 284.731 108.496C285.382 107.845 286.278 107.52 287.419 107.52C288.187 107.52 288.838 107.659 289.371 107.936C289.904 108.213 290.299 108.555 290.555 108.96C290.822 109.365 290.966 109.771 290.987 110.176C290.998 110.283 290.966 110.368 290.891 110.432C290.816 110.496 290.726 110.528 290.619 110.528H289.851C289.744 110.528 289.664 110.507 289.611 110.464C289.558 110.421 289.504 110.336 289.451 110.208C289.27 109.696 289.014 109.333 288.683 109.12C288.352 108.896 287.936 108.784 287.435 108.784C286.774 108.784 286.246 108.992 285.851 109.408C285.467 109.813 285.259 110.437 285.227 111.28L285.211 111.856L285.227 112.4C285.259 113.253 285.467 113.883 285.851 114.288C286.235 114.693 286.763 114.896 287.435 114.896C287.936 114.896 288.352 114.789 288.683 114.576C289.014 114.352 289.27 113.984 289.451 113.472C289.504 113.344 289.558 113.259 289.611 113.216C289.664 113.163 289.744 113.136 289.851 113.136H290.619C290.726 113.136 290.816 113.173 290.891 113.248C290.966 113.312 290.998 113.397 290.987 113.504C290.966 113.899 290.822 114.304 290.555 114.72C290.299 115.125 289.904 115.467 289.371 115.744C288.848 116.021 288.198 116.16 287.419 116.16ZM296.295 116.16C295.122 116.16 294.21 115.829 293.559 115.168C292.919 114.507 292.578 113.627 292.535 112.528L292.519 111.84L292.535 111.152C292.578 110.064 292.924 109.189 293.575 108.528C294.226 107.856 295.132 107.52 296.295 107.52C297.458 107.52 298.364 107.856 299.015 108.528C299.666 109.189 300.012 110.064 300.055 111.152C300.066 111.269 300.071 111.499 300.071 111.84C300.071 112.181 300.066 112.411 300.055 112.528C300.012 113.627 299.666 114.507 299.015 115.168C298.375 115.829 297.468 116.16 296.295 116.16ZM296.295 114.928C296.967 114.928 297.495 114.715 297.879 114.288C298.274 113.861 298.487 113.248 298.519 112.448C298.53 112.341 298.535 112.139 298.535 111.84C298.535 111.541 298.53 111.339 298.519 111.232C298.487 110.432 298.274 109.819 297.879 109.392C297.495 108.965 296.967 108.752 296.295 108.752C295.623 108.752 295.09 108.965 294.695 109.392C294.3 109.819 294.092 110.432 294.071 111.232L294.055 111.84L294.071 112.448C294.092 113.248 294.3 113.861 294.695 114.288C295.09 114.715 295.623 114.928 296.295 114.928ZM302.443 116C302.336 116 302.245 115.968 302.171 115.904C302.107 115.829 302.075 115.739 302.075 115.632V108.064C302.075 107.957 302.107 107.867 302.171 107.792C302.245 107.717 302.336 107.68 302.443 107.68H303.179C303.285 107.68 303.376 107.717 303.451 107.792C303.525 107.867 303.563 107.957 303.563 108.064V108.768C304 108.043 304.747 107.68 305.803 107.68H306.427C306.533 107.68 306.619 107.717 306.683 107.792C306.757 107.856 306.795 107.941 306.795 108.048V108.704C306.795 108.811 306.757 108.896 306.683 108.96C306.619 109.024 306.533 109.056 306.427 109.056H305.467C304.891 109.056 304.437 109.227 304.107 109.568C303.776 109.899 303.611 110.352 303.611 110.928V115.632C303.611 115.739 303.573 115.829 303.499 115.904C303.424 115.968 303.333 116 303.227 116H302.443ZM308.521 116C308.414 116 308.323 115.968 308.249 115.904C308.185 115.829 308.153 115.739 308.153 115.632V108.064C308.153 107.957 308.185 107.867 308.249 107.792C308.323 107.717 308.414 107.68 308.521 107.68H309.257C309.363 107.68 309.454 107.717 309.529 107.792C309.603 107.867 309.641 107.957 309.641 108.064V108.768C310.078 108.043 310.825 107.68 311.881 107.68H312.505C312.611 107.68 312.697 107.717 312.761 107.792C312.835 107.856 312.873 107.941 312.873 108.048V108.704C312.873 108.811 312.835 108.896 312.761 108.96C312.697 109.024 312.611 109.056 312.505 109.056H311.545C310.969 109.056 310.515 109.227 310.185 109.568C309.854 109.899 309.689 110.352 309.689 110.928V115.632C309.689 115.739 309.651 115.829 309.577 115.904C309.502 115.968 309.411 116 309.305 116H308.521ZM317.403 116.16C316.304 116.16 315.424 115.824 314.763 115.152C314.112 114.469 313.755 113.541 313.691 112.368L313.675 111.824L313.691 111.296C313.765 110.144 314.128 109.227 314.779 108.544C315.44 107.861 316.309 107.52 317.387 107.52C318.571 107.52 319.488 107.899 320.139 108.656C320.789 109.403 321.115 110.416 321.115 111.696V111.968C321.115 112.075 321.077 112.165 321.003 112.24C320.939 112.304 320.853 112.336 320.747 112.336H315.211V112.48C315.243 113.173 315.451 113.765 315.835 114.256C316.229 114.736 316.747 114.976 317.387 114.976C317.877 114.976 318.277 114.88 318.587 114.688C318.907 114.485 319.141 114.277 319.291 114.064C319.387 113.936 319.456 113.861 319.499 113.84C319.552 113.808 319.643 113.792 319.771 113.792H320.555C320.651 113.792 320.731 113.819 320.795 113.872C320.859 113.925 320.891 114 320.891 114.096C320.891 114.331 320.741 114.613 320.443 114.944C320.155 115.275 319.744 115.563 319.211 115.808C318.688 116.043 318.085 116.16 317.403 116.16ZM319.595 111.232V111.184C319.595 110.448 319.392 109.851 318.987 109.392C318.592 108.923 318.059 108.688 317.387 108.688C316.715 108.688 316.181 108.923 315.787 109.392C315.403 109.851 315.211 110.448 315.211 111.184V111.232H319.595ZM326.388 116.16C325.246 116.16 324.35 115.84 323.7 115.2C323.06 114.549 322.718 113.643 322.676 112.48L322.66 111.84L322.676 111.2C322.718 110.037 323.06 109.136 323.7 108.496C324.35 107.845 325.246 107.52 326.388 107.52C327.156 107.52 327.806 107.659 328.34 107.936C328.873 108.213 329.268 108.555 329.524 108.96C329.79 109.365 329.934 109.771 329.956 110.176C329.966 110.283 329.934 110.368 329.86 110.432C329.785 110.496 329.694 110.528 329.588 110.528H328.82C328.713 110.528 328.633 110.507 328.58 110.464C328.526 110.421 328.473 110.336 328.42 110.208C328.238 109.696 327.982 109.333 327.652 109.12C327.321 108.896 326.905 108.784 326.404 108.784C325.742 108.784 325.214 108.992 324.82 109.408C324.436 109.813 324.228 110.437 324.196 111.28L324.18 111.856L324.196 112.4C324.228 113.253 324.436 113.883 324.82 114.288C325.204 114.693 325.732 114.896 326.404 114.896C326.905 114.896 327.321 114.789 327.652 114.576C327.982 114.352 328.238 113.984 328.42 113.472C328.473 113.344 328.526 113.259 328.58 113.216C328.633 113.163 328.713 113.136 328.82 113.136H329.588C329.694 113.136 329.785 113.173 329.86 113.248C329.934 113.312 329.966 113.397 329.956 113.504C329.934 113.899 329.79 114.304 329.524 114.72C329.268 115.125 328.873 115.467 328.34 115.744C327.817 116.021 327.166 116.16 326.388 116.16ZM335.104 116C333.419 116 332.576 115.061 332.576 113.184V108.96H331.328C331.221 108.96 331.131 108.928 331.056 108.864C330.992 108.789 330.96 108.699 330.96 108.592V108.048C330.96 107.941 330.992 107.856 331.056 107.792C331.131 107.717 331.221 107.68 331.328 107.68H332.576V105.008C332.576 104.901 332.608 104.816 332.672 104.752C332.747 104.677 332.837 104.64 332.944 104.64H333.696C333.803 104.64 333.888 104.677 333.952 104.752C334.027 104.816 334.064 104.901 334.064 105.008V107.68H336.048C336.155 107.68 336.24 107.717 336.304 107.792C336.379 107.856 336.416 107.941 336.416 108.048V108.592C336.416 108.699 336.379 108.789 336.304 108.864C336.24 108.928 336.155 108.96 336.048 108.96H334.064V113.072C334.064 113.605 334.155 114.011 334.336 114.288C334.517 114.555 334.816 114.688 335.232 114.688H336.208C336.315 114.688 336.4 114.725 336.464 114.8C336.539 114.864 336.576 114.949 336.576 115.056V115.632C336.576 115.739 336.539 115.829 336.464 115.904C336.4 115.968 336.315 116 336.208 116H335.104ZM342.412 119.04C342.305 119.04 342.214 119.003 342.14 118.928C342.076 118.864 342.044 118.779 342.044 118.672V108.048C342.044 107.941 342.076 107.856 342.14 107.792C342.214 107.717 342.305 107.68 342.412 107.68H343.148C343.254 107.68 343.34 107.717 343.404 107.792C343.478 107.856 343.516 107.941 343.516 108.048V108.752C344.113 107.931 344.988 107.52 346.14 107.52C347.26 107.52 348.097 107.872 348.652 108.576C349.217 109.28 349.521 110.187 349.564 111.296C349.574 111.413 349.58 111.595 349.58 111.84C349.58 112.085 349.574 112.267 349.564 112.384C349.521 113.483 349.217 114.389 348.652 115.104C348.086 115.808 347.249 116.16 346.14 116.16C345.03 116.16 344.166 115.76 343.548 114.96V118.672C343.548 118.779 343.516 118.864 343.452 118.928C343.388 119.003 343.302 119.04 343.196 119.04H342.412ZM345.804 114.864C346.561 114.864 347.11 114.629 347.452 114.16C347.804 113.691 347.996 113.072 348.028 112.304C348.038 112.197 348.044 112.043 348.044 111.84C348.044 109.824 347.297 108.816 345.804 108.816C345.068 108.816 344.513 109.061 344.14 109.552C343.777 110.032 343.58 110.608 343.548 111.28L343.532 111.888L343.548 112.512C343.569 113.141 343.772 113.691 344.156 114.16C344.54 114.629 345.089 114.864 345.804 114.864ZM353.879 116.16C353.356 116.16 352.871 116.053 352.423 115.84C351.975 115.627 351.618 115.339 351.351 114.976C351.095 114.603 350.967 114.192 350.967 113.744C350.967 113.04 351.255 112.464 351.831 112.016C352.418 111.557 353.207 111.259 354.199 111.12L356.583 110.784V110.32C356.583 109.232 355.959 108.688 354.711 108.688C354.242 108.688 353.858 108.789 353.559 108.992C353.26 109.184 353.036 109.413 352.887 109.68C352.855 109.776 352.812 109.845 352.759 109.888C352.716 109.931 352.652 109.952 352.567 109.952H351.879C351.783 109.952 351.698 109.92 351.623 109.856C351.559 109.781 351.527 109.696 351.527 109.6C351.538 109.344 351.655 109.056 351.879 108.736C352.114 108.405 352.471 108.123 352.951 107.888C353.431 107.643 354.023 107.52 354.727 107.52C355.922 107.52 356.78 107.803 357.303 108.368C357.826 108.923 358.087 109.616 358.087 110.448V115.632C358.087 115.739 358.05 115.829 357.975 115.904C357.911 115.968 357.826 116 357.719 116H356.983C356.876 116 356.786 115.968 356.711 115.904C356.647 115.829 356.615 115.739 356.615 115.632V114.944C356.38 115.285 356.039 115.573 355.591 115.808C355.143 116.043 354.572 116.16 353.879 116.16ZM354.215 114.96C354.908 114.96 355.474 114.736 355.911 114.288C356.359 113.829 356.583 113.173 356.583 112.32V111.872L354.727 112.144C353.97 112.251 353.399 112.432 353.015 112.688C352.631 112.933 352.439 113.248 352.439 113.632C352.439 114.059 352.615 114.389 352.967 114.624C353.319 114.848 353.735 114.96 354.215 114.96ZM363.267 116.16C362.52 116.16 361.891 116.043 361.379 115.808C360.878 115.563 360.499 115.285 360.243 114.976C359.998 114.667 359.875 114.411 359.875 114.208C359.875 114.101 359.912 114.021 359.987 113.968C360.072 113.904 360.158 113.872 360.243 113.872H360.963C361.07 113.872 361.166 113.925 361.251 114.032C361.507 114.331 361.784 114.565 362.083 114.736C362.382 114.907 362.782 114.992 363.283 114.992C363.838 114.992 364.286 114.885 364.627 114.672C364.979 114.448 365.155 114.144 365.155 113.76C365.155 113.504 365.08 113.296 364.931 113.136C364.792 112.965 364.547 112.821 364.195 112.704C363.854 112.576 363.342 112.437 362.659 112.288C361.731 112.085 361.07 111.792 360.675 111.408C360.291 111.024 360.099 110.528 360.099 109.92C360.099 109.515 360.216 109.131 360.451 108.768C360.696 108.395 361.048 108.096 361.507 107.872C361.976 107.637 362.536 107.52 363.187 107.52C363.87 107.52 364.451 107.632 364.931 107.856C365.411 108.08 365.768 108.347 366.003 108.656C366.248 108.955 366.371 109.205 366.371 109.408C366.371 109.504 366.334 109.584 366.259 109.648C366.195 109.712 366.115 109.744 366.019 109.744H365.347C365.219 109.744 365.112 109.691 365.027 109.584C364.856 109.381 364.707 109.227 364.579 109.12C364.462 109.003 364.286 108.901 364.051 108.816C363.827 108.731 363.539 108.688 363.187 108.688C362.675 108.688 362.28 108.8 362.003 109.024C361.726 109.237 361.587 109.52 361.587 109.872C361.587 110.096 361.646 110.288 361.763 110.448C361.88 110.597 362.104 110.736 362.435 110.864C362.776 110.992 363.267 111.125 363.907 111.264C364.92 111.477 365.635 111.787 366.051 112.192C366.478 112.587 366.691 113.093 366.691 113.712C366.691 114.171 366.558 114.587 366.291 114.96C366.024 115.333 365.63 115.627 365.107 115.84C364.595 116.053 363.982 116.16 363.267 116.16ZM371.423 116.16C370.677 116.16 370.047 116.043 369.535 115.808C369.034 115.563 368.655 115.285 368.399 114.976C368.154 114.667 368.031 114.411 368.031 114.208C368.031 114.101 368.069 114.021 368.143 113.968C368.229 113.904 368.314 113.872 368.399 113.872H369.119C369.226 113.872 369.322 113.925 369.407 114.032C369.663 114.331 369.941 114.565 370.239 114.736C370.538 114.907 370.938 114.992 371.439 114.992C371.994 114.992 372.442 114.885 372.783 114.672C373.135 114.448 373.311 114.144 373.311 113.76C373.311 113.504 373.237 113.296 373.087 113.136C372.949 112.965 372.703 112.821 372.351 112.704C372.01 112.576 371.498 112.437 370.815 112.288C369.887 112.085 369.226 111.792 368.831 111.408C368.447 111.024 368.255 110.528 368.255 109.92C368.255 109.515 368.373 109.131 368.607 108.768C368.853 108.395 369.205 108.096 369.663 107.872C370.133 107.637 370.693 107.52 371.343 107.52C372.026 107.52 372.607 107.632 373.087 107.856C373.567 108.08 373.925 108.347 374.159 108.656C374.405 108.955 374.527 109.205 374.527 109.408C374.527 109.504 374.49 109.584 374.415 109.648C374.351 109.712 374.271 109.744 374.175 109.744H373.503C373.375 109.744 373.269 109.691 373.183 109.584C373.013 109.381 372.863 109.227 372.735 109.12C372.618 109.003 372.442 108.901 372.207 108.816C371.983 108.731 371.695 108.688 371.343 108.688C370.831 108.688 370.437 108.8 370.159 109.024C369.882 109.237 369.743 109.52 369.743 109.872C369.743 110.096 369.802 110.288 369.919 110.448C370.037 110.597 370.261 110.736 370.591 110.864C370.933 110.992 371.423 111.125 372.063 111.264C373.077 111.477 373.791 111.787 374.207 112.192C374.634 112.587 374.847 113.093 374.847 113.712C374.847 114.171 374.714 114.587 374.447 114.96C374.181 115.333 373.786 115.627 373.263 115.84C372.751 116.053 372.138 116.16 371.423 116.16ZM378.689 116C378.55 116 378.444 115.968 378.369 115.904C378.294 115.84 378.23 115.739 378.177 115.6L375.905 108.176L375.873 108.016C375.873 107.92 375.905 107.84 375.969 107.776C376.044 107.712 376.124 107.68 376.209 107.68H376.913C377.02 107.68 377.105 107.712 377.169 107.776C377.244 107.829 377.292 107.888 377.313 107.952L379.089 113.984L380.993 108.016C381.014 107.931 381.062 107.856 381.137 107.792C381.212 107.717 381.313 107.68 381.441 107.68H381.985C382.113 107.68 382.214 107.717 382.289 107.792C382.364 107.856 382.412 107.931 382.433 108.016L384.337 113.984L386.113 107.952C386.124 107.899 386.161 107.84 386.225 107.776C386.3 107.712 386.39 107.68 386.497 107.68H387.217C387.302 107.68 387.377 107.712 387.441 107.776C387.505 107.84 387.537 107.92 387.537 108.016L387.505 108.176L385.249 115.6C385.196 115.739 385.132 115.84 385.057 115.904C384.982 115.968 384.87 116 384.721 116H384.097C383.809 116 383.633 115.867 383.569 115.6L381.713 109.872L379.857 115.6C379.772 115.867 379.59 116 379.313 116H378.689ZM392.498 116.16C391.325 116.16 390.413 115.829 389.762 115.168C389.122 114.507 388.781 113.627 388.738 112.528L388.722 111.84L388.738 111.152C388.781 110.064 389.128 109.189 389.778 108.528C390.429 107.856 391.336 107.52 392.498 107.52C393.661 107.52 394.568 107.856 395.218 108.528C395.869 109.189 396.216 110.064 396.258 111.152C396.269 111.269 396.274 111.499 396.274 111.84C396.274 112.181 396.269 112.411 396.258 112.528C396.216 113.627 395.869 114.507 395.218 115.168C394.578 115.829 393.672 116.16 392.498 116.16ZM392.498 114.928C393.17 114.928 393.698 114.715 394.082 114.288C394.477 113.861 394.69 113.248 394.722 112.448C394.733 112.341 394.738 112.139 394.738 111.84C394.738 111.541 394.733 111.339 394.722 111.232C394.69 110.432 394.477 109.819 394.082 109.392C393.698 108.965 393.17 108.752 392.498 108.752C391.826 108.752 391.293 108.965 390.898 109.392C390.504 109.819 390.296 110.432 390.274 111.232L390.258 111.84L390.274 112.448C390.296 113.248 390.504 113.861 390.898 114.288C391.293 114.715 391.826 114.928 392.498 114.928ZM398.646 116C398.539 116 398.448 115.968 398.374 115.904C398.31 115.829 398.278 115.739 398.278 115.632V108.064C398.278 107.957 398.31 107.867 398.374 107.792C398.448 107.717 398.539 107.68 398.646 107.68H399.382C399.488 107.68 399.579 107.717 399.654 107.792C399.728 107.867 399.766 107.957 399.766 108.064V108.768C400.203 108.043 400.95 107.68 402.006 107.68H402.63C402.736 107.68 402.822 107.717 402.886 107.792C402.96 107.856 402.998 107.941 402.998 108.048V108.704C402.998 108.811 402.96 108.896 402.886 108.96C402.822 109.024 402.736 109.056 402.63 109.056H401.67C401.094 109.056 400.64 109.227 400.31 109.568C399.979 109.899 399.814 110.352 399.814 110.928V115.632C399.814 115.739 399.776 115.829 399.702 115.904C399.627 115.968 399.536 116 399.43 116H398.646ZM407.224 116.16C406.115 116.16 405.277 115.797 404.712 115.072C404.147 114.347 403.848 113.429 403.816 112.32L403.8 111.84L403.816 111.36C403.848 110.261 404.147 109.349 404.712 108.624C405.277 107.888 406.115 107.52 407.224 107.52C408.323 107.52 409.187 107.909 409.816 108.688V105.008C409.816 104.901 409.848 104.816 409.912 104.752C409.987 104.677 410.077 104.64 410.184 104.64H410.952C411.059 104.64 411.144 104.677 411.208 104.752C411.283 104.816 411.32 104.901 411.32 105.008V115.632C411.32 115.739 411.283 115.829 411.208 115.904C411.144 115.968 411.059 116 410.952 116H410.232C410.125 116 410.035 115.968 409.96 115.904C409.896 115.829 409.864 115.739 409.864 115.632V114.96C409.245 115.76 408.365 116.16 407.224 116.16ZM407.56 114.864C408.296 114.864 408.845 114.624 409.208 114.144C409.581 113.653 409.784 113.072 409.816 112.4C409.827 112.283 409.832 112.08 409.832 111.792C409.832 111.493 409.827 111.285 409.816 111.168C409.795 110.539 409.592 109.989 409.208 109.52C408.824 109.051 408.275 108.816 407.56 108.816C406.803 108.816 406.248 109.051 405.896 109.52C405.555 109.989 405.368 110.608 405.336 111.376L405.32 111.84C405.32 113.856 406.067 114.864 407.56 114.864Z" fill="#004A7C"/>
<path d="M162.752 255C162.645 255 162.555 254.968 162.48 254.904C162.416 254.829 162.384 254.739 162.384 254.632V250.856L158.528 244.328C158.528 244.307 158.523 244.275 158.512 244.232C158.491 244.189 158.48 244.152 158.48 244.12C158.48 244.035 158.512 243.96 158.576 243.896C158.64 243.832 158.715 243.8 158.8 243.8H159.632C159.813 243.8 159.952 243.891 160.048 244.072L163.168 249.256L166.288 244.072C166.405 243.891 166.549 243.8 166.72 243.8H167.536C167.632 243.8 167.712 243.832 167.776 243.896C167.84 243.96 167.872 244.035 167.872 244.12C167.872 244.173 167.851 244.243 167.808 244.328L163.968 250.856V254.632C163.968 254.739 163.931 254.829 163.856 254.904C163.781 254.968 163.691 255 163.584 255H162.752ZM171.608 255.16C170.434 255.16 169.522 254.829 168.872 254.168C168.232 253.507 167.89 252.627 167.848 251.528L167.832 250.84L167.848 250.152C167.89 249.064 168.237 248.189 168.888 247.528C169.538 246.856 170.445 246.52 171.608 246.52C172.77 246.52 173.677 246.856 174.328 247.528C174.978 248.189 175.325 249.064 175.368 250.152C175.378 250.269 175.384 250.499 175.384 250.84C175.384 251.181 175.378 251.411 175.368 251.528C175.325 252.627 174.978 253.507 174.328 254.168C173.688 254.829 172.781 255.16 171.608 255.16ZM171.608 253.928C172.28 253.928 172.808 253.715 173.192 253.288C173.586 252.861 173.8 252.248 173.832 251.448C173.842 251.341 173.848 251.139 173.848 250.84C173.848 250.541 173.842 250.339 173.832 250.232C173.8 249.432 173.586 248.819 173.192 248.392C172.808 247.965 172.28 247.752 171.608 247.752C170.936 247.752 170.402 247.965 170.008 248.392C169.613 248.819 169.405 249.432 169.384 250.232L169.368 250.84L169.384 251.448C169.405 252.248 169.613 252.861 170.008 253.288C170.402 253.715 170.936 253.928 171.608 253.928ZM180.491 255.16C179.478 255.16 178.694 254.835 178.139 254.184C177.584 253.523 177.307 252.648 177.307 251.56V247.048C177.307 246.941 177.339 246.856 177.403 246.792C177.478 246.717 177.568 246.68 177.675 246.68H178.475C178.582 246.68 178.667 246.717 178.731 246.792C178.806 246.856 178.843 246.941 178.843 247.048V251.48C178.843 253.069 179.536 253.864 180.923 253.864C181.595 253.864 182.128 253.656 182.523 253.24C182.918 252.813 183.115 252.227 183.115 251.48V247.048C183.115 246.941 183.147 246.856 183.211 246.792C183.286 246.717 183.376 246.68 183.483 246.68H184.283C184.39 246.68 184.475 246.717 184.539 246.792C184.603 246.856 184.635 246.941 184.635 247.048V254.632C184.635 254.739 184.603 254.829 184.539 254.904C184.475 254.968 184.39 255 184.283 255H183.531C183.424 255 183.334 254.968 183.259 254.904C183.195 254.829 183.163 254.739 183.163 254.632V253.928C182.864 254.333 182.502 254.643 182.075 254.856C181.648 255.059 181.12 255.16 180.491 255.16ZM194.262 255.16C193.163 255.16 192.283 254.824 191.622 254.152C190.971 253.469 190.614 252.541 190.55 251.368L190.534 250.824L190.55 250.296C190.625 249.144 190.987 248.227 191.638 247.544C192.299 246.861 193.169 246.52 194.246 246.52C195.43 246.52 196.347 246.899 196.998 247.656C197.649 248.403 197.974 249.416 197.974 250.696V250.968C197.974 251.075 197.937 251.165 197.862 251.24C197.798 251.304 197.713 251.336 197.606 251.336H192.07V251.48C192.102 252.173 192.31 252.765 192.694 253.256C193.089 253.736 193.606 253.976 194.246 253.976C194.737 253.976 195.137 253.88 195.446 253.688C195.766 253.485 196.001 253.277 196.15 253.064C196.246 252.936 196.315 252.861 196.358 252.84C196.411 252.808 196.502 252.792 196.63 252.792H197.414C197.51 252.792 197.59 252.819 197.654 252.872C197.718 252.925 197.75 253 197.75 253.096C197.75 253.331 197.601 253.613 197.302 253.944C197.014 254.275 196.603 254.563 196.07 254.808C195.547 255.043 194.945 255.16 194.262 255.16ZM196.454 250.232V250.184C196.454 249.448 196.251 248.851 195.846 248.392C195.451 247.923 194.918 247.688 194.246 247.688C193.574 247.688 193.041 247.923 192.646 248.392C192.262 248.851 192.07 249.448 192.07 250.184V250.232H196.454ZM200.255 255C200.148 255 200.058 254.968 199.983 254.904C199.919 254.829 199.887 254.739 199.887 254.632V247.048C199.887 246.941 199.919 246.856 199.983 246.792C200.058 246.717 200.148 246.68 200.255 246.68H201.007C201.114 246.68 201.199 246.717 201.263 246.792C201.338 246.856 201.375 246.941 201.375 247.048V247.752C201.684 247.357 202.047 247.053 202.463 246.84C202.89 246.627 203.418 246.52 204.047 246.52C205.071 246.52 205.866 246.851 206.431 247.512C207.007 248.163 207.295 249.032 207.295 250.12V254.632C207.295 254.739 207.258 254.829 207.183 254.904C207.119 254.968 207.034 255 206.927 255H206.127C206.02 255 205.93 254.968 205.855 254.904C205.791 254.829 205.759 254.739 205.759 254.632V250.2C205.759 249.443 205.572 248.856 205.199 248.44C204.836 248.024 204.308 247.816 203.615 247.816C202.943 247.816 202.41 248.029 202.015 248.456C201.62 248.872 201.423 249.453 201.423 250.2V254.632C201.423 254.739 201.386 254.829 201.311 254.904C201.247 254.968 201.162 255 201.055 255H200.255ZM212.729 255C211.044 255 210.201 254.061 210.201 252.184V247.96H208.953C208.846 247.96 208.756 247.928 208.681 247.864C208.617 247.789 208.585 247.699 208.585 247.592V247.048C208.585 246.941 208.617 246.856 208.681 246.792C208.756 246.717 208.846 246.68 208.953 246.68H210.201V244.008C210.201 243.901 210.233 243.816 210.297 243.752C210.372 243.677 210.462 243.64 210.569 243.64H211.321C211.428 243.64 211.513 243.677 211.577 243.752C211.652 243.816 211.689 243.901 211.689 244.008V246.68H213.673C213.78 246.68 213.865 246.717 213.929 246.792C214.004 246.856 214.041 246.941 214.041 247.048V247.592C214.041 247.699 214.004 247.789 213.929 247.864C213.865 247.928 213.78 247.96 213.673 247.96H211.689V252.072C211.689 252.605 211.78 253.011 211.961 253.288C212.142 253.555 212.441 253.688 212.857 253.688H213.833C213.94 253.688 214.025 253.725 214.089 253.8C214.164 253.864 214.201 253.949 214.201 254.056V254.632C214.201 254.739 214.164 254.829 214.089 254.904C214.025 254.968 213.94 255 213.833 255H212.729ZM219.059 255.16C217.96 255.16 217.08 254.824 216.419 254.152C215.768 253.469 215.411 252.541 215.347 251.368L215.331 250.824L215.347 250.296C215.422 249.144 215.784 248.227 216.435 247.544C217.096 246.861 217.966 246.52 219.043 246.52C220.227 246.52 221.144 246.899 221.795 247.656C222.446 248.403 222.771 249.416 222.771 250.696V250.968C222.771 251.075 222.734 251.165 222.659 251.24C222.595 251.304 222.51 251.336 222.403 251.336H216.867V251.48C216.899 252.173 217.107 252.765 217.491 253.256C217.886 253.736 218.403 253.976 219.043 253.976C219.534 253.976 219.934 253.88 220.243 253.688C220.563 253.485 220.798 253.277 220.947 253.064C221.043 252.936 221.112 252.861 221.155 252.84C221.208 252.808 221.299 252.792 221.427 252.792H222.211C222.307 252.792 222.387 252.819 222.451 252.872C222.515 252.925 222.547 253 222.547 253.096C222.547 253.331 222.398 253.613 222.099 253.944C221.811 254.275 221.4 254.563 220.867 254.808C220.344 255.043 219.742 255.16 219.059 255.16ZM221.251 250.232V250.184C221.251 249.448 221.048 248.851 220.643 248.392C220.248 247.923 219.715 247.688 219.043 247.688C218.371 247.688 217.838 247.923 217.443 248.392C217.059 248.851 216.867 249.448 216.867 250.184V250.232H221.251ZM225.052 255C224.945 255 224.855 254.968 224.78 254.904C224.716 254.829 224.684 254.739 224.684 254.632V247.064C224.684 246.957 224.716 246.867 224.78 246.792C224.855 246.717 224.945 246.68 225.052 246.68H225.788C225.895 246.68 225.985 246.717 226.06 246.792C226.135 246.867 226.172 246.957 226.172 247.064V247.768C226.609 247.043 227.356 246.68 228.412 246.68H229.036C229.143 246.68 229.228 246.717 229.292 246.792C229.367 246.856 229.404 246.941 229.404 247.048V247.704C229.404 247.811 229.367 247.896 229.292 247.96C229.228 248.024 229.143 248.056 229.036 248.056H228.076C227.5 248.056 227.047 248.227 226.716 248.568C226.385 248.899 226.22 249.352 226.22 249.928V254.632C226.22 254.739 226.183 254.829 226.108 254.904C226.033 254.968 225.943 255 225.836 255H225.052ZM233.934 255.16C232.835 255.16 231.955 254.824 231.294 254.152C230.643 253.469 230.286 252.541 230.222 251.368L230.206 250.824L230.222 250.296C230.297 249.144 230.659 248.227 231.31 247.544C231.971 246.861 232.841 246.52 233.918 246.52C235.102 246.52 236.019 246.899 236.67 247.656C237.321 248.403 237.646 249.416 237.646 250.696V250.968C237.646 251.075 237.609 251.165 237.534 251.24C237.47 251.304 237.385 251.336 237.278 251.336H231.742V251.48C231.774 252.173 231.982 252.765 232.366 253.256C232.761 253.736 233.278 253.976 233.918 253.976C234.409 253.976 234.809 253.88 235.118 253.688C235.438 253.485 235.673 253.277 235.822 253.064C235.918 252.936 235.987 252.861 236.03 252.84C236.083 252.808 236.174 252.792 236.302 252.792H237.086C237.182 252.792 237.262 252.819 237.326 252.872C237.39 252.925 237.422 253 237.422 253.096C237.422 253.331 237.273 253.613 236.974 253.944C236.686 254.275 236.275 254.563 235.742 254.808C235.219 255.043 234.617 255.16 233.934 255.16ZM236.126 250.232V250.184C236.126 249.448 235.923 248.851 235.518 248.392C235.123 247.923 234.59 247.688 233.918 247.688C233.246 247.688 232.713 247.923 232.318 248.392C231.934 248.851 231.742 249.448 231.742 250.184V250.232H236.126ZM242.599 255.16C241.49 255.16 240.652 254.797 240.087 254.072C239.522 253.347 239.223 252.429 239.191 251.32L239.175 250.84L239.191 250.36C239.223 249.261 239.522 248.349 240.087 247.624C240.652 246.888 241.49 246.52 242.599 246.52C243.698 246.52 244.562 246.909 245.191 247.688V244.008C245.191 243.901 245.223 243.816 245.287 243.752C245.362 243.677 245.452 243.64 245.559 243.64H246.327C246.434 243.64 246.519 243.677 246.583 243.752C246.658 243.816 246.695 243.901 246.695 244.008V254.632C246.695 254.739 246.658 254.829 246.583 254.904C246.519 254.968 246.434 255 246.327 255H245.607C245.5 255 245.41 254.968 245.335 254.904C245.271 254.829 245.239 254.739 245.239 254.632V253.96C244.62 254.76 243.74 255.16 242.599 255.16ZM242.935 253.864C243.671 253.864 244.22 253.624 244.583 253.144C244.956 252.653 245.159 252.072 245.191 251.4C245.202 251.283 245.207 251.08 245.207 250.792C245.207 250.493 245.202 250.285 245.191 250.168C245.17 249.539 244.967 248.989 244.583 248.52C244.199 248.051 243.65 247.816 242.935 247.816C242.178 247.816 241.623 248.051 241.271 248.52C240.93 248.989 240.743 249.608 240.711 250.376L240.695 250.84C240.695 252.856 241.442 253.864 242.935 253.864ZM255.317 255.16C254.794 255.16 254.309 255.053 253.861 254.84C253.413 254.627 253.055 254.339 252.789 253.976C252.533 253.603 252.405 253.192 252.405 252.744C252.405 252.04 252.693 251.464 253.269 251.016C253.855 250.557 254.645 250.259 255.637 250.12L258.021 249.784V249.32C258.021 248.232 257.397 247.688 256.149 247.688C255.679 247.688 255.295 247.789 254.997 247.992C254.698 248.184 254.474 248.413 254.325 248.68C254.293 248.776 254.25 248.845 254.197 248.888C254.154 248.931 254.09 248.952 254.005 248.952H253.317C253.221 248.952 253.135 248.92 253.061 248.856C252.997 248.781 252.965 248.696 252.965 248.6C252.975 248.344 253.093 248.056 253.317 247.736C253.551 247.405 253.909 247.123 254.389 246.888C254.869 246.643 255.461 246.52 256.165 246.52C257.359 246.52 258.218 246.803 258.741 247.368C259.263 247.923 259.525 248.616 259.525 249.448V254.632C259.525 254.739 259.487 254.829 259.413 254.904C259.349 254.968 259.263 255 259.157 255H258.421C258.314 255 258.223 254.968 258.149 254.904C258.085 254.829 258.053 254.739 258.053 254.632V253.944C257.818 254.285 257.477 254.573 257.029 254.808C256.581 255.043 256.01 255.16 255.317 255.16ZM255.653 253.96C256.346 253.96 256.911 253.736 257.349 253.288C257.797 252.829 258.021 252.173 258.021 251.32V250.872L256.165 251.144C255.407 251.251 254.837 251.432 254.453 251.688C254.069 251.933 253.877 252.248 253.877 252.632C253.877 253.059 254.053 253.389 254.405 253.624C254.757 253.848 255.173 253.96 255.653 253.96ZM267.58 255C267.441 255 267.334 254.968 267.26 254.904C267.185 254.84 267.121 254.739 267.068 254.6L264.796 247.176L264.764 247.016C264.764 246.92 264.796 246.84 264.86 246.776C264.934 246.712 265.014 246.68 265.1 246.68H265.804C265.91 246.68 265.996 246.712 266.06 246.776C266.134 246.829 266.182 246.888 266.204 246.952L267.98 252.984L269.884 247.016C269.905 246.931 269.953 246.856 270.028 246.792C270.102 246.717 270.204 246.68 270.332 246.68H270.876C271.004 246.68 271.105 246.717 271.18 246.792C271.254 246.856 271.302 246.931 271.324 247.016L273.227 252.984L275.004 246.952C275.014 246.899 275.052 246.84 275.116 246.776C275.19 246.712 275.281 246.68 275.388 246.68H276.108C276.193 246.68 276.268 246.712 276.332 246.776C276.396 246.84 276.428 246.92 276.428 247.016L276.396 247.176L274.14 254.6C274.086 254.739 274.022 254.84 273.948 254.904C273.873 254.968 273.761 255 273.612 255H272.988C272.7 255 272.524 254.867 272.46 254.6L270.604 248.872L268.748 254.6C268.662 254.867 268.481 255 268.204 255H267.58ZM278.568 255C278.461 255 278.37 254.968 278.296 254.904C278.232 254.829 278.2 254.739 278.2 254.632V247.064C278.2 246.957 278.232 246.867 278.296 246.792C278.37 246.717 278.461 246.68 278.568 246.68H279.304C279.41 246.68 279.501 246.717 279.576 246.792C279.65 246.867 279.688 246.957 279.688 247.064V247.768C280.125 247.043 280.872 246.68 281.928 246.68H282.552C282.658 246.68 282.744 246.717 282.808 246.792C282.882 246.856 282.92 246.941 282.92 247.048V247.704C282.92 247.811 282.882 247.896 282.808 247.96C282.744 248.024 282.658 248.056 282.552 248.056H281.592C281.016 248.056 280.562 248.227 280.232 248.568C279.901 248.899 279.736 249.352 279.736 249.928V254.632C279.736 254.739 279.698 254.829 279.624 254.904C279.549 254.968 279.458 255 279.352 255H278.568ZM287.53 255.16C286.356 255.16 285.444 254.829 284.794 254.168C284.154 253.507 283.812 252.627 283.77 251.528L283.754 250.84L283.77 250.152C283.812 249.064 284.159 248.189 284.81 247.528C285.46 246.856 286.367 246.52 287.53 246.52C288.692 246.52 289.599 246.856 290.25 247.528C290.9 248.189 291.247 249.064 291.29 250.152C291.3 250.269 291.306 250.499 291.306 250.84C291.306 251.181 291.3 251.411 291.29 251.528C291.247 252.627 290.9 253.507 290.25 254.168C289.61 254.829 288.703 255.16 287.53 255.16ZM287.53 253.928C288.202 253.928 288.73 253.715 289.114 253.288C289.508 252.861 289.722 252.248 289.754 251.448C289.764 251.341 289.77 251.139 289.77 250.84C289.77 250.541 289.764 250.339 289.754 250.232C289.722 249.432 289.508 248.819 289.114 248.392C288.73 247.965 288.202 247.752 287.53 247.752C286.858 247.752 286.324 247.965 285.93 248.392C285.535 248.819 285.327 249.432 285.306 250.232L285.289 250.84L285.306 251.448C285.327 252.248 285.535 252.861 285.93 253.288C286.324 253.715 286.858 253.928 287.53 253.928ZM293.677 255C293.57 255 293.48 254.968 293.405 254.904C293.341 254.829 293.309 254.739 293.309 254.632V247.048C293.309 246.941 293.341 246.856 293.405 246.792C293.48 246.717 293.57 246.68 293.677 246.68H294.429C294.536 246.68 294.621 246.717 294.685 246.792C294.76 246.856 294.797 246.941 294.797 247.048V247.752C295.106 247.357 295.469 247.053 295.885 246.84C296.312 246.627 296.84 246.52 297.469 246.52C298.493 246.52 299.288 246.851 299.853 247.512C300.429 248.163 300.717 249.032 300.717 250.12V254.632C300.717 254.739 300.68 254.829 300.605 254.904C300.541 254.968 300.456 255 300.349 255H299.549C299.442 255 299.352 254.968 299.277 254.904C299.213 254.829 299.181 254.739 299.181 254.632V250.2C299.181 249.443 298.994 248.856 298.621 248.44C298.258 248.024 297.73 247.816 297.037 247.816C296.365 247.816 295.832 248.029 295.437 248.456C295.042 248.872 294.845 249.453 294.845 250.2V254.632C294.845 254.739 294.808 254.829 294.733 254.904C294.669 254.968 294.584 255 294.477 255H293.677ZM306.42 258.52C305.545 258.52 304.841 258.371 304.308 258.072C303.775 257.784 303.396 257.453 303.172 257.08C302.948 256.707 302.825 256.371 302.804 256.072C302.793 255.965 302.825 255.875 302.9 255.8C302.985 255.725 303.076 255.688 303.172 255.688H303.94C304.036 255.688 304.116 255.709 304.18 255.752C304.244 255.805 304.297 255.896 304.34 256.024C304.468 256.365 304.676 256.659 304.964 256.904C305.263 257.16 305.721 257.288 306.34 257.288C307.129 257.288 307.711 257.117 308.084 256.776C308.457 256.445 308.644 255.853 308.644 255V253.912C308.367 254.264 308.015 254.547 307.588 254.76C307.161 254.963 306.655 255.064 306.068 255.064C304.937 255.064 304.089 254.707 303.524 253.992C302.969 253.267 302.676 252.349 302.644 251.24L302.628 250.792L302.644 250.36C302.676 249.261 302.975 248.349 303.54 247.624C304.105 246.888 304.948 246.52 306.068 246.52C307.188 246.52 308.063 246.931 308.692 247.752V247.064C308.692 246.957 308.724 246.867 308.788 246.792C308.863 246.717 308.953 246.68 309.06 246.68H309.796C309.903 246.68 309.993 246.717 310.068 246.792C310.143 246.867 310.18 246.957 310.18 247.064V254.824C310.18 257.288 308.927 258.52 306.42 258.52ZM306.388 253.784C307.113 253.784 307.663 253.544 308.036 253.064C308.409 252.584 308.612 252.013 308.644 251.352C308.655 251.256 308.66 251.069 308.66 250.792C308.66 250.525 308.655 250.344 308.644 250.248C308.612 249.587 308.409 249.016 308.036 248.536C307.673 248.056 307.124 247.816 306.388 247.816C305.631 247.816 305.081 248.051 304.74 248.52C304.399 248.989 304.212 249.608 304.18 250.376L304.164 250.792L304.18 251.224C304.212 251.981 304.399 252.6 304.74 253.08C305.081 253.549 305.631 253.784 306.388 253.784ZM316.865 258.04C316.758 258.04 316.668 258.003 316.593 257.928C316.529 257.864 316.497 257.779 316.497 257.672V247.048C316.497 246.941 316.529 246.856 316.593 246.792C316.668 246.717 316.758 246.68 316.865 246.68H317.601C317.708 246.68 317.793 246.717 317.857 246.792C317.932 246.856 317.969 246.941 317.969 247.048V247.752C318.566 246.931 319.441 246.52 320.593 246.52C321.713 246.52 322.55 246.872 323.105 247.576C323.67 248.28 323.974 249.187 324.017 250.296C324.028 250.413 324.033 250.595 324.033 250.84C324.033 251.085 324.028 251.267 324.017 251.384C323.974 252.483 323.67 253.389 323.105 254.104C322.54 254.808 321.702 255.16 320.593 255.16C319.484 255.16 318.62 254.76 318.001 253.96V257.672C318.001 257.779 317.969 257.864 317.905 257.928C317.841 258.003 317.756 258.04 317.649 258.04H316.865ZM320.257 253.864C321.014 253.864 321.564 253.629 321.905 253.16C322.257 252.691 322.449 252.072 322.481 251.304C322.492 251.197 322.497 251.043 322.497 250.84C322.497 248.824 321.75 247.816 320.257 247.816C319.521 247.816 318.966 248.061 318.593 248.552C318.23 249.032 318.033 249.608 318.001 250.28L317.985 250.888L318.001 251.512C318.022 252.141 318.225 252.691 318.609 253.16C318.993 253.629 319.542 253.864 320.257 253.864ZM328.332 255.16C327.809 255.16 327.324 255.053 326.876 254.84C326.428 254.627 326.071 254.339 325.804 253.976C325.548 253.603 325.42 253.192 325.42 252.744C325.42 252.04 325.708 251.464 326.284 251.016C326.871 250.557 327.66 250.259 328.652 250.12L331.036 249.784V249.32C331.036 248.232 330.412 247.688 329.164 247.688C328.695 247.688 328.311 247.789 328.012 247.992C327.713 248.184 327.489 248.413 327.34 248.68C327.308 248.776 327.265 248.845 327.212 248.888C327.169 248.931 327.105 248.952 327.02 248.952H326.332C326.236 248.952 326.151 248.92 326.076 248.856C326.012 248.781 325.98 248.696 325.98 248.6C325.991 248.344 326.108 248.056 326.332 247.736C326.567 247.405 326.924 247.123 327.404 246.888C327.884 246.643 328.476 246.52 329.18 246.52C330.375 246.52 331.233 246.803 331.756 247.368C332.279 247.923 332.54 248.616 332.54 249.448V254.632C332.54 254.739 332.503 254.829 332.428 254.904C332.364 254.968 332.279 255 332.172 255H331.436C331.329 255 331.239 254.968 331.164 254.904C331.1 254.829 331.068 254.739 331.068 254.632V253.944C330.833 254.285 330.492 254.573 330.044 254.808C329.596 255.043 329.025 255.16 328.332 255.16ZM328.668 253.96C329.361 253.96 329.927 253.736 330.364 253.288C330.812 252.829 331.036 252.173 331.036 251.32V250.872L329.18 251.144C328.423 251.251 327.852 251.432 327.468 251.688C327.084 251.933 326.892 252.248 326.892 252.632C326.892 253.059 327.068 253.389 327.42 253.624C327.772 253.848 328.188 253.96 328.668 253.96ZM337.72 255.16C336.974 255.16 336.344 255.043 335.832 254.808C335.331 254.563 334.952 254.285 334.696 253.976C334.451 253.667 334.328 253.411 334.328 253.208C334.328 253.101 334.366 253.021 334.44 252.968C334.526 252.904 334.611 252.872 334.696 252.872H335.416C335.523 252.872 335.619 252.925 335.704 253.032C335.96 253.331 336.238 253.565 336.536 253.736C336.835 253.907 337.235 253.992 337.736 253.992C338.291 253.992 338.739 253.885 339.08 253.672C339.432 253.448 339.608 253.144 339.608 252.76C339.608 252.504 339.534 252.296 339.384 252.136C339.246 251.965 339 251.821 338.648 251.704C338.307 251.576 337.795 251.437 337.112 251.288C336.184 251.085 335.523 250.792 335.128 250.408C334.744 250.024 334.552 249.528 334.552 248.92C334.552 248.515 334.67 248.131 334.904 247.768C335.15 247.395 335.502 247.096 335.96 246.872C336.43 246.637 336.99 246.52 337.64 246.52C338.323 246.52 338.904 246.632 339.384 246.856C339.864 247.08 340.222 247.347 340.456 247.656C340.702 247.955 340.824 248.205 340.824 248.408C340.824 248.504 340.787 248.584 340.712 248.648C340.648 248.712 340.568 248.744 340.472 248.744H339.8C339.672 248.744 339.566 248.691 339.48 248.584C339.31 248.381 339.16 248.227 339.032 248.12C338.915 248.003 338.739 247.901 338.504 247.816C338.28 247.731 337.992 247.688 337.64 247.688C337.128 247.688 336.734 247.8 336.456 248.024C336.179 248.237 336.04 248.52 336.04 248.872C336.04 249.096 336.099 249.288 336.216 249.448C336.334 249.597 336.558 249.736 336.888 249.864C337.23 249.992 337.72 250.125 338.36 250.264C339.374 250.477 340.088 250.787 340.504 251.192C340.931 251.587 341.144 252.093 341.144 252.712C341.144 253.171 341.011 253.587 340.744 253.96C340.478 254.333 340.083 254.627 339.56 254.84C339.048 255.053 338.435 255.16 337.72 255.16ZM345.877 255.16C345.13 255.16 344.501 255.043 343.989 254.808C343.487 254.563 343.109 254.285 342.853 253.976C342.607 253.667 342.485 253.411 342.485 253.208C342.485 253.101 342.522 253.021 342.597 252.968C342.682 252.904 342.767 252.872 342.853 252.872H343.573C343.679 252.872 343.775 252.925 343.861 253.032C344.117 253.331 344.394 253.565 344.693 253.736C344.991 253.907 345.391 253.992 345.893 253.992C346.447 253.992 346.895 253.885 347.237 253.672C347.589 253.448 347.765 253.144 347.765 252.76C347.765 252.504 347.69 252.296 347.541 252.136C347.402 251.965 347.157 251.821 346.805 251.704C346.463 251.576 345.951 251.437 345.269 251.288C344.341 251.085 343.679 250.792 343.285 250.408C342.901 250.024 342.709 249.528 342.709 248.92C342.709 248.515 342.826 248.131 343.061 247.768C343.306 247.395 343.658 247.096 344.117 246.872C344.586 246.637 345.146 246.52 345.797 246.52C346.479 246.52 347.061 246.632 347.541 246.856C348.021 247.08 348.378 247.347 348.613 247.656C348.858 247.955 348.981 248.205 348.981 248.408C348.981 248.504 348.943 248.584 348.869 248.648C348.805 248.712 348.725 248.744 348.629 248.744H347.957C347.829 248.744 347.722 248.691 347.637 248.584C347.466 248.381 347.317 248.227 347.189 248.12C347.071 248.003 346.895 247.901 346.661 247.816C346.437 247.731 346.149 247.688 345.797 247.688C345.285 247.688 344.89 247.8 344.613 248.024C344.335 248.237 344.197 248.52 344.197 248.872C344.197 249.096 344.255 249.288 344.373 249.448C344.49 249.597 344.714 249.736 345.045 249.864C345.386 249.992 345.877 250.125 346.516 250.264C347.53 250.477 348.245 250.787 348.661 251.192C349.087 251.587 349.301 252.093 349.301 252.712C349.301 253.171 349.167 253.587 348.901 253.96C348.634 254.333 348.239 254.627 347.717 254.84C347.205 255.053 346.591 255.16 345.877 255.16ZM353.142 255C353.003 255 352.897 254.968 352.822 254.904C352.747 254.84 352.683 254.739 352.63 254.6L350.358 247.176L350.326 247.016C350.326 246.92 350.358 246.84 350.422 246.776C350.497 246.712 350.577 246.68 350.662 246.68H351.366C351.473 246.68 351.558 246.712 351.622 246.776C351.697 246.829 351.745 246.888 351.766 246.952L353.542 252.984L355.446 247.016C355.467 246.931 355.515 246.856 355.59 246.792C355.665 246.717 355.766 246.68 355.894 246.68H356.438C356.566 246.68 356.667 246.717 356.742 246.792C356.817 246.856 356.865 246.931 356.886 247.016L358.79 252.984L360.566 246.952C360.577 246.899 360.614 246.84 360.678 246.776C360.753 246.712 360.843 246.68 360.95 246.68H361.67C361.755 246.68 361.83 246.712 361.894 246.776C361.958 246.84 361.99 246.92 361.99 247.016L361.958 247.176L359.702 254.6C359.649 254.739 359.585 254.84 359.51 254.904C359.435 254.968 359.323 255 359.174 255H358.55C358.262 255 358.086 254.867 358.022 254.6L356.166 248.872L354.31 254.6C354.225 254.867 354.043 255 353.766 255H353.142ZM366.951 255.16C365.778 255.16 364.866 254.829 364.215 254.168C363.575 253.507 363.234 252.627 363.191 251.528L363.175 250.84L363.191 250.152C363.234 249.064 363.581 248.189 364.231 247.528C364.882 246.856 365.789 246.52 366.951 246.52C368.114 246.52 369.021 246.856 369.671 247.528C370.322 248.189 370.669 249.064 370.711 250.152C370.722 250.269 370.727 250.499 370.727 250.84C370.727 251.181 370.722 251.411 370.711 251.528C370.669 252.627 370.322 253.507 369.671 254.168C369.031 254.829 368.125 255.16 366.951 255.16ZM366.951 253.928C367.623 253.928 368.151 253.715 368.535 253.288C368.93 252.861 369.143 252.248 369.175 251.448C369.186 251.341 369.191 251.139 369.191 250.84C369.191 250.541 369.186 250.339 369.175 250.232C369.143 249.432 368.93 248.819 368.535 248.392C368.151 247.965 367.623 247.752 366.951 247.752C366.279 247.752 365.746 247.965 365.351 248.392C364.957 248.819 364.749 249.432 364.727 250.232L364.711 250.84L364.727 251.448C364.749 252.248 364.957 252.861 365.351 253.288C365.746 253.715 366.279 253.928 366.951 253.928ZM373.099 255C372.992 255 372.902 254.968 372.827 254.904C372.763 254.829 372.731 254.739 372.731 254.632V247.064C372.731 246.957 372.763 246.867 372.827 246.792C372.902 246.717 372.992 246.68 373.099 246.68H373.835C373.942 246.68 374.032 246.717 374.107 246.792C374.182 246.867 374.219 246.957 374.219 247.064V247.768C374.656 247.043 375.403 246.68 376.459 246.68H377.083C377.19 246.68 377.275 246.717 377.339 246.792C377.414 246.856 377.451 246.941 377.451 247.048V247.704C377.451 247.811 377.414 247.896 377.339 247.96C377.275 248.024 377.19 248.056 377.083 248.056H376.123C375.547 248.056 375.094 248.227 374.763 248.568C374.432 248.899 374.267 249.352 374.267 249.928V254.632C374.267 254.739 374.23 254.829 374.155 254.904C374.08 254.968 373.99 255 373.883 255H373.099ZM381.677 255.16C380.568 255.16 379.73 254.797 379.165 254.072C378.6 253.347 378.301 252.429 378.269 251.32L378.253 250.84L378.269 250.36C378.301 249.261 378.6 248.349 379.165 247.624C379.73 246.888 380.568 246.52 381.677 246.52C382.776 246.52 383.64 246.909 384.269 247.688V244.008C384.269 243.901 384.301 243.816 384.365 243.752C384.44 243.677 384.53 243.64 384.637 243.64H385.405C385.512 243.64 385.597 243.677 385.661 243.752C385.736 243.816 385.773 243.901 385.773 244.008V254.632C385.773 254.739 385.736 254.829 385.661 254.904C385.597 254.968 385.512 255 385.405 255H384.685C384.578 255 384.488 254.968 384.413 254.904C384.349 254.829 384.317 254.739 384.317 254.632V253.96C383.698 254.76 382.818 255.16 381.677 255.16ZM382.013 253.864C382.749 253.864 383.298 253.624 383.661 253.144C384.034 252.653 384.237 252.072 384.269 251.4C384.28 251.283 384.285 251.08 384.285 250.792C384.285 250.493 384.28 250.285 384.269 250.168C384.248 249.539 384.045 248.989 383.661 248.52C383.277 248.051 382.728 247.816 382.013 247.816C381.256 247.816 380.701 248.051 380.349 248.52C380.008 248.989 379.821 249.608 379.789 250.376L379.773 250.84C379.773 252.856 380.52 253.864 382.013 253.864ZM388.553 252.344C388.446 252.344 388.355 252.312 388.281 252.248C388.217 252.173 388.185 252.083 388.185 251.976V244.168C388.185 244.061 388.217 243.976 388.281 243.912C388.355 243.837 388.446 243.8 388.553 243.8H389.305C389.411 243.8 389.497 243.837 389.561 243.912C389.635 243.976 389.673 244.061 389.673 244.168V251.976C389.673 252.083 389.635 252.173 389.561 252.248C389.497 252.312 389.411 252.344 389.305 252.344H388.553ZM388.409 255C388.302 255 388.211 254.968 388.137 254.904C388.073 254.829 388.041 254.739 388.041 254.632V253.624C388.041 253.517 388.073 253.427 388.137 253.352C388.211 253.277 388.302 253.24 388.409 253.24H389.433C389.539 253.24 389.625 253.277 389.689 253.352C389.763 253.427 389.801 253.517 389.801 253.624V254.632C389.801 254.739 389.763 254.829 389.689 254.904C389.625 254.968 389.539 255 389.433 255H388.409Z" fill="#004A7C"/>
<rect x="142" y="21" width="6" height="99" fill="#00B600"/>
<rect x="142" y="160" width="6" height="99" fill="#EE0000"/>
</svg>
