<svg width="1200" height="600" viewBox="0 0 1200 600" fill="none" xmlns="http://www.w3.org/2000/svg">
<g clip-path="url(#clip0)">
<rect width="1200" height="600" fill="white"/>
<rect width="1200" height="600" fill="url(#paint0_linear)"/>
<g filter="url(#filter0_d)">
<path d="M-99 47C-99 44.2386 -96.7614 42 -94 42H335C337.761 42 340 44.2386 340 47V337C340 339.761 337.761 342 335 342H-94C-96.7614 342 -99 339.761 -99 337V47Z" fill="white"/>
<path d="M-94 42.5H335C337.485 42.5 339.5 44.5147 339.5 47V337C339.5 339.485 337.485 341.5 335 341.5H-94C-96.4853 341.5 -98.5 339.485 -98.5 337V47C-98.5 44.5147 -96.4853 42.5 -94 42.5Z" stroke="#004A7C"/>
</g>
<g filter="url(#filter1_d)">
<path d="M-75 78C-75 75.2386 -72.7614 73 -70 73H384C386.761 73 389 75.2386 389 78V368C389 370.761 386.761 373 384 373H-70C-72.7614 373 -75 370.761 -75 368V78Z" fill="white"/>
<path d="M-70 73.5H384C386.485 73.5 388.5 75.5147 388.5 78V368C388.5 370.485 386.485 372.5 384 372.5H-70C-72.4853 372.5 -74.5 370.485 -74.5 368V78C-74.5 75.5147 -72.4853 73.5 -70 73.5Z" stroke="#004A7C"/>
</g>
<g filter="url(#filter2_d)">
<path d="M-75 78C-75 75.2386 -72.7614 73 -70 73H384C386.761 73 389 75.2386 389 78V368C389 370.761 386.761 373 384 373H-70C-72.7614 373 -75 370.761 -75 368V78Z" fill="white"/>
<path d="M-70 73.5H384C386.485 73.5 388.5 75.5147 388.5 78V368C388.5 370.485 386.485 372.5 384 372.5H-70C-72.4853 372.5 -74.5 370.485 -74.5 368V78C-74.5 75.5147 -72.4853 73.5 -70 73.5Z" stroke="#004A7C"/>
</g>
<g filter="url(#filter3_d)">
<path d="M-99 107C-99 104.239 -96.7614 102 -94 102H450C452.761 102 455 104.239 455 107V397C455 399.761 452.761 402 450 402H-94C-96.7614 402 -99 399.761 -99 397V107Z" fill="white"/>
<path d="M-94 102.5H450C452.485 102.5 454.5 104.515 454.5 107V397C454.5 399.485 452.485 401.5 450 401.5H-94C-96.4853 401.5 -98.5 399.485 -98.5 397V107C-98.5 104.515 -96.4853 102.5 -94 102.5Z" stroke="#004A7C"/>
</g>
<g filter="url(#filter4_d)">
<path d="M-75 140C-75 137.239 -72.7614 135 -70 135H520C522.761 135 525 137.239 525 140V430C525 432.761 522.761 435 520 435H-70C-72.7614 435 -75 432.761 -75 430V140Z" fill="white"/>
<path d="M-70 135.5H520C522.485 135.5 524.5 137.515 524.5 140V430C524.5 432.485 522.485 434.5 520 434.5H-70C-72.4853 434.5 -74.5 432.485 -74.5 430V140C-74.5 137.515 -72.4853 135.5 -70 135.5Z" stroke="#004A7C"/>
</g>
<g filter="url(#filter5_d)">
<path d="M-18 175C-18 172.239 -15.7614 170 -13 170H577C579.761 170 582 172.239 582 175V465C582 467.761 579.761 470 577 470H-13C-15.7614 470 -18 467.761 -18 465V175Z" fill="white"/>
<path d="M-13 170.5H577C579.485 170.5 581.5 172.515 581.5 175V465C581.5 467.485 579.485 469.5 577 469.5H-13C-15.4853 469.5 -17.5 467.485 -17.5 465V175C-17.5 172.515 -15.4853 170.5 -13 170.5Z" stroke="#004A7C"/>
</g>
<g filter="url(#filter6_d)">
<path d="M25 207C25 204.239 27.2386 202 30 202H620C622.761 202 625 204.239 625 207V497C625 499.761 622.761 502 620 502H30C27.2386 502 25 499.761 25 497V207Z" fill="white"/>
<path d="M30 202.5H620C622.485 202.5 624.5 204.515 624.5 207V497C624.5 499.485 622.485 501.5 620 501.5H30C27.5147 501.5 25.5 499.485 25.5 497V207C25.5 204.515 27.5147 202.5 30 202.5Z" stroke="#004A7C"/>
</g>
<g filter="url(#filter7_d)">
<path d="M40 228C40 225.239 42.2386 223 45 223H635C637.761 223 640 225.239 640 228V518C640 520.761 637.761 523 635 523H45C42.2386 523 40 520.761 40 518V228Z" fill="white"/>
<path d="M45 223.5H635C637.485 223.5 639.5 225.515 639.5 228V518C639.5 520.485 637.485 522.5 635 522.5H45C42.5147 522.5 40.5 520.485 40.5 518V228C40.5 225.515 42.5147 223.5 45 223.5Z" stroke="#004A7C"/>
</g>
<g filter="url(#filter8_d)">
<path d="M66 252C66 249.239 68.2386 247 71 247H661C663.761 247 666 249.239 666 252V542C666 544.761 663.761 547 661 547H71C68.2386 547 66 544.761 66 542V252Z" fill="white"/>
<path d="M71 247.5H661C663.485 247.5 665.5 249.515 665.5 252V542C665.5 544.485 663.485 546.5 661 546.5H71C68.5147 546.5 66.5 544.485 66.5 542V252C66.5 249.515 68.5147 247.5 71 247.5Z" stroke="#004A7C"/>
</g>
<g filter="url(#filter9_d)">
<path d="M89 275C89 272.239 91.2386 270 94 270H684C686.761 270 689 272.239 689 275V565C689 567.761 686.761 570 684 570H94C91.2386 570 89 567.761 89 565V275Z" fill="white"/>
<path d="M94 270.5H684C686.485 270.5 688.5 272.515 688.5 275V565C688.5 567.485 686.485 569.5 684 569.5H94C91.5147 569.5 89.5 567.485 89.5 565V275C89.5 272.515 91.5147 270.5 94 270.5Z" stroke="#004A7C"/>
</g>
<g filter="url(#filter10_d)">
<path d="M118 290C118 287.239 120.239 285 123 285H713C715.761 285 718 287.239 718 290V580C718 582.761 715.761 585 713 585H123C120.239 585 118 582.761 118 580V290Z" fill="white"/>
<path d="M123 285.5H713C715.485 285.5 717.5 287.515 717.5 290V580C717.5 582.485 715.485 584.5 713 584.5H123C120.515 584.5 118.5 582.485 118.5 580V290C118.5 287.515 120.515 285.5 123 285.5Z" stroke="#004A7C"/>
</g>
<g filter="url(#filter11_d)">
<path d="M151 268C151 265.239 153.239 263 156 263H746C748.761 263 751 265.239 751 268V558C751 560.761 748.761 563 746 563H156C153.239 563 151 560.761 151 558V268Z" fill="white"/>
<path d="M156 263.5H746C748.485 263.5 750.5 265.515 750.5 268V558C750.5 560.485 748.485 562.5 746 562.5H156C153.515 562.5 151.5 560.485 151.5 558V268C151.5 265.515 153.515 263.5 156 263.5Z" stroke="#004A7C"/>
</g>
<g filter="url(#filter12_d)">
<path d="M174 260C174 257.239 176.239 255 179 255H769C771.761 255 774 257.239 774 260V550C774 552.761 771.761 555 769 555H179C176.239 555 174 552.761 174 550V260Z" fill="white"/>
<path d="M179 255.5H769C771.485 255.5 773.5 257.515 773.5 260V550C773.5 552.485 771.485 554.5 769 554.5H179C176.515 554.5 174.5 552.485 174.5 550V260C174.5 257.515 176.515 255.5 179 255.5Z" stroke="#004A7C"/>
</g>
<g filter="url(#filter13_d)">
<path d="M209 238C209 235.239 211.239 233 214 233H804C806.761 233 809 235.239 809 238V528C809 530.761 806.761 533 804 533H214C211.239 533 209 530.761 209 528V238Z" fill="white"/>
<path d="M214 233.5H804C806.485 233.5 808.5 235.515 808.5 238V528C808.5 530.485 806.485 532.5 804 532.5H214C211.515 532.5 209.5 530.485 209.5 528V238C209.5 235.515 211.515 233.5 214 233.5Z" stroke="#004A7C"/>
</g>
<g filter="url(#filter14_d)">
<path d="M240 207C240 204.239 242.239 202 245 202H835C837.761 202 840 204.239 840 207V497C840 499.761 837.761 502 835 502H245C242.239 502 240 499.761 240 497V207Z" fill="white"/>
<path d="M245 202.5H835C837.485 202.5 839.5 204.515 839.5 207V497C839.5 499.485 837.485 501.5 835 501.5H245C242.515 501.5 240.5 499.485 240.5 497V207C240.5 204.515 242.515 202.5 245 202.5Z" stroke="#004A7C"/>
</g>
<g filter="url(#filter15_d)">
<path d="M282 185C282 182.239 284.239 180 287 180H877C879.761 180 882 182.239 882 185V475C882 477.761 879.761 480 877 480H287C284.239 480 282 477.761 282 475V185Z" fill="white"/>
<path d="M287 180.5H877C879.485 180.5 881.5 182.515 881.5 185V475C881.5 477.485 879.485 479.5 877 479.5H287C284.515 479.5 282.5 477.485 282.5 475V185C282.5 182.515 284.515 180.5 287 180.5Z" stroke="#004A7C"/>
</g>
<g filter="url(#filter16_d)">
<path d="M300 155C300 152.239 302.239 150 305 150H895C897.761 150 900 152.239 900 155V445C900 447.761 897.761 450 895 450H305C302.239 450 300 447.761 300 445V155Z" fill="white"/>
<path d="M305 150.5H895C897.485 150.5 899.5 152.515 899.5 155V445C899.5 447.485 897.485 449.5 895 449.5H305C302.515 449.5 300.5 447.485 300.5 445V155C300.5 152.515 302.515 150.5 305 150.5Z" stroke="#004A7C"/>
</g>
<rect x="699.5" y="363.5" width="170" height="56" rx="4.5" fill="#E8F1F5" stroke="#004A7C"/>
<path d="M776.902 402.24C774.726 402.24 773.03 401.688 771.814 400.584C770.598 399.48 769.958 397.84 769.894 395.664C769.878 395.2 769.87 394.52 769.87 393.624C769.87 392.712 769.878 392.024 769.894 391.56C769.958 389.432 770.614 387.8 771.862 386.664C773.11 385.528 774.79 384.96 776.902 384.96C779.014 384.96 780.694 385.528 781.942 386.664C783.206 387.8 783.87 389.432 783.934 391.56C783.966 392.488 783.982 393.176 783.982 393.624C783.982 394.056 783.966 394.736 783.934 395.664C783.854 397.84 783.206 399.48 781.99 400.584C780.774 401.688 779.078 402.24 776.902 402.24ZM776.902 399.48C777.974 399.48 778.83 399.16 779.47 398.52C780.11 397.864 780.454 396.872 780.502 395.544C780.534 394.584 780.55 393.936 780.55 393.6C780.55 393.232 780.534 392.584 780.502 391.656C780.454 390.328 780.11 389.344 779.47 388.704C778.83 388.048 777.974 387.72 776.902 387.72C775.846 387.72 774.998 388.048 774.358 388.704C773.718 389.344 773.374 390.328 773.326 391.656C773.31 392.12 773.302 392.768 773.302 393.6C773.302 394.416 773.31 395.064 773.326 395.544C773.374 396.872 773.71 397.864 774.334 398.52C774.974 399.16 775.83 399.48 776.902 399.48ZM787.71 402C787.55 402 787.414 401.944 787.302 401.832C787.19 401.72 787.134 401.584 787.134 401.424V385.8C787.134 385.624 787.182 385.48 787.278 385.368C787.39 385.256 787.534 385.2 787.71 385.2H789.822C789.998 385.2 790.142 385.256 790.254 385.368C790.366 385.48 790.422 385.624 790.422 385.8V391.416L795.846 385.632C796.054 385.344 796.366 385.2 796.782 385.2H799.158C799.286 385.2 799.398 385.248 799.494 385.344C799.606 385.44 799.662 385.56 799.662 385.704C799.662 385.816 799.63 385.912 799.566 385.992L792.966 393.24L800.022 401.184C800.102 401.28 800.142 401.384 800.142 401.496C800.142 401.64 800.086 401.76 799.974 401.856C799.878 401.952 799.766 402 799.638 402H797.166C796.766 402 796.454 401.856 796.23 401.568L790.422 395.208V401.424C790.422 401.6 790.366 401.744 790.254 401.856C790.142 401.952 789.998 402 789.822 402H787.71Z" fill="#004A7C"/>
<path d="M352.636 214.36C349.54 214.36 347.14 213.532 345.436 211.876C343.756 210.196 342.916 207.664 342.916 204.28V189.664C342.916 189.4 342.988 189.196 343.132 189.052C343.3 188.884 343.504 188.8 343.744 188.8H345.58C345.844 188.8 346.048 188.884 346.192 189.052C346.36 189.196 346.444 189.4 346.444 189.664V204.352C346.444 206.656 346.984 208.384 348.064 209.536C349.144 210.688 350.668 211.264 352.636 211.264C354.604 211.264 356.128 210.688 357.208 209.536C358.288 208.384 358.828 206.656 358.828 204.352V189.664C358.828 189.4 358.9 189.196 359.044 189.052C359.212 188.884 359.416 188.8 359.656 188.8H361.528C361.768 188.8 361.96 188.884 362.104 189.052C362.272 189.22 362.356 189.424 362.356 189.664V204.28C362.356 207.664 361.504 210.196 359.8 211.876C358.12 213.532 355.732 214.36 352.636 214.36ZM368.77 214C368.53 214 368.326 213.928 368.158 213.784C368.014 213.616 367.942 213.412 367.942 213.172V189.268C367.942 189.028 368.014 188.836 368.158 188.692C368.326 188.524 368.53 188.44 368.77 188.44H370.57C370.81 188.44 371.002 188.524 371.146 188.692C371.314 188.836 371.398 189.028 371.398 189.268V197.656C372.094 196.768 372.91 196.096 373.846 195.64C374.782 195.16 375.946 194.92 377.338 194.92C379.642 194.92 381.43 195.664 382.702 197.152C383.998 198.616 384.646 200.572 384.646 203.02V213.172C384.646 213.412 384.562 213.616 384.394 213.784C384.25 213.928 384.058 214 383.818 214H382.018C381.778 214 381.574 213.928 381.406 213.784C381.262 213.616 381.19 213.412 381.19 213.172V203.2C381.19 201.496 380.77 200.176 379.93 199.24C379.114 198.304 377.926 197.836 376.366 197.836C374.854 197.836 373.642 198.316 372.73 199.276C371.842 200.212 371.398 201.52 371.398 203.2V213.172C371.398 213.412 371.314 213.616 371.146 213.784C371.002 213.928 370.81 214 370.57 214H368.77ZM390.492 204.712C390.252 204.712 390.048 204.64 389.88 204.496C389.736 204.328 389.664 204.124 389.664 203.884V202.516C389.664 202.276 389.736 202.084 389.88 201.94C390.048 201.772 390.252 201.688 390.492 201.688H401.292C401.532 201.688 401.724 201.772 401.868 201.94C402.036 202.084 402.12 202.276 402.12 202.516V203.884C402.12 204.124 402.036 204.328 401.868 204.496C401.724 204.64 401.532 204.712 401.292 204.712H390.492ZM414.949 214.36C412.309 214.36 410.257 213.616 408.793 212.128C407.353 210.64 406.585 208.66 406.489 206.188L406.453 204.64L406.489 203.092C406.585 200.644 407.365 198.676 408.829 197.188C410.293 195.676 412.333 194.92 414.949 194.92C417.565 194.92 419.605 195.676 421.069 197.188C422.533 198.676 423.313 200.644 423.409 203.092C423.433 203.356 423.445 203.872 423.445 204.64C423.445 205.408 423.433 205.924 423.409 206.188C423.313 208.66 422.533 210.64 421.069 212.128C419.629 213.616 417.589 214.36 414.949 214.36ZM414.949 211.588C416.461 211.588 417.649 211.108 418.513 210.148C419.401 209.188 419.881 207.808 419.953 206.008C419.977 205.768 419.989 205.312 419.989 204.64C419.989 203.968 419.977 203.512 419.953 203.272C419.881 201.472 419.401 200.092 418.513 199.132C417.649 198.172 416.461 197.692 414.949 197.692C413.437 197.692 412.237 198.172 411.349 199.132C410.461 200.092 409.993 201.472 409.945 203.272L409.909 204.64L409.945 206.008C409.993 207.808 410.461 209.188 411.349 210.148C412.237 211.108 413.437 211.588 414.949 211.588ZM428.817 214C428.577 214 428.373 213.928 428.205 213.784C428.061 213.616 427.989 213.412 427.989 213.172V189.268C427.989 189.028 428.061 188.836 428.205 188.692C428.373 188.524 428.577 188.44 428.817 188.44H430.617C430.857 188.44 431.049 188.524 431.193 188.692C431.361 188.836 431.445 189.028 431.445 189.268V197.656C432.141 196.768 432.957 196.096 433.893 195.64C434.829 195.16 435.993 194.92 437.385 194.92C439.689 194.92 441.477 195.664 442.749 197.152C444.045 198.616 444.693 200.572 444.693 203.02V213.172C444.693 213.412 444.609 213.616 444.441 213.784C444.297 213.928 444.105 214 443.865 214H442.065C441.825 214 441.621 213.928 441.453 213.784C441.309 213.616 441.237 213.412 441.237 213.172V203.2C441.237 201.496 440.817 200.176 439.977 199.24C439.161 198.304 437.973 197.836 436.413 197.836C434.901 197.836 433.689 198.316 432.777 199.276C431.889 200.212 431.445 201.52 431.445 203.2V213.172C431.445 213.412 431.361 213.616 431.193 213.784C431.049 213.928 430.857 214 430.617 214H428.817ZM450.467 214C450.227 214 450.023 213.928 449.855 213.784C449.711 213.616 449.639 213.412 449.639 213.172V210.58C449.639 210.34 449.711 210.148 449.855 210.004C450.023 209.836 450.227 209.752 450.467 209.752H453.059C453.299 209.752 453.503 209.836 453.671 210.004C453.839 210.148 453.923 210.34 453.923 210.58V213.172C453.923 213.412 453.839 213.616 453.671 213.784C453.503 213.928 453.299 214 453.059 214H450.467ZM459.537 214C459.297 214 459.093 213.928 458.925 213.784C458.781 213.616 458.709 213.412 458.709 213.172V210.58C458.709 210.34 458.781 210.148 458.925 210.004C459.093 209.836 459.297 209.752 459.537 209.752H462.129C462.369 209.752 462.573 209.836 462.741 210.004C462.909 210.148 462.993 210.34 462.993 210.58V213.172C462.993 213.412 462.909 213.616 462.741 213.784C462.573 213.928 462.369 214 462.129 214H459.537ZM468.607 214C468.367 214 468.163 213.928 467.995 213.784C467.851 213.616 467.779 213.412 467.779 213.172V210.58C467.779 210.34 467.851 210.148 467.995 210.004C468.163 209.836 468.367 209.752 468.607 209.752H471.199C471.439 209.752 471.643 209.836 471.811 210.004C471.979 210.148 472.063 210.34 472.063 210.58V213.172C472.063 213.412 471.979 213.616 471.811 213.784C471.643 213.928 471.439 214 471.199 214H468.607ZM477.678 214C477.438 214 477.234 213.928 477.066 213.784C476.922 213.616 476.85 213.412 476.85 213.172V210.58C476.85 210.34 476.922 210.148 477.066 210.004C477.234 209.836 477.438 209.752 477.678 209.752H480.27C480.51 209.752 480.714 209.836 480.882 210.004C481.05 210.148 481.134 210.34 481.134 210.58V213.172C481.134 213.412 481.05 213.616 480.882 213.784C480.714 213.928 480.51 214 480.27 214H477.678Z" fill="#004A7C"/>
<path d="M347.488 255.24C346.16 255.24 345.008 255.032 344.032 254.616C343.072 254.2 342.336 253.656 341.824 252.984C341.312 252.296 341.04 251.56 341.008 250.776C341.008 250.648 341.056 250.536 341.152 250.44C341.264 250.328 341.392 250.272 341.536 250.272H342.76C343.064 250.272 343.272 250.432 343.384 250.752C343.528 251.424 343.936 252 344.608 252.48C345.296 252.96 346.256 253.2 347.488 253.2C348.816 253.2 349.816 252.968 350.488 252.504C351.16 252.024 351.496 251.36 351.496 250.512C351.496 249.968 351.328 249.528 350.992 249.192C350.672 248.856 350.192 248.56 349.552 248.304C348.912 248.048 347.952 247.728 346.672 247.344C345.424 246.992 344.432 246.616 343.696 246.216C342.96 245.816 342.408 245.32 342.04 244.728C341.672 244.136 341.488 243.392 341.488 242.496C341.488 241.632 341.72 240.856 342.184 240.168C342.664 239.48 343.344 238.944 344.224 238.56C345.104 238.16 346.152 237.96 347.368 237.96C348.616 237.96 349.688 238.184 350.584 238.632C351.48 239.064 352.16 239.616 352.624 240.288C353.088 240.96 353.336 241.632 353.368 242.304C353.368 242.432 353.32 242.544 353.224 242.64C353.144 242.736 353.024 242.784 352.864 242.784H351.592C351.256 242.784 351.048 242.632 350.968 242.328C350.872 241.656 350.496 241.104 349.84 240.672C349.184 240.224 348.36 240 347.368 240C346.28 240 345.424 240.208 344.8 240.624C344.176 241.04 343.864 241.656 343.864 242.472C343.864 243.016 344.008 243.464 344.296 243.816C344.6 244.168 345.056 244.48 345.664 244.752C346.272 245.008 347.16 245.304 348.328 245.64C349.688 246.008 350.76 246.392 351.544 246.792C352.328 247.176 352.912 247.664 353.296 248.256C353.68 248.832 353.872 249.568 353.872 250.464C353.872 251.952 353.296 253.12 352.144 253.968C350.992 254.816 349.44 255.24 347.488 255.24ZM361.818 255.24C360.058 255.24 358.69 254.744 357.714 253.752C356.754 252.76 356.242 251.44 356.178 249.792L356.154 248.76L356.178 247.728C356.242 246.096 356.762 244.784 357.738 243.792C358.714 242.784 360.074 242.28 361.818 242.28C363.562 242.28 364.922 242.784 365.898 243.792C366.874 244.784 367.394 246.096 367.458 247.728C367.474 247.904 367.482 248.248 367.482 248.76C367.482 249.272 367.474 249.616 367.458 249.792C367.394 251.44 366.874 252.76 365.898 253.752C364.938 254.744 363.578 255.24 361.818 255.24ZM361.818 253.392C362.826 253.392 363.618 253.072 364.194 252.432C364.786 251.792 365.106 250.872 365.154 249.672C365.17 249.512 365.178 249.208 365.178 248.76C365.178 248.312 365.17 248.008 365.154 247.848C365.106 246.648 364.786 245.728 364.194 245.088C363.618 244.448 362.826 244.128 361.818 244.128C360.81 244.128 360.01 244.448 359.418 245.088C358.826 245.728 358.514 246.648 358.482 247.848L358.458 248.76L358.482 249.672C358.514 250.872 358.826 251.792 359.418 252.432C360.01 253.072 360.81 253.392 361.818 253.392ZM371.039 255C370.879 255 370.743 254.952 370.631 254.856C370.535 254.744 370.487 254.608 370.487 254.448V243.072C370.487 242.912 370.535 242.784 370.631 242.688C370.743 242.576 370.879 242.52 371.039 242.52H372.119C372.279 242.52 372.407 242.576 372.503 242.688C372.615 242.784 372.671 242.912 372.671 243.072V243.912C373.503 242.824 374.663 242.28 376.151 242.28C377.927 242.28 379.183 243.016 379.919 244.488C380.303 243.816 380.847 243.28 381.551 242.88C382.255 242.48 383.047 242.28 383.927 242.28C385.239 242.28 386.311 242.728 387.143 243.624C387.975 244.52 388.391 245.816 388.391 247.512V254.448C388.391 254.608 388.335 254.744 388.223 254.856C388.127 254.952 387.999 255 387.839 255H386.711C386.551 255 386.415 254.952 386.303 254.856C386.207 254.744 386.159 254.608 386.159 254.448V247.728C386.159 246.48 385.895 245.584 385.367 245.04C384.855 244.496 384.175 244.224 383.327 244.224C382.575 244.224 381.927 244.504 381.383 245.064C380.839 245.608 380.567 246.496 380.567 247.728V254.448C380.567 254.608 380.511 254.744 380.399 254.856C380.303 254.952 380.175 255 380.015 255H378.887C378.727 255 378.591 254.952 378.479 254.856C378.383 254.744 378.335 254.608 378.335 254.448V247.728C378.335 246.48 378.063 245.584 377.519 245.04C376.991 244.496 376.319 244.224 375.503 244.224C374.751 244.224 374.103 244.504 373.559 245.064C373.015 245.608 372.743 246.488 372.743 247.704V254.448C372.743 254.608 372.687 254.744 372.575 254.856C372.479 254.952 372.351 255 372.191 255H371.039ZM396.807 255.24C395.159 255.24 393.839 254.736 392.847 253.728C391.871 252.704 391.335 251.312 391.239 249.552L391.215 248.736L391.239 247.944C391.351 246.216 391.895 244.84 392.871 243.816C393.863 242.792 395.167 242.28 396.783 242.28C398.559 242.28 399.935 242.848 400.911 243.984C401.887 245.104 402.375 246.624 402.375 248.544V248.952C402.375 249.112 402.319 249.248 402.207 249.36C402.111 249.456 401.983 249.504 401.823 249.504H393.519V249.72C393.567 250.76 393.879 251.648 394.455 252.384C395.047 253.104 395.823 253.464 396.783 253.464C397.519 253.464 398.119 253.32 398.583 253.032C399.063 252.728 399.415 252.416 399.639 252.096C399.783 251.904 399.887 251.792 399.951 251.76C400.031 251.712 400.167 251.688 400.359 251.688H401.535C401.679 251.688 401.799 251.728 401.895 251.808C401.991 251.888 402.039 252 402.039 252.144C402.039 252.496 401.815 252.92 401.367 253.416C400.935 253.912 400.319 254.344 399.519 254.712C398.735 255.064 397.831 255.24 396.807 255.24ZM400.095 247.848V247.776C400.095 246.672 399.791 245.776 399.183 245.088C398.591 244.384 397.791 244.032 396.783 244.032C395.775 244.032 394.975 244.384 394.383 245.088C393.807 245.776 393.519 246.672 393.519 247.776V247.848H400.095ZM410.046 255C407.518 255 406.254 253.592 406.254 250.776V244.44H404.382C404.222 244.44 404.086 244.392 403.974 244.296C403.878 244.184 403.83 244.048 403.83 243.888V243.072C403.83 242.912 403.878 242.784 403.974 242.688C404.086 242.576 404.222 242.52 404.382 242.52H406.254V238.512C406.254 238.352 406.302 238.224 406.398 238.128C406.51 238.016 406.646 237.96 406.806 237.96H407.934C408.094 237.96 408.222 238.016 408.318 238.128C408.43 238.224 408.486 238.352 408.486 238.512V242.52H411.462C411.622 242.52 411.75 242.576 411.846 242.688C411.958 242.784 412.014 242.912 412.014 243.072V243.888C412.014 244.048 411.958 244.184 411.846 244.296C411.75 244.392 411.622 244.44 411.462 244.44H408.486V250.608C408.486 251.408 408.622 252.016 408.894 252.432C409.166 252.832 409.614 253.032 410.238 253.032H411.702C411.862 253.032 411.99 253.088 412.086 253.2C412.198 253.296 412.254 253.424 412.254 253.584V254.448C412.254 254.608 412.198 254.744 412.086 254.856C411.99 254.952 411.862 255 411.702 255H410.046ZM415.125 255C414.965 255 414.829 254.952 414.717 254.856C414.621 254.744 414.573 254.608 414.573 254.448V238.512C414.573 238.352 414.621 238.224 414.717 238.128C414.829 238.016 414.965 237.96 415.125 237.96H416.325C416.485 237.96 416.613 238.016 416.709 238.128C416.821 238.224 416.877 238.352 416.877 238.512V244.104C417.341 243.512 417.885 243.064 418.509 242.76C419.133 242.44 419.909 242.28 420.837 242.28C422.373 242.28 423.565 242.776 424.413 243.768C425.277 244.744 425.709 246.048 425.709 247.68V254.448C425.709 254.608 425.653 254.744 425.541 254.856C425.445 254.952 425.317 255 425.157 255H423.957C423.797 255 423.661 254.952 423.549 254.856C423.453 254.744 423.405 254.608 423.405 254.448V247.8C423.405 246.664 423.125 245.784 422.565 245.16C422.021 244.536 421.229 244.224 420.189 244.224C419.181 244.224 418.373 244.544 417.765 245.184C417.173 245.808 416.877 246.68 416.877 247.8V254.448C416.877 254.608 416.821 254.744 416.709 254.856C416.613 254.952 416.485 255 416.325 255H415.125ZM429.534 240.192C429.374 240.192 429.238 240.144 429.126 240.048C429.03 239.936 428.982 239.8 428.982 239.64V238.344C428.982 238.184 429.03 238.048 429.126 237.936C429.238 237.824 429.374 237.768 429.534 237.768H431.046C431.206 237.768 431.342 237.824 431.454 237.936C431.566 238.048 431.622 238.184 431.622 238.344V239.64C431.622 239.8 431.566 239.936 431.454 240.048C431.342 240.144 431.206 240.192 431.046 240.192H429.534ZM429.726 255C429.566 255 429.43 254.952 429.318 254.856C429.222 254.744 429.174 254.608 429.174 254.448V243.072C429.174 242.912 429.222 242.784 429.318 242.688C429.43 242.576 429.566 242.52 429.726 242.52H430.878C431.038 242.52 431.166 242.576 431.262 242.688C431.374 242.784 431.43 242.912 431.43 243.072V254.448C431.43 254.608 431.374 254.744 431.262 254.856C431.166 254.952 431.038 255 430.878 255H429.726ZM435.539 255C435.379 255 435.243 254.952 435.131 254.856C435.035 254.744 434.987 254.608 434.987 254.448V243.072C434.987 242.912 435.035 242.784 435.131 242.688C435.243 242.576 435.379 242.52 435.539 242.52H436.667C436.827 242.52 436.955 242.576 437.051 242.688C437.163 242.784 437.219 242.912 437.219 243.072V244.128C437.683 243.536 438.227 243.08 438.851 242.76C439.491 242.44 440.283 242.28 441.227 242.28C442.763 242.28 443.955 242.776 444.803 243.768C445.667 244.744 446.099 246.048 446.099 247.68V254.448C446.099 254.608 446.043 254.744 445.931 254.856C445.835 254.952 445.707 255 445.547 255H444.347C444.187 255 444.051 254.952 443.939 254.856C443.843 254.744 443.795 254.608 443.795 254.448V247.8C443.795 246.664 443.515 245.784 442.955 245.16C442.411 244.536 441.619 244.224 440.579 244.224C439.571 244.224 438.771 244.544 438.179 245.184C437.587 245.808 437.291 246.68 437.291 247.8V254.448C437.291 254.608 437.235 254.744 437.123 254.856C437.027 254.952 436.899 255 436.739 255H435.539ZM454.654 260.28C453.342 260.28 452.286 260.056 451.486 259.608C450.686 259.176 450.118 258.68 449.782 258.12C449.446 257.56 449.262 257.056 449.23 256.608C449.214 256.448 449.262 256.312 449.374 256.2C449.502 256.088 449.638 256.032 449.782 256.032H450.934C451.078 256.032 451.198 256.064 451.294 256.128C451.39 256.208 451.47 256.344 451.534 256.536C451.726 257.048 452.038 257.488 452.47 257.856C452.918 258.24 453.606 258.432 454.534 258.432C455.718 258.432 456.59 258.176 457.15 257.664C457.71 257.168 457.99 256.28 457.99 255V253.368C457.574 253.896 457.046 254.32 456.406 254.64C455.766 254.944 455.006 255.096 454.126 255.096C452.43 255.096 451.158 254.56 450.31 253.488C449.478 252.4 449.038 251.024 448.99 249.36L448.966 248.688L448.99 248.04C449.038 246.392 449.486 245.024 450.334 243.936C451.182 242.832 452.446 242.28 454.126 242.28C455.806 242.28 457.118 242.896 458.062 244.128V243.096C458.062 242.936 458.11 242.8 458.206 242.688C458.318 242.576 458.454 242.52 458.614 242.52H459.718C459.878 242.52 460.014 242.576 460.126 242.688C460.238 242.8 460.294 242.936 460.294 243.096V254.736C460.294 258.432 458.414 260.28 454.654 260.28ZM454.606 253.176C455.694 253.176 456.518 252.816 457.078 252.096C457.638 251.376 457.942 250.52 457.99 249.528C458.006 249.384 458.014 249.104 458.014 248.688C458.014 248.288 458.006 248.016 457.99 247.872C457.942 246.88 457.638 246.024 457.078 245.304C456.534 244.584 455.71 244.224 454.606 244.224C453.47 244.224 452.646 244.576 452.134 245.28C451.622 245.984 451.342 246.912 451.294 248.064L451.27 248.688L451.294 249.336C451.342 250.472 451.622 251.4 452.134 252.12C452.646 252.824 453.47 253.176 454.606 253.176ZM472.494 255C472.286 255 472.126 254.952 472.014 254.856C471.902 254.76 471.806 254.608 471.726 254.4L468.318 243.264L468.27 243.024C468.27 242.88 468.318 242.76 468.414 242.664C468.526 242.568 468.646 242.52 468.774 242.52H469.83C469.99 242.52 470.118 242.568 470.214 242.664C470.326 242.744 470.398 242.832 470.43 242.928L473.094 251.976L475.95 243.024C475.982 242.896 476.054 242.784 476.166 242.688C476.278 242.576 476.43 242.52 476.622 242.52H477.438C477.63 242.52 477.782 242.576 477.894 242.688C478.006 242.784 478.078 242.896 478.11 243.024L480.966 251.976L483.63 242.928C483.646 242.848 483.702 242.76 483.798 242.664C483.91 242.568 484.046 242.52 484.206 242.52H485.286C485.414 242.52 485.526 242.568 485.622 242.664C485.718 242.76 485.766 242.88 485.766 243.024L485.718 243.264L482.334 254.4C482.254 254.608 482.158 254.76 482.046 254.856C481.934 254.952 481.766 255 481.542 255H480.606C480.174 255 479.91 254.8 479.814 254.4L477.03 245.808L474.246 254.4C474.118 254.8 473.846 255 473.43 255H472.494ZM493.088 255.24C491.44 255.24 490.12 254.736 489.128 253.728C488.152 252.704 487.616 251.312 487.52 249.552L487.496 248.736L487.52 247.944C487.632 246.216 488.176 244.84 489.152 243.816C490.144 242.792 491.448 242.28 493.064 242.28C494.84 242.28 496.216 242.848 497.192 243.984C498.168 245.104 498.656 246.624 498.656 248.544V248.952C498.656 249.112 498.6 249.248 498.488 249.36C498.392 249.456 498.264 249.504 498.104 249.504H489.8V249.72C489.848 250.76 490.16 251.648 490.736 252.384C491.328 253.104 492.104 253.464 493.064 253.464C493.8 253.464 494.4 253.32 494.864 253.032C495.344 252.728 495.696 252.416 495.92 252.096C496.064 251.904 496.168 251.792 496.232 251.76C496.312 251.712 496.448 251.688 496.64 251.688H497.816C497.96 251.688 498.08 251.728 498.176 251.808C498.272 251.888 498.32 252 498.32 252.144C498.32 252.496 498.096 252.92 497.648 253.416C497.216 253.912 496.6 254.344 495.8 254.712C495.016 255.064 494.112 255.24 493.088 255.24ZM496.376 247.848V247.776C496.376 246.672 496.072 245.776 495.464 245.088C494.872 244.384 494.072 244.032 493.064 244.032C492.056 244.032 491.256 244.384 490.664 245.088C490.088 245.776 489.8 246.672 489.8 247.776V247.848H496.376ZM502.078 255C501.918 255 501.782 254.952 501.67 254.856C501.574 254.744 501.526 254.608 501.526 254.448V243.072C501.526 242.912 501.574 242.784 501.67 242.688C501.782 242.576 501.918 242.52 502.078 242.52H503.206C503.366 242.52 503.494 242.576 503.59 242.688C503.702 242.784 503.758 242.912 503.758 243.072V244.128C504.222 243.536 504.766 243.08 505.39 242.76C506.03 242.44 506.822 242.28 507.766 242.28C509.302 242.28 510.494 242.776 511.342 243.768C512.206 244.744 512.638 246.048 512.638 247.68V254.448C512.638 254.608 512.582 254.744 512.47 254.856C512.374 254.952 512.246 255 512.086 255H510.886C510.726 255 510.59 254.952 510.478 254.856C510.382 254.744 510.334 254.608 510.334 254.448V247.8C510.334 246.664 510.054 245.784 509.494 245.16C508.95 244.536 508.158 244.224 507.118 244.224C506.11 244.224 505.31 244.544 504.718 245.184C504.126 245.808 503.83 246.68 503.83 247.8V254.448C503.83 254.608 503.774 254.744 503.662 254.856C503.566 254.952 503.438 255 503.278 255H502.078ZM520.789 255C518.261 255 516.997 253.592 516.997 250.776V244.44H515.125C514.965 244.44 514.829 244.392 514.717 244.296C514.621 244.184 514.573 244.048 514.573 243.888V243.072C514.573 242.912 514.621 242.784 514.717 242.688C514.829 242.576 514.965 242.52 515.125 242.52H516.997V238.512C516.997 238.352 517.045 238.224 517.141 238.128C517.253 238.016 517.389 237.96 517.549 237.96H518.677C518.837 237.96 518.965 238.016 519.061 238.128C519.173 238.224 519.229 238.352 519.229 238.512V242.52H522.205C522.365 242.52 522.493 242.576 522.589 242.688C522.701 242.784 522.757 242.912 522.757 243.072V243.888C522.757 244.048 522.701 244.184 522.589 244.296C522.493 244.392 522.365 244.44 522.205 244.44H519.229V250.608C519.229 251.408 519.365 252.016 519.637 252.432C519.909 252.832 520.357 253.032 520.981 253.032H522.445C522.605 253.032 522.733 253.088 522.829 253.2C522.941 253.296 522.997 253.424 522.997 253.584V254.448C522.997 254.608 522.941 254.744 522.829 254.856C522.733 254.952 522.605 255 522.445 255H520.789ZM533.924 255C533.716 255 533.556 254.952 533.444 254.856C533.332 254.76 533.236 254.608 533.156 254.4L529.748 243.264L529.7 243.024C529.7 242.88 529.748 242.76 529.844 242.664C529.956 242.568 530.076 242.52 530.204 242.52H531.26C531.42 242.52 531.548 242.568 531.644 242.664C531.756 242.744 531.828 242.832 531.86 242.928L534.524 251.976L537.38 243.024C537.412 242.896 537.484 242.784 537.596 242.688C537.708 242.576 537.86 242.52 538.052 242.52H538.868C539.06 242.52 539.212 242.576 539.324 242.688C539.436 242.784 539.508 242.896 539.54 243.024L542.396 251.976L545.06 242.928C545.076 242.848 545.132 242.76 545.228 242.664C545.34 242.568 545.476 242.52 545.636 242.52H546.716C546.844 242.52 546.956 242.568 547.052 242.664C547.148 242.76 547.196 242.88 547.196 243.024L547.148 243.264L543.764 254.4C543.684 254.608 543.588 254.76 543.476 254.856C543.364 254.952 543.196 255 542.972 255H542.036C541.604 255 541.34 254.8 541.244 254.4L538.46 245.808L535.676 254.4C535.548 254.8 535.276 255 534.86 255H533.924ZM550.406 255C550.246 255 550.11 254.952 549.998 254.856C549.902 254.744 549.854 254.608 549.854 254.448V243.096C549.854 242.936 549.902 242.8 549.998 242.688C550.11 242.576 550.246 242.52 550.406 242.52H551.51C551.67 242.52 551.806 242.576 551.918 242.688C552.03 242.8 552.086 242.936 552.086 243.096V244.152C552.742 243.064 553.862 242.52 555.446 242.52H556.382C556.542 242.52 556.67 242.576 556.766 242.688C556.878 242.784 556.934 242.912 556.934 243.072V244.056C556.934 244.216 556.878 244.344 556.766 244.44C556.67 244.536 556.542 244.584 556.382 244.584H554.942C554.078 244.584 553.398 244.84 552.902 245.352C552.406 245.848 552.158 246.528 552.158 247.392V254.448C552.158 254.608 552.102 254.744 551.99 254.856C551.878 254.952 551.742 255 551.582 255H550.406ZM563.849 255.24C562.089 255.24 560.721 254.744 559.745 253.752C558.785 252.76 558.273 251.44 558.209 249.792L558.185 248.76L558.209 247.728C558.273 246.096 558.793 244.784 559.769 243.792C560.745 242.784 562.105 242.28 563.849 242.28C565.593 242.28 566.953 242.784 567.929 243.792C568.905 244.784 569.425 246.096 569.489 247.728C569.505 247.904 569.513 248.248 569.513 248.76C569.513 249.272 569.505 249.616 569.489 249.792C569.425 251.44 568.905 252.76 567.929 253.752C566.969 254.744 565.609 255.24 563.849 255.24ZM563.849 253.392C564.857 253.392 565.649 253.072 566.225 252.432C566.817 251.792 567.137 250.872 567.185 249.672C567.201 249.512 567.209 249.208 567.209 248.76C567.209 248.312 567.201 248.008 567.185 247.848C567.137 246.648 566.817 245.728 566.225 245.088C565.649 244.448 564.857 244.128 563.849 244.128C562.841 244.128 562.041 244.448 561.449 245.088C560.857 245.728 560.545 246.648 560.513 247.848L560.489 248.76L560.513 249.672C560.545 250.872 560.857 251.792 561.449 252.432C562.041 253.072 562.841 253.392 563.849 253.392ZM573.07 255C572.91 255 572.774 254.952 572.662 254.856C572.566 254.744 572.518 254.608 572.518 254.448V243.072C572.518 242.912 572.566 242.784 572.662 242.688C572.774 242.576 572.91 242.52 573.07 242.52H574.198C574.358 242.52 574.486 242.576 574.582 242.688C574.694 242.784 574.75 242.912 574.75 243.072V244.128C575.214 243.536 575.758 243.08 576.382 242.76C577.022 242.44 577.814 242.28 578.758 242.28C580.294 242.28 581.486 242.776 582.334 243.768C583.198 244.744 583.63 246.048 583.63 247.68V254.448C583.63 254.608 583.574 254.744 583.462 254.856C583.366 254.952 583.238 255 583.078 255H581.878C581.718 255 581.582 254.952 581.47 254.856C581.374 254.744 581.326 254.608 581.326 254.448V247.8C581.326 246.664 581.046 245.784 580.486 245.16C579.942 244.536 579.15 244.224 578.11 244.224C577.102 244.224 576.302 244.544 575.71 245.184C575.118 245.808 574.822 246.68 574.822 247.8V254.448C574.822 254.608 574.766 254.744 574.654 254.856C574.558 254.952 574.43 255 574.27 255H573.07ZM592.185 260.28C590.873 260.28 589.817 260.056 589.017 259.608C588.217 259.176 587.649 258.68 587.313 258.12C586.977 257.56 586.793 257.056 586.761 256.608C586.745 256.448 586.793 256.312 586.905 256.2C587.033 256.088 587.169 256.032 587.313 256.032H588.465C588.609 256.032 588.729 256.064 588.825 256.128C588.921 256.208 589.001 256.344 589.065 256.536C589.257 257.048 589.569 257.488 590.001 257.856C590.449 258.24 591.137 258.432 592.065 258.432C593.249 258.432 594.121 258.176 594.681 257.664C595.241 257.168 595.521 256.28 595.521 255V253.368C595.105 253.896 594.577 254.32 593.937 254.64C593.297 254.944 592.537 255.096 591.657 255.096C589.961 255.096 588.689 254.56 587.841 253.488C587.009 252.4 586.569 251.024 586.521 249.36L586.497 248.688L586.521 248.04C586.569 246.392 587.017 245.024 587.865 243.936C588.713 242.832 589.977 242.28 591.657 242.28C593.337 242.28 594.649 242.896 595.593 244.128V243.096C595.593 242.936 595.641 242.8 595.737 242.688C595.849 242.576 595.985 242.52 596.145 242.52H597.249C597.409 242.52 597.545 242.576 597.657 242.688C597.769 242.8 597.825 242.936 597.825 243.096V254.736C597.825 258.432 595.945 260.28 592.185 260.28ZM592.137 253.176C593.225 253.176 594.049 252.816 594.609 252.096C595.169 251.376 595.473 250.52 595.521 249.528C595.537 249.384 595.545 249.104 595.545 248.688C595.545 248.288 595.537 248.016 595.521 247.872C595.473 246.88 595.169 246.024 594.609 245.304C594.065 244.584 593.241 244.224 592.137 244.224C591.001 244.224 590.177 244.576 589.665 245.28C589.153 245.984 588.873 246.912 588.825 248.064L588.801 248.688L588.825 249.336C588.873 250.472 589.153 251.4 589.665 252.12C590.177 252.824 591.001 253.176 592.137 253.176ZM601.777 255C601.617 255 601.481 254.952 601.369 254.856C601.273 254.744 601.225 254.608 601.225 254.448V252.72C601.225 252.56 601.273 252.432 601.369 252.336C601.481 252.224 601.617 252.168 601.777 252.168H603.505C603.665 252.168 603.801 252.224 603.913 252.336C604.025 252.432 604.081 252.56 604.081 252.72V254.448C604.081 254.608 604.025 254.744 603.913 254.856C603.801 254.952 603.665 255 603.505 255H601.777Z" fill="#004A7C"/>
</g>
<defs>
<filter id="filter0_d" x="-99" y="42" width="449" height="310" filterUnits="userSpaceOnUse" color-interpolation-filters="sRGB">
<feFlood flood-opacity="0" result="BackgroundImageFix"/>
<feColorMatrix in="SourceAlpha" type="matrix" values="0 0 0 0 0 0 0 0 0 0 0 0 0 0 0 0 0 0 127 0"/>
<feOffset dx="5" dy="5"/>
<feGaussianBlur stdDeviation="2.5"/>
<feColorMatrix type="matrix" values="0 0 0 0 0 0 0 0 0 0 0 0 0 0 0 0 0 0 0.1 0"/>
<feBlend mode="normal" in2="BackgroundImageFix" result="effect1_dropShadow"/>
<feBlend mode="normal" in="SourceGraphic" in2="effect1_dropShadow" result="shape"/>
</filter>
<filter id="filter1_d" x="-75" y="73" width="474" height="310" filterUnits="userSpaceOnUse" color-interpolation-filters="sRGB">
<feFlood flood-opacity="0" result="BackgroundImageFix"/>
<feColorMatrix in="SourceAlpha" type="matrix" values="0 0 0 0 0 0 0 0 0 0 0 0 0 0 0 0 0 0 127 0"/>
<feOffset dx="5" dy="5"/>
<feGaussianBlur stdDeviation="2.5"/>
<feColorMatrix type="matrix" values="0 0 0 0 0 0 0 0 0 0 0 0 0 0 0 0 0 0 0.1 0"/>
<feBlend mode="normal" in2="BackgroundImageFix" result="effect1_dropShadow"/>
<feBlend mode="normal" in="SourceGraphic" in2="effect1_dropShadow" result="shape"/>
</filter>
<filter id="filter2_d" x="-75" y="73" width="474" height="310" filterUnits="userSpaceOnUse" color-interpolation-filters="sRGB">
<feFlood flood-opacity="0" result="BackgroundImageFix"/>
<feColorMatrix in="SourceAlpha" type="matrix" values="0 0 0 0 0 0 0 0 0 0 0 0 0 0 0 0 0 0 127 0"/>
<feOffset dx="5" dy="5"/>
<feGaussianBlur stdDeviation="2.5"/>
<feColorMatrix type="matrix" values="0 0 0 0 0 0 0 0 0 0 0 0 0 0 0 0 0 0 0.1 0"/>
<feBlend mode="normal" in2="BackgroundImageFix" result="effect1_dropShadow"/>
<feBlend mode="normal" in="SourceGraphic" in2="effect1_dropShadow" result="shape"/>
</filter>
<filter id="filter3_d" x="-99" y="102" width="564" height="310" filterUnits="userSpaceOnUse" color-interpolation-filters="sRGB">
<feFlood flood-opacity="0" result="BackgroundImageFix"/>
<feColorMatrix in="SourceAlpha" type="matrix" values="0 0 0 0 0 0 0 0 0 0 0 0 0 0 0 0 0 0 127 0"/>
<feOffset dx="5" dy="5"/>
<feGaussianBlur stdDeviation="2.5"/>
<feColorMatrix type="matrix" values="0 0 0 0 0 0 0 0 0 0 0 0 0 0 0 0 0 0 0.1 0"/>
<feBlend mode="normal" in2="BackgroundImageFix" result="effect1_dropShadow"/>
<feBlend mode="normal" in="SourceGraphic" in2="effect1_dropShadow" result="shape"/>
</filter>
<filter id="filter4_d" x="-75" y="135" width="610" height="310" filterUnits="userSpaceOnUse" color-interpolation-filters="sRGB">
<feFlood flood-opacity="0" result="BackgroundImageFix"/>
<feColorMatrix in="SourceAlpha" type="matrix" values="0 0 0 0 0 0 0 0 0 0 0 0 0 0 0 0 0 0 127 0"/>
<feOffset dx="5" dy="5"/>
<feGaussianBlur stdDeviation="2.5"/>
<feColorMatrix type="matrix" values="0 0 0 0 0 0 0 0 0 0 0 0 0 0 0 0 0 0 0.1 0"/>
<feBlend mode="normal" in2="BackgroundImageFix" result="effect1_dropShadow"/>
<feBlend mode="normal" in="SourceGraphic" in2="effect1_dropShadow" result="shape"/>
</filter>
<filter id="filter5_d" x="-18" y="170" width="610" height="310" filterUnits="userSpaceOnUse" color-interpolation-filters="sRGB">
<feFlood flood-opacity="0" result="BackgroundImageFix"/>
<feColorMatrix in="SourceAlpha" type="matrix" values="0 0 0 0 0 0 0 0 0 0 0 0 0 0 0 0 0 0 127 0"/>
<feOffset dx="5" dy="5"/>
<feGaussianBlur stdDeviation="2.5"/>
<feColorMatrix type="matrix" values="0 0 0 0 0 0 0 0 0 0 0 0 0 0 0 0 0 0 0.1 0"/>
<feBlend mode="normal" in2="BackgroundImageFix" result="effect1_dropShadow"/>
<feBlend mode="normal" in="SourceGraphic" in2="effect1_dropShadow" result="shape"/>
</filter>
<filter id="filter6_d" x="25" y="202" width="610" height="310" filterUnits="userSpaceOnUse" color-interpolation-filters="sRGB">
<feFlood flood-opacity="0" result="BackgroundImageFix"/>
<feColorMatrix in="SourceAlpha" type="matrix" values="0 0 0 0 0 0 0 0 0 0 0 0 0 0 0 0 0 0 127 0"/>
<feOffset dx="5" dy="5"/>
<feGaussianBlur stdDeviation="2.5"/>
<feColorMatrix type="matrix" values="0 0 0 0 0 0 0 0 0 0 0 0 0 0 0 0 0 0 0.1 0"/>
<feBlend mode="normal" in2="BackgroundImageFix" result="effect1_dropShadow"/>
<feBlend mode="normal" in="SourceGraphic" in2="effect1_dropShadow" result="shape"/>
</filter>
<filter id="filter7_d" x="40" y="223" width="610" height="310" filterUnits="userSpaceOnUse" color-interpolation-filters="sRGB">
<feFlood flood-opacity="0" result="BackgroundImageFix"/>
<feColorMatrix in="SourceAlpha" type="matrix" values="0 0 0 0 0 0 0 0 0 0 0 0 0 0 0 0 0 0 127 0"/>
<feOffset dx="5" dy="5"/>
<feGaussianBlur stdDeviation="2.5"/>
<feColorMatrix type="matrix" values="0 0 0 0 0 0 0 0 0 0 0 0 0 0 0 0 0 0 0.1 0"/>
<feBlend mode="normal" in2="BackgroundImageFix" result="effect1_dropShadow"/>
<feBlend mode="normal" in="SourceGraphic" in2="effect1_dropShadow" result="shape"/>
</filter>
<filter id="filter8_d" x="66" y="247" width="610" height="310" filterUnits="userSpaceOnUse" color-interpolation-filters="sRGB">
<feFlood flood-opacity="0" result="BackgroundImageFix"/>
<feColorMatrix in="SourceAlpha" type="matrix" values="0 0 0 0 0 0 0 0 0 0 0 0 0 0 0 0 0 0 127 0"/>
<feOffset dx="5" dy="5"/>
<feGaussianBlur stdDeviation="2.5"/>
<feColorMatrix type="matrix" values="0 0 0 0 0 0 0 0 0 0 0 0 0 0 0 0 0 0 0.1 0"/>
<feBlend mode="normal" in2="BackgroundImageFix" result="effect1_dropShadow"/>
<feBlend mode="normal" in="SourceGraphic" in2="effect1_dropShadow" result="shape"/>
</filter>
<filter id="filter9_d" x="89" y="270" width="610" height="310" filterUnits="userSpaceOnUse" color-interpolation-filters="sRGB">
<feFlood flood-opacity="0" result="BackgroundImageFix"/>
<feColorMatrix in="SourceAlpha" type="matrix" values="0 0 0 0 0 0 0 0 0 0 0 0 0 0 0 0 0 0 127 0"/>
<feOffset dx="5" dy="5"/>
<feGaussianBlur stdDeviation="2.5"/>
<feColorMatrix type="matrix" values="0 0 0 0 0 0 0 0 0 0 0 0 0 0 0 0 0 0 0.1 0"/>
<feBlend mode="normal" in2="BackgroundImageFix" result="effect1_dropShadow"/>
<feBlend mode="normal" in="SourceGraphic" in2="effect1_dropShadow" result="shape"/>
</filter>
<filter id="filter10_d" x="118" y="285" width="610" height="310" filterUnits="userSpaceOnUse" color-interpolation-filters="sRGB">
<feFlood flood-opacity="0" result="BackgroundImageFix"/>
<feColorMatrix in="SourceAlpha" type="matrix" values="0 0 0 0 0 0 0 0 0 0 0 0 0 0 0 0 0 0 127 0"/>
<feOffset dx="5" dy="5"/>
<feGaussianBlur stdDeviation="2.5"/>
<feColorMatrix type="matrix" values="0 0 0 0 0 0 0 0 0 0 0 0 0 0 0 0 0 0 0.1 0"/>
<feBlend mode="normal" in2="BackgroundImageFix" result="effect1_dropShadow"/>
<feBlend mode="normal" in="SourceGraphic" in2="effect1_dropShadow" result="shape"/>
</filter>
<filter id="filter11_d" x="151" y="263" width="610" height="310" filterUnits="userSpaceOnUse" color-interpolation-filters="sRGB">
<feFlood flood-opacity="0" result="BackgroundImageFix"/>
<feColorMatrix in="SourceAlpha" type="matrix" values="0 0 0 0 0 0 0 0 0 0 0 0 0 0 0 0 0 0 127 0"/>
<feOffset dx="5" dy="5"/>
<feGaussianBlur stdDeviation="2.5"/>
<feColorMatrix type="matrix" values="0 0 0 0 0 0 0 0 0 0 0 0 0 0 0 0 0 0 0.1 0"/>
<feBlend mode="normal" in2="BackgroundImageFix" result="effect1_dropShadow"/>
<feBlend mode="normal" in="SourceGraphic" in2="effect1_dropShadow" result="shape"/>
</filter>
<filter id="filter12_d" x="174" y="255" width="610" height="310" filterUnits="userSpaceOnUse" color-interpolation-filters="sRGB">
<feFlood flood-opacity="0" result="BackgroundImageFix"/>
<feColorMatrix in="SourceAlpha" type="matrix" values="0 0 0 0 0 0 0 0 0 0 0 0 0 0 0 0 0 0 127 0"/>
<feOffset dx="5" dy="5"/>
<feGaussianBlur stdDeviation="2.5"/>
<feColorMatrix type="matrix" values="0 0 0 0 0 0 0 0 0 0 0 0 0 0 0 0 0 0 0.1 0"/>
<feBlend mode="normal" in2="BackgroundImageFix" result="effect1_dropShadow"/>
<feBlend mode="normal" in="SourceGraphic" in2="effect1_dropShadow" result="shape"/>
</filter>
<filter id="filter13_d" x="209" y="233" width="610" height="310" filterUnits="userSpaceOnUse" color-interpolation-filters="sRGB">
<feFlood flood-opacity="0" result="BackgroundImageFix"/>
<feColorMatrix in="SourceAlpha" type="matrix" values="0 0 0 0 0 0 0 0 0 0 0 0 0 0 0 0 0 0 127 0"/>
<feOffset dx="5" dy="5"/>
<feGaussianBlur stdDeviation="2.5"/>
<feColorMatrix type="matrix" values="0 0 0 0 0 0 0 0 0 0 0 0 0 0 0 0 0 0 0.1 0"/>
<feBlend mode="normal" in2="BackgroundImageFix" result="effect1_dropShadow"/>
<feBlend mode="normal" in="SourceGraphic" in2="effect1_dropShadow" result="shape"/>
</filter>
<filter id="filter14_d" x="240" y="202" width="610" height="310" filterUnits="userSpaceOnUse" color-interpolation-filters="sRGB">
<feFlood flood-opacity="0" result="BackgroundImageFix"/>
<feColorMatrix in="SourceAlpha" type="matrix" values="0 0 0 0 0 0 0 0 0 0 0 0 0 0 0 0 0 0 127 0"/>
<feOffset dx="5" dy="5"/>
<feGaussianBlur stdDeviation="2.5"/>
<feColorMatrix type="matrix" values="0 0 0 0 0 0 0 0 0 0 0 0 0 0 0 0 0 0 0.1 0"/>
<feBlend mode="normal" in2="BackgroundImageFix" result="effect1_dropShadow"/>
<feBlend mode="normal" in="SourceGraphic" in2="effect1_dropShadow" result="shape"/>
</filter>
<filter id="filter15_d" x="282" y="180" width="610" height="310" filterUnits="userSpaceOnUse" color-interpolation-filters="sRGB">
<feFlood flood-opacity="0" result="BackgroundImageFix"/>
<feColorMatrix in="SourceAlpha" type="matrix" values="0 0 0 0 0 0 0 0 0 0 0 0 0 0 0 0 0 0 127 0"/>
<feOffset dx="5" dy="5"/>
<feGaussianBlur stdDeviation="2.5"/>
<feColorMatrix type="matrix" values="0 0 0 0 0 0 0 0 0 0 0 0 0 0 0 0 0 0 0.1 0"/>
<feBlend mode="normal" in2="BackgroundImageFix" result="effect1_dropShadow"/>
<feBlend mode="normal" in="SourceGraphic" in2="effect1_dropShadow" result="shape"/>
</filter>
<filter id="filter16_d" x="300" y="150" width="610" height="310" filterUnits="userSpaceOnUse" color-interpolation-filters="sRGB">
<feFlood flood-opacity="0" result="BackgroundImageFix"/>
<feColorMatrix in="SourceAlpha" type="matrix" values="0 0 0 0 0 0 0 0 0 0 0 0 0 0 0 0 0 0 127 0"/>
<feOffset dx="5" dy="5"/>
<feGaussianBlur stdDeviation="2.5"/>
<feColorMatrix type="matrix" values="0 0 0 0 0 0 0 0 0 0 0 0 0 0 0 0 0 0 0.1 0"/>
<feBlend mode="normal" in2="BackgroundImageFix" result="effect1_dropShadow"/>
<feBlend mode="normal" in="SourceGraphic" in2="effect1_dropShadow" result="shape"/>
</filter>
<linearGradient id="paint0_linear" x1="1367.5" y1="-90.5001" x2="-494" y2="844.5" gradientUnits="userSpaceOnUse">
<stop stop-color="#004A7C"/>
<stop offset="1" stop-color="#E8F1F5"/>
</linearGradient>
<clipPath id="clip0">
<rect width="1200" height="600" fill="white"/>
</clipPath>
</defs>
</svg>
