<svg width="600" height="280" viewBox="0 0 600 280" fill="none" xmlns="http://www.w3.org/2000/svg">
<rect width="600" height="280" fill="white"/>
<rect x="112.5" y="114" width="374.5" height="44.5" fill="#E8F1F5"/>
<rect x="112.5" y="156.5" width="374.5" height="2.5" fill="#004A7C"/>
<path d="M205.239 143C205.119 143 205.017 142.964 204.933 142.892C204.861 142.808 204.825 142.706 204.825 142.586V130.832C204.825 130.7 204.861 130.598 204.933 130.526C205.017 130.442 205.119 130.4 205.239 130.4H206.067C206.283 130.4 206.433 130.484 206.517 130.652L212.493 139.832V130.832C212.493 130.7 212.529 130.598 212.601 130.526C212.685 130.442 212.787 130.4 212.907 130.4H213.771C213.903 130.4 214.005 130.442 214.077 130.526C214.161 130.598 214.203 130.7 214.203 130.832V142.568C214.203 142.688 214.161 142.79 214.077 142.874C214.005 142.958 213.909 143 213.789 143H212.925C212.745 143 212.601 142.916 212.493 142.748L206.535 133.658V142.586C206.535 142.706 206.493 142.808 206.409 142.892C206.325 142.964 206.223 143 206.103 143H205.239ZM220.94 143.18C219.62 143.18 218.594 142.808 217.862 142.064C217.142 141.32 216.758 140.33 216.71 139.094L216.692 138.32L216.71 137.546C216.758 136.322 217.148 135.338 217.88 134.594C218.612 133.838 219.632 133.46 220.94 133.46C222.248 133.46 223.268 133.838 224 134.594C224.732 135.338 225.122 136.322 225.17 137.546C225.182 137.678 225.188 137.936 225.188 138.32C225.188 138.704 225.182 138.962 225.17 139.094C225.122 140.33 224.732 141.32 224 142.064C223.28 142.808 222.26 143.18 220.94 143.18ZM220.94 141.794C221.696 141.794 222.29 141.554 222.722 141.074C223.166 140.594 223.406 139.904 223.442 139.004C223.454 138.884 223.46 138.656 223.46 138.32C223.46 137.984 223.454 137.756 223.442 137.636C223.406 136.736 223.166 136.046 222.722 135.566C222.29 135.086 221.696 134.846 220.94 134.846C220.184 134.846 219.584 135.086 219.14 135.566C218.696 136.046 218.462 136.736 218.438 137.636L218.42 138.32L218.438 139.004C218.462 139.904 218.696 140.594 219.14 141.074C219.584 141.554 220.184 141.794 220.94 141.794ZM232.124 131.894C232.004 131.894 231.902 131.858 231.818 131.786C231.746 131.702 231.71 131.6 231.71 131.48V130.508C231.71 130.388 231.746 130.286 231.818 130.202C231.902 130.118 232.004 130.076 232.124 130.076H233.258C233.378 130.076 233.48 130.118 233.564 130.202C233.648 130.286 233.69 130.388 233.69 130.508V131.48C233.69 131.6 233.648 131.702 233.564 131.786C233.48 131.858 233.378 131.894 233.258 131.894H232.124ZM232.268 143C232.148 143 232.046 142.964 231.962 142.892C231.89 142.808 231.854 142.706 231.854 142.586V134.054C231.854 133.934 231.89 133.838 231.962 133.766C232.046 133.682 232.148 133.64 232.268 133.64H233.132C233.252 133.64 233.348 133.682 233.42 133.766C233.504 133.838 233.546 133.934 233.546 134.054V142.586C233.546 142.706 233.504 142.808 233.42 142.892C233.348 142.964 233.252 143 233.132 143H232.268ZM236.628 143C236.508 143 236.406 142.964 236.322 142.892C236.25 142.808 236.214 142.706 236.214 142.586V134.054C236.214 133.934 236.25 133.838 236.322 133.766C236.406 133.682 236.508 133.64 236.628 133.64H237.474C237.594 133.64 237.69 133.682 237.762 133.766C237.846 133.838 237.888 133.934 237.888 134.054V134.846C238.236 134.402 238.644 134.06 239.112 133.82C239.592 133.58 240.186 133.46 240.894 133.46C242.046 133.46 242.94 133.832 243.576 134.576C244.224 135.308 244.548 136.286 244.548 137.51V142.586C244.548 142.706 244.506 142.808 244.422 142.892C244.35 142.964 244.254 143 244.134 143H243.234C243.114 143 243.012 142.964 242.928 142.892C242.856 142.808 242.82 142.706 242.82 142.586V137.6C242.82 136.748 242.61 136.088 242.19 135.62C241.782 135.152 241.188 134.918 240.408 134.918C239.652 134.918 239.052 135.158 238.608 135.638C238.164 136.106 237.942 136.76 237.942 137.6V142.586C237.942 142.706 237.9 142.808 237.816 142.892C237.744 142.964 237.648 143 237.528 143H236.628ZM250.661 143C248.765 143 247.817 141.944 247.817 139.832V135.08H246.413C246.293 135.08 246.191 135.044 246.107 134.972C246.035 134.888 245.999 134.786 245.999 134.666V134.054C245.999 133.934 246.035 133.838 246.107 133.766C246.191 133.682 246.293 133.64 246.413 133.64H247.817V130.634C247.817 130.514 247.853 130.418 247.925 130.346C248.009 130.262 248.111 130.22 248.231 130.22H249.077C249.197 130.22 249.293 130.262 249.365 130.346C249.449 130.418 249.491 130.514 249.491 130.634V133.64H251.723C251.843 133.64 251.939 133.682 252.011 133.766C252.095 133.838 252.137 133.934 252.137 134.054V134.666C252.137 134.786 252.095 134.888 252.011 134.972C251.939 135.044 251.843 135.08 251.723 135.08H249.491V139.706C249.491 140.306 249.593 140.762 249.797 141.074C250.001 141.374 250.337 141.524 250.805 141.524H251.903C252.023 141.524 252.119 141.566 252.191 141.65C252.275 141.722 252.317 141.818 252.317 141.938V142.586C252.317 142.706 252.275 142.808 252.191 142.892C252.119 142.964 252.023 143 251.903 143H250.661ZM257.782 143.18C256.546 143.18 255.556 142.802 254.812 142.046C254.08 141.278 253.678 140.234 253.606 138.914L253.588 138.302L253.606 137.708C253.69 136.412 254.098 135.38 254.83 134.612C255.574 133.844 256.552 133.46 257.764 133.46C259.096 133.46 260.128 133.886 260.86 134.738C261.592 135.578 261.958 136.718 261.958 138.158V138.464C261.958 138.584 261.916 138.686 261.832 138.77C261.76 138.842 261.664 138.878 261.544 138.878H255.316V139.04C255.352 139.82 255.586 140.486 256.018 141.038C256.462 141.578 257.044 141.848 257.764 141.848C258.316 141.848 258.766 141.74 259.114 141.524C259.474 141.296 259.738 141.062 259.906 140.822C260.014 140.678 260.092 140.594 260.14 140.57C260.2 140.534 260.302 140.516 260.446 140.516H261.328C261.436 140.516 261.526 140.546 261.598 140.606C261.67 140.666 261.706 140.75 261.706 140.858C261.706 141.122 261.538 141.44 261.202 141.812C260.878 142.184 260.416 142.508 259.816 142.784C259.228 143.048 258.55 143.18 257.782 143.18ZM260.248 137.636V137.582C260.248 136.754 260.02 136.082 259.564 135.566C259.12 135.038 258.52 134.774 257.764 134.774C257.008 134.774 256.408 135.038 255.964 135.566C255.532 136.082 255.316 136.754 255.316 137.582V137.636H260.248ZM264.524 143C264.404 143 264.302 142.964 264.218 142.892C264.146 142.808 264.11 142.706 264.11 142.586V134.072C264.11 133.952 264.146 133.85 264.218 133.766C264.302 133.682 264.404 133.64 264.524 133.64H265.352C265.472 133.64 265.574 133.682 265.658 133.766C265.742 133.85 265.784 133.952 265.784 134.072V134.864C266.276 134.048 267.116 133.64 268.304 133.64H269.006C269.126 133.64 269.222 133.682 269.294 133.766C269.378 133.838 269.42 133.934 269.42 134.054V134.792C269.42 134.912 269.378 135.008 269.294 135.08C269.222 135.152 269.126 135.188 269.006 135.188H267.926C267.278 135.188 266.768 135.38 266.396 135.764C266.024 136.136 265.838 136.646 265.838 137.294V142.586C265.838 142.706 265.796 142.808 265.712 142.892C265.628 142.964 265.526 143 265.406 143H264.524ZM271.362 143C271.242 143 271.14 142.964 271.056 142.892C270.984 142.808 270.948 142.706 270.948 142.586V134.054C270.948 133.934 270.984 133.838 271.056 133.766C271.14 133.682 271.242 133.64 271.362 133.64H272.208C272.328 133.64 272.424 133.682 272.496 133.766C272.58 133.838 272.622 133.934 272.622 134.054V134.846C272.97 134.402 273.378 134.06 273.846 133.82C274.326 133.58 274.92 133.46 275.628 133.46C276.78 133.46 277.674 133.832 278.31 134.576C278.958 135.308 279.282 136.286 279.282 137.51V142.586C279.282 142.706 279.24 142.808 279.156 142.892C279.084 142.964 278.988 143 278.868 143H277.968C277.848 143 277.746 142.964 277.662 142.892C277.59 142.808 277.554 142.706 277.554 142.586V137.6C277.554 136.748 277.344 136.088 276.924 135.62C276.516 135.152 275.922 134.918 275.142 134.918C274.386 134.918 273.786 135.158 273.342 135.638C272.898 136.106 272.676 136.76 272.676 137.6V142.586C272.676 142.706 272.634 142.808 272.55 142.892C272.478 142.964 272.382 143 272.262 143H271.362ZM285.608 143.18C284.372 143.18 283.382 142.802 282.638 142.046C281.906 141.278 281.504 140.234 281.432 138.914L281.414 138.302L281.432 137.708C281.516 136.412 281.924 135.38 282.656 134.612C283.4 133.844 284.378 133.46 285.59 133.46C286.922 133.46 287.954 133.886 288.686 134.738C289.418 135.578 289.784 136.718 289.784 138.158V138.464C289.784 138.584 289.742 138.686 289.658 138.77C289.586 138.842 289.49 138.878 289.37 138.878H283.142V139.04C283.178 139.82 283.412 140.486 283.844 141.038C284.288 141.578 284.87 141.848 285.59 141.848C286.142 141.848 286.592 141.74 286.94 141.524C287.3 141.296 287.564 141.062 287.732 140.822C287.84 140.678 287.918 140.594 287.966 140.57C288.026 140.534 288.128 140.516 288.272 140.516H289.154C289.262 140.516 289.352 140.546 289.424 140.606C289.496 140.666 289.532 140.75 289.532 140.858C289.532 141.122 289.364 141.44 289.028 141.812C288.704 142.184 288.242 142.508 287.642 142.784C287.054 143.048 286.376 143.18 285.608 143.18ZM288.074 137.636V137.582C288.074 136.754 287.846 136.082 287.39 135.566C286.946 135.038 286.346 134.774 285.59 134.774C284.834 134.774 284.234 135.038 283.79 135.566C283.358 136.082 283.142 136.754 283.142 137.582V137.636H288.074ZM295.538 143C293.642 143 292.694 141.944 292.694 139.832V135.08H291.29C291.17 135.08 291.068 135.044 290.984 134.972C290.912 134.888 290.876 134.786 290.876 134.666V134.054C290.876 133.934 290.912 133.838 290.984 133.766C291.068 133.682 291.17 133.64 291.29 133.64H292.694V130.634C292.694 130.514 292.73 130.418 292.802 130.346C292.886 130.262 292.988 130.22 293.108 130.22H293.954C294.074 130.22 294.17 130.262 294.242 130.346C294.326 130.418 294.368 130.514 294.368 130.634V133.64H296.6C296.72 133.64 296.816 133.682 296.888 133.766C296.972 133.838 297.014 133.934 297.014 134.054V134.666C297.014 134.786 296.972 134.888 296.888 134.972C296.816 135.044 296.72 135.08 296.6 135.08H294.368V139.706C294.368 140.306 294.47 140.762 294.674 141.074C294.878 141.374 295.214 141.524 295.682 141.524H296.78C296.9 141.524 296.996 141.566 297.068 141.65C297.152 141.722 297.194 141.818 297.194 141.938V142.586C297.194 142.706 297.152 142.808 297.068 142.892C296.996 142.964 296.9 143 296.78 143H295.538ZM307.107 143.18C305.823 143.18 304.815 142.82 304.083 142.1C303.363 141.368 302.979 140.348 302.931 139.04L302.913 138.32L302.931 137.6C302.979 136.292 303.363 135.278 304.083 134.558C304.815 133.826 305.823 133.46 307.107 133.46C307.971 133.46 308.703 133.616 309.303 133.928C309.903 134.24 310.347 134.624 310.635 135.08C310.935 135.536 311.097 135.992 311.121 136.448C311.133 136.568 311.097 136.664 311.013 136.736C310.929 136.808 310.827 136.844 310.707 136.844H309.843C309.723 136.844 309.633 136.82 309.573 136.772C309.513 136.724 309.453 136.628 309.393 136.484C309.189 135.908 308.901 135.5 308.529 135.26C308.157 135.008 307.689 134.882 307.125 134.882C306.381 134.882 305.787 135.116 305.343 135.584C304.911 136.04 304.677 136.742 304.641 137.69L304.623 138.338L304.641 138.95C304.677 139.91 304.911 140.618 305.343 141.074C305.775 141.53 306.369 141.758 307.125 141.758C307.689 141.758 308.157 141.638 308.529 141.398C308.901 141.146 309.189 140.732 309.393 140.156C309.453 140.012 309.513 139.916 309.573 139.868C309.633 139.808 309.723 139.778 309.843 139.778H310.707C310.827 139.778 310.929 139.82 311.013 139.904C311.097 139.976 311.133 140.072 311.121 140.192C311.097 140.636 310.935 141.092 310.635 141.56C310.347 142.016 309.903 142.4 309.303 142.712C308.715 143.024 307.983 143.18 307.107 143.18ZM317.093 143.18C315.773 143.18 314.747 142.808 314.015 142.064C313.295 141.32 312.911 140.33 312.863 139.094L312.845 138.32L312.863 137.546C312.911 136.322 313.301 135.338 314.033 134.594C314.765 133.838 315.785 133.46 317.093 133.46C318.401 133.46 319.421 133.838 320.153 134.594C320.885 135.338 321.275 136.322 321.323 137.546C321.335 137.678 321.341 137.936 321.341 138.32C321.341 138.704 321.335 138.962 321.323 139.094C321.275 140.33 320.885 141.32 320.153 142.064C319.433 142.808 318.413 143.18 317.093 143.18ZM317.093 141.794C317.849 141.794 318.443 141.554 318.875 141.074C319.319 140.594 319.559 139.904 319.595 139.004C319.607 138.884 319.613 138.656 319.613 138.32C319.613 137.984 319.607 137.756 319.595 137.636C319.559 136.736 319.319 136.046 318.875 135.566C318.443 135.086 317.849 134.846 317.093 134.846C316.337 134.846 315.737 135.086 315.293 135.566C314.849 136.046 314.615 136.736 314.591 137.636L314.573 138.32L314.591 139.004C314.615 139.904 314.849 140.594 315.293 141.074C315.737 141.554 316.337 141.794 317.093 141.794ZM324.009 143C323.889 143 323.787 142.964 323.703 142.892C323.631 142.808 323.595 142.706 323.595 142.586V134.054C323.595 133.934 323.631 133.838 323.703 133.766C323.787 133.682 323.889 133.64 324.009 133.64H324.855C324.975 133.64 325.071 133.682 325.143 133.766C325.227 133.838 325.269 133.934 325.269 134.054V134.846C325.617 134.402 326.025 134.06 326.493 133.82C326.973 133.58 327.567 133.46 328.275 133.46C329.427 133.46 330.321 133.832 330.957 134.576C331.605 135.308 331.929 136.286 331.929 137.51V142.586C331.929 142.706 331.887 142.808 331.803 142.892C331.731 142.964 331.635 143 331.515 143H330.615C330.495 143 330.393 142.964 330.309 142.892C330.237 142.808 330.201 142.706 330.201 142.586V137.6C330.201 136.748 329.991 136.088 329.571 135.62C329.163 135.152 328.569 134.918 327.789 134.918C327.033 134.918 326.433 135.158 325.989 135.638C325.545 136.106 325.323 136.76 325.323 137.6V142.586C325.323 142.706 325.281 142.808 325.197 142.892C325.125 142.964 325.029 143 324.909 143H324.009ZM334.925 143C334.805 143 334.703 142.964 334.619 142.892C334.547 142.808 334.511 142.706 334.511 142.586V134.054C334.511 133.934 334.547 133.838 334.619 133.766C334.703 133.682 334.805 133.64 334.925 133.64H335.771C335.891 133.64 335.987 133.682 336.059 133.766C336.143 133.838 336.185 133.934 336.185 134.054V134.846C336.533 134.402 336.941 134.06 337.409 133.82C337.889 133.58 338.483 133.46 339.191 133.46C340.343 133.46 341.237 133.832 341.873 134.576C342.521 135.308 342.845 136.286 342.845 137.51V142.586C342.845 142.706 342.803 142.808 342.719 142.892C342.647 142.964 342.551 143 342.431 143H341.531C341.411 143 341.309 142.964 341.225 142.892C341.153 142.808 341.117 142.706 341.117 142.586V137.6C341.117 136.748 340.907 136.088 340.487 135.62C340.079 135.152 339.485 134.918 338.705 134.918C337.949 134.918 337.349 135.158 336.905 135.638C336.461 136.106 336.239 136.76 336.239 137.6V142.586C336.239 142.706 336.197 142.808 336.113 142.892C336.041 142.964 335.945 143 335.825 143H334.925ZM349.171 143.18C347.935 143.18 346.945 142.802 346.201 142.046C345.469 141.278 345.067 140.234 344.995 138.914L344.977 138.302L344.995 137.708C345.079 136.412 345.487 135.38 346.219 134.612C346.963 133.844 347.941 133.46 349.153 133.46C350.485 133.46 351.517 133.886 352.249 134.738C352.981 135.578 353.347 136.718 353.347 138.158V138.464C353.347 138.584 353.305 138.686 353.221 138.77C353.149 138.842 353.053 138.878 352.933 138.878H346.705V139.04C346.741 139.82 346.975 140.486 347.407 141.038C347.851 141.578 348.433 141.848 349.153 141.848C349.705 141.848 350.155 141.74 350.503 141.524C350.863 141.296 351.127 141.062 351.295 140.822C351.403 140.678 351.481 140.594 351.529 140.57C351.589 140.534 351.691 140.516 351.835 140.516H352.717C352.825 140.516 352.915 140.546 352.987 140.606C353.059 140.666 353.095 140.75 353.095 140.858C353.095 141.122 352.927 141.44 352.591 141.812C352.267 142.184 351.805 142.508 351.205 142.784C350.617 143.048 349.939 143.18 349.171 143.18ZM351.637 137.636V137.582C351.637 136.754 351.409 136.082 350.953 135.566C350.509 135.038 349.909 134.774 349.153 134.774C348.397 134.774 347.797 135.038 347.353 135.566C346.921 136.082 346.705 136.754 346.705 137.582V137.636H351.637ZM359.279 143.18C357.995 143.18 356.987 142.82 356.255 142.1C355.535 141.368 355.151 140.348 355.103 139.04L355.085 138.32L355.103 137.6C355.151 136.292 355.535 135.278 356.255 134.558C356.987 133.826 357.995 133.46 359.279 133.46C360.143 133.46 360.875 133.616 361.475 133.928C362.075 134.24 362.519 134.624 362.807 135.08C363.107 135.536 363.269 135.992 363.293 136.448C363.305 136.568 363.269 136.664 363.185 136.736C363.101 136.808 362.999 136.844 362.879 136.844H362.015C361.895 136.844 361.805 136.82 361.745 136.772C361.685 136.724 361.625 136.628 361.565 136.484C361.361 135.908 361.073 135.5 360.701 135.26C360.329 135.008 359.861 134.882 359.297 134.882C358.553 134.882 357.959 135.116 357.515 135.584C357.083 136.04 356.849 136.742 356.813 137.69L356.795 138.338L356.813 138.95C356.849 139.91 357.083 140.618 357.515 141.074C357.947 141.53 358.541 141.758 359.297 141.758C359.861 141.758 360.329 141.638 360.701 141.398C361.073 141.146 361.361 140.732 361.565 140.156C361.625 140.012 361.685 139.916 361.745 139.868C361.805 139.808 361.895 139.778 362.015 139.778H362.879C362.999 139.778 363.101 139.82 363.185 139.904C363.269 139.976 363.305 140.072 363.293 140.192C363.269 140.636 363.107 141.092 362.807 141.56C362.519 142.016 362.075 142.4 361.475 142.712C360.887 143.024 360.155 143.18 359.279 143.18ZM369.085 143C367.189 143 366.241 141.944 366.241 139.832V135.08H364.837C364.717 135.08 364.615 135.044 364.531 134.972C364.459 134.888 364.423 134.786 364.423 134.666V134.054C364.423 133.934 364.459 133.838 364.531 133.766C364.615 133.682 364.717 133.64 364.837 133.64H366.241V130.634C366.241 130.514 366.277 130.418 366.349 130.346C366.433 130.262 366.535 130.22 366.655 130.22H367.501C367.621 130.22 367.717 130.262 367.789 130.346C367.873 130.418 367.915 130.514 367.915 130.634V133.64H370.147C370.267 133.64 370.363 133.682 370.435 133.766C370.519 133.838 370.561 133.934 370.561 134.054V134.666C370.561 134.786 370.519 134.888 370.435 134.972C370.363 135.044 370.267 135.08 370.147 135.08H367.915V139.706C367.915 140.306 368.017 140.762 368.221 141.074C368.425 141.374 368.761 141.524 369.229 141.524H370.327C370.447 141.524 370.543 141.566 370.615 141.65C370.699 141.722 370.741 141.818 370.741 141.938V142.586C370.741 142.706 370.699 142.808 370.615 142.892C370.543 142.964 370.447 143 370.327 143H369.085ZM372.732 131.894C372.612 131.894 372.51 131.858 372.426 131.786C372.354 131.702 372.318 131.6 372.318 131.48V130.508C372.318 130.388 372.354 130.286 372.426 130.202C372.51 130.118 372.612 130.076 372.732 130.076H373.866C373.986 130.076 374.088 130.118 374.172 130.202C374.256 130.286 374.298 130.388 374.298 130.508V131.48C374.298 131.6 374.256 131.702 374.172 131.786C374.088 131.858 373.986 131.894 373.866 131.894H372.732ZM372.876 143C372.756 143 372.654 142.964 372.57 142.892C372.498 142.808 372.462 142.706 372.462 142.586V134.054C372.462 133.934 372.498 133.838 372.57 133.766C372.654 133.682 372.756 133.64 372.876 133.64H373.74C373.86 133.64 373.956 133.682 374.028 133.766C374.112 133.838 374.154 133.934 374.154 134.054V142.586C374.154 142.706 374.112 142.808 374.028 142.892C373.956 142.964 373.86 143 373.74 143H372.876ZM380.655 143.18C379.335 143.18 378.309 142.808 377.577 142.064C376.857 141.32 376.473 140.33 376.425 139.094L376.407 138.32L376.425 137.546C376.473 136.322 376.863 135.338 377.595 134.594C378.327 133.838 379.347 133.46 380.655 133.46C381.963 133.46 382.983 133.838 383.715 134.594C384.447 135.338 384.837 136.322 384.885 137.546C384.897 137.678 384.903 137.936 384.903 138.32C384.903 138.704 384.897 138.962 384.885 139.094C384.837 140.33 384.447 141.32 383.715 142.064C382.995 142.808 381.975 143.18 380.655 143.18ZM380.655 141.794C381.411 141.794 382.005 141.554 382.437 141.074C382.881 140.594 383.121 139.904 383.157 139.004C383.169 138.884 383.175 138.656 383.175 138.32C383.175 137.984 383.169 137.756 383.157 137.636C383.121 136.736 382.881 136.046 382.437 135.566C382.005 135.086 381.411 134.846 380.655 134.846C379.899 134.846 379.299 135.086 378.855 135.566C378.411 136.046 378.177 136.736 378.153 137.636L378.135 138.32L378.153 139.004C378.177 139.904 378.411 140.594 378.855 141.074C379.299 141.554 379.899 141.794 380.655 141.794ZM387.571 143C387.451 143 387.349 142.964 387.265 142.892C387.193 142.808 387.157 142.706 387.157 142.586V134.054C387.157 133.934 387.193 133.838 387.265 133.766C387.349 133.682 387.451 133.64 387.571 133.64H388.417C388.537 133.64 388.633 133.682 388.705 133.766C388.789 133.838 388.831 133.934 388.831 134.054V134.846C389.179 134.402 389.587 134.06 390.055 133.82C390.535 133.58 391.129 133.46 391.837 133.46C392.989 133.46 393.883 133.832 394.519 134.576C395.167 135.308 395.491 136.286 395.491 137.51V142.586C395.491 142.706 395.449 142.808 395.365 142.892C395.293 142.964 395.197 143 395.077 143H394.177C394.057 143 393.955 142.964 393.871 142.892C393.799 142.808 393.763 142.706 393.763 142.586V137.6C393.763 136.748 393.553 136.088 393.133 135.62C392.725 135.152 392.131 134.918 391.351 134.918C390.595 134.918 389.995 135.158 389.551 135.638C389.107 136.106 388.885 136.76 388.885 137.6V142.586C388.885 142.706 388.843 142.808 388.759 142.892C388.687 142.964 388.591 143 388.471 143H387.571Z" fill="#004A7C"/>
<path d="M87.5 72C87.5 40.7959 112.796 15.5 144 15.5H457C488.204 15.5 513.5 40.7959 513.5 72V264.5H87.5V72Z" stroke="#40434E"/>
<path d="M85.5 121.5C85.5 120.672 86.1716 120 87 120V146C86.1716 146 85.5 145.328 85.5 144.5V121.5Z" stroke="#40434E"/>
<path d="M85.5 184.5C85.5 183.672 86.1716 183 87 183V235.5C86.1716 235.5 85.5 234.828 85.5 234V184.5Z" stroke="#40434E"/>
<rect x="261" y="64.5" width="78" height="6" rx="3" stroke="#40434E"/>
<circle cx="226.5" cy="67.5" r="3" stroke="#40434E"/>
<rect x="112.5" y="114" width="374.5" height="150.5" stroke="#40434E"/>
<rect x="85" y="204" width="429" height="61" fill="url(#paint0_linear)"/>
<rect x="12" y="263" width="575" height="17" fill="white"/>
<defs>
<linearGradient id="paint0_linear" x1="299.5" y1="204" x2="299.5" y2="265" gradientUnits="userSpaceOnUse">
<stop stop-color="white" stop-opacity="0"/>
<stop offset="1" stop-color="white"/>
</linearGradient>
</defs>
</svg>
