<svg width="600" height="300" viewBox="0 0 600 300" fill="none" xmlns="http://www.w3.org/2000/svg">
<g clip-path="url(#clip0)">
<rect width="600" height="300" fill="white"/>
<rect width="600" height="300" fill="url(#paint0_linear)"/>
<path d="M313.732 138.6H406.868C409.077 138.6 410.868 140.391 410.868 142.6V200.545H309.732V142.6C309.732 140.391 311.523 138.6 313.732 138.6Z" fill="#E5E5E5" stroke="#E5E5E5" stroke-width="2"/>
<g filter="url(#filter0_d)">
<rect x="308.732" y="137.6" width="103.136" height="137.515" rx="5" fill="white"/>
</g>
<path d="M308.732 142.6C308.732 139.839 310.971 137.6 313.732 137.6H406.868C409.63 137.6 411.868 139.839 411.868 142.6V201.545H308.732V142.6Z" fill="#E5E5E5"/>
<rect x="330.048" y="228.016" width="60.1628" height="3.43787" rx="1.71894" fill="#E5E5E5"/>
<rect x="330.047" y="234.892" width="60.1628" height="3.43787" rx="1.71894" fill="#E5E5E5"/>
<rect x="330.047" y="241.768" width="60.1628" height="3.43787" rx="1.71894" fill="#E5E5E5"/>
<circle cx="353.587" cy="266.84" r="1.54704" fill="#7C7C7C"/>
<circle cx="360.12" cy="266.84" r="1.54704" fill="#C4C4C4"/>
<circle cx="366.652" cy="266.84" r="1.54704" fill="#C4C4C4"/>
<path d="M404.033 216.696C404.033 216.416 404.26 216.189 404.54 216.189H407.58C407.859 216.189 408.086 216.416 408.086 216.696V216.696C408.086 216.975 407.859 217.202 407.58 217.202H404.54C404.26 217.202 404.033 216.975 404.033 216.696V216.696Z" fill="#17C3B2"/>
<path d="M402.702 213.712C402.505 213.514 402.505 213.193 402.702 212.996L404.852 210.846C405.05 210.648 405.371 210.648 405.568 210.846V210.846C405.766 211.044 405.766 211.365 405.568 211.563L403.419 213.712C403.221 213.91 402.9 213.91 402.702 213.712V213.712Z" fill="#17C3B2"/>
<path d="M400.149 212.473C399.869 212.473 399.642 212.247 399.642 211.967V208.927C399.642 208.647 399.869 208.42 400.149 208.42V208.42C400.429 208.42 400.655 208.647 400.655 208.927V211.967C400.655 212.247 400.429 212.473 400.149 212.473V212.473Z" fill="#17C3B2"/>
<path d="M400.149 224.802C399.869 224.802 399.642 224.575 399.642 224.295V221.255C399.642 220.976 399.869 220.749 400.149 220.749V220.749C400.429 220.749 400.655 220.976 400.655 221.255V224.295C400.655 224.575 400.429 224.802 400.149 224.802V224.802Z" fill="#17C3B2"/>
<path d="M405.569 222.453C405.371 222.651 405.05 222.651 404.852 222.453L402.703 220.303C402.505 220.105 402.505 219.785 402.703 219.587V219.587C402.901 219.389 403.221 219.389 403.419 219.587L405.569 221.736C405.767 221.934 405.767 222.255 405.569 222.453V222.453Z" fill="#17C3B2"/>
<path d="M315.879 216.527C315.879 216.806 315.652 217.033 315.372 217.033H312.332C312.053 217.033 311.826 216.806 311.826 216.527V216.527C311.826 216.247 312.053 216.02 312.332 216.02H315.372C315.652 216.02 315.879 216.247 315.879 216.527V216.527Z" fill="#17C3B2"/>
<path d="M317.21 219.51C317.407 219.708 317.407 220.029 317.21 220.227L315.06 222.376C314.862 222.574 314.542 222.574 314.344 222.376V222.376C314.146 222.178 314.146 221.857 314.344 221.66L316.493 219.51C316.691 219.312 317.012 219.312 317.21 219.51V219.51Z" fill="#17C3B2"/>
<path d="M319.763 220.749C320.043 220.749 320.27 220.976 320.27 221.255V224.295C320.27 224.575 320.043 224.802 319.763 224.802V224.802C319.484 224.802 319.257 224.575 319.257 224.295V221.255C319.257 220.976 319.484 220.749 319.763 220.749V220.749Z" fill="#17C3B2"/>
<path d="M319.763 208.42C320.043 208.42 320.27 208.647 320.27 208.927V211.967C320.27 212.247 320.043 212.473 319.763 212.473V212.473C319.484 212.473 319.257 212.247 319.257 211.967V208.927C319.257 208.647 319.484 208.42 319.763 208.42V208.42Z" fill="#17C3B2"/>
<path d="M314.343 210.769C314.541 210.572 314.862 210.572 315.06 210.769L317.209 212.919C317.407 213.117 317.407 213.437 317.209 213.635V213.635C317.012 213.833 316.691 213.833 316.493 213.635L314.343 211.486C314.146 211.288 314.146 210.967 314.343 210.769V210.769Z" fill="#17C3B2"/>
<rect x="322.14" y="214.609" width="75.6332" height="4.12545" rx="2" fill="#227C9D"/>
<rect x="347.924" y="251.05" width="25.0474" height="8.2509" rx="4.12545" fill="#E8F1F5"/>
<path d="M425.798 139.94H518.934C521.143 139.94 522.934 141.731 522.934 143.94V201.884H421.798V143.94C421.798 141.731 423.589 139.94 425.798 139.94Z" fill="#E5E5E5" stroke="#E5E5E5" stroke-width="2"/>
<g filter="url(#filter1_d)">
<rect x="420.798" y="138.94" width="103.136" height="137.515" rx="5" fill="white"/>
</g>
<path d="M420.798 143.94C420.798 141.178 423.036 138.94 425.798 138.94H518.934C521.696 138.94 523.934 141.178 523.934 143.94V202.884H420.798V143.94Z" fill="#E5E5E5"/>
<rect x="442.114" y="229.356" width="60.1628" height="3.43787" rx="1.71894" fill="#E5E5E5"/>
<rect x="442.113" y="236.232" width="60.1628" height="3.43787" rx="1.71894" fill="#E5E5E5"/>
<rect x="442.113" y="243.107" width="60.1628" height="3.43787" rx="1.71894" fill="#E5E5E5"/>
<circle cx="465.654" cy="268.179" r="1.54704" fill="#C4C4C4"/>
<circle cx="472.185" cy="268.179" r="1.54704" fill="#7C7C7C"/>
<circle cx="478.717" cy="268.179" r="1.54704" fill="#C4C4C4"/>
<path d="M516.1 218.035C516.1 217.755 516.326 217.528 516.606 217.528H519.646C519.926 217.528 520.153 217.755 520.153 218.035V218.035C520.153 218.315 519.926 218.542 519.646 218.542H516.606C516.326 218.542 516.1 218.315 516.1 218.035V218.035Z" fill="#17C3B2"/>
<path d="M514.769 215.051C514.571 214.854 514.571 214.533 514.769 214.335L516.918 212.185C517.116 211.988 517.437 211.988 517.635 212.185V212.185C517.833 212.383 517.833 212.704 517.635 212.902L515.485 215.051C515.288 215.249 514.967 215.249 514.769 215.051V215.051Z" fill="#17C3B2"/>
<path d="M512.215 213.813C511.935 213.813 511.708 213.586 511.708 213.306V210.266C511.708 209.986 511.935 209.76 512.215 209.76V209.76C512.495 209.76 512.722 209.986 512.722 210.266V213.306C512.722 213.586 512.495 213.813 512.215 213.813V213.813Z" fill="#17C3B2"/>
<path d="M512.215 226.141C511.935 226.141 511.708 225.914 511.708 225.634V222.595C511.708 222.315 511.935 222.088 512.215 222.088V222.088C512.495 222.088 512.722 222.315 512.722 222.595V225.634C512.722 225.914 512.495 226.141 512.215 226.141V226.141Z" fill="#17C3B2"/>
<path d="M517.635 223.792C517.437 223.99 517.116 223.99 516.919 223.792L514.769 221.643C514.571 221.445 514.571 221.124 514.769 220.926V220.926C514.967 220.728 515.288 220.728 515.486 220.926L517.635 223.076C517.833 223.274 517.833 223.594 517.635 223.792V223.792Z" fill="#17C3B2"/>
<path d="M427.944 217.866C427.944 218.146 427.718 218.373 427.438 218.373H424.398C424.118 218.373 423.891 218.146 423.891 217.866V217.866C423.891 217.586 424.118 217.359 424.398 217.359H427.438C427.718 217.359 427.944 217.586 427.944 217.866V217.866Z" fill="#17C3B2"/>
<path d="M429.275 220.85C429.473 221.047 429.473 221.368 429.275 221.566L427.126 223.715C426.928 223.913 426.607 223.913 426.409 223.715V223.715C426.211 223.518 426.211 223.197 426.409 222.999L428.559 220.85C428.756 220.652 429.077 220.652 429.275 220.85V220.85Z" fill="#17C3B2"/>
<path d="M431.829 222.088C432.109 222.088 432.335 222.315 432.335 222.595V225.635C432.335 225.914 432.109 226.141 431.829 226.141V226.141C431.549 226.141 431.322 225.914 431.322 225.635V222.595C431.322 222.315 431.549 222.088 431.829 222.088V222.088Z" fill="#17C3B2"/>
<path d="M431.829 209.76C432.109 209.76 432.335 209.987 432.335 210.266V213.306C432.335 213.586 432.109 213.813 431.829 213.813V213.813C431.549 213.813 431.322 213.586 431.322 213.306V210.266C431.322 209.987 431.549 209.76 431.829 209.76V209.76Z" fill="#17C3B2"/>
<path d="M426.409 212.109C426.607 211.911 426.927 211.911 427.125 212.109L429.275 214.258C429.473 214.456 429.473 214.777 429.275 214.975V214.975C429.077 215.173 428.756 215.173 428.558 214.975L426.409 212.825C426.211 212.627 426.211 212.307 426.409 212.109V212.109Z" fill="#17C3B2"/>
<rect x="434.206" y="215.948" width="75.6332" height="4.12545" rx="2" fill="#227C9D"/>
<rect x="459.99" y="252.39" width="25.0474" height="8.2509" rx="4.12545" fill="#E8F1F5"/>
<path d="M537.864 139.94H631C633.209 139.94 635 141.731 635 143.94V201.884H533.864V143.94C533.864 141.731 535.655 139.94 537.864 139.94Z" fill="#E5E5E5" stroke="#E5E5E5" stroke-width="2"/>
<g filter="url(#filter2_d)">
<rect x="532.864" y="138.94" width="103.136" height="137.515" rx="5" fill="white"/>
</g>
<path d="M532.864 143.94C532.864 141.178 535.102 138.94 537.864 138.94H631C633.761 138.94 636 141.178 636 143.94V202.884H532.864V143.94Z" fill="#E5E5E5"/>
<rect x="554.179" y="229.356" width="60.1628" height="3.43787" rx="1.71894" fill="#E5E5E5"/>
<rect x="554.178" y="236.232" width="60.1628" height="3.43787" rx="1.71894" fill="#E5E5E5"/>
<rect x="554.178" y="243.107" width="60.1628" height="3.43787" rx="1.71894" fill="#E5E5E5"/>
<circle cx="577.719" cy="268.179" r="1.54704" fill="#C4C4C4"/>
<circle cx="584.251" cy="268.179" r="1.54704" fill="#C4C4C4"/>
<circle cx="590.783" cy="268.179" r="1.54704" fill="#7C7C7C"/>
<path d="M540.01 217.866C540.01 218.146 539.783 218.373 539.504 218.373H536.464C536.184 218.373 535.957 218.146 535.957 217.866V217.866C535.957 217.586 536.184 217.359 536.464 217.359H539.504C539.783 217.359 540.01 217.586 540.01 217.866V217.866Z" fill="#17C3B2"/>
<path d="M541.341 220.85C541.539 221.047 541.539 221.368 541.341 221.566L539.192 223.715C538.994 223.913 538.673 223.913 538.475 223.715V223.715C538.277 223.518 538.277 223.197 538.475 222.999L540.624 220.85C540.822 220.652 541.143 220.652 541.341 220.85V220.85Z" fill="#17C3B2"/>
<path d="M543.895 222.088C544.175 222.088 544.401 222.315 544.401 222.595V225.635C544.401 225.914 544.175 226.141 543.895 226.141V226.141C543.615 226.141 543.388 225.914 543.388 225.635V222.595C543.388 222.315 543.615 222.088 543.895 222.088V222.088Z" fill="#17C3B2"/>
<path d="M543.895 209.76C544.175 209.76 544.401 209.987 544.401 210.266V213.306C544.401 213.586 544.175 213.813 543.895 213.813V213.813C543.615 213.813 543.388 213.586 543.388 213.306V210.266C543.388 209.987 543.615 209.76 543.895 209.76V209.76Z" fill="#17C3B2"/>
<path d="M538.475 212.109C538.673 211.911 538.993 211.911 539.191 212.109L541.341 214.258C541.539 214.456 541.539 214.777 541.341 214.975V214.975C541.143 215.173 540.822 215.173 540.624 214.975L538.475 212.825C538.277 212.627 538.277 212.307 538.475 212.109V212.109Z" fill="#17C3B2"/>
<rect x="546.271" y="215.948" width="75.6332" height="4.12545" rx="2" fill="#227C9D"/>
<rect x="572.055" y="252.39" width="25.0474" height="8.2509" rx="4.12545" fill="#E8F1F5"/>
<g filter="url(#filter3_d)">
<path d="M25 93.5642H325.246V371.291H25V93.5642Z" fill="white"/>
</g>
<path d="M261.143 156.203C261.143 155.519 261.698 154.965 262.382 154.965H269.813C270.497 154.965 271.051 155.519 271.051 156.203V156.203C271.051 156.887 270.497 157.442 269.813 157.442H262.382C261.698 157.442 261.143 156.887 261.143 156.203V156.203Z" fill="#17C3B2"/>
<path d="M257.89 148.91C257.407 148.427 257.407 147.642 257.89 147.159L263.145 141.904C263.629 141.42 264.413 141.42 264.896 141.904V141.904C265.38 142.388 265.38 143.172 264.896 143.656L259.642 148.91C259.158 149.394 258.374 149.394 257.89 148.91V148.91Z" fill="#17C3B2"/>
<path d="M251.648 145.882C250.964 145.882 250.409 145.328 250.409 144.644V137.212C250.409 136.528 250.964 135.974 251.648 135.974V135.974C252.332 135.974 252.886 136.528 252.886 137.212V144.644C252.886 145.328 252.332 145.882 251.648 145.882V145.882Z" fill="#17C3B2"/>
<path d="M251.648 176.019C250.964 176.019 250.409 175.465 250.409 174.781V167.35C250.409 166.666 250.964 166.111 251.648 166.111V166.111C252.332 166.111 252.886 166.666 252.886 167.35V174.781C252.886 175.465 252.332 176.019 251.648 176.019V176.019Z" fill="#17C3B2"/>
<path d="M264.896 170.277C264.413 170.761 263.628 170.761 263.145 170.277L257.89 165.023C257.407 164.539 257.407 163.755 257.89 163.271V163.271C258.374 162.788 259.158 162.788 259.642 163.271L264.896 168.526C265.38 169.009 265.38 169.794 264.896 170.277V170.277Z" fill="#17C3B2"/>
<path d="M45.6416 155.79C45.6416 156.474 45.0871 157.029 44.4031 157.029H36.972C36.288 157.029 35.7335 156.474 35.7335 155.79V155.79C35.7335 155.106 36.288 154.552 36.972 154.552H44.4031C45.0871 154.552 45.6416 155.106 45.6416 155.79V155.79Z" fill="#17C3B2"/>
<path d="M48.8943 163.083C49.3779 163.567 49.3779 164.351 48.8943 164.835L43.6397 170.089C43.156 170.573 42.3718 170.573 41.8882 170.089V170.089C41.4045 169.606 41.4045 168.821 41.8882 168.338L47.1427 163.083C47.6264 162.6 48.4106 162.6 48.8943 163.083V163.083Z" fill="#17C3B2"/>
<path d="M55.137 166.111C55.821 166.111 56.3755 166.666 56.3755 167.35V174.781C56.3755 175.465 55.821 176.019 55.137 176.019V176.019C54.453 176.019 53.8985 175.465 53.8985 174.781V167.35C53.8985 166.666 54.453 166.111 55.137 166.111V166.111Z" fill="#17C3B2"/>
<path d="M55.137 135.974C55.821 135.974 56.3755 136.529 56.3755 137.213V144.644C56.3755 145.328 55.821 145.882 55.137 145.882V145.882C54.453 145.882 53.8985 145.328 53.8985 144.644V137.213C53.8985 136.529 54.453 135.974 55.137 135.974V135.974Z" fill="#17C3B2"/>
<path d="M41.8884 141.716C42.3721 141.232 43.1563 141.232 43.6399 141.716L48.8945 146.971C49.3782 147.454 49.3782 148.239 48.8945 148.722V148.722C48.4108 149.206 47.6266 149.206 47.143 148.722L41.8884 143.468C41.4047 142.984 41.4047 142.2 41.8884 141.716V141.716Z" fill="#17C3B2"/>
<rect x="64.6328" y="169.001" width="123.851" height="4.95405" rx="2" fill="#E5E5E5"/>
<rect x="64.6323" y="273.862" width="123.851" height="4.95405" rx="2" fill="#E5E5E5"/>
<rect x="93.5308" y="221.844" width="123.851" height="4.95405" rx="2" fill="#E5E5E5"/>
<rect x="192.612" y="169.001" width="24.7703" height="4.95405" rx="2" fill="#E5E5E5"/>
<rect x="192.612" y="273.862" width="24.7703" height="4.95405" rx="2" fill="#E5E5E5"/>
<rect x="64.6323" y="221.844" width="24.7703" height="4.95405" rx="2" fill="#E5E5E5"/>
<rect x="64.6323" y="182.212" width="123.851" height="4.95405" rx="2" fill="#E5E5E5"/>
<rect x="64.6323" y="260.651" width="123.851" height="4.95405" rx="2" fill="#E5E5E5"/>
<rect x="64.6323" y="208.634" width="123.851" height="4.95405" rx="2" fill="#E5E5E5"/>
<rect x="64.6323" y="195.423" width="49.5405" height="4.95405" rx="2" fill="#E5E5E5"/>
<rect x="64.6323" y="247.44" width="49.5405" height="4.95405" rx="2" fill="#E5E5E5"/>
<rect x="155.457" y="195.423" width="49.5405" height="4.95405" rx="2" fill="#E5E5E5"/>
<rect x="155.457" y="247.44" width="49.5405" height="4.95405" rx="2" fill="#E5E5E5"/>
<rect x="118.301" y="195.423" width="33.027" height="4.95405" rx="2" fill="#E5E5E5"/>
<rect x="118.301" y="247.44" width="33.027" height="4.95405" rx="2" fill="#E5E5E5"/>
<rect x="60.5039" y="150.836" width="185.777" height="9.90811" rx="2" fill="#227C9D"/>
<rect x="25" y="93.5642" width="300.246" height="30.0246" fill="#40434E"/>
<rect x="25" y="105.574" width="300.246" height="18.0147" fill="#E5E5E5"/>
<rect x="70.0366" y="108.577" width="150.123" height="12.0098" rx="5" fill="white"/>
<circle cx="33.0064" cy="99.5691" r="3.00246" fill="#EE0000"/>
<circle cx="42.0137" cy="99.5691" r="3.00246" fill="#FEB321"/>
<circle cx="51.0215" cy="99.5691" r="3.00246" fill="#00B600"/>
<path d="M64.0317 98.5642C64.0317 95.8028 66.2703 93.5642 69.0317 93.5642H119.081C121.842 93.5642 124.081 95.8028 124.081 98.5642V106.074H64.0317V98.5642Z" fill="#E5E5E5"/>
<g filter="url(#filter4_d)">
<path d="M264.696 20C264.696 17.2386 266.935 15 269.696 15H458.859C461.621 15 463.859 17.2386 463.859 20V109.581C463.859 112.343 461.621 114.581 458.859 114.581H269.696C266.935 114.581 264.696 112.343 264.696 109.581V20Z" fill="white"/>
</g>
<rect x="397.14" y="85.7029" width="56.7614" height="18.9205" rx="5" fill="#E8F1F5"/>
<rect x="293.6" y="58.4839" width="99.5815" height="3.98326" rx="1.99163" fill="#E5E5E5"/>
<rect x="293.6" y="47.8618" width="39.8326" height="3.98326" rx="1.99163" fill="#E5E5E5"/>
<rect x="366.626" y="47.8618" width="39.8326" height="3.98326" rx="1.99163" fill="#E5E5E5"/>
<rect x="336.751" y="47.8618" width="26.5551" height="3.98326" rx="1.99163" fill="#E5E5E5"/>
<path d="M449.917 35.9121C449.917 35.3621 450.363 34.9163 450.913 34.9163H456.888C457.438 34.9163 457.884 35.3621 457.884 35.9121V35.9121C457.884 36.462 457.438 36.9079 456.888 36.9079H450.913C450.363 36.9079 449.917 36.462 449.917 35.9121V35.9121Z" fill="#17C3B2"/>
<path d="M447.302 30.0481C446.913 29.6593 446.913 29.0287 447.302 28.6398L451.527 24.415C451.916 24.0261 452.547 24.0261 452.935 24.415V24.415C453.324 24.8039 453.324 25.4344 452.935 25.8233L448.711 30.0481C448.322 30.437 447.691 30.437 447.302 30.0481V30.0481Z" fill="#17C3B2"/>
<path d="M442.283 27.6135C441.733 27.6135 441.287 27.1677 441.287 26.6177V20.6428C441.287 20.0928 441.733 19.647 442.283 19.647V19.647C442.833 19.647 443.279 20.0928 443.279 20.6428V26.6177C443.279 27.1677 442.833 27.6135 442.283 27.6135V27.6135Z" fill="#17C3B2"/>
<path d="M442.283 51.845C441.733 51.845 441.287 51.3991 441.287 50.8492V44.8743C441.287 44.3243 441.733 43.8785 442.283 43.8785V43.8785C442.833 43.8785 443.279 44.3243 443.279 44.8743V50.8492C443.279 51.3991 442.833 51.845 442.283 51.845V51.845Z" fill="#17C3B2"/>
<path d="M452.936 47.2282C452.547 47.6171 451.916 47.6171 451.527 47.2282L447.302 43.0033C446.914 42.6145 446.914 41.9839 447.302 41.595V41.595C447.691 41.2062 448.322 41.2062 448.711 41.595L452.936 45.8199C453.324 46.2088 453.324 46.8393 452.936 47.2282V47.2282Z" fill="#17C3B2"/>
<path d="M276.646 35.5801C276.646 36.1301 276.2 36.5759 275.65 36.5759H269.675C269.125 36.5759 268.679 36.1301 268.679 35.5801V35.5801C268.679 35.0301 269.125 34.5843 269.675 34.5843H275.65C276.2 34.5843 276.646 35.0301 276.646 35.5801V35.5801Z" fill="#17C3B2"/>
<path d="M279.261 41.444C279.65 41.8329 279.65 42.4635 279.261 42.8523L275.036 47.0772C274.647 47.4661 274.017 47.4661 273.628 47.0772V47.0772C273.239 46.6883 273.239 46.0578 273.628 45.6689L277.853 41.444C278.242 41.0552 278.872 41.0552 279.261 41.444V41.444Z" fill="#17C3B2"/>
<path d="M284.281 43.8787C284.831 43.8787 285.276 44.3245 285.276 44.8745V50.8494C285.276 51.3993 284.831 51.8452 284.281 51.8452V51.8452C283.731 51.8452 283.285 51.3993 283.285 50.8494V44.8745C283.285 44.3245 283.731 43.8787 284.281 43.8787V43.8787Z" fill="#17C3B2"/>
<path d="M284.281 19.6472C284.831 19.6472 285.276 20.0931 285.276 20.643V26.6179C285.276 27.1679 284.831 27.6137 284.281 27.6137V27.6137C283.731 27.6137 283.285 27.1679 283.285 26.6179V20.643C283.285 20.0931 283.731 19.6472 284.281 19.6472V19.6472Z" fill="#17C3B2"/>
<path d="M273.628 24.264C274.017 23.8751 274.647 23.8751 275.036 24.264L279.261 28.4888C279.65 28.8777 279.65 29.5083 279.261 29.8971V29.8971C278.872 30.286 278.242 30.286 277.853 29.8971L273.628 25.6723C273.239 25.2834 273.239 24.6529 273.628 24.264V24.264Z" fill="#17C3B2"/>
<rect x="288.596" y="31.5969" width="149.372" height="7.96652" rx="2" fill="#227C9D"/>
</g>
<defs>
<filter id="filter0_d" x="308.732" y="137.6" width="113.136" height="147.515" filterUnits="userSpaceOnUse" color-interpolation-filters="sRGB">
<feFlood flood-opacity="0" result="BackgroundImageFix"/>
<feColorMatrix in="SourceAlpha" type="matrix" values="0 0 0 0 0 0 0 0 0 0 0 0 0 0 0 0 0 0 127 0"/>
<feOffset dx="5" dy="5"/>
<feGaussianBlur stdDeviation="2.5"/>
<feColorMatrix type="matrix" values="0 0 0 0 0 0 0 0 0 0 0 0 0 0 0 0 0 0 0.25 0"/>
<feBlend mode="normal" in2="BackgroundImageFix" result="effect1_dropShadow"/>
<feBlend mode="normal" in="SourceGraphic" in2="effect1_dropShadow" result="shape"/>
</filter>
<filter id="filter1_d" x="420.798" y="138.94" width="113.136" height="147.515" filterUnits="userSpaceOnUse" color-interpolation-filters="sRGB">
<feFlood flood-opacity="0" result="BackgroundImageFix"/>
<feColorMatrix in="SourceAlpha" type="matrix" values="0 0 0 0 0 0 0 0 0 0 0 0 0 0 0 0 0 0 127 0"/>
<feOffset dx="5" dy="5"/>
<feGaussianBlur stdDeviation="2.5"/>
<feColorMatrix type="matrix" values="0 0 0 0 0 0 0 0 0 0 0 0 0 0 0 0 0 0 0.25 0"/>
<feBlend mode="normal" in2="BackgroundImageFix" result="effect1_dropShadow"/>
<feBlend mode="normal" in="SourceGraphic" in2="effect1_dropShadow" result="shape"/>
</filter>
<filter id="filter2_d" x="532.864" y="138.94" width="113.136" height="147.515" filterUnits="userSpaceOnUse" color-interpolation-filters="sRGB">
<feFlood flood-opacity="0" result="BackgroundImageFix"/>
<feColorMatrix in="SourceAlpha" type="matrix" values="0 0 0 0 0 0 0 0 0 0 0 0 0 0 0 0 0 0 127 0"/>
<feOffset dx="5" dy="5"/>
<feGaussianBlur stdDeviation="2.5"/>
<feColorMatrix type="matrix" values="0 0 0 0 0 0 0 0 0 0 0 0 0 0 0 0 0 0 0.25 0"/>
<feBlend mode="normal" in2="BackgroundImageFix" result="effect1_dropShadow"/>
<feBlend mode="normal" in="SourceGraphic" in2="effect1_dropShadow" result="shape"/>
</filter>
<filter id="filter3_d" x="25" y="93.5642" width="310.246" height="287.727" filterUnits="userSpaceOnUse" color-interpolation-filters="sRGB">
<feFlood flood-opacity="0" result="BackgroundImageFix"/>
<feColorMatrix in="SourceAlpha" type="matrix" values="0 0 0 0 0 0 0 0 0 0 0 0 0 0 0 0 0 0 127 0"/>
<feOffset dx="5" dy="5"/>
<feGaussianBlur stdDeviation="2.5"/>
<feColorMatrix type="matrix" values="0 0 0 0 0 0 0 0 0 0 0 0 0 0 0 0 0 0 0.25 0"/>
<feBlend mode="normal" in2="BackgroundImageFix" result="effect1_dropShadow"/>
<feBlend mode="normal" in="SourceGraphic" in2="effect1_dropShadow" result="shape"/>
</filter>
<filter id="filter4_d" x="264.696" y="15" width="209.163" height="109.581" filterUnits="userSpaceOnUse" color-interpolation-filters="sRGB">
<feFlood flood-opacity="0" result="BackgroundImageFix"/>
<feColorMatrix in="SourceAlpha" type="matrix" values="0 0 0 0 0 0 0 0 0 0 0 0 0 0 0 0 0 0 127 0"/>
<feOffset dx="5" dy="5"/>
<feGaussianBlur stdDeviation="2.5"/>
<feColorMatrix type="matrix" values="0 0 0 0 0 0 0 0 0 0 0 0 0 0 0 0 0 0 0.25 0"/>
<feBlend mode="normal" in2="BackgroundImageFix" result="effect1_dropShadow"/>
<feBlend mode="normal" in="SourceGraphic" in2="effect1_dropShadow" result="shape"/>
</filter>
<linearGradient id="paint0_linear" x1="683.75" y1="-45.25" x2="-247" y2="422.25" gradientUnits="userSpaceOnUse">
<stop stop-color="#004A7C"/>
<stop offset="1" stop-color="#E8F1F5"/>
</linearGradient>
<clipPath id="clip0">
<rect width="600" height="300" fill="white"/>
</clipPath>
</defs>
</svg>
