<svg width="600" height="300" viewBox="0 0 600 300" fill="none" xmlns="http://www.w3.org/2000/svg">
<g clip-path="url(#clip0)">
<rect width="600" height="300" fill="white"/>
<rect width="600" height="300" fill="url(#paint0_linear)"/>
<g filter="url(#filter0_d)">
<path d="M-194 95C-194 92.2386 -191.761 90 -189 90H101C103.761 90 106 92.2386 106 95V235C106 237.761 103.761 240 101 240H-189C-191.761 240 -194 237.761 -194 235V95Z" fill="white"/>
<path d="M-189 90.25H101C103.623 90.25 105.75 92.3766 105.75 95V235C105.75 237.623 103.623 239.75 101 239.75H-189C-191.623 239.75 -193.75 237.623 -193.75 235V95C-193.75 92.3767 -191.623 90.25 -189 90.25Z" stroke="#004A7C" stroke-width="0.5"/>
</g>
<g filter="url(#filter1_d)">
<path d="M-24 106C-24 103.239 -21.7614 101 -19 101H271C273.761 101 276 103.239 276 106V246C276 248.761 273.761 251 271 251H-19C-21.7614 251 -24 248.761 -24 246V106Z" fill="white"/>
<path d="M-19 101.25H271C273.623 101.25 275.75 103.377 275.75 106V246C275.75 248.623 273.623 250.75 271 250.75H-19C-21.6234 250.75 -23.75 248.623 -23.75 246V106C-23.75 103.377 -21.6234 101.25 -19 101.25Z" stroke="#004A7C" stroke-width="0.5"/>
</g>
<g filter="url(#filter2_d)">
<path d="M9 122C9 119.239 11.2386 117 14 117H304C306.761 117 309 119.239 309 122V262C309 264.761 306.761 267 304 267H14C11.2386 267 9 264.761 9 262V122Z" fill="white"/>
<path d="M14 117.25H304C306.623 117.25 308.75 119.377 308.75 122V262C308.75 264.623 306.623 266.75 304 266.75H14C11.3766 266.75 9.25 264.623 9.25 262V122C9.25 119.377 11.3766 117.25 14 117.25Z" stroke="#004A7C" stroke-width="0.5"/>
</g>
<g filter="url(#filter3_d)">
<path d="M24 136C24 133.239 26.2386 131 29 131H319C321.761 131 324 133.239 324 136V276C324 278.761 321.761 281 319 281H29C26.2386 281 24 278.761 24 276V136Z" fill="white"/>
<path d="M29 131.25H319C321.623 131.25 323.75 133.377 323.75 136V276C323.75 278.623 321.623 280.75 319 280.75H29C26.3766 280.75 24.25 278.623 24.25 276V136C24.25 133.377 26.3766 131.25 29 131.25Z" stroke="#004A7C" stroke-width="0.5"/>
</g>
<g filter="url(#filter4_d)">
<path d="M36 147C36 144.239 38.2386 142 41 142H331C333.761 142 336 144.239 336 147V287C336 289.761 333.761 292 331 292H41C38.2386 292 36 289.761 36 287V147Z" fill="white"/>
<path d="M41 142.25H331C333.623 142.25 335.75 144.377 335.75 147V287C335.75 289.623 333.623 291.75 331 291.75H41C38.3766 291.75 36.25 289.623 36.25 287V147C36.25 144.377 38.3766 142.25 41 142.25Z" stroke="#004A7C" stroke-width="0.5"/>
</g>
<g filter="url(#filter5_d)">
<path d="M65 136C65 133.239 67.2386 131 70 131H360C362.761 131 365 133.239 365 136V276C365 278.761 362.761 281 360 281H70C67.2386 281 65 278.761 65 276V136Z" fill="white"/>
<path d="M70 131.25H360C362.623 131.25 364.75 133.377 364.75 136V276C364.75 278.623 362.623 280.75 360 280.75H70C67.3766 280.75 65.25 278.623 65.25 276V136C65.25 133.377 67.3766 131.25 70 131.25Z" stroke="#004A7C" stroke-width="0.5"/>
</g>
<g filter="url(#filter6_d)">
<path d="M87 126C87 123.239 89.2386 121 92 121H382C384.761 121 387 123.239 387 126V266C387 268.761 384.761 271 382 271H92C89.2386 271 87 268.761 87 266V126Z" fill="white"/>
<path d="M92 121.25H382C384.623 121.25 386.75 123.377 386.75 126V266C386.75 268.623 384.623 270.75 382 270.75H92C89.3766 270.75 87.25 268.623 87.25 266V126C87.25 123.377 89.3766 121.25 92 121.25Z" stroke="#004A7C" stroke-width="0.5"/>
</g>
<g filter="url(#filter7_d)">
<path d="M110 112C110 109.239 112.239 107 115 107H405C407.761 107 410 109.239 410 112V252C410 254.761 407.761 257 405 257H115C112.239 257 110 254.761 110 252V112Z" fill="white"/>
<path d="M115 107.25H405C407.623 107.25 409.75 109.377 409.75 112V252C409.75 254.623 407.623 256.75 405 256.75H115C112.377 256.75 110.25 254.623 110.25 252V112C110.25 109.377 112.377 107.25 115 107.25Z" stroke="#004A7C" stroke-width="0.5"/>
</g>
<g filter="url(#filter8_d)">
<path d="M130 93C130 90.2386 132.239 88 135 88H425C427.761 88 430 90.2386 430 93V233C430 235.761 427.761 238 425 238H135C132.239 238 130 235.761 130 233V93Z" fill="white"/>
<path d="M135 88.25H425C427.623 88.25 429.75 90.3766 429.75 93V233C429.75 235.623 427.623 237.75 425 237.75H135C132.377 237.75 130.25 235.623 130.25 233V93C130.25 90.3767 132.377 88.25 135 88.25Z" stroke="#004A7C" stroke-width="0.5"/>
</g>
<g filter="url(#filter9_d)">
<path d="M150 80C150 77.2386 152.239 75 155 75H445C447.761 75 450 77.2386 450 80V220C450 222.761 447.761 225 445 225H155C152.239 225 150 222.761 150 220V80Z" fill="white"/>
<path d="M155 75.25H445C447.623 75.25 449.75 77.3766 449.75 80V220C449.75 222.623 447.623 224.75 445 224.75H155C152.377 224.75 150.25 222.623 150.25 220V80C150.25 77.3767 152.377 75.25 155 75.25Z" stroke="#004A7C" stroke-width="0.5"/>
</g>
<rect x="349.75" y="181.75" width="85" height="28" rx="4.75" fill="#E8F1F5" stroke="#004A7C" stroke-width="0.5"/>
<path d="M387.951 201.12C386.863 201.12 386.015 200.844 385.407 200.292C384.799 199.74 384.479 198.92 384.447 197.832C384.439 197.6 384.435 197.26 384.435 196.812C384.435 196.356 384.439 196.012 384.447 195.78C384.479 194.716 384.807 193.9 385.431 193.332C386.055 192.764 386.895 192.48 387.951 192.48C389.007 192.48 389.847 192.764 390.471 193.332C391.103 193.9 391.435 194.716 391.467 195.78C391.483 196.244 391.491 196.588 391.491 196.812C391.491 197.028 391.483 197.368 391.467 197.832C391.427 198.92 391.103 199.74 390.495 200.292C389.887 200.844 389.039 201.12 387.951 201.12ZM387.951 199.74C388.487 199.74 388.915 199.58 389.235 199.26C389.555 198.932 389.727 198.436 389.751 197.772C389.767 197.292 389.775 196.968 389.775 196.8C389.775 196.616 389.767 196.292 389.751 195.828C389.727 195.164 389.555 194.672 389.235 194.352C388.915 194.024 388.487 193.86 387.951 193.86C387.423 193.86 386.999 194.024 386.679 194.352C386.359 194.672 386.187 195.164 386.163 195.828C386.155 196.06 386.151 196.384 386.151 196.8C386.151 197.208 386.155 197.532 386.163 197.772C386.187 198.436 386.355 198.932 386.667 199.26C386.987 199.58 387.415 199.74 387.951 199.74ZM393.355 201C393.275 201 393.207 200.972 393.151 200.916C393.095 200.86 393.067 200.792 393.067 200.712V192.9C393.067 192.812 393.091 192.74 393.139 192.684C393.195 192.628 393.267 192.6 393.355 192.6H394.411C394.499 192.6 394.571 192.628 394.627 192.684C394.683 192.74 394.711 192.812 394.711 192.9V195.708L397.423 192.816C397.527 192.672 397.683 192.6 397.891 192.6H399.079C399.143 192.6 399.199 192.624 399.247 192.672C399.303 192.72 399.331 192.78 399.331 192.852C399.331 192.908 399.315 192.956 399.283 192.996L395.983 196.62L399.511 200.592C399.551 200.64 399.571 200.692 399.571 200.748C399.571 200.82 399.543 200.88 399.487 200.928C399.439 200.976 399.383 201 399.319 201H398.083C397.883 201 397.727 200.928 397.615 200.784L394.711 197.604V200.712C394.711 200.8 394.683 200.872 394.627 200.928C394.571 200.976 394.499 201 394.411 201H393.355Z" fill="#004A7C"/>
<path d="M176.318 107.18C174.77 107.18 173.57 106.766 172.718 105.938C171.878 105.098 171.458 103.832 171.458 102.14V94.832C171.458 94.7 171.494 94.598 171.566 94.526C171.65 94.442 171.752 94.4 171.872 94.4H172.79C172.922 94.4 173.024 94.442 173.096 94.526C173.18 94.598 173.222 94.7 173.222 94.832V102.176C173.222 103.328 173.492 104.192 174.032 104.768C174.572 105.344 175.334 105.632 176.318 105.632C177.302 105.632 178.064 105.344 178.604 104.768C179.144 104.192 179.414 103.328 179.414 102.176V94.832C179.414 94.7 179.45 94.598 179.522 94.526C179.606 94.442 179.708 94.4 179.828 94.4H180.764C180.884 94.4 180.98 94.442 181.052 94.526C181.136 94.61 181.178 94.712 181.178 94.832V102.14C181.178 103.832 180.752 105.098 179.9 105.938C179.06 106.766 177.866 107.18 176.318 107.18ZM184.385 107C184.265 107 184.163 106.964 184.079 106.892C184.007 106.808 183.971 106.706 183.971 106.586V94.634C183.971 94.514 184.007 94.418 184.079 94.346C184.163 94.262 184.265 94.22 184.385 94.22H185.285C185.405 94.22 185.501 94.262 185.573 94.346C185.657 94.418 185.699 94.514 185.699 94.634V98.828C186.047 98.384 186.455 98.048 186.923 97.82C187.391 97.58 187.973 97.46 188.669 97.46C189.821 97.46 190.715 97.832 191.351 98.576C191.999 99.308 192.323 100.286 192.323 101.51V106.586C192.323 106.706 192.281 106.808 192.197 106.892C192.125 106.964 192.029 107 191.909 107H191.009C190.889 107 190.787 106.964 190.703 106.892C190.631 106.808 190.595 106.706 190.595 106.586V101.6C190.595 100.748 190.385 100.088 189.965 99.62C189.557 99.152 188.963 98.918 188.183 98.918C187.427 98.918 186.821 99.158 186.365 99.638C185.921 100.106 185.699 100.76 185.699 101.6V106.586C185.699 106.706 185.657 106.808 185.573 106.892C185.501 106.964 185.405 107 185.285 107H184.385ZM195.246 102.356C195.126 102.356 195.024 102.32 194.94 102.248C194.868 102.164 194.832 102.062 194.832 101.942V101.258C194.832 101.138 194.868 101.042 194.94 100.97C195.024 100.886 195.126 100.844 195.246 100.844H200.646C200.766 100.844 200.862 100.886 200.934 100.97C201.018 101.042 201.06 101.138 201.06 101.258V101.942C201.06 102.062 201.018 102.164 200.934 102.248C200.862 102.32 200.766 102.356 200.646 102.356H195.246ZM207.475 107.18C206.155 107.18 205.129 106.808 204.397 106.064C203.677 105.32 203.293 104.33 203.245 103.094L203.227 102.32L203.245 101.546C203.293 100.322 203.683 99.338 204.415 98.594C205.147 97.838 206.167 97.46 207.475 97.46C208.783 97.46 209.803 97.838 210.535 98.594C211.267 99.338 211.657 100.322 211.705 101.546C211.717 101.678 211.723 101.936 211.723 102.32C211.723 102.704 211.717 102.962 211.705 103.094C211.657 104.33 211.267 105.32 210.535 106.064C209.815 106.808 208.795 107.18 207.475 107.18ZM207.475 105.794C208.231 105.794 208.825 105.554 209.257 105.074C209.701 104.594 209.941 103.904 209.977 103.004C209.989 102.884 209.995 102.656 209.995 102.32C209.995 101.984 209.989 101.756 209.977 101.636C209.941 100.736 209.701 100.046 209.257 99.566C208.825 99.086 208.231 98.846 207.475 98.846C206.719 98.846 206.119 99.086 205.675 99.566C205.231 100.046 204.997 100.736 204.973 101.636L204.955 102.32L204.973 103.004C204.997 103.904 205.231 104.594 205.675 105.074C206.119 105.554 206.719 105.794 207.475 105.794ZM214.409 107C214.289 107 214.187 106.964 214.103 106.892C214.031 106.808 213.995 106.706 213.995 106.586V94.634C213.995 94.514 214.031 94.418 214.103 94.346C214.187 94.262 214.289 94.22 214.409 94.22H215.309C215.429 94.22 215.525 94.262 215.597 94.346C215.681 94.418 215.723 94.514 215.723 94.634V98.828C216.071 98.384 216.479 98.048 216.947 97.82C217.415 97.58 217.997 97.46 218.693 97.46C219.845 97.46 220.739 97.832 221.375 98.576C222.023 99.308 222.347 100.286 222.347 101.51V106.586C222.347 106.706 222.305 106.808 222.221 106.892C222.149 106.964 222.053 107 221.933 107H221.033C220.913 107 220.811 106.964 220.727 106.892C220.655 106.808 220.619 106.706 220.619 106.586V101.6C220.619 100.748 220.409 100.088 219.989 99.62C219.581 99.152 218.987 98.918 218.207 98.918C217.451 98.918 216.845 99.158 216.389 99.638C215.945 100.106 215.723 100.76 215.723 101.6V106.586C215.723 106.706 215.681 106.808 215.597 106.892C215.525 106.964 215.429 107 215.309 107H214.409ZM225.233 107C225.113 107 225.011 106.964 224.927 106.892C224.855 106.808 224.819 106.706 224.819 106.586V105.29C224.819 105.17 224.855 105.074 224.927 105.002C225.011 104.918 225.113 104.876 225.233 104.876H226.529C226.649 104.876 226.751 104.918 226.835 105.002C226.919 105.074 226.961 105.17 226.961 105.29V106.586C226.961 106.706 226.919 106.808 226.835 106.892C226.751 106.964 226.649 107 226.529 107H225.233ZM229.768 107C229.648 107 229.546 106.964 229.462 106.892C229.39 106.808 229.354 106.706 229.354 106.586V105.29C229.354 105.17 229.39 105.074 229.462 105.002C229.546 104.918 229.648 104.876 229.768 104.876H231.064C231.184 104.876 231.286 104.918 231.37 105.002C231.454 105.074 231.496 105.17 231.496 105.29V106.586C231.496 106.706 231.454 106.808 231.37 106.892C231.286 106.964 231.184 107 231.064 107H229.768ZM234.304 107C234.184 107 234.082 106.964 233.998 106.892C233.926 106.808 233.89 106.706 233.89 106.586V105.29C233.89 105.17 233.926 105.074 233.998 105.002C234.082 104.918 234.184 104.876 234.304 104.876H235.6C235.72 104.876 235.822 104.918 235.906 105.002C235.99 105.074 236.032 105.17 236.032 105.29V106.586C236.032 106.706 235.99 106.808 235.906 106.892C235.822 106.964 235.72 107 235.6 107H234.304ZM238.839 107C238.719 107 238.617 106.964 238.533 106.892C238.461 106.808 238.425 106.706 238.425 106.586V105.29C238.425 105.17 238.461 105.074 238.533 105.002C238.617 104.918 238.719 104.876 238.839 104.876H240.135C240.255 104.876 240.357 104.918 240.441 105.002C240.525 105.074 240.567 105.17 240.567 105.29V106.586C240.567 106.706 240.525 106.808 240.441 106.892C240.357 106.964 240.255 107 240.135 107H238.839Z" fill="#004A7C"/>
<path d="M173.744 127.62C173.08 127.62 172.504 127.516 172.016 127.308C171.536 127.1 171.168 126.828 170.912 126.492C170.656 126.148 170.52 125.78 170.504 125.388C170.504 125.324 170.528 125.268 170.576 125.22C170.632 125.164 170.696 125.136 170.768 125.136H171.38C171.532 125.136 171.636 125.216 171.692 125.376C171.764 125.712 171.968 126 172.304 126.24C172.648 126.48 173.128 126.6 173.744 126.6C174.408 126.6 174.908 126.484 175.244 126.252C175.58 126.012 175.748 125.68 175.748 125.256C175.748 124.984 175.664 124.764 175.496 124.596C175.336 124.428 175.096 124.28 174.776 124.152C174.456 124.024 173.976 123.864 173.336 123.672C172.712 123.496 172.216 123.308 171.848 123.108C171.48 122.908 171.204 122.66 171.02 122.364C170.836 122.068 170.744 121.696 170.744 121.248C170.744 120.816 170.86 120.428 171.092 120.084C171.332 119.74 171.672 119.472 172.112 119.28C172.552 119.08 173.076 118.98 173.684 118.98C174.308 118.98 174.844 119.092 175.292 119.316C175.74 119.532 176.08 119.808 176.312 120.144C176.544 120.48 176.668 120.816 176.684 121.152C176.684 121.216 176.66 121.272 176.612 121.32C176.572 121.368 176.512 121.392 176.432 121.392H175.796C175.628 121.392 175.524 121.316 175.484 121.164C175.436 120.828 175.248 120.552 174.92 120.336C174.592 120.112 174.18 120 173.684 120C173.14 120 172.712 120.104 172.4 120.312C172.088 120.52 171.932 120.828 171.932 121.236C171.932 121.508 172.004 121.732 172.148 121.908C172.3 122.084 172.528 122.24 172.832 122.376C173.136 122.504 173.58 122.652 174.164 122.82C174.844 123.004 175.38 123.196 175.772 123.396C176.164 123.588 176.456 123.832 176.648 124.128C176.84 124.416 176.936 124.784 176.936 125.232C176.936 125.976 176.648 126.56 176.072 126.984C175.496 127.408 174.72 127.62 173.744 127.62ZM180.909 127.62C180.029 127.62 179.345 127.372 178.857 126.876C178.377 126.38 178.121 125.72 178.089 124.896L178.077 124.38L178.089 123.864C178.121 123.048 178.381 122.392 178.869 121.896C179.357 121.392 180.037 121.14 180.909 121.14C181.781 121.14 182.461 121.392 182.949 121.896C183.437 122.392 183.697 123.048 183.729 123.864C183.737 123.952 183.741 124.124 183.741 124.38C183.741 124.636 183.737 124.808 183.729 124.896C183.697 125.72 183.437 126.38 182.949 126.876C182.469 127.372 181.789 127.62 180.909 127.62ZM180.909 126.696C181.413 126.696 181.809 126.536 182.097 126.216C182.393 125.896 182.553 125.436 182.577 124.836C182.585 124.756 182.589 124.604 182.589 124.38C182.589 124.156 182.585 124.004 182.577 123.924C182.553 123.324 182.393 122.864 182.097 122.544C181.809 122.224 181.413 122.064 180.909 122.064C180.405 122.064 180.005 122.224 179.709 122.544C179.413 122.864 179.257 123.324 179.241 123.924L179.229 124.38L179.241 124.836C179.257 125.436 179.413 125.896 179.709 126.216C180.005 126.536 180.405 126.696 180.909 126.696ZM185.519 127.5C185.439 127.5 185.371 127.476 185.315 127.428C185.267 127.372 185.243 127.304 185.243 127.224V121.536C185.243 121.456 185.267 121.392 185.315 121.344C185.371 121.288 185.439 121.26 185.519 121.26H186.059C186.139 121.26 186.203 121.288 186.251 121.344C186.307 121.392 186.335 121.456 186.335 121.536V121.956C186.751 121.412 187.331 121.14 188.075 121.14C188.963 121.14 189.591 121.508 189.959 122.244C190.151 121.908 190.423 121.64 190.775 121.44C191.127 121.24 191.523 121.14 191.963 121.14C192.619 121.14 193.155 121.364 193.571 121.812C193.987 122.26 194.195 122.908 194.195 123.756V127.224C194.195 127.304 194.167 127.372 194.111 127.428C194.063 127.476 193.999 127.5 193.919 127.5H193.355C193.275 127.5 193.207 127.476 193.151 127.428C193.103 127.372 193.079 127.304 193.079 127.224V123.864C193.079 123.24 192.947 122.792 192.683 122.52C192.427 122.248 192.087 122.112 191.663 122.112C191.287 122.112 190.963 122.252 190.691 122.532C190.419 122.804 190.283 123.248 190.283 123.864V127.224C190.283 127.304 190.255 127.372 190.199 127.428C190.151 127.476 190.087 127.5 190.007 127.5H189.443C189.363 127.5 189.295 127.476 189.239 127.428C189.191 127.372 189.167 127.304 189.167 127.224V123.864C189.167 123.24 189.031 122.792 188.759 122.52C188.495 122.248 188.159 122.112 187.751 122.112C187.375 122.112 187.051 122.252 186.779 122.532C186.507 122.804 186.371 123.244 186.371 123.852V127.224C186.371 127.304 186.343 127.372 186.287 127.428C186.239 127.476 186.175 127.5 186.095 127.5H185.519ZM198.404 127.62C197.58 127.62 196.92 127.368 196.424 126.864C195.936 126.352 195.668 125.656 195.62 124.776L195.608 124.368L195.62 123.972C195.676 123.108 195.948 122.42 196.436 121.908C196.932 121.396 197.584 121.14 198.392 121.14C199.28 121.14 199.968 121.424 200.456 121.992C200.944 122.552 201.188 123.312 201.188 124.272V124.476C201.188 124.556 201.16 124.624 201.104 124.68C201.056 124.728 200.992 124.752 200.912 124.752H196.76V124.86C196.784 125.38 196.94 125.824 197.228 126.192C197.524 126.552 197.912 126.732 198.392 126.732C198.76 126.732 199.06 126.66 199.292 126.516C199.532 126.364 199.708 126.208 199.82 126.048C199.892 125.952 199.944 125.896 199.976 125.88C200.016 125.856 200.084 125.844 200.18 125.844H200.768C200.84 125.844 200.9 125.864 200.948 125.904C200.996 125.944 201.02 126 201.02 126.072C201.02 126.248 200.908 126.46 200.684 126.708C200.468 126.956 200.16 127.172 199.76 127.356C199.368 127.532 198.916 127.62 198.404 127.62ZM200.048 123.924V123.888C200.048 123.336 199.896 122.888 199.592 122.544C199.296 122.192 198.896 122.016 198.392 122.016C197.888 122.016 197.488 122.192 197.192 122.544C196.904 122.888 196.76 123.336 196.76 123.888V123.924H200.048ZM205.023 127.5C203.759 127.5 203.127 126.796 203.127 125.388V122.22H202.191C202.111 122.22 202.043 122.196 201.987 122.148C201.939 122.092 201.915 122.024 201.915 121.944V121.536C201.915 121.456 201.939 121.392 201.987 121.344C202.043 121.288 202.111 121.26 202.191 121.26H203.127V119.256C203.127 119.176 203.151 119.112 203.199 119.064C203.255 119.008 203.323 118.98 203.403 118.98H203.967C204.047 118.98 204.111 119.008 204.159 119.064C204.215 119.112 204.243 119.176 204.243 119.256V121.26H205.731C205.811 121.26 205.875 121.288 205.923 121.344C205.979 121.392 206.007 121.456 206.007 121.536V121.944C206.007 122.024 205.979 122.092 205.923 122.148C205.875 122.196 205.811 122.22 205.731 122.22H204.243V125.304C204.243 125.704 204.311 126.008 204.447 126.216C204.583 126.416 204.807 126.516 205.119 126.516H205.851C205.931 126.516 205.995 126.544 206.043 126.6C206.099 126.648 206.127 126.712 206.127 126.792V127.224C206.127 127.304 206.099 127.372 206.043 127.428C205.995 127.476 205.931 127.5 205.851 127.5H205.023ZM207.563 127.5C207.483 127.5 207.415 127.476 207.359 127.428C207.311 127.372 207.287 127.304 207.287 127.224V119.256C207.287 119.176 207.311 119.112 207.359 119.064C207.415 119.008 207.483 118.98 207.563 118.98H208.163C208.243 118.98 208.307 119.008 208.355 119.064C208.411 119.112 208.439 119.176 208.439 119.256V122.052C208.671 121.756 208.943 121.532 209.255 121.38C209.567 121.22 209.955 121.14 210.419 121.14C211.187 121.14 211.783 121.388 212.207 121.884C212.639 122.372 212.855 123.024 212.855 123.84V127.224C212.855 127.304 212.827 127.372 212.771 127.428C212.723 127.476 212.659 127.5 212.579 127.5H211.979C211.899 127.5 211.831 127.476 211.775 127.428C211.727 127.372 211.703 127.304 211.703 127.224V123.9C211.703 123.332 211.563 122.892 211.283 122.58C211.011 122.268 210.615 122.112 210.095 122.112C209.591 122.112 209.187 122.272 208.883 122.592C208.587 122.904 208.439 123.34 208.439 123.9V127.224C208.439 127.304 208.411 127.372 208.355 127.428C208.307 127.476 208.243 127.5 208.163 127.5H207.563ZM214.767 120.096C214.687 120.096 214.619 120.072 214.563 120.024C214.515 119.968 214.491 119.9 214.491 119.82V119.172C214.491 119.092 214.515 119.024 214.563 118.968C214.619 118.912 214.687 118.884 214.767 118.884H215.523C215.603 118.884 215.671 118.912 215.727 118.968C215.783 119.024 215.811 119.092 215.811 119.172V119.82C215.811 119.9 215.783 119.968 215.727 120.024C215.671 120.072 215.603 120.096 215.523 120.096H214.767ZM214.863 127.5C214.783 127.5 214.715 127.476 214.659 127.428C214.611 127.372 214.587 127.304 214.587 127.224V121.536C214.587 121.456 214.611 121.392 214.659 121.344C214.715 121.288 214.783 121.26 214.863 121.26H215.439C215.519 121.26 215.583 121.288 215.631 121.344C215.687 121.392 215.715 121.456 215.715 121.536V127.224C215.715 127.304 215.687 127.372 215.631 127.428C215.583 127.476 215.519 127.5 215.439 127.5H214.863ZM217.769 127.5C217.689 127.5 217.621 127.476 217.565 127.428C217.517 127.372 217.493 127.304 217.493 127.224V121.536C217.493 121.456 217.517 121.392 217.565 121.344C217.621 121.288 217.689 121.26 217.769 121.26H218.333C218.413 121.26 218.477 121.288 218.525 121.344C218.581 121.392 218.609 121.456 218.609 121.536V122.064C218.841 121.768 219.113 121.54 219.425 121.38C219.745 121.22 220.141 121.14 220.613 121.14C221.381 121.14 221.977 121.388 222.401 121.884C222.833 122.372 223.049 123.024 223.049 123.84V127.224C223.049 127.304 223.021 127.372 222.965 127.428C222.917 127.476 222.853 127.5 222.773 127.5H222.173C222.093 127.5 222.025 127.476 221.969 127.428C221.921 127.372 221.897 127.304 221.897 127.224V123.9C221.897 123.332 221.757 122.892 221.477 122.58C221.205 122.268 220.809 122.112 220.289 122.112C219.785 122.112 219.385 122.272 219.089 122.592C218.793 122.904 218.645 123.34 218.645 123.9V127.224C218.645 127.304 218.617 127.372 218.561 127.428C218.513 127.476 218.449 127.5 218.369 127.5H217.769ZM227.327 130.14C226.671 130.14 226.143 130.028 225.743 129.804C225.343 129.588 225.059 129.34 224.891 129.06C224.723 128.78 224.631 128.528 224.615 128.304C224.607 128.224 224.631 128.156 224.687 128.1C224.751 128.044 224.819 128.016 224.891 128.016H225.467C225.539 128.016 225.599 128.032 225.647 128.064C225.695 128.104 225.735 128.172 225.767 128.268C225.863 128.524 226.019 128.744 226.235 128.928C226.459 129.12 226.803 129.216 227.267 129.216C227.859 129.216 228.295 129.088 228.575 128.832C228.855 128.584 228.995 128.14 228.995 127.5V126.684C228.787 126.948 228.523 127.16 228.203 127.32C227.883 127.472 227.503 127.548 227.063 127.548C226.215 127.548 225.579 127.28 225.155 126.744C224.739 126.2 224.519 125.512 224.495 124.68L224.483 124.344L224.495 124.02C224.519 123.196 224.743 122.512 225.167 121.968C225.591 121.416 226.223 121.14 227.063 121.14C227.903 121.14 228.559 121.448 229.031 122.064V121.548C229.031 121.468 229.055 121.4 229.103 121.344C229.159 121.288 229.227 121.26 229.307 121.26H229.859C229.939 121.26 230.007 121.288 230.063 121.344C230.119 121.4 230.147 121.468 230.147 121.548V127.368C230.147 129.216 229.207 130.14 227.327 130.14ZM227.303 126.588C227.847 126.588 228.259 126.408 228.539 126.048C228.819 125.688 228.971 125.26 228.995 124.764C229.003 124.692 229.007 124.552 229.007 124.344C229.007 124.144 229.003 124.008 228.995 123.936C228.971 123.44 228.819 123.012 228.539 122.652C228.267 122.292 227.855 122.112 227.303 122.112C226.735 122.112 226.323 122.288 226.067 122.64C225.811 122.992 225.671 123.456 225.647 124.032L225.635 124.344L225.647 124.668C225.671 125.236 225.811 125.7 226.067 126.06C226.323 126.412 226.735 126.588 227.303 126.588ZM236.247 127.5C236.143 127.5 236.063 127.476 236.007 127.428C235.951 127.38 235.903 127.304 235.863 127.2L234.159 121.632L234.135 121.512C234.135 121.44 234.159 121.38 234.207 121.332C234.263 121.284 234.323 121.26 234.387 121.26H234.915C234.995 121.26 235.059 121.284 235.107 121.332C235.163 121.372 235.199 121.416 235.215 121.464L236.547 125.988L237.975 121.512C237.991 121.448 238.027 121.392 238.083 121.344C238.139 121.288 238.215 121.26 238.311 121.26H238.719C238.815 121.26 238.891 121.288 238.947 121.344C239.003 121.392 239.039 121.448 239.055 121.512L240.483 125.988L241.815 121.464C241.823 121.424 241.851 121.38 241.899 121.332C241.955 121.284 242.023 121.26 242.103 121.26H242.643C242.707 121.26 242.763 121.284 242.811 121.332C242.859 121.38 242.883 121.44 242.883 121.512L242.859 121.632L241.167 127.2C241.127 127.304 241.079 127.38 241.023 127.428C240.967 127.476 240.883 127.5 240.771 127.5H240.303C240.087 127.5 239.955 127.4 239.907 127.2L238.515 122.904L237.123 127.2C237.059 127.4 236.923 127.5 236.715 127.5H236.247ZM246.544 127.62C245.72 127.62 245.06 127.368 244.564 126.864C244.076 126.352 243.808 125.656 243.76 124.776L243.748 124.368L243.76 123.972C243.816 123.108 244.088 122.42 244.576 121.908C245.072 121.396 245.724 121.14 246.532 121.14C247.42 121.14 248.108 121.424 248.596 121.992C249.084 122.552 249.328 123.312 249.328 124.272V124.476C249.328 124.556 249.3 124.624 249.244 124.68C249.196 124.728 249.132 124.752 249.052 124.752H244.9V124.86C244.924 125.38 245.08 125.824 245.368 126.192C245.664 126.552 246.052 126.732 246.532 126.732C246.9 126.732 247.2 126.66 247.432 126.516C247.672 126.364 247.848 126.208 247.96 126.048C248.032 125.952 248.084 125.896 248.116 125.88C248.156 125.856 248.224 125.844 248.32 125.844H248.908C248.98 125.844 249.04 125.864 249.088 125.904C249.136 125.944 249.16 126 249.16 126.072C249.16 126.248 249.048 126.46 248.824 126.708C248.608 126.956 248.3 127.172 247.9 127.356C247.508 127.532 247.056 127.62 246.544 127.62ZM248.188 123.924V123.888C248.188 123.336 248.036 122.888 247.732 122.544C247.436 122.192 247.036 122.016 246.532 122.016C246.028 122.016 245.628 122.192 245.332 122.544C245.044 122.888 244.9 123.336 244.9 123.888V123.924H248.188ZM251.039 127.5C250.959 127.5 250.891 127.476 250.835 127.428C250.787 127.372 250.763 127.304 250.763 127.224V121.536C250.763 121.456 250.787 121.392 250.835 121.344C250.891 121.288 250.959 121.26 251.039 121.26H251.603C251.683 121.26 251.747 121.288 251.795 121.344C251.851 121.392 251.879 121.456 251.879 121.536V122.064C252.111 121.768 252.383 121.54 252.695 121.38C253.015 121.22 253.411 121.14 253.883 121.14C254.651 121.14 255.247 121.388 255.671 121.884C256.103 122.372 256.319 123.024 256.319 123.84V127.224C256.319 127.304 256.291 127.372 256.235 127.428C256.187 127.476 256.123 127.5 256.043 127.5H255.443C255.363 127.5 255.295 127.476 255.239 127.428C255.191 127.372 255.167 127.304 255.167 127.224V123.9C255.167 123.332 255.027 122.892 254.747 122.58C254.475 122.268 254.079 122.112 253.559 122.112C253.055 122.112 252.655 122.272 252.359 122.592C252.063 122.904 251.915 123.34 251.915 123.9V127.224C251.915 127.304 251.887 127.372 251.831 127.428C251.783 127.476 251.719 127.5 251.639 127.5H251.039ZM260.394 127.5C259.13 127.5 258.498 126.796 258.498 125.388V122.22H257.562C257.482 122.22 257.414 122.196 257.358 122.148C257.31 122.092 257.286 122.024 257.286 121.944V121.536C257.286 121.456 257.31 121.392 257.358 121.344C257.414 121.288 257.482 121.26 257.562 121.26H258.498V119.256C258.498 119.176 258.522 119.112 258.57 119.064C258.626 119.008 258.694 118.98 258.774 118.98H259.338C259.418 118.98 259.482 119.008 259.53 119.064C259.586 119.112 259.614 119.176 259.614 119.256V121.26H261.102C261.182 121.26 261.246 121.288 261.294 121.344C261.35 121.392 261.378 121.456 261.378 121.536V121.944C261.378 122.024 261.35 122.092 261.294 122.148C261.246 122.196 261.182 122.22 261.102 122.22H259.614V125.304C259.614 125.704 259.682 126.008 259.818 126.216C259.954 126.416 260.178 126.516 260.49 126.516H261.222C261.302 126.516 261.366 126.544 261.414 126.6C261.47 126.648 261.498 126.712 261.498 126.792V127.224C261.498 127.304 261.47 127.372 261.414 127.428C261.366 127.476 261.302 127.5 261.222 127.5H260.394ZM266.962 127.5C266.858 127.5 266.778 127.476 266.722 127.428C266.666 127.38 266.618 127.304 266.578 127.2L264.874 121.632L264.85 121.512C264.85 121.44 264.874 121.38 264.922 121.332C264.978 121.284 265.038 121.26 265.102 121.26H265.63C265.71 121.26 265.774 121.284 265.822 121.332C265.878 121.372 265.914 121.416 265.93 121.464L267.262 125.988L268.69 121.512C268.706 121.448 268.742 121.392 268.798 121.344C268.854 121.288 268.93 121.26 269.026 121.26H269.434C269.53 121.26 269.606 121.288 269.662 121.344C269.718 121.392 269.754 121.448 269.77 121.512L271.198 125.988L272.53 121.464C272.538 121.424 272.566 121.38 272.614 121.332C272.67 121.284 272.738 121.26 272.818 121.26H273.358C273.422 121.26 273.478 121.284 273.526 121.332C273.574 121.38 273.598 121.44 273.598 121.512L273.574 121.632L271.882 127.2C271.842 127.304 271.794 127.38 271.738 127.428C271.682 127.476 271.598 127.5 271.486 127.5H271.018C270.802 127.5 270.67 127.4 270.622 127.2L269.23 122.904L267.838 127.2C267.774 127.4 267.638 127.5 267.43 127.5H266.962ZM275.203 127.5C275.123 127.5 275.055 127.476 274.999 127.428C274.951 127.372 274.927 127.304 274.927 127.224V121.548C274.927 121.468 274.951 121.4 274.999 121.344C275.055 121.288 275.123 121.26 275.203 121.26H275.755C275.835 121.26 275.903 121.288 275.959 121.344C276.015 121.4 276.043 121.468 276.043 121.548V122.076C276.371 121.532 276.931 121.26 277.723 121.26H278.191C278.271 121.26 278.335 121.288 278.383 121.344C278.439 121.392 278.467 121.456 278.467 121.536V122.028C278.467 122.108 278.439 122.172 278.383 122.22C278.335 122.268 278.271 122.292 278.191 122.292H277.471C277.039 122.292 276.699 122.42 276.451 122.676C276.203 122.924 276.079 123.264 276.079 123.696V127.224C276.079 127.304 276.051 127.372 275.995 127.428C275.939 127.476 275.871 127.5 275.791 127.5H275.203ZM281.924 127.62C281.044 127.62 280.36 127.372 279.872 126.876C279.392 126.38 279.136 125.72 279.104 124.896L279.092 124.38L279.104 123.864C279.136 123.048 279.396 122.392 279.884 121.896C280.372 121.392 281.052 121.14 281.924 121.14C282.796 121.14 283.476 121.392 283.964 121.896C284.452 122.392 284.712 123.048 284.744 123.864C284.752 123.952 284.756 124.124 284.756 124.38C284.756 124.636 284.752 124.808 284.744 124.896C284.712 125.72 284.452 126.38 283.964 126.876C283.484 127.372 282.804 127.62 281.924 127.62ZM281.924 126.696C282.428 126.696 282.824 126.536 283.112 126.216C283.408 125.896 283.568 125.436 283.592 124.836C283.6 124.756 283.604 124.604 283.604 124.38C283.604 124.156 283.6 124.004 283.592 123.924C283.568 123.324 283.408 122.864 283.112 122.544C282.824 122.224 282.428 122.064 281.924 122.064C281.42 122.064 281.02 122.224 280.724 122.544C280.428 122.864 280.272 123.324 280.256 123.924L280.244 124.38L280.256 124.836C280.272 125.436 280.428 125.896 280.724 126.216C281.02 126.536 281.42 126.696 281.924 126.696ZM286.535 127.5C286.455 127.5 286.387 127.476 286.331 127.428C286.283 127.372 286.259 127.304 286.259 127.224V121.536C286.259 121.456 286.283 121.392 286.331 121.344C286.387 121.288 286.455 121.26 286.535 121.26H287.099C287.179 121.26 287.243 121.288 287.291 121.344C287.347 121.392 287.375 121.456 287.375 121.536V122.064C287.607 121.768 287.879 121.54 288.191 121.38C288.511 121.22 288.907 121.14 289.379 121.14C290.147 121.14 290.743 121.388 291.167 121.884C291.599 122.372 291.815 123.024 291.815 123.84V127.224C291.815 127.304 291.787 127.372 291.731 127.428C291.683 127.476 291.619 127.5 291.539 127.5H290.939C290.859 127.5 290.791 127.476 290.735 127.428C290.687 127.372 290.663 127.304 290.663 127.224V123.9C290.663 123.332 290.523 122.892 290.243 122.58C289.971 122.268 289.575 122.112 289.055 122.112C288.551 122.112 288.151 122.272 287.855 122.592C287.559 122.904 287.411 123.34 287.411 123.9V127.224C287.411 127.304 287.383 127.372 287.327 127.428C287.279 127.476 287.215 127.5 287.135 127.5H286.535ZM296.092 130.14C295.436 130.14 294.908 130.028 294.508 129.804C294.108 129.588 293.824 129.34 293.656 129.06C293.488 128.78 293.396 128.528 293.38 128.304C293.372 128.224 293.396 128.156 293.452 128.1C293.516 128.044 293.584 128.016 293.656 128.016H294.232C294.304 128.016 294.364 128.032 294.412 128.064C294.46 128.104 294.5 128.172 294.532 128.268C294.628 128.524 294.784 128.744 295 128.928C295.224 129.12 295.568 129.216 296.032 129.216C296.624 129.216 297.06 129.088 297.34 128.832C297.62 128.584 297.76 128.14 297.76 127.5V126.684C297.552 126.948 297.288 127.16 296.968 127.32C296.648 127.472 296.268 127.548 295.828 127.548C294.98 127.548 294.344 127.28 293.92 126.744C293.504 126.2 293.284 125.512 293.26 124.68L293.248 124.344L293.26 124.02C293.284 123.196 293.508 122.512 293.932 121.968C294.356 121.416 294.988 121.14 295.828 121.14C296.668 121.14 297.324 121.448 297.796 122.064V121.548C297.796 121.468 297.82 121.4 297.868 121.344C297.924 121.288 297.992 121.26 298.072 121.26H298.624C298.704 121.26 298.772 121.288 298.828 121.344C298.884 121.4 298.912 121.468 298.912 121.548V127.368C298.912 129.216 297.972 130.14 296.092 130.14ZM296.068 126.588C296.612 126.588 297.024 126.408 297.304 126.048C297.584 125.688 297.736 125.26 297.76 124.764C297.768 124.692 297.772 124.552 297.772 124.344C297.772 124.144 297.768 124.008 297.76 123.936C297.736 123.44 297.584 123.012 297.304 122.652C297.032 122.292 296.62 122.112 296.068 122.112C295.5 122.112 295.088 122.288 294.832 122.64C294.576 122.992 294.436 123.456 294.412 124.032L294.4 124.344L294.412 124.668C294.436 125.236 294.576 125.7 294.832 126.06C295.088 126.412 295.5 126.588 296.068 126.588ZM300.889 127.5C300.809 127.5 300.741 127.476 300.685 127.428C300.637 127.372 300.613 127.304 300.613 127.224V126.36C300.613 126.28 300.637 126.216 300.685 126.168C300.741 126.112 300.809 126.084 300.889 126.084H301.753C301.833 126.084 301.901 126.112 301.957 126.168C302.013 126.216 302.041 126.28 302.041 126.36V127.224C302.041 127.304 302.013 127.372 301.957 127.428C301.901 127.476 301.833 127.5 301.753 127.5H300.889Z" fill="#004A7C"/>
</g>
<defs>
<filter id="filter0_d" x="-194" y="90" width="310" height="160" filterUnits="userSpaceOnUse" color-interpolation-filters="sRGB">
<feFlood flood-opacity="0" result="BackgroundImageFix"/>
<feColorMatrix in="SourceAlpha" type="matrix" values="0 0 0 0 0 0 0 0 0 0 0 0 0 0 0 0 0 0 127 0"/>
<feOffset dx="5" dy="5"/>
<feGaussianBlur stdDeviation="2.5"/>
<feColorMatrix type="matrix" values="0 0 0 0 0 0 0 0 0 0 0 0 0 0 0 0 0 0 0.1 0"/>
<feBlend mode="normal" in2="BackgroundImageFix" result="effect1_dropShadow"/>
<feBlend mode="normal" in="SourceGraphic" in2="effect1_dropShadow" result="shape"/>
</filter>
<filter id="filter1_d" x="-24" y="101" width="310" height="160" filterUnits="userSpaceOnUse" color-interpolation-filters="sRGB">
<feFlood flood-opacity="0" result="BackgroundImageFix"/>
<feColorMatrix in="SourceAlpha" type="matrix" values="0 0 0 0 0 0 0 0 0 0 0 0 0 0 0 0 0 0 127 0"/>
<feOffset dx="5" dy="5"/>
<feGaussianBlur stdDeviation="2.5"/>
<feColorMatrix type="matrix" values="0 0 0 0 0 0 0 0 0 0 0 0 0 0 0 0 0 0 0.1 0"/>
<feBlend mode="normal" in2="BackgroundImageFix" result="effect1_dropShadow"/>
<feBlend mode="normal" in="SourceGraphic" in2="effect1_dropShadow" result="shape"/>
</filter>
<filter id="filter2_d" x="9" y="117" width="310" height="160" filterUnits="userSpaceOnUse" color-interpolation-filters="sRGB">
<feFlood flood-opacity="0" result="BackgroundImageFix"/>
<feColorMatrix in="SourceAlpha" type="matrix" values="0 0 0 0 0 0 0 0 0 0 0 0 0 0 0 0 0 0 127 0"/>
<feOffset dx="5" dy="5"/>
<feGaussianBlur stdDeviation="2.5"/>
<feColorMatrix type="matrix" values="0 0 0 0 0 0 0 0 0 0 0 0 0 0 0 0 0 0 0.1 0"/>
<feBlend mode="normal" in2="BackgroundImageFix" result="effect1_dropShadow"/>
<feBlend mode="normal" in="SourceGraphic" in2="effect1_dropShadow" result="shape"/>
</filter>
<filter id="filter3_d" x="24" y="131" width="310" height="160" filterUnits="userSpaceOnUse" color-interpolation-filters="sRGB">
<feFlood flood-opacity="0" result="BackgroundImageFix"/>
<feColorMatrix in="SourceAlpha" type="matrix" values="0 0 0 0 0 0 0 0 0 0 0 0 0 0 0 0 0 0 127 0"/>
<feOffset dx="5" dy="5"/>
<feGaussianBlur stdDeviation="2.5"/>
<feColorMatrix type="matrix" values="0 0 0 0 0 0 0 0 0 0 0 0 0 0 0 0 0 0 0.1 0"/>
<feBlend mode="normal" in2="BackgroundImageFix" result="effect1_dropShadow"/>
<feBlend mode="normal" in="SourceGraphic" in2="effect1_dropShadow" result="shape"/>
</filter>
<filter id="filter4_d" x="36" y="142" width="310" height="160" filterUnits="userSpaceOnUse" color-interpolation-filters="sRGB">
<feFlood flood-opacity="0" result="BackgroundImageFix"/>
<feColorMatrix in="SourceAlpha" type="matrix" values="0 0 0 0 0 0 0 0 0 0 0 0 0 0 0 0 0 0 127 0"/>
<feOffset dx="5" dy="5"/>
<feGaussianBlur stdDeviation="2.5"/>
<feColorMatrix type="matrix" values="0 0 0 0 0 0 0 0 0 0 0 0 0 0 0 0 0 0 0.1 0"/>
<feBlend mode="normal" in2="BackgroundImageFix" result="effect1_dropShadow"/>
<feBlend mode="normal" in="SourceGraphic" in2="effect1_dropShadow" result="shape"/>
</filter>
<filter id="filter5_d" x="65" y="131" width="310" height="160" filterUnits="userSpaceOnUse" color-interpolation-filters="sRGB">
<feFlood flood-opacity="0" result="BackgroundImageFix"/>
<feColorMatrix in="SourceAlpha" type="matrix" values="0 0 0 0 0 0 0 0 0 0 0 0 0 0 0 0 0 0 127 0"/>
<feOffset dx="5" dy="5"/>
<feGaussianBlur stdDeviation="2.5"/>
<feColorMatrix type="matrix" values="0 0 0 0 0 0 0 0 0 0 0 0 0 0 0 0 0 0 0.1 0"/>
<feBlend mode="normal" in2="BackgroundImageFix" result="effect1_dropShadow"/>
<feBlend mode="normal" in="SourceGraphic" in2="effect1_dropShadow" result="shape"/>
</filter>
<filter id="filter6_d" x="87" y="121" width="310" height="160" filterUnits="userSpaceOnUse" color-interpolation-filters="sRGB">
<feFlood flood-opacity="0" result="BackgroundImageFix"/>
<feColorMatrix in="SourceAlpha" type="matrix" values="0 0 0 0 0 0 0 0 0 0 0 0 0 0 0 0 0 0 127 0"/>
<feOffset dx="5" dy="5"/>
<feGaussianBlur stdDeviation="2.5"/>
<feColorMatrix type="matrix" values="0 0 0 0 0 0 0 0 0 0 0 0 0 0 0 0 0 0 0.1 0"/>
<feBlend mode="normal" in2="BackgroundImageFix" result="effect1_dropShadow"/>
<feBlend mode="normal" in="SourceGraphic" in2="effect1_dropShadow" result="shape"/>
</filter>
<filter id="filter7_d" x="110" y="107" width="310" height="160" filterUnits="userSpaceOnUse" color-interpolation-filters="sRGB">
<feFlood flood-opacity="0" result="BackgroundImageFix"/>
<feColorMatrix in="SourceAlpha" type="matrix" values="0 0 0 0 0 0 0 0 0 0 0 0 0 0 0 0 0 0 127 0"/>
<feOffset dx="5" dy="5"/>
<feGaussianBlur stdDeviation="2.5"/>
<feColorMatrix type="matrix" values="0 0 0 0 0 0 0 0 0 0 0 0 0 0 0 0 0 0 0.1 0"/>
<feBlend mode="normal" in2="BackgroundImageFix" result="effect1_dropShadow"/>
<feBlend mode="normal" in="SourceGraphic" in2="effect1_dropShadow" result="shape"/>
</filter>
<filter id="filter8_d" x="130" y="88" width="310" height="160" filterUnits="userSpaceOnUse" color-interpolation-filters="sRGB">
<feFlood flood-opacity="0" result="BackgroundImageFix"/>
<feColorMatrix in="SourceAlpha" type="matrix" values="0 0 0 0 0 0 0 0 0 0 0 0 0 0 0 0 0 0 127 0"/>
<feOffset dx="5" dy="5"/>
<feGaussianBlur stdDeviation="2.5"/>
<feColorMatrix type="matrix" values="0 0 0 0 0 0 0 0 0 0 0 0 0 0 0 0 0 0 0.1 0"/>
<feBlend mode="normal" in2="BackgroundImageFix" result="effect1_dropShadow"/>
<feBlend mode="normal" in="SourceGraphic" in2="effect1_dropShadow" result="shape"/>
</filter>
<filter id="filter9_d" x="150" y="75" width="310" height="160" filterUnits="userSpaceOnUse" color-interpolation-filters="sRGB">
<feFlood flood-opacity="0" result="BackgroundImageFix"/>
<feColorMatrix in="SourceAlpha" type="matrix" values="0 0 0 0 0 0 0 0 0 0 0 0 0 0 0 0 0 0 127 0"/>
<feOffset dx="5" dy="5"/>
<feGaussianBlur stdDeviation="2.5"/>
<feColorMatrix type="matrix" values="0 0 0 0 0 0 0 0 0 0 0 0 0 0 0 0 0 0 0.1 0"/>
<feBlend mode="normal" in2="BackgroundImageFix" result="effect1_dropShadow"/>
<feBlend mode="normal" in="SourceGraphic" in2="effect1_dropShadow" result="shape"/>
</filter>
<linearGradient id="paint0_linear" x1="683.75" y1="-45.25" x2="-247" y2="422.25" gradientUnits="userSpaceOnUse">
<stop stop-color="#004A7C"/>
<stop offset="1" stop-color="#E8F1F5"/>
</linearGradient>
<clipPath id="clip0">
<rect width="600" height="300" fill="white"/>
</clipPath>
</defs>
</svg>
