<svg width="800" height="400" viewBox="0 0 800 400" fill="none" xmlns="http://www.w3.org/2000/svg">
<rect width="800" height="400" fill="#E8F1F5"/>
<g filter="url(#filter0_d)">
<path d="M206 58C206 55.2386 208.239 53 211 53H588C590.761 53 593 55.2386 593 58V345.202H206V58Z" fill="white"/>
</g>
<path d="M206 55C206 53.8954 206.895 53 208 53H591C592.105 53 593 53.8954 593 55V66.3833H206V55Z" fill="#40434E"/>
<rect x="206" y="66.3833" width="387" height="22.3055" fill="#E5E5E5"/>
<rect x="268.455" y="70.8444" width="178.444" height="13.3833" rx="2" fill="white"/>
<circle cx="215.182" cy="59.9512" r="3.60541" fill="white"/>
<ellipse cx="226.479" cy="59.9512" rx="3.84577" ry="3.60541" fill="white"/>
<ellipse cx="237.535" cy="59.9512" rx="3.84577" ry="3.60541" fill="white"/>
<path d="M253.957 55C253.957 53.8954 254.852 53 255.957 53H326.68C327.785 53 328.68 53.8954 328.68 55V66.3833H253.957V55Z" fill="#E5E5E5"/>
<rect x="217.402" y="100.091" width="364.195" height="21.8055" rx="1.75" fill="#1F702B" fill-opacity="0.2" stroke="#1F702B" stroke-width="0.5"/>
<path d="M374.491 110.673L378.221 108.143V108.933L375.211 110.963V111.003L378.221 113.033V113.823L374.491 111.293V110.673ZM380.007 107.293H381.477V109.013L381.397 109.963C381.497 109.869 381.604 109.779 381.717 109.693C381.837 109.599 381.964 109.519 382.097 109.453C382.237 109.379 382.387 109.323 382.547 109.283C382.714 109.243 382.89 109.223 383.077 109.223C383.637 109.223 384.044 109.403 384.297 109.763C384.557 110.123 384.687 110.616 384.687 111.243V114.303H383.217V111.433C383.217 111.099 383.164 110.856 383.057 110.703C382.95 110.549 382.76 110.473 382.487 110.473C382.287 110.473 382.11 110.516 381.957 110.603C381.81 110.689 381.65 110.819 381.477 110.993V114.303H380.007V107.293ZM385.833 111.823C385.833 111.416 385.903 111.053 386.043 110.733C386.19 110.413 386.383 110.143 386.623 109.923C386.863 109.696 387.137 109.523 387.443 109.403C387.757 109.283 388.08 109.223 388.413 109.223C388.793 109.223 389.13 109.283 389.423 109.403C389.717 109.523 389.96 109.689 390.153 109.903C390.347 110.116 390.493 110.369 390.593 110.663C390.693 110.949 390.743 111.263 390.743 111.603C390.743 111.736 390.737 111.863 390.723 111.983C390.71 112.103 390.697 112.193 390.683 112.253H387.343C387.397 112.626 387.557 112.896 387.823 113.063C388.097 113.223 388.417 113.303 388.783 113.303C389.01 113.303 389.223 113.276 389.423 113.223C389.63 113.163 389.843 113.076 390.063 112.963L390.543 113.843C390.263 114.023 389.95 114.166 389.603 114.273C389.257 114.373 388.917 114.423 388.583 114.423C388.197 114.423 387.837 114.366 387.503 114.253C387.17 114.133 386.88 113.963 386.633 113.743C386.387 113.516 386.19 113.243 386.043 112.923C385.903 112.603 385.833 112.236 385.833 111.823ZM389.413 111.283C389.413 111.003 389.337 110.776 389.183 110.603C389.03 110.429 388.783 110.343 388.443 110.343C388.177 110.343 387.94 110.419 387.733 110.573C387.527 110.726 387.39 110.963 387.323 111.283H389.413ZM391.889 112.923C391.889 112.643 391.949 112.399 392.069 112.193C392.189 111.979 392.379 111.799 392.639 111.653C392.906 111.506 393.246 111.389 393.659 111.303C394.073 111.209 394.573 111.146 395.159 111.113C395.133 110.886 395.033 110.709 394.859 110.583C394.693 110.456 394.439 110.393 394.099 110.393C393.859 110.393 393.616 110.436 393.369 110.523C393.129 110.603 392.869 110.713 392.589 110.853L392.069 109.893C392.409 109.699 392.773 109.539 393.159 109.413C393.553 109.286 393.963 109.223 394.389 109.223C395.083 109.223 395.629 109.406 396.029 109.773C396.429 110.139 396.629 110.703 396.629 111.463V114.303H395.429L395.319 113.743H395.279C395.026 113.936 394.749 114.099 394.449 114.233C394.149 114.359 393.839 114.423 393.519 114.423C393.266 114.423 393.039 114.383 392.839 114.303C392.639 114.229 392.469 114.126 392.329 113.993C392.189 113.853 392.079 113.693 391.999 113.513C391.926 113.333 391.889 113.136 391.889 112.923ZM393.299 112.813C393.299 112.973 393.359 113.093 393.479 113.173C393.606 113.246 393.776 113.283 393.989 113.283C394.209 113.283 394.416 113.239 394.609 113.153C394.803 113.059 394.986 112.946 395.159 112.813V111.993C394.793 112.013 394.489 112.046 394.249 112.093C394.009 112.139 393.819 112.199 393.679 112.273C393.539 112.339 393.439 112.419 393.379 112.513C393.326 112.606 393.299 112.706 393.299 112.813ZM397.745 111.823C397.745 111.416 397.805 111.053 397.925 110.733C398.045 110.413 398.202 110.143 398.395 109.923C398.595 109.696 398.822 109.523 399.075 109.403C399.329 109.283 399.592 109.223 399.865 109.223C400.152 109.223 400.392 109.273 400.585 109.373C400.779 109.466 400.962 109.593 401.135 109.753L401.085 108.983V107.293H402.555V114.303H401.355L401.245 113.793H401.215C401.029 113.973 400.815 114.123 400.575 114.243C400.335 114.363 400.089 114.423 399.835 114.423C399.522 114.423 399.235 114.363 398.975 114.243C398.722 114.123 398.502 113.953 398.315 113.733C398.135 113.506 397.995 113.233 397.895 112.913C397.795 112.593 397.745 112.229 397.745 111.823ZM399.255 111.803C399.255 112.296 399.339 112.656 399.505 112.883C399.672 113.109 399.909 113.223 400.215 113.223C400.382 113.223 400.535 113.189 400.675 113.123C400.815 113.049 400.952 112.929 401.085 112.763V110.753C400.952 110.633 400.815 110.549 400.675 110.503C400.542 110.449 400.402 110.423 400.255 110.423C399.982 110.423 399.745 110.536 399.545 110.763C399.352 110.989 399.255 111.336 399.255 111.803ZM403.821 111.823C403.821 111.416 403.891 111.053 404.031 110.733C404.178 110.413 404.371 110.143 404.611 109.923C404.851 109.696 405.125 109.523 405.431 109.403C405.745 109.283 406.068 109.223 406.401 109.223C406.781 109.223 407.118 109.283 407.411 109.403C407.705 109.523 407.948 109.689 408.141 109.903C408.335 110.116 408.481 110.369 408.581 110.663C408.681 110.949 408.731 111.263 408.731 111.603C408.731 111.736 408.725 111.863 408.711 111.983C408.698 112.103 408.685 112.193 408.671 112.253H405.331C405.385 112.626 405.545 112.896 405.811 113.063C406.085 113.223 406.405 113.303 406.771 113.303C406.998 113.303 407.211 113.276 407.411 113.223C407.618 113.163 407.831 113.076 408.051 112.963L408.531 113.843C408.251 114.023 407.938 114.166 407.591 114.273C407.245 114.373 406.905 114.423 406.571 114.423C406.185 114.423 405.825 114.366 405.491 114.253C405.158 114.133 404.868 113.963 404.621 113.743C404.375 113.516 404.178 113.243 404.031 112.923C403.891 112.603 403.821 112.236 403.821 111.823ZM407.401 111.283C407.401 111.003 407.325 110.776 407.171 110.603C407.018 110.429 406.771 110.343 406.431 110.343C406.165 110.343 405.928 110.419 405.721 110.573C405.515 110.726 405.378 110.963 405.311 111.283H407.401ZM410.428 109.343H411.628L411.748 110.423H411.778C412.024 110.016 412.321 109.716 412.668 109.523C413.014 109.323 413.388 109.223 413.788 109.223C414.008 109.223 414.184 109.239 414.318 109.273C414.458 109.306 414.601 109.356 414.748 109.423L414.448 110.653C414.294 110.606 414.154 110.573 414.028 110.553C413.908 110.526 413.754 110.513 413.568 110.513C413.261 110.513 412.958 110.603 412.658 110.783C412.364 110.963 412.111 111.276 411.898 111.723V114.303H410.428V109.343ZM420.064 111.293L416.334 113.823V113.033L419.344 111.003V110.963L416.334 108.933V108.143L420.064 110.673V111.293Z" fill="#1F702B"/>
<rect x="292.127" y="133.55" width="288.356" height="166.791" rx="1.75" fill="#1F702B" fill-opacity="0.2" stroke="#1F702B" stroke-width="0.5"/>
<path d="M420.074 145.246L423.804 142.716V143.506L420.794 145.536V145.576L423.804 147.606V148.396L420.074 145.866V145.246ZM425.23 143.916H426.33L426.44 144.536H426.48C426.573 144.329 426.7 144.156 426.86 144.016C427.027 143.869 427.253 143.796 427.54 143.796C427.76 143.796 427.943 143.866 428.09 144.006C428.243 144.139 428.35 144.339 428.41 144.606C428.503 144.379 428.637 144.189 428.81 144.036C428.99 143.876 429.22 143.796 429.5 143.796C429.847 143.796 430.117 143.939 430.31 144.226C430.503 144.506 430.6 144.896 430.6 145.396V148.876H429.22V145.506C429.22 145.199 429.127 145.046 428.94 145.046C428.76 145.046 428.607 145.206 428.48 145.526V148.876H427.35V145.506C427.35 145.199 427.253 145.046 427.06 145.046C426.967 145.046 426.887 145.086 426.82 145.166C426.753 145.246 426.683 145.366 426.61 145.526V148.876H425.23V143.916ZM431.476 147.496C431.476 147.216 431.536 146.973 431.656 146.766C431.776 146.553 431.966 146.373 432.226 146.226C432.493 146.079 432.833 145.963 433.246 145.876C433.659 145.783 434.159 145.719 434.746 145.686C434.719 145.459 434.619 145.283 434.446 145.156C434.279 145.029 434.026 144.966 433.686 144.966C433.446 144.966 433.203 145.009 432.956 145.096C432.716 145.176 432.456 145.286 432.176 145.426L431.656 144.466C431.996 144.273 432.359 144.113 432.746 143.986C433.139 143.859 433.549 143.796 433.976 143.796C434.669 143.796 435.216 143.979 435.616 144.346C436.016 144.713 436.216 145.276 436.216 146.036V148.876H435.016L434.906 148.316H434.866C434.613 148.509 434.336 148.673 434.036 148.806C433.736 148.933 433.426 148.996 433.106 148.996C432.853 148.996 432.626 148.956 432.426 148.876C432.226 148.803 432.056 148.699 431.916 148.566C431.776 148.426 431.666 148.266 431.586 148.086C431.513 147.906 431.476 147.709 431.476 147.496ZM432.886 147.386C432.886 147.546 432.946 147.666 433.066 147.746C433.193 147.819 433.363 147.856 433.576 147.856C433.796 147.856 434.003 147.813 434.196 147.726C434.389 147.633 434.573 147.519 434.746 147.386V146.566C434.379 146.586 434.076 146.619 433.836 146.666C433.596 146.713 433.406 146.773 433.266 146.846C433.126 146.913 433.026 146.993 432.966 147.086C432.913 147.179 432.886 147.279 432.886 147.386ZM437.652 143.916H441.112V148.876H439.642V145.066H437.652V143.916ZM440.312 143.186C440.025 143.186 439.789 143.106 439.602 142.946C439.422 142.786 439.332 142.569 439.332 142.296C439.332 142.023 439.422 141.803 439.602 141.636C439.789 141.463 440.025 141.376 440.312 141.376C440.599 141.376 440.832 141.463 441.012 141.636C441.199 141.803 441.292 142.023 441.292 142.296C441.292 142.569 441.199 142.786 441.012 142.946C440.832 143.106 440.599 143.186 440.312 143.186ZM443.578 143.916H444.778L444.888 144.576H444.928C445.141 144.363 445.385 144.179 445.658 144.026C445.938 143.873 446.265 143.796 446.638 143.796C447.198 143.796 447.608 143.976 447.868 144.336C448.128 144.696 448.258 145.189 448.258 145.816V148.876H446.788V146.006C446.788 145.673 446.735 145.429 446.628 145.276C446.521 145.123 446.331 145.046 446.058 145.046C445.858 145.046 445.681 145.089 445.528 145.176C445.381 145.263 445.221 145.393 445.048 145.566V148.876H443.578V143.916ZM453.654 145.866L449.924 148.396V147.606L452.934 145.576V145.536L449.924 143.506V142.716L453.654 145.246V145.866Z" fill="#1F702B"/>
<rect x="217.402" y="311.994" width="364.195" height="21.8055" rx="1.75" fill="#1F702B" fill-opacity="0.2" stroke="#1F702B" stroke-width="0.5"/>
<path d="M376.158 322.575L379.888 320.045V320.835L376.878 322.865V322.905L379.888 324.935V325.725L376.158 323.195V322.575ZM386.524 320.425C386.197 320.298 385.851 320.235 385.484 320.235C385.164 320.235 384.927 320.305 384.774 320.445C384.627 320.585 384.554 320.805 384.554 321.105V321.245H386.264V322.395H384.554V326.205H383.084V322.395H381.774V321.305L383.084 321.245V321.115C383.084 320.828 383.127 320.561 383.214 320.315C383.301 320.068 383.434 319.855 383.614 319.675C383.794 319.488 384.024 319.341 384.304 319.235C384.584 319.128 384.917 319.075 385.304 319.075C385.591 319.075 385.857 319.101 386.104 319.155C386.357 319.208 386.591 319.271 386.804 319.345L386.524 320.425ZM387.42 323.725C387.42 323.311 387.49 322.945 387.63 322.625C387.77 322.298 387.957 322.025 388.19 321.805C388.43 321.585 388.7 321.418 389 321.305C389.307 321.185 389.624 321.125 389.95 321.125C390.277 321.125 390.59 321.185 390.89 321.305C391.197 321.418 391.467 321.585 391.7 321.805C391.94 322.025 392.13 322.298 392.27 322.625C392.41 322.945 392.48 323.311 392.48 323.725C392.48 324.138 392.41 324.508 392.27 324.835C392.13 325.155 391.94 325.425 391.7 325.645C391.467 325.865 391.197 326.035 390.89 326.155C390.59 326.268 390.277 326.325 389.95 326.325C389.624 326.325 389.307 326.268 389 326.155C388.7 326.035 388.43 325.865 388.19 325.645C387.957 325.425 387.77 325.155 387.63 324.835C387.49 324.508 387.42 324.138 387.42 323.725ZM388.93 323.725C388.93 324.158 389.014 324.501 389.18 324.755C389.354 325.008 389.61 325.135 389.95 325.135C390.29 325.135 390.544 325.008 390.71 324.755C390.884 324.501 390.97 324.158 390.97 323.725C390.97 323.291 390.884 322.948 390.71 322.695C390.544 322.441 390.29 322.315 389.95 322.315C389.61 322.315 389.354 322.441 389.18 322.695C389.014 322.948 388.93 323.291 388.93 323.725ZM393.416 323.725C393.416 323.311 393.486 322.945 393.626 322.625C393.766 322.298 393.953 322.025 394.186 321.805C394.426 321.585 394.696 321.418 394.996 321.305C395.303 321.185 395.62 321.125 395.946 321.125C396.273 321.125 396.586 321.185 396.886 321.305C397.193 321.418 397.463 321.585 397.696 321.805C397.936 322.025 398.126 322.298 398.266 322.625C398.406 322.945 398.476 323.311 398.476 323.725C398.476 324.138 398.406 324.508 398.266 324.835C398.126 325.155 397.936 325.425 397.696 325.645C397.463 325.865 397.193 326.035 396.886 326.155C396.586 326.268 396.273 326.325 395.946 326.325C395.62 326.325 395.303 326.268 394.996 326.155C394.696 326.035 394.426 325.865 394.186 325.645C393.953 325.425 393.766 325.155 393.626 324.835C393.486 324.508 393.416 324.138 393.416 323.725ZM394.926 323.725C394.926 324.158 395.01 324.501 395.176 324.755C395.35 325.008 395.606 325.135 395.946 325.135C396.286 325.135 396.54 325.008 396.706 324.755C396.88 324.501 396.966 324.158 396.966 323.725C396.966 323.291 396.88 322.948 396.706 322.695C396.54 322.441 396.286 322.315 395.946 322.315C395.606 322.315 395.35 322.441 395.176 322.695C395.01 322.948 394.926 323.291 394.926 323.725ZM400.682 322.395H399.432V321.305L400.752 321.245L400.942 319.925H402.152V321.245H404.252V322.395H402.152V324.135C402.152 324.515 402.236 324.785 402.402 324.945C402.569 325.098 402.832 325.175 403.192 325.175C403.386 325.175 403.562 325.158 403.722 325.125C403.882 325.091 404.036 325.048 404.182 324.995L404.442 326.055C404.222 326.121 403.976 326.181 403.702 326.235C403.436 326.295 403.142 326.325 402.822 326.325C402.429 326.325 402.096 326.271 401.822 326.165C401.549 326.058 401.326 325.911 401.152 325.725C400.986 325.531 400.866 325.301 400.792 325.035C400.719 324.768 400.682 324.471 400.682 324.145V322.395ZM405.488 323.725C405.488 323.318 405.558 322.955 405.698 322.635C405.845 322.315 406.038 322.045 406.278 321.825C406.518 321.598 406.792 321.425 407.098 321.305C407.412 321.185 407.735 321.125 408.068 321.125C408.448 321.125 408.785 321.185 409.078 321.305C409.372 321.425 409.615 321.591 409.808 321.805C410.002 322.018 410.148 322.271 410.248 322.565C410.348 322.851 410.398 323.165 410.398 323.505C410.398 323.638 410.392 323.765 410.378 323.885C410.365 324.005 410.352 324.095 410.338 324.155H406.998C407.052 324.528 407.212 324.798 407.478 324.965C407.752 325.125 408.072 325.205 408.438 325.205C408.665 325.205 408.878 325.178 409.078 325.125C409.285 325.065 409.498 324.978 409.718 324.865L410.198 325.745C409.918 325.925 409.605 326.068 409.258 326.175C408.912 326.275 408.572 326.325 408.238 326.325C407.852 326.325 407.492 326.268 407.158 326.155C406.825 326.035 406.535 325.865 406.288 325.645C406.042 325.418 405.845 325.145 405.698 324.825C405.558 324.505 405.488 324.138 405.488 323.725ZM409.068 323.185C409.068 322.905 408.992 322.678 408.838 322.505C408.685 322.331 408.438 322.245 408.098 322.245C407.832 322.245 407.595 322.321 407.388 322.475C407.182 322.628 407.045 322.865 406.978 323.185H409.068ZM412.095 321.245H413.295L413.415 322.325H413.445C413.691 321.918 413.988 321.618 414.335 321.425C414.681 321.225 415.055 321.125 415.455 321.125C415.675 321.125 415.851 321.141 415.985 321.175C416.125 321.208 416.268 321.258 416.415 321.325L416.115 322.555C415.961 322.508 415.821 322.475 415.695 322.455C415.575 322.428 415.421 322.415 415.235 322.415C414.928 322.415 414.625 322.505 414.325 322.685C414.031 322.865 413.778 323.178 413.565 323.625V326.205H412.095V321.245ZM421.731 323.195L418.001 325.725V324.935L421.011 322.905V322.865L418.001 320.835V320.045L421.731 322.575V323.195Z" fill="#1F702B"/>
<rect x="217.402" y="133.55" width="63.0706" height="103.22" rx="1.75" fill="#1F702B" fill-opacity="0.2" stroke="#1F702B" stroke-width="0.5"/>
<path d="M234.589 145.246L238.319 142.716V143.506L235.309 145.536V145.576L238.319 147.606V148.396L234.589 145.866V145.246ZM240.105 143.916H241.305L241.415 144.576H241.455C241.669 144.363 241.912 144.179 242.185 144.026C242.465 143.873 242.792 143.796 243.165 143.796C243.725 143.796 244.135 143.976 244.395 144.336C244.655 144.696 244.785 145.189 244.785 145.816V148.876H243.315V146.006C243.315 145.673 243.262 145.429 243.155 145.276C243.049 145.123 242.859 145.046 242.585 145.046C242.385 145.046 242.209 145.089 242.055 145.176C241.909 145.263 241.749 145.393 241.575 145.566V148.876H240.105V143.916ZM245.991 147.496C245.991 147.216 246.051 146.973 246.171 146.766C246.291 146.553 246.481 146.373 246.741 146.226C247.008 146.079 247.348 145.963 247.761 145.876C248.175 145.783 248.675 145.719 249.261 145.686C249.235 145.459 249.135 145.283 248.961 145.156C248.795 145.029 248.541 144.966 248.201 144.966C247.961 144.966 247.718 145.009 247.471 145.096C247.231 145.176 246.971 145.286 246.691 145.426L246.171 144.466C246.511 144.273 246.875 144.113 247.261 143.986C247.655 143.859 248.065 143.796 248.491 143.796C249.185 143.796 249.731 143.979 250.131 144.346C250.531 144.713 250.731 145.276 250.731 146.036V148.876H249.531L249.421 148.316H249.381C249.128 148.509 248.851 148.673 248.551 148.806C248.251 148.933 247.941 148.996 247.621 148.996C247.368 148.996 247.141 148.956 246.941 148.876C246.741 148.803 246.571 148.699 246.431 148.566C246.291 148.426 246.181 148.266 246.101 148.086C246.028 147.906 245.991 147.709 245.991 147.496ZM247.401 147.386C247.401 147.546 247.461 147.666 247.581 147.746C247.708 147.819 247.878 147.856 248.091 147.856C248.311 147.856 248.518 147.813 248.711 147.726C248.905 147.633 249.088 147.519 249.261 147.386V146.566C248.895 146.586 248.591 146.619 248.351 146.666C248.111 146.713 247.921 146.773 247.781 146.846C247.641 146.913 247.541 146.993 247.481 147.086C247.428 147.179 247.401 147.279 247.401 147.386ZM251.688 143.916H253.168L253.948 146.256C254.028 146.509 254.104 146.763 254.178 147.016C254.251 147.269 254.324 147.526 254.398 147.786H254.438C254.511 147.526 254.581 147.269 254.648 147.016C254.721 146.763 254.798 146.509 254.878 146.256L255.658 143.916H257.068L255.248 148.876H253.558L251.688 143.916ZM262.174 145.866L258.444 148.396V147.606L261.454 145.576V145.536L258.444 143.506V142.716L262.174 145.246V145.866Z" fill="#1F702B"/>
<defs>
<filter id="filter0_d" x="205" y="52" width="391" height="296.202" filterUnits="userSpaceOnUse" color-interpolation-filters="sRGB">
<feFlood flood-opacity="0" result="BackgroundImageFix"/>
<feColorMatrix in="SourceAlpha" type="matrix" values="0 0 0 0 0 0 0 0 0 0 0 0 0 0 0 0 0 0 127 0"/>
<feOffset dx="1" dy="1"/>
<feGaussianBlur stdDeviation="1"/>
<feColorMatrix type="matrix" values="0 0 0 0 0 0 0 0 0 0 0 0 0 0 0 0 0 0 0.25 0"/>
<feBlend mode="normal" in2="BackgroundImageFix" result="effect1_dropShadow"/>
<feBlend mode="normal" in="SourceGraphic" in2="effect1_dropShadow" result="shape"/>
</filter>
</defs>
</svg>
