<svg width="800" height="400" viewBox="0 0 800 400" fill="none" xmlns="http://www.w3.org/2000/svg">
<rect width="800" height="400" fill="#E8F1F5"/>
<rect x="415.893" y="342.607" width="10" height="40" transform="rotate(45 415.893 342.607)" fill="#1F702B"/>
<rect x="377" y="360.284" width="10" height="25" transform="rotate(-45 377 360.284)" fill="#1F702B"/>
<g filter="url(#filter0_d)">
<path d="M206 35C206 32.2386 208.239 30 211 30H588C590.761 30 593 32.2386 593 35V322H206V35Z" fill="white"/>
</g>
<path d="M206 32C206 30.8954 206.895 30 208 30H591C592.105 30 593 30.8954 593 32V43H206V32Z" fill="#40434E"/>
<rect x="206" y="43" width="387" height="22" fill="#E5E5E5"/>
<rect x="268" y="48" width="179" height="13" rx="2" fill="white"/>
<circle cx="215.5" cy="36.5" r="3.5" fill="white"/>
<circle cx="226.5" cy="36.5" r="3.5" fill="white"/>
<circle cx="237.5" cy="36.5" r="3.5" fill="white"/>
<path d="M254 32C254 30.8954 254.895 30 256 30H327C328.105 30 329 30.8954 329 32V43H254V32Z" fill="#E5E5E5"/>
<rect x="217.402" y="76.8898" width="364.195" height="21.8055" rx="1.75" fill="white" stroke="#004A7C" stroke-width="0.5"/>
<path d="M372.261 87.4709L375.991 84.9409V85.7309L372.981 87.7609V87.8009L375.991 89.8309V90.6209L372.261 88.0909V87.4709ZM377.777 84.0909H379.247V85.8109L379.167 86.7609C379.267 86.6675 379.373 86.5775 379.487 86.4909C379.607 86.3975 379.733 86.3175 379.867 86.2509C380.007 86.1775 380.157 86.1209 380.317 86.0809C380.483 86.0409 380.66 86.0209 380.847 86.0209C381.407 86.0209 381.813 86.2009 382.067 86.5609C382.327 86.9209 382.457 87.4142 382.457 88.0409V91.1009H380.987V88.2309C380.987 87.8975 380.933 87.6542 380.827 87.5009C380.72 87.3475 380.53 87.2709 380.257 87.2709C380.057 87.2709 379.88 87.3142 379.727 87.4009C379.58 87.4875 379.42 87.6175 379.247 87.7909V91.1009H377.777V84.0909ZM383.603 88.6209C383.603 88.2142 383.673 87.8509 383.813 87.5309C383.959 87.2109 384.153 86.9409 384.393 86.7209C384.633 86.4942 384.906 86.3209 385.213 86.2009C385.526 86.0809 385.849 86.0209 386.183 86.0209C386.563 86.0209 386.899 86.0809 387.193 86.2009C387.486 86.3209 387.729 86.4875 387.923 86.7009C388.116 86.9142 388.263 87.1675 388.363 87.4609C388.463 87.7475 388.513 88.0609 388.513 88.4009C388.513 88.5342 388.506 88.6609 388.493 88.7809C388.479 88.9009 388.466 88.9909 388.453 89.0509H385.113C385.166 89.4242 385.326 89.6942 385.593 89.8609C385.866 90.0209 386.186 90.1009 386.553 90.1009C386.779 90.1009 386.993 90.0742 387.193 90.0209C387.399 89.9609 387.613 89.8742 387.833 89.7609L388.313 90.6409C388.033 90.8209 387.719 90.9642 387.373 91.0709C387.026 91.1709 386.686 91.2209 386.353 91.2209C385.966 91.2209 385.606 91.1642 385.273 91.0509C384.939 90.9309 384.649 90.7609 384.403 90.5409C384.156 90.3142 383.959 90.0409 383.813 89.7209C383.673 89.4009 383.603 89.0342 383.603 88.6209ZM387.183 88.0809C387.183 87.8009 387.106 87.5742 386.953 87.4009C386.799 87.2275 386.553 87.1409 386.213 87.1409C385.946 87.1409 385.709 87.2175 385.503 87.3709C385.296 87.5242 385.159 87.7609 385.093 88.0809H387.183ZM389.659 89.7209C389.659 89.4409 389.719 89.1975 389.839 88.9909C389.959 88.7775 390.149 88.5975 390.409 88.4509C390.675 88.3042 391.015 88.1875 391.429 88.1009C391.842 88.0075 392.342 87.9442 392.929 87.9109C392.902 87.6842 392.802 87.5075 392.629 87.3809C392.462 87.2542 392.209 87.1909 391.869 87.1909C391.629 87.1909 391.385 87.2342 391.139 87.3209C390.899 87.4009 390.639 87.5109 390.359 87.6509L389.839 86.6909C390.179 86.4975 390.542 86.3375 390.929 86.2109C391.322 86.0842 391.732 86.0209 392.159 86.0209C392.852 86.0209 393.399 86.2042 393.799 86.5709C394.199 86.9375 394.399 87.5009 394.399 88.2609V91.1009H393.199L393.089 90.5409H393.049C392.795 90.7342 392.519 90.8975 392.219 91.0309C391.919 91.1575 391.609 91.2209 391.289 91.2209C391.035 91.2209 390.809 91.1809 390.609 91.1009C390.409 91.0275 390.239 90.9242 390.099 90.7909C389.959 90.6509 389.849 90.4909 389.769 90.3109C389.695 90.1309 389.659 89.9342 389.659 89.7209ZM391.069 89.6109C391.069 89.7709 391.129 89.8909 391.249 89.9709C391.375 90.0442 391.545 90.0809 391.759 90.0809C391.979 90.0809 392.185 90.0375 392.379 89.9509C392.572 89.8575 392.755 89.7442 392.929 89.6109V88.7909C392.562 88.8109 392.259 88.8442 392.019 88.8909C391.779 88.9375 391.589 88.9975 391.449 89.0709C391.309 89.1375 391.209 89.2175 391.149 89.3109C391.095 89.4042 391.069 89.5042 391.069 89.6109ZM395.515 88.6209C395.515 88.2142 395.575 87.8509 395.695 87.5309C395.815 87.2109 395.972 86.9409 396.165 86.7209C396.365 86.4942 396.592 86.3209 396.845 86.2009C397.098 86.0809 397.362 86.0209 397.635 86.0209C397.922 86.0209 398.162 86.0709 398.355 86.1709C398.548 86.2642 398.732 86.3909 398.905 86.5509L398.855 85.7809V84.0909H400.325V91.1009H399.125L399.015 90.5909H398.985C398.798 90.7709 398.585 90.9209 398.345 91.0409C398.105 91.1609 397.858 91.2209 397.605 91.2209C397.292 91.2209 397.005 91.1609 396.745 91.0409C396.492 90.9209 396.272 90.7509 396.085 90.5309C395.905 90.3042 395.765 90.0309 395.665 89.7109C395.565 89.3909 395.515 89.0275 395.515 88.6209ZM397.025 88.6009C397.025 89.0942 397.108 89.4542 397.275 89.6809C397.442 89.9075 397.678 90.0209 397.985 90.0209C398.152 90.0209 398.305 89.9875 398.445 89.9209C398.585 89.8475 398.722 89.7275 398.855 89.5609V87.5509C398.722 87.4309 398.585 87.3475 398.445 87.3009C398.312 87.2475 398.172 87.2209 398.025 87.2209C397.752 87.2209 397.515 87.3342 397.315 87.5609C397.122 87.7875 397.025 88.1342 397.025 88.6009ZM401.591 88.6209C401.591 88.2142 401.661 87.8509 401.801 87.5309C401.948 87.2109 402.141 86.9409 402.381 86.7209C402.621 86.4942 402.894 86.3209 403.201 86.2009C403.514 86.0809 403.838 86.0209 404.171 86.0209C404.551 86.0209 404.888 86.0809 405.181 86.2009C405.474 86.3209 405.718 86.4875 405.911 86.7009C406.104 86.9142 406.251 87.1675 406.351 87.4609C406.451 87.7475 406.501 88.0609 406.501 88.4009C406.501 88.5342 406.494 88.6609 406.481 88.7809C406.468 88.9009 406.454 88.9909 406.441 89.0509H403.101C403.154 89.4242 403.314 89.6942 403.581 89.8609C403.854 90.0209 404.174 90.1009 404.541 90.1009C404.768 90.1009 404.981 90.0742 405.181 90.0209C405.388 89.9609 405.601 89.8742 405.821 89.7609L406.301 90.6409C406.021 90.8209 405.708 90.9642 405.361 91.0709C405.014 91.1709 404.674 91.2209 404.341 91.2209C403.954 91.2209 403.594 91.1642 403.261 91.0509C402.928 90.9309 402.638 90.7609 402.391 90.5409C402.144 90.3142 401.948 90.0409 401.801 89.7209C401.661 89.4009 401.591 89.0342 401.591 88.6209ZM405.171 88.0809C405.171 87.8009 405.094 87.5742 404.941 87.4009C404.788 87.2275 404.541 87.1409 404.201 87.1409C403.934 87.1409 403.698 87.2175 403.491 87.3709C403.284 87.5242 403.148 87.7609 403.081 88.0809H405.171ZM408.197 86.1409H409.397L409.517 87.2209H409.547C409.794 86.8142 410.09 86.5142 410.437 86.3209C410.784 86.1209 411.157 86.0209 411.557 86.0209C411.777 86.0209 411.954 86.0375 412.087 86.0709C412.227 86.1042 412.37 86.1542 412.517 86.2209L412.217 87.4509C412.064 87.4042 411.924 87.3709 411.797 87.3509C411.677 87.3242 411.524 87.3109 411.337 87.3109C411.03 87.3109 410.727 87.4009 410.427 87.5809C410.134 87.7609 409.88 88.0742 409.667 88.5209V91.1009H408.197V86.1409ZM417.833 88.0909L414.103 90.6209V89.8309L417.113 87.8009V87.7609L414.103 85.7309V84.9409L417.833 87.4709V88.0909Z" fill="#004A7C"/>
<rect x="292.127" y="110.348" width="288.356" height="166.791" rx="1.75" fill="white" stroke="#004A7C" stroke-width="0.5"/>
<path d="M420.058 122.044L423.788 119.514V120.304L420.778 122.334V122.374L423.788 124.404V125.194L420.058 122.664V122.044ZM425.214 120.714H426.314L426.424 121.334H426.464C426.558 121.128 426.684 120.954 426.844 120.814C427.011 120.668 427.238 120.594 427.524 120.594C427.744 120.594 427.928 120.664 428.074 120.804C428.228 120.938 428.334 121.138 428.394 121.404C428.488 121.178 428.621 120.988 428.794 120.834C428.974 120.674 429.204 120.594 429.484 120.594C429.831 120.594 430.101 120.738 430.294 121.024C430.488 121.304 430.584 121.694 430.584 122.194V125.674H429.204V122.304C429.204 121.998 429.111 121.844 428.924 121.844C428.744 121.844 428.591 122.004 428.464 122.324V125.674H427.334V122.304C427.334 121.998 427.238 121.844 427.044 121.844C426.951 121.844 426.871 121.884 426.804 121.964C426.738 122.044 426.668 122.164 426.594 122.324V125.674H425.214V120.714ZM431.46 124.294C431.46 124.014 431.52 123.771 431.64 123.564C431.76 123.351 431.95 123.171 432.21 123.024C432.477 122.878 432.817 122.761 433.23 122.674C433.644 122.581 434.144 122.518 434.73 122.484C434.704 122.258 434.604 122.081 434.43 121.954C434.264 121.828 434.01 121.764 433.67 121.764C433.43 121.764 433.187 121.808 432.94 121.894C432.7 121.974 432.44 122.084 432.16 122.224L431.64 121.264C431.98 121.071 432.344 120.911 432.73 120.784C433.124 120.658 433.534 120.594 433.96 120.594C434.654 120.594 435.2 120.778 435.6 121.144C436 121.511 436.2 122.074 436.2 122.834V125.674H435L434.89 125.114H434.85C434.597 125.308 434.32 125.471 434.02 125.604C433.72 125.731 433.41 125.794 433.09 125.794C432.837 125.794 432.61 125.754 432.41 125.674C432.21 125.601 432.04 125.498 431.9 125.364C431.76 125.224 431.65 125.064 431.57 124.884C431.497 124.704 431.46 124.508 431.46 124.294ZM432.87 124.184C432.87 124.344 432.93 124.464 433.05 124.544C433.177 124.618 433.347 124.654 433.56 124.654C433.78 124.654 433.987 124.611 434.18 124.524C434.374 124.431 434.557 124.318 434.73 124.184V123.364C434.364 123.384 434.06 123.418 433.82 123.464C433.58 123.511 433.39 123.571 433.25 123.644C433.11 123.711 433.01 123.791 432.95 123.884C432.897 123.978 432.87 124.078 432.87 124.184ZM437.636 120.714H441.096V125.674H439.626V121.864H437.636V120.714ZM440.296 119.984C440.01 119.984 439.773 119.904 439.586 119.744C439.406 119.584 439.316 119.368 439.316 119.094C439.316 118.821 439.406 118.601 439.586 118.434C439.773 118.261 440.01 118.174 440.296 118.174C440.583 118.174 440.816 118.261 440.996 118.434C441.183 118.601 441.276 118.821 441.276 119.094C441.276 119.368 441.183 119.584 440.996 119.744C440.816 119.904 440.583 119.984 440.296 119.984ZM443.563 120.714H444.763L444.873 121.374H444.913C445.126 121.161 445.369 120.978 445.643 120.824C445.923 120.671 446.249 120.594 446.623 120.594C447.183 120.594 447.593 120.774 447.853 121.134C448.113 121.494 448.243 121.988 448.243 122.614V125.674H446.773V122.804C446.773 122.471 446.719 122.228 446.613 122.074C446.506 121.921 446.316 121.844 446.043 121.844C445.843 121.844 445.666 121.888 445.513 121.974C445.366 122.061 445.206 122.191 445.033 122.364V125.674H443.563V120.714ZM453.639 122.664L449.909 125.194V124.404L452.919 122.374V122.334L449.909 120.304V119.514L453.639 122.044V122.664Z" fill="#004A7C"/>
<rect x="304.25" y="136.25" width="263.5" height="18.5" rx="1.75" fill="white" stroke="#004A7C" stroke-width="0.5"/>
<path d="M310.292 144.35L314.022 141.82V142.61L311.012 144.64V144.68L314.022 146.71V147.5L310.292 144.97V144.35ZM315.808 140.97H317.278V142.69L317.198 143.64C317.298 143.546 317.405 143.456 317.518 143.37C317.638 143.276 317.765 143.196 317.898 143.13C318.038 143.056 318.188 143 318.348 142.96C318.515 142.92 318.691 142.9 318.878 142.9C319.438 142.9 319.845 143.08 320.098 143.44C320.358 143.8 320.488 144.293 320.488 144.92V147.98H319.018V145.11C319.018 144.776 318.965 144.533 318.858 144.38C318.751 144.226 318.561 144.15 318.288 144.15C318.088 144.15 317.911 144.193 317.758 144.28C317.611 144.366 317.451 144.496 317.278 144.67V147.98H315.808V140.97ZM326.454 146.79V147.98H321.904V146.79H323.544V143.12H322.234V142.21C322.607 142.143 322.924 142.063 323.184 141.97C323.451 141.876 323.701 141.763 323.934 141.63H325.014V146.79H326.454ZM331.88 144.97L328.15 147.5V146.71L331.16 144.68V144.64L328.15 142.61V141.82L331.88 144.35V144.97Z" fill="#004A7C"/>
<rect x="304.25" y="214.25" width="263.5" height="18.5" rx="1.75" fill="white" stroke="#004A7C" stroke-width="0.5"/>
<path d="M310.284 222.419L314.014 219.889V220.679L311.004 222.709V222.749L314.014 224.779V225.569L310.284 223.039V222.419ZM315.8 219.039H317.27V220.759L317.19 221.709C317.29 221.616 317.397 221.526 317.51 221.439C317.63 221.346 317.757 221.266 317.89 221.199C318.03 221.126 318.18 221.069 318.34 221.029C318.507 220.989 318.683 220.969 318.87 220.969C319.43 220.969 319.837 221.149 320.09 221.509C320.35 221.869 320.48 222.362 320.48 222.989V226.049H319.01V223.179C319.01 222.846 318.957 222.602 318.85 222.449C318.743 222.296 318.553 222.219 318.28 222.219C318.08 222.219 317.903 222.262 317.75 222.349C317.603 222.436 317.443 222.566 317.27 222.739V226.049H315.8V219.039ZM321.656 225.209C322.11 224.829 322.523 224.476 322.896 224.149C323.27 223.816 323.59 223.506 323.856 223.219C324.123 222.932 324.33 222.662 324.476 222.409C324.623 222.156 324.696 221.916 324.696 221.689C324.696 221.376 324.606 221.139 324.426 220.979C324.246 220.812 323.99 220.729 323.656 220.729C323.403 220.729 323.17 220.796 322.956 220.929C322.75 221.056 322.556 221.206 322.376 221.379L321.586 220.589C321.753 220.422 321.916 220.276 322.076 220.149C322.243 220.022 322.416 219.919 322.596 219.839C322.783 219.752 322.976 219.689 323.176 219.649C323.383 219.602 323.61 219.579 323.856 219.579C324.19 219.579 324.493 219.629 324.766 219.729C325.04 219.822 325.273 219.959 325.466 220.139C325.666 220.312 325.82 220.522 325.926 220.769C326.04 221.016 326.096 221.292 326.096 221.599C326.096 221.866 326.033 222.139 325.906 222.419C325.78 222.692 325.606 222.969 325.386 223.249C325.173 223.522 324.926 223.799 324.646 224.079C324.366 224.352 324.073 224.622 323.766 224.889C323.946 224.869 324.14 224.852 324.346 224.839C324.56 224.819 324.75 224.809 324.916 224.809H326.426V226.049H321.656V225.209ZM331.872 223.039L328.142 225.569V224.779L331.152 222.749V222.709L328.142 220.679V219.889L331.872 222.419V223.039Z" fill="#004A7C"/>
<rect x="304.418" y="160.535" width="263.772" height="47.4568" rx="1.75" fill="white" stroke="#004A7C" stroke-width="0.5"/>
<path d="M310.284 168.886L314.014 166.356V167.146L311.004 169.176V169.216L314.014 171.246V172.036L310.284 169.506V168.886ZM317.27 172.906V174.356H315.8V167.556H317L317.11 168.056H317.14C317.34 167.876 317.57 167.729 317.83 167.616C318.09 167.496 318.353 167.436 318.62 167.436C318.927 167.436 319.203 167.496 319.45 167.616C319.697 167.736 319.907 167.906 320.08 168.126C320.253 168.346 320.383 168.613 320.47 168.926C320.563 169.233 320.61 169.576 320.61 169.956C320.61 170.383 320.55 170.763 320.43 171.096C320.31 171.423 320.15 171.703 319.95 171.936C319.75 172.163 319.52 172.336 319.26 172.456C319.007 172.576 318.74 172.636 318.46 172.636C318.007 172.636 317.593 172.456 317.22 172.096L317.27 172.906ZM317.27 171.106C317.41 171.226 317.553 171.313 317.7 171.366C317.853 171.413 317.993 171.436 318.12 171.436C318.4 171.436 318.633 171.323 318.82 171.096C319.007 170.863 319.1 170.489 319.1 169.976C319.1 169.083 318.797 168.636 318.19 168.636C317.877 168.636 317.57 168.789 317.27 169.096V171.106ZM325.876 169.506L322.146 172.036V171.246L325.156 169.216V169.176L322.146 167.146V166.356L325.876 168.886V169.506Z" fill="#004A7C"/>
<rect x="304.418" y="238.604" width="263.772" height="29.6124" rx="1.75" fill="white" stroke="#004A7C" stroke-width="0.5"/>
<path d="M310.284 246.955L314.014 244.425V245.215L311.004 247.245V247.285L314.014 249.315V250.105L310.284 247.575V246.955ZM317.27 250.975V252.425H315.8V245.625H317L317.11 246.125H317.14C317.34 245.945 317.57 245.798 317.83 245.685C318.09 245.565 318.353 245.505 318.62 245.505C318.927 245.505 319.203 245.565 319.45 245.685C319.697 245.805 319.907 245.975 320.08 246.195C320.253 246.415 320.383 246.682 320.47 246.995C320.563 247.302 320.61 247.645 320.61 248.025C320.61 248.452 320.55 248.832 320.43 249.165C320.31 249.492 320.15 249.772 319.95 250.005C319.75 250.232 319.52 250.405 319.26 250.525C319.007 250.645 318.74 250.705 318.46 250.705C318.007 250.705 317.593 250.525 317.22 250.165L317.27 250.975ZM317.27 249.175C317.41 249.295 317.553 249.382 317.7 249.435C317.853 249.482 317.993 249.505 318.12 249.505C318.4 249.505 318.633 249.392 318.82 249.165C319.007 248.932 319.1 248.558 319.1 248.045C319.1 247.152 318.797 246.705 318.19 246.705C317.877 246.705 317.57 246.858 317.27 247.165V249.175ZM325.876 247.575L322.146 250.105V249.315L325.156 247.285V247.245L322.146 245.215V244.425L325.876 246.955V247.575Z" fill="#004A7C"/>
<rect x="217.402" y="288.792" width="364.195" height="21.8055" rx="1.75" fill="white" stroke="#004A7C" stroke-width="0.5"/>
<path d="M376.158 299.373L379.888 296.843V297.633L376.878 299.663V299.703L379.888 301.733V302.523L376.158 299.993V299.373ZM386.524 297.223C386.197 297.096 385.851 297.033 385.484 297.033C385.164 297.033 384.927 297.103 384.774 297.243C384.627 297.383 384.554 297.603 384.554 297.903V298.043H386.264V299.193H384.554V303.003H383.084V299.193H381.774V298.103L383.084 298.043V297.913C383.084 297.626 383.127 297.36 383.214 297.113C383.301 296.866 383.434 296.653 383.614 296.473C383.794 296.286 384.024 296.14 384.304 296.033C384.584 295.926 384.917 295.873 385.304 295.873C385.591 295.873 385.857 295.9 386.104 295.953C386.357 296.006 386.591 296.07 386.804 296.143L386.524 297.223ZM387.42 300.523C387.42 300.11 387.49 299.743 387.63 299.423C387.77 299.096 387.957 298.823 388.19 298.603C388.43 298.383 388.7 298.216 389 298.103C389.307 297.983 389.624 297.923 389.95 297.923C390.277 297.923 390.59 297.983 390.89 298.103C391.197 298.216 391.467 298.383 391.7 298.603C391.94 298.823 392.13 299.096 392.27 299.423C392.41 299.743 392.48 300.11 392.48 300.523C392.48 300.936 392.41 301.306 392.27 301.633C392.13 301.953 391.94 302.223 391.7 302.443C391.467 302.663 391.197 302.833 390.89 302.953C390.59 303.066 390.277 303.123 389.95 303.123C389.624 303.123 389.307 303.066 389 302.953C388.7 302.833 388.43 302.663 388.19 302.443C387.957 302.223 387.77 301.953 387.63 301.633C387.49 301.306 387.42 300.936 387.42 300.523ZM388.93 300.523C388.93 300.956 389.014 301.3 389.18 301.553C389.354 301.806 389.61 301.933 389.95 301.933C390.29 301.933 390.544 301.806 390.71 301.553C390.884 301.3 390.97 300.956 390.97 300.523C390.97 300.09 390.884 299.746 390.71 299.493C390.544 299.24 390.29 299.113 389.95 299.113C389.61 299.113 389.354 299.24 389.18 299.493C389.014 299.746 388.93 300.09 388.93 300.523ZM393.416 300.523C393.416 300.11 393.486 299.743 393.626 299.423C393.766 299.096 393.953 298.823 394.186 298.603C394.426 298.383 394.696 298.216 394.996 298.103C395.303 297.983 395.62 297.923 395.946 297.923C396.273 297.923 396.586 297.983 396.886 298.103C397.193 298.216 397.463 298.383 397.696 298.603C397.936 298.823 398.126 299.096 398.266 299.423C398.406 299.743 398.476 300.11 398.476 300.523C398.476 300.936 398.406 301.306 398.266 301.633C398.126 301.953 397.936 302.223 397.696 302.443C397.463 302.663 397.193 302.833 396.886 302.953C396.586 303.066 396.273 303.123 395.946 303.123C395.62 303.123 395.303 303.066 394.996 302.953C394.696 302.833 394.426 302.663 394.186 302.443C393.953 302.223 393.766 301.953 393.626 301.633C393.486 301.306 393.416 300.936 393.416 300.523ZM394.926 300.523C394.926 300.956 395.01 301.3 395.176 301.553C395.35 301.806 395.606 301.933 395.946 301.933C396.286 301.933 396.54 301.806 396.706 301.553C396.88 301.3 396.966 300.956 396.966 300.523C396.966 300.09 396.88 299.746 396.706 299.493C396.54 299.24 396.286 299.113 395.946 299.113C395.606 299.113 395.35 299.24 395.176 299.493C395.01 299.746 394.926 300.09 394.926 300.523ZM400.682 299.193H399.432V298.103L400.752 298.043L400.942 296.723H402.152V298.043H404.252V299.193H402.152V300.933C402.152 301.313 402.236 301.583 402.402 301.743C402.569 301.896 402.832 301.973 403.192 301.973C403.386 301.973 403.562 301.956 403.722 301.923C403.882 301.89 404.036 301.846 404.182 301.793L404.442 302.853C404.222 302.92 403.976 302.98 403.702 303.033C403.436 303.093 403.142 303.123 402.822 303.123C402.429 303.123 402.096 303.07 401.822 302.963C401.549 302.856 401.326 302.71 401.152 302.523C400.986 302.33 400.866 302.1 400.792 301.833C400.719 301.566 400.682 301.27 400.682 300.943V299.193ZM405.488 300.523C405.488 300.116 405.558 299.753 405.698 299.433C405.845 299.113 406.038 298.843 406.278 298.623C406.518 298.396 406.792 298.223 407.098 298.103C407.412 297.983 407.735 297.923 408.068 297.923C408.448 297.923 408.785 297.983 409.078 298.103C409.372 298.223 409.615 298.39 409.808 298.603C410.002 298.816 410.148 299.07 410.248 299.363C410.348 299.65 410.398 299.963 410.398 300.303C410.398 300.436 410.392 300.563 410.378 300.683C410.365 300.803 410.352 300.893 410.338 300.953H406.998C407.052 301.326 407.212 301.596 407.478 301.763C407.752 301.923 408.072 302.003 408.438 302.003C408.665 302.003 408.878 301.976 409.078 301.923C409.285 301.863 409.498 301.776 409.718 301.663L410.198 302.543C409.918 302.723 409.605 302.866 409.258 302.973C408.912 303.073 408.572 303.123 408.238 303.123C407.852 303.123 407.492 303.066 407.158 302.953C406.825 302.833 406.535 302.663 406.288 302.443C406.042 302.216 405.845 301.943 405.698 301.623C405.558 301.303 405.488 300.936 405.488 300.523ZM409.068 299.983C409.068 299.703 408.992 299.476 408.838 299.303C408.685 299.13 408.438 299.043 408.098 299.043C407.832 299.043 407.595 299.12 407.388 299.273C407.182 299.426 407.045 299.663 406.978 299.983H409.068ZM412.095 298.043H413.295L413.415 299.123H413.445C413.691 298.716 413.988 298.416 414.335 298.223C414.681 298.023 415.055 297.923 415.455 297.923C415.675 297.923 415.851 297.94 415.985 297.973C416.125 298.006 416.268 298.056 416.415 298.123L416.115 299.353C415.961 299.306 415.821 299.273 415.695 299.253C415.575 299.226 415.421 299.213 415.235 299.213C414.928 299.213 414.625 299.303 414.325 299.483C414.031 299.663 413.778 299.976 413.565 300.423V303.003H412.095V298.043ZM421.731 299.993L418.001 302.523V301.733L421.011 299.703V299.663L418.001 297.633V296.843L421.731 299.373V299.993Z" fill="#004A7C"/>
<rect x="217.25" y="110.25" width="63.5" height="103.5" rx="1.75" fill="white" stroke="#004A7C" stroke-width="0.5"/>
<path d="M234.71 122.37L238.44 119.84V120.63L235.43 122.66V122.7L238.44 124.73V125.52L234.71 122.99V122.37ZM240.226 121.04H241.426L241.536 121.7H241.576C241.789 121.487 242.033 121.303 242.306 121.15C242.586 120.997 242.913 120.92 243.286 120.92C243.846 120.92 244.256 121.1 244.516 121.46C244.776 121.82 244.906 122.313 244.906 122.94V126H243.436V123.13C243.436 122.797 243.383 122.553 243.276 122.4C243.169 122.247 242.979 122.17 242.706 122.17C242.506 122.17 242.329 122.213 242.176 122.3C242.029 122.387 241.869 122.517 241.696 122.69V126H240.226V121.04ZM246.112 124.62C246.112 124.34 246.172 124.097 246.292 123.89C246.412 123.677 246.602 123.497 246.862 123.35C247.129 123.203 247.469 123.087 247.882 123C248.295 122.907 248.795 122.843 249.382 122.81C249.355 122.583 249.255 122.407 249.082 122.28C248.915 122.153 248.662 122.09 248.322 122.09C248.082 122.09 247.839 122.133 247.592 122.22C247.352 122.3 247.092 122.41 246.812 122.55L246.292 121.59C246.632 121.397 246.995 121.237 247.382 121.11C247.775 120.983 248.185 120.92 248.612 120.92C249.305 120.92 249.852 121.103 250.252 121.47C250.652 121.837 250.852 122.4 250.852 123.16V126H249.652L249.542 125.44H249.502C249.249 125.633 248.972 125.797 248.672 125.93C248.372 126.057 248.062 126.12 247.742 126.12C247.489 126.12 247.262 126.08 247.062 126C246.862 125.927 246.692 125.823 246.552 125.69C246.412 125.55 246.302 125.39 246.222 125.21C246.149 125.03 246.112 124.833 246.112 124.62ZM247.522 124.51C247.522 124.67 247.582 124.79 247.702 124.87C247.829 124.943 247.999 124.98 248.212 124.98C248.432 124.98 248.639 124.937 248.832 124.85C249.025 124.757 249.209 124.643 249.382 124.51V123.69C249.015 123.71 248.712 123.743 248.472 123.79C248.232 123.837 248.042 123.897 247.902 123.97C247.762 124.037 247.662 124.117 247.602 124.21C247.549 124.303 247.522 124.403 247.522 124.51ZM251.808 121.04H253.288L254.068 123.38C254.148 123.633 254.225 123.887 254.298 124.14C254.371 124.393 254.445 124.65 254.518 124.91H254.558C254.631 124.65 254.701 124.393 254.768 124.14C254.841 123.887 254.918 123.633 254.998 123.38L255.778 121.04H257.188L255.368 126H253.678L251.808 121.04ZM262.294 122.99L258.564 125.52V124.73L261.574 122.7V122.66L258.564 120.63V119.84L262.294 122.37V122.99Z" fill="#004A7C"/>
<defs>
<filter id="filter0_d" x="205" y="29" width="391" height="296" filterUnits="userSpaceOnUse" color-interpolation-filters="sRGB">
<feFlood flood-opacity="0" result="BackgroundImageFix"/>
<feColorMatrix in="SourceAlpha" type="matrix" values="0 0 0 0 0 0 0 0 0 0 0 0 0 0 0 0 0 0 127 0"/>
<feOffset dx="1" dy="1"/>
<feGaussianBlur stdDeviation="1"/>
<feColorMatrix type="matrix" values="0 0 0 0 0 0 0 0 0 0 0 0 0 0 0 0 0 0 0.25 0"/>
<feBlend mode="normal" in2="BackgroundImageFix" result="effect1_dropShadow"/>
<feBlend mode="normal" in="SourceGraphic" in2="effect1_dropShadow" result="shape"/>
</filter>
</defs>
</svg>
