<svg width="600" height="300" viewBox="0 0 600 300" fill="none" xmlns="http://www.w3.org/2000/svg">
<g clip-path="url(#clip0)">
<rect width="600" height="300" fill="white"/>
<rect width="600" height="300" fill="url(#paint0_linear)"/>
<g filter="url(#filter0_d)">
<rect x="150" y="112" width="300" height="75" rx="15" fill="url(#paint1_linear)"/>
</g>
<g filter="url(#filter1_i)">
<path d="M242.308 160.82C239.364 160.82 237.081 160.063 235.46 158.548C233.86 157.033 233.007 154.9 232.9 152.148C232.879 151.572 232.868 150.633 232.868 149.332C232.868 148.009 232.879 147.049 232.9 146.452C233.007 143.721 233.871 141.599 235.492 140.084C237.135 138.548 239.407 137.78 242.308 137.78C244.207 137.78 245.86 138.111 247.268 138.772C248.676 139.412 249.764 140.297 250.532 141.428C251.3 142.537 251.705 143.796 251.748 145.204V145.268C251.748 145.439 251.673 145.588 251.524 145.716C251.396 145.823 251.247 145.876 251.076 145.876H248.036C247.78 145.876 247.588 145.823 247.46 145.716C247.332 145.609 247.225 145.407 247.14 145.108C246.799 143.764 246.233 142.825 245.444 142.292C244.655 141.737 243.599 141.46 242.276 141.46C239.204 141.46 237.604 143.177 237.476 146.612C237.455 147.188 237.444 148.073 237.444 149.268C237.444 150.463 237.455 151.369 237.476 151.988C237.604 155.423 239.204 157.14 242.276 157.14C243.599 157.14 244.655 156.863 245.444 156.308C246.255 155.753 246.82 154.815 247.14 153.492C247.204 153.193 247.3 152.991 247.428 152.884C247.577 152.777 247.78 152.724 248.036 152.724H251.076C251.268 152.724 251.428 152.788 251.556 152.916C251.705 153.044 251.769 153.204 251.748 153.396C251.705 154.804 251.3 156.073 250.532 157.204C249.764 158.313 248.676 159.199 247.268 159.86C245.86 160.5 244.207 160.82 242.308 160.82ZM255.959 160.5C255.746 160.5 255.564 160.425 255.415 160.276C255.266 160.127 255.191 159.945 255.191 159.732V138.548C255.191 138.313 255.266 138.132 255.415 138.004C255.564 137.855 255.746 137.78 255.959 137.78H258.615C258.85 137.78 259.031 137.855 259.159 138.004C259.308 138.132 259.383 138.313 259.383 138.548V159.732C259.383 159.945 259.308 160.127 259.159 160.276C259.031 160.425 258.85 160.5 258.615 160.5H255.959ZM264.268 141.108C264.054 141.108 263.873 141.033 263.724 140.884C263.574 140.735 263.5 140.553 263.5 140.34V138.036C263.5 137.823 263.574 137.641 263.724 137.492C263.873 137.343 264.054 137.268 264.268 137.268H267.18C267.393 137.268 267.574 137.343 267.724 137.492C267.894 137.641 267.98 137.823 267.98 138.036V140.34C267.98 140.553 267.905 140.735 267.756 140.884C267.606 141.033 267.414 141.108 267.18 141.108H264.268ZM264.396 160.5C264.182 160.5 264.001 160.425 263.852 160.276C263.702 160.127 263.628 159.945 263.628 159.732V144.628C263.628 144.415 263.702 144.233 263.852 144.084C264.001 143.935 264.182 143.86 264.396 143.86H267.052C267.286 143.86 267.468 143.935 267.596 144.084C267.745 144.212 267.82 144.393 267.82 144.628V159.732C267.82 159.945 267.745 160.127 267.596 160.276C267.468 160.425 267.286 160.5 267.052 160.5H264.396ZM279.265 160.82C276.918 160.82 275.041 160.169 273.633 158.868C272.246 157.567 271.51 155.764 271.425 153.46L271.393 152.18L271.425 150.9C271.51 148.596 272.246 146.793 273.633 145.492C275.041 144.191 276.918 143.54 279.265 143.54C280.929 143.54 282.337 143.839 283.489 144.436C284.662 145.033 285.526 145.769 286.081 146.644C286.657 147.497 286.966 148.308 287.009 149.076C287.03 149.289 286.956 149.471 286.785 149.62C286.636 149.769 286.454 149.844 286.241 149.844H283.425C283.212 149.844 283.041 149.801 282.913 149.716C282.806 149.609 282.7 149.439 282.593 149.204C282.273 148.372 281.846 147.775 281.313 147.412C280.801 147.049 280.14 146.868 279.329 146.868C278.241 146.868 277.388 147.22 276.769 147.924C276.15 148.607 275.82 149.652 275.777 151.06L275.745 152.244L275.777 153.3C275.862 156.095 277.046 157.492 279.329 157.492C280.161 157.492 280.833 157.311 281.345 156.948C281.857 156.585 282.273 155.988 282.593 155.156C282.7 154.921 282.806 154.761 282.913 154.676C283.041 154.569 283.212 154.516 283.425 154.516H286.241C286.454 154.516 286.636 154.591 286.785 154.74C286.956 154.889 287.03 155.071 287.009 155.284C286.966 156.031 286.668 156.831 286.113 157.684C285.558 158.537 284.705 159.273 283.553 159.892C282.401 160.511 280.972 160.82 279.265 160.82ZM291.146 160.5C290.933 160.5 290.752 160.425 290.602 160.276C290.453 160.127 290.378 159.945 290.378 159.732V138.548C290.378 138.313 290.453 138.132 290.602 138.004C290.752 137.855 290.933 137.78 291.146 137.78H293.738C293.973 137.78 294.154 137.855 294.282 138.004C294.432 138.132 294.506 138.313 294.506 138.548V149.492L299.882 144.404C299.946 144.361 300.053 144.276 300.202 144.148C300.33 144.041 300.458 143.967 300.586 143.924C300.714 143.881 300.874 143.86 301.066 143.86H304.042C304.256 143.86 304.426 143.924 304.554 144.052C304.682 144.18 304.746 144.351 304.746 144.564C304.746 144.756 304.64 144.948 304.426 145.14L297.834 151.316L305.226 159.252C305.44 159.465 305.546 159.647 305.546 159.796C305.546 160.009 305.472 160.18 305.322 160.308C305.194 160.436 305.034 160.5 304.842 160.5H301.802C301.504 160.5 301.28 160.468 301.13 160.404C301.002 160.319 300.832 160.169 300.618 159.956L294.506 153.524V159.732C294.506 159.945 294.432 160.127 294.282 160.276C294.154 160.425 293.973 160.5 293.738 160.5H291.146ZM315.802 160.5C315.589 160.5 315.407 160.425 315.258 160.276C315.109 160.127 315.034 159.945 315.034 159.732V144.628C315.034 144.415 315.109 144.233 315.258 144.084C315.407 143.935 315.589 143.86 315.802 143.86H318.298C318.511 143.86 318.693 143.935 318.842 144.084C318.991 144.233 319.066 144.415 319.066 144.628V145.716C320.175 144.265 321.722 143.54 323.706 143.54C326.074 143.54 327.727 144.489 328.666 146.388C329.178 145.535 329.903 144.852 330.842 144.34C331.781 143.807 332.794 143.54 333.882 143.54C335.631 143.54 337.061 144.137 338.17 145.332C339.279 146.527 339.834 148.265 339.834 150.548V159.732C339.834 159.945 339.759 160.127 339.61 160.276C339.482 160.425 339.301 160.5 339.066 160.5H336.442C336.229 160.5 336.047 160.425 335.898 160.276C335.749 160.127 335.674 159.945 335.674 159.732V150.804C335.674 149.46 335.386 148.489 334.81 147.892C334.255 147.273 333.509 146.964 332.57 146.964C331.738 146.964 331.023 147.273 330.426 147.892C329.85 148.511 329.562 149.481 329.562 150.804V159.732C329.562 159.945 329.487 160.127 329.338 160.276C329.189 160.425 329.007 160.5 328.794 160.5H326.17C325.957 160.5 325.775 160.425 325.626 160.276C325.477 160.127 325.402 159.945 325.402 159.732V150.804C325.402 149.46 325.103 148.489 324.506 147.892C323.93 147.273 323.194 146.964 322.298 146.964C321.445 146.964 320.719 147.273 320.122 147.892C319.546 148.511 319.258 149.481 319.258 150.804V159.732C319.258 159.945 319.183 160.127 319.034 160.276C318.885 160.425 318.703 160.5 318.49 160.5H315.802ZM351.077 160.82C348.709 160.82 346.821 160.137 345.413 158.772C344.026 157.385 343.29 155.444 343.205 152.948L343.173 152.148L343.205 151.348C343.312 148.916 344.058 147.007 345.445 145.62C346.853 144.233 348.73 143.54 351.077 143.54C353.594 143.54 355.536 144.308 356.901 145.844C358.288 147.38 358.981 149.428 358.981 151.988V152.66C358.981 152.873 358.906 153.055 358.757 153.204C358.608 153.353 358.416 153.428 358.181 153.428H347.557V153.684C347.6 154.857 347.92 155.849 348.517 156.66C349.136 157.449 349.978 157.844 351.045 157.844C352.304 157.844 353.317 157.353 354.085 156.372C354.277 156.137 354.426 155.988 354.533 155.924C354.661 155.86 354.842 155.828 355.077 155.828H357.829C358.021 155.828 358.181 155.892 358.309 156.02C358.458 156.127 358.533 156.265 358.533 156.436C358.533 156.948 358.224 157.556 357.605 158.26C357.008 158.943 356.144 159.54 355.013 160.052C353.882 160.564 352.57 160.82 351.077 160.82ZM354.629 150.74V150.644C354.629 149.385 354.309 148.372 353.669 147.604C353.05 146.836 352.186 146.452 351.077 146.452C349.968 146.452 349.104 146.836 348.485 147.604C347.866 148.372 347.557 149.385 347.557 150.644V150.74H354.629ZM363.242 154.292C363.028 154.292 362.847 154.217 362.698 154.068C362.548 153.919 362.474 153.737 362.474 153.524V138.868C362.474 138.655 362.548 138.473 362.698 138.324C362.847 138.175 363.028 138.1 363.242 138.1H365.834C366.068 138.1 366.25 138.175 366.378 138.324C366.527 138.452 366.602 138.633 366.602 138.868V153.524C366.602 153.737 366.527 153.919 366.378 154.068C366.25 154.217 366.068 154.292 365.834 154.292H363.242ZM363.05 160.5C362.836 160.5 362.655 160.425 362.506 160.276C362.356 160.127 362.282 159.945 362.282 159.732V156.756C362.282 156.521 362.356 156.329 362.506 156.18C362.655 156.031 362.836 155.956 363.05 155.956H366.026C366.26 155.956 366.452 156.031 366.602 156.18C366.751 156.329 366.826 156.521 366.826 156.756V159.732C366.826 159.945 366.751 160.127 366.602 160.276C366.452 160.425 366.26 160.5 366.026 160.5H363.05Z" fill="white"/>
</g>
</g>
<defs>
<filter id="filter0_d" x="147.5" y="112" width="305" height="80" filterUnits="userSpaceOnUse" color-interpolation-filters="sRGB">
<feFlood flood-opacity="0" result="BackgroundImageFix"/>
<feColorMatrix in="SourceAlpha" type="matrix" values="0 0 0 0 0 0 0 0 0 0 0 0 0 0 0 0 0 0 127 0"/>
<feOffset dy="2.5"/>
<feGaussianBlur stdDeviation="1.25"/>
<feColorMatrix type="matrix" values="0 0 0 0 0 0 0 0 0 0 0 0 0 0 0 0 0 0 0.2 0"/>
<feBlend mode="normal" in2="BackgroundImageFix" result="effect1_dropShadow"/>
<feBlend mode="normal" in="SourceGraphic" in2="effect1_dropShadow" result="shape"/>
</filter>
<filter id="filter1_i" x="232.868" y="137.268" width="133.958" height="24.552" filterUnits="userSpaceOnUse" color-interpolation-filters="sRGB">
<feFlood flood-opacity="0" result="BackgroundImageFix"/>
<feBlend mode="normal" in="SourceGraphic" in2="BackgroundImageFix" result="shape"/>
<feColorMatrix in="SourceAlpha" type="matrix" values="0 0 0 0 0 0 0 0 0 0 0 0 0 0 0 0 0 0 127 0" result="hardAlpha"/>
<feOffset dy="1"/>
<feGaussianBlur stdDeviation="0.5"/>
<feComposite in2="hardAlpha" operator="arithmetic" k2="-1" k3="1"/>
<feColorMatrix type="matrix" values="0 0 0 0 0 0 0 0 0 0 0 0 0 0 0 0 0 0 0.125 0"/>
<feBlend mode="normal" in2="shape" result="effect1_innerShadow"/>
</filter>
<linearGradient id="paint0_linear" x1="883.75" y1="-228.5" x2="53.75" y2="426.75" gradientUnits="userSpaceOnUse">
<stop stop-color="#227C9D"/>
<stop offset="1" stop-color="#E8F1F5"/>
</linearGradient>
<linearGradient id="paint1_linear" x1="300" y1="19" x2="300" y2="187" gradientUnits="userSpaceOnUse">
<stop stop-color="white" stop-opacity="0.58"/>
<stop offset="1" stop-color="#004A7C"/>
</linearGradient>
<clipPath id="clip0">
<rect width="600" height="300" fill="white"/>
</clipPath>
</defs>
</svg>
