<svg width="600" height="240" viewBox="0 0 600 240" fill="none" xmlns="http://www.w3.org/2000/svg">
<rect width="600" height="240" rx="2" fill="white"/>
<path d="M183 196L178 193.113V198.887L183 196ZM133 196.5H135.5V195.5H133V196.5ZM140.5 196.5H145.5V195.5H140.5V196.5ZM150.5 196.5H155.5V195.5H150.5V196.5ZM160.5 196.5H165.5V195.5H160.5V196.5ZM170.5 196.5H175.5V195.5H170.5V196.5Z" fill="#17C3B2"/>
<path d="M317 196L312 193.113V198.887L317 196ZM267 196.5H269.5V195.5H267V196.5ZM274.5 196.5H279.5V195.5H274.5V196.5ZM284.5 196.5H289.5V195.5H284.5V196.5ZM294.5 196.5H299.5V195.5H294.5V196.5ZM304.5 196.5H309.5V195.5H304.5V196.5Z" fill="#17C3B2"/>
<path d="M451 196L446 193.113V198.887L451 196ZM401 196.5H403.5V195.5H401V196.5ZM408.5 196.5H413.5V195.5H408.5V196.5ZM418.5 196.5H423.5V195.5H418.5V196.5ZM428.5 196.5H433.5V195.5H428.5V196.5ZM438.5 196.5H443.5V195.5H438.5V196.5Z" fill="#17C3B2"/>
<path d="M584 196L579 193.113V198.887L584 196ZM534 196.5H536.5V195.5H534V196.5ZM541.5 196.5H546.5V195.5H541.5V196.5ZM551.5 196.5H556.5V195.5H551.5V196.5ZM561.5 196.5H566.5V195.5H561.5V196.5ZM571.5 196.5H576.5V195.5H571.5V196.5Z" fill="#17C3B2"/>
<rect x="60.0605" y="89.7839" width="94.3964" height="58.1458" rx="1.5" fill="#E5E5E5" stroke="#E5E5E5"/>
<rect x="60.0605" y="89.7839" width="94.3964" height="126.195" rx="1.5" stroke="#004A7C"/>
<rect x="90.7236" y="192.312" width="33.0707" height="7.9497" rx="2" fill="#227C9D"/>
<rect x="67.5098" y="155.107" width="79.497" height="7.9497" rx="2" fill="#004A7C"/>
<rect x="79.2754" y="169.417" width="55.6479" height="3.17988" rx="1.58994" fill="#E5E5E5"/>
<rect x="79.2754" y="175.776" width="55.6479" height="3.17988" rx="1.58994" fill="#E5E5E5"/>
<rect x="79.2754" y="182.136" width="55.6479" height="3.17988" rx="1.58994" fill="#E5E5E5"/>
<circle cx="98.1966" cy="208.052" r="1.43095" fill="#7C7C7C"/>
<circle cx="104.239" cy="208.052" r="1.43095" fill="#C4C4C4"/>
<circle cx="110.28" cy="208.052" r="1.43095" fill="#C4C4C4"/>
<circle cx="116.322" cy="208.052" r="1.43095" fill="#C4C4C4"/>
<rect x="460.726" y="89.7839" width="94.3964" height="58.1458" rx="1.5" fill="#E5E5E5" stroke="#E5E5E5"/>
<rect x="460.726" y="89.7839" width="94.3964" height="126.195" rx="1.5" stroke="#004A7C"/>
<rect x="491.388" y="192.312" width="33.0707" height="7.9497" rx="2" fill="#227C9D"/>
<rect x="468.175" y="155.107" width="79.497" height="7.9497" rx="2" fill="#004A7C"/>
<rect x="479.94" y="169.417" width="55.6479" height="3.17988" rx="1.58994" fill="#E5E5E5"/>
<rect x="479.941" y="175.776" width="55.6479" height="3.17988" rx="1.58994" fill="#E5E5E5"/>
<rect x="479.941" y="182.136" width="55.6479" height="3.17988" rx="1.58994" fill="#E5E5E5"/>
<circle cx="498.861" cy="208.052" r="1.43095" fill="#C4C4C4"/>
<circle cx="504.903" cy="208.052" r="1.43095" fill="#C4C4C4"/>
<circle cx="510.944" cy="208.052" r="1.43095" fill="#C4C4C4"/>
<circle cx="516.986" cy="208.052" r="1.43095" fill="#7C7C7C"/>
<rect x="327.17" y="89.7839" width="94.3964" height="58.1458" rx="1.5" fill="#E5E5E5" stroke="#E5E5E5"/>
<rect x="327.17" y="89.7839" width="94.3964" height="126.195" rx="1.5" stroke="#004A7C"/>
<rect x="357.833" y="192.312" width="33.0707" height="7.9497" rx="2" fill="#227C9D"/>
<rect x="334.62" y="155.107" width="79.497" height="7.9497" rx="2" fill="#004A7C"/>
<rect x="346.385" y="169.417" width="55.6479" height="3.17988" rx="1.58994" fill="#E5E5E5"/>
<rect x="346.385" y="175.776" width="55.6479" height="3.17988" rx="1.58994" fill="#E5E5E5"/>
<rect x="346.385" y="182.136" width="55.6479" height="3.17988" rx="1.58994" fill="#E5E5E5"/>
<circle cx="365.306" cy="208.052" r="1.43095" fill="#C4C4C4"/>
<circle cx="371.347" cy="208.052" r="1.43095" fill="#C4C4C4"/>
<circle cx="377.389" cy="208.052" r="1.43095" fill="#7C7C7C"/>
<circle cx="383.432" cy="208.052" r="1.43095" fill="#C4C4C4"/>
<rect x="193.615" y="89.7839" width="94.3964" height="58.1458" rx="1.5" fill="#E5E5E5" stroke="#E5E5E5"/>
<rect x="193.615" y="89.7839" width="94.3964" height="126.195" rx="1.5" stroke="#004A7C"/>
<rect x="224.278" y="192.312" width="33.0707" height="7.9497" rx="2" fill="#227C9D"/>
<rect x="201.065" y="155.107" width="79.497" height="7.9497" rx="2" fill="#004A7C"/>
<rect x="212.832" y="169.417" width="55.6479" height="3.17988" rx="1.58994" fill="#E5E5E5"/>
<rect x="212.831" y="175.776" width="55.6479" height="3.17988" rx="1.58994" fill="#E5E5E5"/>
<rect x="212.831" y="182.136" width="55.6479" height="3.17988" rx="1.58994" fill="#E5E5E5"/>
<circle cx="231.751" cy="208.052" r="1.43095" fill="#C4C4C4"/>
<circle cx="237.793" cy="208.052" r="1.43095" fill="#7C7C7C"/>
<circle cx="243.835" cy="208.052" r="1.43095" fill="#C4C4C4"/>
<circle cx="249.876" cy="208.052" r="1.43095" fill="#C4C4C4"/>
<path d="M47 102.162V80.7234C47 78.5143 48.7909 76.7234 51 76.7234H163.835C166.045 76.7234 167.835 78.5142 167.835 80.7234V102.162" stroke="#004A7C"/>
<path d="M447.506 102.162V80.7234C447.506 78.5143 449.297 76.7234 451.506 76.7234H564.341C566.55 76.7234 568.341 78.5142 568.341 80.7234V102.162" stroke="#004A7C"/>
<path d="M107.418 76.8823V57.485" stroke="#004A7C"/>
<path d="M507.923 76.8823V57.485" stroke="#004A7C"/>
<path d="M180.715 102.162V80.4054C180.715 78.1963 182.506 76.4054 184.715 76.4054H430.946C433.155 76.4054 434.946 78.1963 434.946 80.4054V102.162" stroke="#004A7C"/>
<path d="M307.909 76.4053V57.326" stroke="#004A7C"/>
<path d="M57.5542 40C57.4342 40 57.3322 39.964 57.2482 39.892C57.1762 39.808 57.1402 39.706 57.1402 39.586V27.814C57.1402 27.694 57.1762 27.598 57.2482 27.526C57.3322 27.442 57.4342 27.4 57.5542 27.4H58.5082C58.6282 27.4 58.7242 27.442 58.7962 27.526C58.8802 27.598 58.9222 27.694 58.9222 27.814V39.586C58.9222 39.706 58.8802 39.808 58.7962 39.892C58.7242 39.964 58.6282 40 58.5082 40H57.5542ZM62.2421 40C62.1221 40 62.0201 39.964 61.9361 39.892C61.8641 39.808 61.8281 39.706 61.8281 39.586V31.054C61.8281 30.934 61.8641 30.838 61.9361 30.766C62.0201 30.682 62.1221 30.64 62.2421 30.64H63.0881C63.2081 30.64 63.3041 30.682 63.3761 30.766C63.4601 30.838 63.5021 30.934 63.5021 31.054V31.846C63.8501 31.402 64.2581 31.06 64.7261 30.82C65.2061 30.58 65.8001 30.46 66.5081 30.46C67.6601 30.46 68.5541 30.832 69.1901 31.576C69.8381 32.308 70.1621 33.286 70.1621 34.51V39.586C70.1621 39.706 70.1201 39.808 70.0361 39.892C69.9641 39.964 69.8681 40 69.7481 40H68.8481C68.7281 40 68.6261 39.964 68.5421 39.892C68.4701 39.808 68.4341 39.706 68.4341 39.586V34.6C68.4341 33.748 68.2241 33.088 67.8041 32.62C67.3961 32.152 66.8021 31.918 66.0221 31.918C65.2661 31.918 64.6661 32.158 64.2221 32.638C63.7781 33.106 63.5561 33.76 63.5561 34.6V39.586C63.5561 39.706 63.5141 39.808 63.4301 39.892C63.3581 39.964 63.2621 40 63.1421 40H62.2421ZM76.2751 40C74.3791 40 73.4311 38.944 73.4311 36.832V32.08H72.0271C71.9071 32.08 71.8051 32.044 71.7211 31.972C71.6491 31.888 71.6131 31.786 71.6131 31.666V31.054C71.6131 30.934 71.6491 30.838 71.7211 30.766C71.8051 30.682 71.9071 30.64 72.0271 30.64H73.4311V27.634C73.4311 27.514 73.4671 27.418 73.5391 27.346C73.6231 27.262 73.7251 27.22 73.8451 27.22H74.6911C74.8111 27.22 74.9071 27.262 74.9791 27.346C75.0631 27.418 75.1051 27.514 75.1051 27.634V30.64H77.3371C77.4571 30.64 77.5531 30.682 77.6251 30.766C77.7091 30.838 77.7511 30.934 77.7511 31.054V31.666C77.7511 31.786 77.7091 31.888 77.6251 31.972C77.5531 32.044 77.4571 32.08 77.3371 32.08H75.1051V36.706C75.1051 37.306 75.2071 37.762 75.4111 38.074C75.6151 38.374 75.9511 38.524 76.4191 38.524H77.5171C77.6371 38.524 77.7331 38.566 77.8051 38.65C77.8891 38.722 77.9311 38.818 77.9311 38.938V39.586C77.9311 39.706 77.8891 39.808 77.8051 39.892C77.7331 39.964 77.6371 40 77.5171 40H76.2751ZM80.0663 40C79.9463 40 79.8443 39.964 79.7603 39.892C79.6883 39.808 79.6523 39.706 79.6523 39.586V31.072C79.6523 30.952 79.6883 30.85 79.7603 30.766C79.8443 30.682 79.9463 30.64 80.0663 30.64H80.8943C81.0143 30.64 81.1163 30.682 81.2003 30.766C81.2843 30.85 81.3263 30.952 81.3263 31.072V31.864C81.8183 31.048 82.6583 30.64 83.8463 30.64H84.5483C84.6683 30.64 84.7643 30.682 84.8363 30.766C84.9203 30.838 84.9623 30.934 84.9623 31.054V31.792C84.9623 31.912 84.9203 32.008 84.8363 32.08C84.7643 32.152 84.6683 32.188 84.5483 32.188H83.4683C82.8203 32.188 82.3103 32.38 81.9383 32.764C81.5663 33.136 81.3803 33.646 81.3803 34.294V39.586C81.3803 39.706 81.3383 39.808 81.2543 39.892C81.1703 39.964 81.0683 40 80.9483 40H80.0663ZM90.1484 40.18C88.8284 40.18 87.8024 39.808 87.0704 39.064C86.3504 38.32 85.9664 37.33 85.9184 36.094L85.9004 35.32L85.9184 34.546C85.9664 33.322 86.3564 32.338 87.0884 31.594C87.8204 30.838 88.8404 30.46 90.1484 30.46C91.4564 30.46 92.4764 30.838 93.2084 31.594C93.9404 32.338 94.3304 33.322 94.3784 34.546C94.3904 34.678 94.3964 34.936 94.3964 35.32C94.3964 35.704 94.3904 35.962 94.3784 36.094C94.3304 37.33 93.9404 38.32 93.2084 39.064C92.4884 39.808 91.4684 40.18 90.1484 40.18ZM90.1484 38.794C90.9044 38.794 91.4984 38.554 91.9304 38.074C92.3744 37.594 92.6144 36.904 92.6504 36.004C92.6624 35.884 92.6684 35.656 92.6684 35.32C92.6684 34.984 92.6624 34.756 92.6504 34.636C92.6144 33.736 92.3744 33.046 91.9304 32.566C91.4984 32.086 90.9044 31.846 90.1484 31.846C89.3924 31.846 88.7924 32.086 88.3484 32.566C87.9044 33.046 87.6704 33.736 87.6464 34.636L87.6284 35.32L87.6464 36.004C87.6704 36.904 87.9044 37.594 88.3484 38.074C88.7924 38.554 89.3924 38.794 90.1484 38.794ZM100.07 40.18C98.8224 40.18 97.8804 39.772 97.2444 38.956C96.6084 38.14 96.2724 37.108 96.2364 35.86L96.2184 35.32L96.2364 34.78C96.2724 33.544 96.6084 32.518 97.2444 31.702C97.8804 30.874 98.8224 30.46 100.07 30.46C101.306 30.46 102.278 30.898 102.986 31.774V27.634C102.986 27.514 103.022 27.418 103.094 27.346C103.178 27.262 103.28 27.22 103.4 27.22H104.264C104.384 27.22 104.48 27.262 104.552 27.346C104.636 27.418 104.678 27.514 104.678 27.634V39.586C104.678 39.706 104.636 39.808 104.552 39.892C104.48 39.964 104.384 40 104.264 40H103.454C103.334 40 103.232 39.964 103.148 39.892C103.076 39.808 103.04 39.706 103.04 39.586V38.83C102.344 39.73 101.354 40.18 100.07 40.18ZM100.448 38.722C101.276 38.722 101.894 38.452 102.302 37.912C102.722 37.36 102.95 36.706 102.986 35.95C102.998 35.818 103.004 35.59 103.004 35.266C103.004 34.93 102.998 34.696 102.986 34.564C102.962 33.856 102.734 33.238 102.302 32.71C101.87 32.182 101.252 31.918 100.448 31.918C99.5964 31.918 98.9724 32.182 98.5764 32.71C98.1924 33.238 97.9824 33.934 97.9464 34.798L97.9284 35.32C97.9284 37.588 98.7684 38.722 100.448 38.722ZM110.847 40.18C109.707 40.18 108.825 39.814 108.201 39.082C107.577 38.338 107.265 37.354 107.265 36.13V31.054C107.265 30.934 107.301 30.838 107.373 30.766C107.457 30.682 107.559 30.64 107.679 30.64H108.579C108.699 30.64 108.795 30.682 108.867 30.766C108.951 30.838 108.993 30.934 108.993 31.054V36.04C108.993 37.828 109.773 38.722 111.333 38.722C112.089 38.722 112.689 38.488 113.133 38.02C113.577 37.54 113.799 36.88 113.799 36.04V31.054C113.799 30.934 113.835 30.838 113.907 30.766C113.991 30.682 114.093 30.64 114.213 30.64H115.113C115.233 30.64 115.329 30.682 115.401 30.766C115.473 30.838 115.509 30.934 115.509 31.054V39.586C115.509 39.706 115.473 39.808 115.401 39.892C115.329 39.964 115.233 40 115.113 40H114.267C114.147 40 114.045 39.964 113.961 39.892C113.889 39.808 113.853 39.706 113.853 39.586V38.794C113.517 39.25 113.109 39.598 112.629 39.838C112.149 40.066 111.555 40.18 110.847 40.18ZM121.964 40.18C120.68 40.18 119.672 39.82 118.94 39.1C118.22 38.368 117.836 37.348 117.788 36.04L117.77 35.32L117.788 34.6C117.836 33.292 118.22 32.278 118.94 31.558C119.672 30.826 120.68 30.46 121.964 30.46C122.828 30.46 123.56 30.616 124.16 30.928C124.76 31.24 125.204 31.624 125.492 32.08C125.792 32.536 125.954 32.992 125.978 33.448C125.99 33.568 125.954 33.664 125.87 33.736C125.786 33.808 125.684 33.844 125.564 33.844H124.7C124.58 33.844 124.49 33.82 124.43 33.772C124.37 33.724 124.31 33.628 124.25 33.484C124.046 32.908 123.758 32.5 123.386 32.26C123.014 32.008 122.546 31.882 121.982 31.882C121.238 31.882 120.644 32.116 120.2 32.584C119.768 33.04 119.534 33.742 119.498 34.69L119.48 35.338L119.498 35.95C119.534 36.91 119.768 37.618 120.2 38.074C120.632 38.53 121.226 38.758 121.982 38.758C122.546 38.758 123.014 38.638 123.386 38.398C123.758 38.146 124.046 37.732 124.25 37.156C124.31 37.012 124.37 36.916 124.43 36.868C124.49 36.808 124.58 36.778 124.7 36.778H125.564C125.684 36.778 125.786 36.82 125.87 36.904C125.954 36.976 125.99 37.072 125.978 37.192C125.954 37.636 125.792 38.092 125.492 38.56C125.204 39.016 124.76 39.4 124.16 39.712C123.572 40.024 122.84 40.18 121.964 40.18ZM131.769 40C129.873 40 128.925 38.944 128.925 36.832V32.08H127.521C127.401 32.08 127.299 32.044 127.215 31.972C127.143 31.888 127.107 31.786 127.107 31.666V31.054C127.107 30.934 127.143 30.838 127.215 30.766C127.299 30.682 127.401 30.64 127.521 30.64H128.925V27.634C128.925 27.514 128.961 27.418 129.033 27.346C129.117 27.262 129.219 27.22 129.339 27.22H130.185C130.305 27.22 130.401 27.262 130.473 27.346C130.557 27.418 130.599 27.514 130.599 27.634V30.64H132.831C132.951 30.64 133.047 30.682 133.119 30.766C133.203 30.838 133.245 30.934 133.245 31.054V31.666C133.245 31.786 133.203 31.888 133.119 31.972C133.047 32.044 132.951 32.08 132.831 32.08H130.599V36.706C130.599 37.306 130.701 37.762 130.905 38.074C131.109 38.374 131.445 38.524 131.913 38.524H133.011C133.131 38.524 133.227 38.566 133.299 38.65C133.383 38.722 133.425 38.818 133.425 38.938V39.586C133.425 39.706 133.383 39.808 133.299 39.892C133.227 39.964 133.131 40 133.011 40H131.769ZM135.416 28.894C135.296 28.894 135.194 28.858 135.11 28.786C135.038 28.702 135.002 28.6 135.002 28.48V27.508C135.002 27.388 135.038 27.286 135.11 27.202C135.194 27.118 135.296 27.076 135.416 27.076H136.55C136.67 27.076 136.772 27.118 136.856 27.202C136.94 27.286 136.982 27.388 136.982 27.508V28.48C136.982 28.6 136.94 28.702 136.856 28.786C136.772 28.858 136.67 28.894 136.55 28.894H135.416ZM135.56 40C135.44 40 135.338 39.964 135.254 39.892C135.182 39.808 135.146 39.706 135.146 39.586V31.054C135.146 30.934 135.182 30.838 135.254 30.766C135.338 30.682 135.44 30.64 135.56 30.64H136.424C136.544 30.64 136.64 30.682 136.712 30.766C136.796 30.838 136.838 30.934 136.838 31.054V39.586C136.838 39.706 136.796 39.808 136.712 39.892C136.64 39.964 136.544 40 136.424 40H135.56ZM143.34 40.18C142.02 40.18 140.994 39.808 140.262 39.064C139.542 38.32 139.158 37.33 139.11 36.094L139.092 35.32L139.11 34.546C139.158 33.322 139.548 32.338 140.28 31.594C141.012 30.838 142.032 30.46 143.34 30.46C144.648 30.46 145.668 30.838 146.4 31.594C147.132 32.338 147.522 33.322 147.57 34.546C147.582 34.678 147.588 34.936 147.588 35.32C147.588 35.704 147.582 35.962 147.57 36.094C147.522 37.33 147.132 38.32 146.4 39.064C145.68 39.808 144.66 40.18 143.34 40.18ZM143.34 38.794C144.096 38.794 144.69 38.554 145.122 38.074C145.566 37.594 145.806 36.904 145.842 36.004C145.854 35.884 145.86 35.656 145.86 35.32C145.86 34.984 145.854 34.756 145.842 34.636C145.806 33.736 145.566 33.046 145.122 32.566C144.69 32.086 144.096 31.846 143.34 31.846C142.584 31.846 141.984 32.086 141.54 32.566C141.096 33.046 140.862 33.736 140.838 34.636L140.82 35.32L140.838 36.004C140.862 36.904 141.096 37.594 141.54 38.074C141.984 38.554 142.584 38.794 143.34 38.794ZM150.256 40C150.136 40 150.034 39.964 149.95 39.892C149.878 39.808 149.842 39.706 149.842 39.586V31.054C149.842 30.934 149.878 30.838 149.95 30.766C150.034 30.682 150.136 30.64 150.256 30.64H151.102C151.222 30.64 151.318 30.682 151.39 30.766C151.474 30.838 151.516 30.934 151.516 31.054V31.846C151.864 31.402 152.272 31.06 152.74 30.82C153.22 30.58 153.814 30.46 154.522 30.46C155.674 30.46 156.568 30.832 157.204 31.576C157.852 32.308 158.176 33.286 158.176 34.51V39.586C158.176 39.706 158.134 39.808 158.05 39.892C157.978 39.964 157.882 40 157.762 40H156.862C156.742 40 156.64 39.964 156.556 39.892C156.484 39.808 156.448 39.706 156.448 39.586V34.6C156.448 33.748 156.238 33.088 155.818 32.62C155.41 32.152 154.816 31.918 154.036 31.918C153.28 31.918 152.68 32.158 152.236 32.638C151.792 33.106 151.57 33.76 151.57 34.6V39.586C151.57 39.706 151.528 39.808 151.444 39.892C151.372 39.964 151.276 40 151.156 40H150.256Z" fill="#004A7C"/>
<path d="M482.028 40.18C481.032 40.18 480.168 40.024 479.436 39.712C478.716 39.4 478.164 38.992 477.78 38.488C477.396 37.972 477.192 37.42 477.168 36.832C477.168 36.736 477.204 36.652 477.276 36.58C477.36 36.496 477.456 36.454 477.564 36.454H478.482C478.71 36.454 478.866 36.574 478.95 36.814C479.058 37.318 479.364 37.75 479.868 38.11C480.384 38.47 481.104 38.65 482.028 38.65C483.024 38.65 483.774 38.476 484.278 38.128C484.782 37.768 485.034 37.27 485.034 36.634C485.034 36.226 484.908 35.896 484.656 35.644C484.416 35.392 484.056 35.17 483.576 34.978C483.096 34.786 482.376 34.546 481.416 34.258C480.48 33.994 479.736 33.712 479.184 33.412C478.632 33.112 478.218 32.74 477.942 32.296C477.666 31.852 477.528 31.294 477.528 30.622C477.528 29.974 477.702 29.392 478.05 28.876C478.41 28.36 478.92 27.958 479.58 27.67C480.24 27.37 481.026 27.22 481.938 27.22C482.874 27.22 483.678 27.388 484.35 27.724C485.022 28.048 485.532 28.462 485.88 28.966C486.228 29.47 486.414 29.974 486.438 30.478C486.438 30.574 486.402 30.658 486.33 30.73C486.27 30.802 486.18 30.838 486.06 30.838H485.106C484.854 30.838 484.698 30.724 484.638 30.496C484.566 29.992 484.284 29.578 483.792 29.254C483.3 28.918 482.682 28.75 481.938 28.75C481.122 28.75 480.48 28.906 480.012 29.218C479.544 29.53 479.31 29.992 479.31 30.604C479.31 31.012 479.418 31.348 479.634 31.612C479.862 31.876 480.204 32.11 480.66 32.314C481.116 32.506 481.782 32.728 482.658 32.98C483.678 33.256 484.482 33.544 485.07 33.844C485.658 34.132 486.096 34.498 486.384 34.942C486.672 35.374 486.816 35.926 486.816 36.598C486.816 37.714 486.384 38.59 485.52 39.226C484.656 39.862 483.492 40.18 482.028 40.18ZM489.211 28.894C489.091 28.894 488.989 28.858 488.905 28.786C488.833 28.702 488.797 28.6 488.797 28.48V27.508C488.797 27.388 488.833 27.286 488.905 27.202C488.989 27.118 489.091 27.076 489.211 27.076H490.345C490.465 27.076 490.567 27.118 490.651 27.202C490.735 27.286 490.777 27.388 490.777 27.508V28.48C490.777 28.6 490.735 28.702 490.651 28.786C490.567 28.858 490.465 28.894 490.345 28.894H489.211ZM489.355 40C489.235 40 489.133 39.964 489.049 39.892C488.977 39.808 488.941 39.706 488.941 39.586V31.054C488.941 30.934 488.977 30.838 489.049 30.766C489.133 30.682 489.235 30.64 489.355 30.64H490.219C490.339 30.64 490.435 30.682 490.507 30.766C490.591 30.838 490.633 30.934 490.633 31.054V39.586C490.633 39.706 490.591 39.808 490.507 39.892C490.435 39.964 490.339 40 490.219 40H489.355ZM497.135 43.96C496.151 43.96 495.359 43.792 494.759 43.456C494.159 43.132 493.733 42.76 493.481 42.34C493.229 41.92 493.091 41.542 493.067 41.206C493.055 41.086 493.091 40.984 493.175 40.9C493.271 40.816 493.373 40.774 493.481 40.774H494.345C494.453 40.774 494.543 40.798 494.615 40.846C494.687 40.906 494.747 41.008 494.795 41.152C494.939 41.536 495.173 41.866 495.497 42.142C495.833 42.43 496.349 42.574 497.045 42.574C497.933 42.574 498.587 42.382 499.007 41.998C499.427 41.626 499.637 40.96 499.637 40V38.776C499.325 39.172 498.929 39.49 498.449 39.73C497.969 39.958 497.399 40.072 496.739 40.072C495.467 40.072 494.513 39.67 493.877 38.866C493.253 38.05 492.923 37.018 492.887 35.77L492.869 35.266L492.887 34.78C492.923 33.544 493.259 32.518 493.895 31.702C494.531 30.874 495.479 30.46 496.739 30.46C497.999 30.46 498.983 30.922 499.691 31.846V31.072C499.691 30.952 499.727 30.85 499.799 30.766C499.883 30.682 499.985 30.64 500.105 30.64H500.933C501.053 30.64 501.155 30.682 501.239 30.766C501.323 30.85 501.365 30.952 501.365 31.072V39.802C501.365 42.574 499.955 43.96 497.135 43.96ZM497.099 38.632C497.915 38.632 498.533 38.362 498.953 37.822C499.373 37.282 499.601 36.64 499.637 35.896C499.649 35.788 499.655 35.578 499.655 35.266C499.655 34.966 499.649 34.762 499.637 34.654C499.601 33.91 499.373 33.268 498.953 32.728C498.545 32.188 497.927 31.918 497.099 31.918C496.247 31.918 495.629 32.182 495.245 32.71C494.861 33.238 494.651 33.934 494.615 34.798L494.597 35.266L494.615 35.752C494.651 36.604 494.861 37.3 495.245 37.84C495.629 38.368 496.247 38.632 497.099 38.632ZM504.455 40C504.335 40 504.233 39.964 504.149 39.892C504.077 39.808 504.041 39.706 504.041 39.586V31.054C504.041 30.934 504.077 30.838 504.149 30.766C504.233 30.682 504.335 30.64 504.455 30.64H505.301C505.421 30.64 505.517 30.682 505.589 30.766C505.673 30.838 505.715 30.934 505.715 31.054V31.846C506.063 31.402 506.471 31.06 506.939 30.82C507.419 30.58 508.013 30.46 508.721 30.46C509.873 30.46 510.767 30.832 511.403 31.576C512.051 32.308 512.375 33.286 512.375 34.51V39.586C512.375 39.706 512.333 39.808 512.249 39.892C512.177 39.964 512.081 40 511.961 40H511.061C510.941 40 510.839 39.964 510.755 39.892C510.683 39.808 510.647 39.706 510.647 39.586V34.6C510.647 33.748 510.437 33.088 510.017 32.62C509.609 32.152 509.015 31.918 508.235 31.918C507.479 31.918 506.879 32.158 506.435 32.638C505.991 33.106 505.769 33.76 505.769 34.6V39.586C505.769 39.706 505.727 39.808 505.643 39.892C505.571 39.964 505.475 40 505.355 40H504.455ZM522.861 40.18C521.721 40.18 520.839 39.814 520.215 39.082C519.591 38.338 519.279 37.354 519.279 36.13V31.054C519.279 30.934 519.315 30.838 519.387 30.766C519.471 30.682 519.573 30.64 519.693 30.64H520.593C520.713 30.64 520.809 30.682 520.881 30.766C520.965 30.838 521.007 30.934 521.007 31.054V36.04C521.007 37.828 521.787 38.722 523.347 38.722C524.103 38.722 524.703 38.488 525.147 38.02C525.591 37.54 525.813 36.88 525.813 36.04V31.054C525.813 30.934 525.849 30.838 525.921 30.766C526.005 30.682 526.107 30.64 526.227 30.64H527.127C527.247 30.64 527.343 30.682 527.415 30.766C527.487 30.838 527.523 30.934 527.523 31.054V39.586C527.523 39.706 527.487 39.808 527.415 39.892C527.343 39.964 527.247 40 527.127 40H526.281C526.161 40 526.059 39.964 525.975 39.892C525.903 39.808 525.867 39.706 525.867 39.586V38.794C525.531 39.25 525.123 39.598 524.643 39.838C524.163 40.066 523.569 40.18 522.861 40.18ZM530.629 43.42C530.509 43.42 530.407 43.378 530.323 43.294C530.251 43.222 530.215 43.126 530.215 43.006V31.054C530.215 30.934 530.251 30.838 530.323 30.766C530.407 30.682 530.509 30.64 530.629 30.64H531.457C531.577 30.64 531.673 30.682 531.745 30.766C531.829 30.838 531.871 30.934 531.871 31.054V31.846C532.543 30.922 533.527 30.46 534.823 30.46C536.083 30.46 537.025 30.856 537.649 31.648C538.285 32.44 538.627 33.46 538.675 34.708C538.687 34.84 538.693 35.044 538.693 35.32C538.693 35.596 538.687 35.8 538.675 35.932C538.627 37.168 538.285 38.188 537.649 38.992C537.013 39.784 536.071 40.18 534.823 40.18C533.575 40.18 532.603 39.73 531.907 38.83V43.006C531.907 43.126 531.871 43.222 531.799 43.294C531.727 43.378 531.631 43.42 531.511 43.42H530.629ZM534.445 38.722C535.297 38.722 535.915 38.458 536.299 37.93C536.695 37.402 536.911 36.706 536.947 35.842C536.959 35.722 536.965 35.548 536.965 35.32C536.965 33.052 536.125 31.918 534.445 31.918C533.617 31.918 532.993 32.194 532.573 32.746C532.165 33.286 531.943 33.934 531.907 34.69L531.889 35.374L531.907 36.076C531.931 36.784 532.159 37.402 532.591 37.93C533.023 38.458 533.641 38.722 534.445 38.722Z" fill="#004A7C"/>
<path d="M233.577 40C233.457 40 233.355 39.964 233.271 39.892C233.199 39.808 233.163 39.706 233.163 39.586V27.832C233.163 27.7 233.199 27.598 233.271 27.526C233.355 27.442 233.457 27.4 233.577 27.4H240.921C241.053 27.4 241.155 27.442 241.227 27.526C241.311 27.598 241.353 27.7 241.353 27.832V28.552C241.353 28.672 241.311 28.774 241.227 28.858C241.155 28.93 241.053 28.966 240.921 28.966H234.909V33.16H240.561C240.693 33.16 240.795 33.202 240.867 33.286C240.951 33.358 240.993 33.46 240.993 33.592V34.312C240.993 34.432 240.951 34.534 240.867 34.618C240.783 34.69 240.681 34.726 240.561 34.726H234.909V39.586C234.909 39.706 234.867 39.808 234.783 39.892C234.699 39.964 234.597 40 234.477 40H233.577ZM246.991 40.18C245.755 40.18 244.765 39.802 244.021 39.046C243.289 38.278 242.887 37.234 242.815 35.914L242.797 35.302L242.815 34.708C242.899 33.412 243.307 32.38 244.039 31.612C244.783 30.844 245.761 30.46 246.973 30.46C248.305 30.46 249.337 30.886 250.069 31.738C250.801 32.578 251.167 33.718 251.167 35.158V35.464C251.167 35.584 251.125 35.686 251.041 35.77C250.969 35.842 250.873 35.878 250.753 35.878H244.525V36.04C244.561 36.82 244.795 37.486 245.227 38.038C245.671 38.578 246.253 38.848 246.973 38.848C247.525 38.848 247.975 38.74 248.323 38.524C248.683 38.296 248.947 38.062 249.115 37.822C249.223 37.678 249.301 37.594 249.349 37.57C249.409 37.534 249.511 37.516 249.655 37.516H250.537C250.645 37.516 250.735 37.546 250.807 37.606C250.879 37.666 250.915 37.75 250.915 37.858C250.915 38.122 250.747 38.44 250.411 38.812C250.087 39.184 249.625 39.508 249.025 39.784C248.437 40.048 247.759 40.18 246.991 40.18ZM249.457 34.636V34.582C249.457 33.754 249.229 33.082 248.773 32.566C248.329 32.038 247.729 31.774 246.973 31.774C246.217 31.774 245.617 32.038 245.173 32.566C244.741 33.082 244.525 33.754 244.525 34.582V34.636H249.457ZM255.929 40.18C255.341 40.18 254.795 40.06 254.291 39.82C253.787 39.58 253.385 39.256 253.085 38.848C252.797 38.428 252.653 37.966 252.653 37.462C252.653 36.67 252.977 36.022 253.625 35.518C254.285 35.002 255.173 34.666 256.289 34.51L258.971 34.132V33.61C258.971 32.386 258.269 31.774 256.865 31.774C256.337 31.774 255.905 31.888 255.569 32.116C255.233 32.332 254.981 32.59 254.813 32.89C254.777 32.998 254.729 33.076 254.669 33.124C254.621 33.172 254.549 33.196 254.453 33.196H253.679C253.571 33.196 253.475 33.16 253.391 33.088C253.319 33.004 253.283 32.908 253.283 32.8C253.295 32.512 253.427 32.188 253.679 31.828C253.943 31.456 254.345 31.138 254.885 30.874C255.425 30.598 256.091 30.46 256.883 30.46C258.227 30.46 259.193 30.778 259.781 31.414C260.369 32.038 260.663 32.818 260.663 33.754V39.586C260.663 39.706 260.621 39.808 260.537 39.892C260.465 39.964 260.369 40 260.249 40H259.421C259.301 40 259.199 39.964 259.115 39.892C259.043 39.808 259.007 39.706 259.007 39.586V38.812C258.743 39.196 258.359 39.52 257.855 39.784C257.351 40.048 256.709 40.18 255.929 40.18ZM256.307 38.83C257.087 38.83 257.723 38.578 258.215 38.074C258.719 37.558 258.971 36.82 258.971 35.86V35.356L256.883 35.662C256.031 35.782 255.389 35.986 254.957 36.274C254.525 36.55 254.309 36.904 254.309 37.336C254.309 37.816 254.507 38.188 254.903 38.452C255.299 38.704 255.767 38.83 256.307 38.83ZM266.817 40C264.921 40 263.973 38.944 263.973 36.832V32.08H262.569C262.449 32.08 262.347 32.044 262.263 31.972C262.191 31.888 262.155 31.786 262.155 31.666V31.054C262.155 30.934 262.191 30.838 262.263 30.766C262.347 30.682 262.449 30.64 262.569 30.64H263.973V27.634C263.973 27.514 264.009 27.418 264.081 27.346C264.165 27.262 264.267 27.22 264.387 27.22H265.233C265.353 27.22 265.449 27.262 265.521 27.346C265.605 27.418 265.647 27.514 265.647 27.634V30.64H267.879C267.999 30.64 268.095 30.682 268.167 30.766C268.251 30.838 268.293 30.934 268.293 31.054V31.666C268.293 31.786 268.251 31.888 268.167 31.972C268.095 32.044 267.999 32.08 267.879 32.08H265.647V36.706C265.647 37.306 265.749 37.762 265.953 38.074C266.157 38.374 266.493 38.524 266.961 38.524H268.059C268.179 38.524 268.275 38.566 268.347 38.65C268.431 38.722 268.473 38.818 268.473 38.938V39.586C268.473 39.706 268.431 39.808 268.347 39.892C268.275 39.964 268.179 40 268.059 40H266.817ZM273.686 40.18C272.546 40.18 271.664 39.814 271.04 39.082C270.416 38.338 270.104 37.354 270.104 36.13V31.054C270.104 30.934 270.14 30.838 270.212 30.766C270.296 30.682 270.398 30.64 270.518 30.64H271.418C271.538 30.64 271.634 30.682 271.706 30.766C271.79 30.838 271.832 30.934 271.832 31.054V36.04C271.832 37.828 272.612 38.722 274.172 38.722C274.928 38.722 275.528 38.488 275.972 38.02C276.416 37.54 276.638 36.88 276.638 36.04V31.054C276.638 30.934 276.674 30.838 276.746 30.766C276.83 30.682 276.932 30.64 277.052 30.64H277.952C278.072 30.64 278.168 30.682 278.24 30.766C278.312 30.838 278.348 30.934 278.348 31.054V39.586C278.348 39.706 278.312 39.808 278.24 39.892C278.168 39.964 278.072 40 277.952 40H277.106C276.986 40 276.884 39.964 276.8 39.892C276.728 39.808 276.692 39.706 276.692 39.586V38.794C276.356 39.25 275.948 39.598 275.468 39.838C274.988 40.066 274.394 40.18 273.686 40.18ZM281.436 40C281.316 40 281.214 39.964 281.13 39.892C281.058 39.808 281.022 39.706 281.022 39.586V31.072C281.022 30.952 281.058 30.85 281.13 30.766C281.214 30.682 281.316 30.64 281.436 30.64H282.264C282.384 30.64 282.486 30.682 282.57 30.766C282.654 30.85 282.696 30.952 282.696 31.072V31.864C283.188 31.048 284.028 30.64 285.216 30.64H285.918C286.038 30.64 286.134 30.682 286.206 30.766C286.29 30.838 286.332 30.934 286.332 31.054V31.792C286.332 31.912 286.29 32.008 286.206 32.08C286.134 32.152 286.038 32.188 285.918 32.188H284.838C284.19 32.188 283.68 32.38 283.308 32.764C282.936 33.136 282.75 33.646 282.75 34.294V39.586C282.75 39.706 282.708 39.808 282.624 39.892C282.54 39.964 282.438 40 282.318 40H281.436ZM291.429 40.18C290.193 40.18 289.203 39.802 288.459 39.046C287.727 38.278 287.325 37.234 287.253 35.914L287.235 35.302L287.253 34.708C287.337 33.412 287.745 32.38 288.477 31.612C289.221 30.844 290.199 30.46 291.411 30.46C292.743 30.46 293.775 30.886 294.507 31.738C295.239 32.578 295.605 33.718 295.605 35.158V35.464C295.605 35.584 295.563 35.686 295.479 35.77C295.407 35.842 295.311 35.878 295.191 35.878H288.963V36.04C288.999 36.82 289.233 37.486 289.665 38.038C290.109 38.578 290.691 38.848 291.411 38.848C291.963 38.848 292.413 38.74 292.761 38.524C293.121 38.296 293.385 38.062 293.553 37.822C293.661 37.678 293.739 37.594 293.787 37.57C293.847 37.534 293.949 37.516 294.093 37.516H294.975C295.083 37.516 295.173 37.546 295.245 37.606C295.317 37.666 295.353 37.75 295.353 37.858C295.353 38.122 295.185 38.44 294.849 38.812C294.525 39.184 294.063 39.508 293.463 39.784C292.875 40.048 292.197 40.18 291.429 40.18ZM293.895 34.636V34.582C293.895 33.754 293.667 33.082 293.211 32.566C292.767 32.038 292.167 31.774 291.411 31.774C290.655 31.774 290.055 32.038 289.611 32.566C289.179 33.082 288.963 33.754 288.963 34.582V34.636H293.895ZM302.601 40C302.481 40 302.379 39.964 302.295 39.892C302.223 39.808 302.187 39.706 302.187 39.586V27.634C302.187 27.514 302.223 27.418 302.295 27.346C302.379 27.262 302.481 27.22 302.601 27.22H303.501C303.621 27.22 303.717 27.262 303.789 27.346C303.873 27.418 303.915 27.514 303.915 27.634V31.828C304.263 31.384 304.671 31.048 305.139 30.82C305.607 30.58 306.189 30.46 306.885 30.46C308.037 30.46 308.931 30.832 309.567 31.576C310.215 32.308 310.539 33.286 310.539 34.51V39.586C310.539 39.706 310.497 39.808 310.413 39.892C310.341 39.964 310.245 40 310.125 40H309.225C309.105 40 309.003 39.964 308.919 39.892C308.847 39.808 308.811 39.706 308.811 39.586V34.6C308.811 33.748 308.601 33.088 308.181 32.62C307.773 32.152 307.179 31.918 306.399 31.918C305.643 31.918 305.037 32.158 304.581 32.638C304.137 33.106 303.915 33.76 303.915 34.6V39.586C303.915 39.706 303.873 39.808 303.789 39.892C303.717 39.964 303.621 40 303.501 40H302.601ZM313.408 28.894C313.288 28.894 313.186 28.858 313.102 28.786C313.03 28.702 312.994 28.6 312.994 28.48V27.508C312.994 27.388 313.03 27.286 313.102 27.202C313.186 27.118 313.288 27.076 313.408 27.076H314.542C314.662 27.076 314.764 27.118 314.848 27.202C314.932 27.286 314.974 27.388 314.974 27.508V28.48C314.974 28.6 314.932 28.702 314.848 28.786C314.764 28.858 314.662 28.894 314.542 28.894H313.408ZM313.552 40C313.432 40 313.33 39.964 313.246 39.892C313.174 39.808 313.138 39.706 313.138 39.586V31.054C313.138 30.934 313.174 30.838 313.246 30.766C313.33 30.682 313.432 30.64 313.552 30.64H314.416C314.536 30.64 314.632 30.682 314.704 30.766C314.788 30.838 314.83 30.934 314.83 31.054V39.586C314.83 39.706 314.788 39.808 314.704 39.892C314.632 39.964 314.536 40 314.416 40H313.552ZM321.331 43.96C320.347 43.96 319.555 43.792 318.955 43.456C318.355 43.132 317.929 42.76 317.677 42.34C317.425 41.92 317.287 41.542 317.263 41.206C317.251 41.086 317.287 40.984 317.371 40.9C317.467 40.816 317.569 40.774 317.677 40.774H318.541C318.649 40.774 318.739 40.798 318.811 40.846C318.883 40.906 318.943 41.008 318.991 41.152C319.135 41.536 319.369 41.866 319.693 42.142C320.029 42.43 320.545 42.574 321.241 42.574C322.129 42.574 322.783 42.382 323.203 41.998C323.623 41.626 323.833 40.96 323.833 40V38.776C323.521 39.172 323.125 39.49 322.645 39.73C322.165 39.958 321.595 40.072 320.935 40.072C319.663 40.072 318.709 39.67 318.073 38.866C317.449 38.05 317.119 37.018 317.083 35.77L317.065 35.266L317.083 34.78C317.119 33.544 317.455 32.518 318.091 31.702C318.727 30.874 319.675 30.46 320.935 30.46C322.195 30.46 323.179 30.922 323.887 31.846V31.072C323.887 30.952 323.923 30.85 323.995 30.766C324.079 30.682 324.181 30.64 324.301 30.64H325.129C325.249 30.64 325.351 30.682 325.435 30.766C325.519 30.85 325.561 30.952 325.561 31.072V39.802C325.561 42.574 324.151 43.96 321.331 43.96ZM321.295 38.632C322.111 38.632 322.729 38.362 323.149 37.822C323.569 37.282 323.797 36.64 323.833 35.896C323.845 35.788 323.851 35.578 323.851 35.266C323.851 34.966 323.845 34.762 323.833 34.654C323.797 33.91 323.569 33.268 323.149 32.728C322.741 32.188 322.123 31.918 321.295 31.918C320.443 31.918 319.825 32.182 319.441 32.71C319.057 33.238 318.847 33.934 318.811 34.798L318.793 35.266L318.811 35.752C318.847 36.604 319.057 37.3 319.441 37.84C319.825 38.368 320.443 38.632 321.295 38.632ZM328.669 40C328.549 40 328.447 39.964 328.363 39.892C328.291 39.808 328.255 39.706 328.255 39.586V27.634C328.255 27.514 328.291 27.418 328.363 27.346C328.447 27.262 328.549 27.22 328.669 27.22H329.569C329.689 27.22 329.785 27.262 329.857 27.346C329.941 27.418 329.983 27.514 329.983 27.634V31.828C330.331 31.384 330.739 31.048 331.207 30.82C331.675 30.58 332.257 30.46 332.953 30.46C334.105 30.46 334.999 30.832 335.635 31.576C336.283 32.308 336.607 33.286 336.607 34.51V39.586C336.607 39.706 336.565 39.808 336.481 39.892C336.409 39.964 336.313 40 336.193 40H335.293C335.173 40 335.071 39.964 334.987 39.892C334.915 39.808 334.879 39.706 334.879 39.586V34.6C334.879 33.748 334.669 33.088 334.249 32.62C333.841 32.152 333.247 31.918 332.467 31.918C331.711 31.918 331.105 32.158 330.649 32.638C330.205 33.106 329.983 33.76 329.983 34.6V39.586C329.983 39.706 329.941 39.808 329.857 39.892C329.785 39.964 329.689 40 329.569 40H328.669ZM339.638 40C339.518 40 339.416 39.964 339.332 39.892C339.26 39.808 339.224 39.706 339.224 39.586V27.634C339.224 27.514 339.26 27.418 339.332 27.346C339.416 27.262 339.518 27.22 339.638 27.22H340.484C340.604 27.22 340.7 27.262 340.772 27.346C340.856 27.418 340.898 27.514 340.898 27.634V39.586C340.898 39.706 340.856 39.808 340.772 39.892C340.7 39.964 340.604 40 340.484 40H339.638ZM343.853 28.894C343.733 28.894 343.631 28.858 343.547 28.786C343.475 28.702 343.439 28.6 343.439 28.48V27.508C343.439 27.388 343.475 27.286 343.547 27.202C343.631 27.118 343.733 27.076 343.853 27.076H344.987C345.107 27.076 345.209 27.118 345.293 27.202C345.377 27.286 345.419 27.388 345.419 27.508V28.48C345.419 28.6 345.377 28.702 345.293 28.786C345.209 28.858 345.107 28.894 344.987 28.894H343.853ZM343.997 40C343.877 40 343.775 39.964 343.691 39.892C343.619 39.808 343.583 39.706 343.583 39.586V31.054C343.583 30.934 343.619 30.838 343.691 30.766C343.775 30.682 343.877 30.64 343.997 30.64H344.861C344.981 30.64 345.077 30.682 345.149 30.766C345.233 30.838 345.275 30.934 345.275 31.054V39.586C345.275 39.706 345.233 39.808 345.149 39.892C345.077 39.964 344.981 40 344.861 40H343.997ZM351.776 43.96C350.792 43.96 350 43.792 349.4 43.456C348.8 43.132 348.374 42.76 348.122 42.34C347.87 41.92 347.732 41.542 347.708 41.206C347.696 41.086 347.732 40.984 347.816 40.9C347.912 40.816 348.014 40.774 348.122 40.774H348.986C349.094 40.774 349.184 40.798 349.256 40.846C349.328 40.906 349.388 41.008 349.436 41.152C349.58 41.536 349.814 41.866 350.138 42.142C350.474 42.43 350.99 42.574 351.686 42.574C352.574 42.574 353.228 42.382 353.648 41.998C354.068 41.626 354.278 40.96 354.278 40V38.776C353.966 39.172 353.57 39.49 353.09 39.73C352.61 39.958 352.04 40.072 351.38 40.072C350.108 40.072 349.154 39.67 348.518 38.866C347.894 38.05 347.564 37.018 347.528 35.77L347.51 35.266L347.528 34.78C347.564 33.544 347.9 32.518 348.536 31.702C349.172 30.874 350.12 30.46 351.38 30.46C352.64 30.46 353.624 30.922 354.332 31.846V31.072C354.332 30.952 354.368 30.85 354.44 30.766C354.524 30.682 354.626 30.64 354.746 30.64H355.574C355.694 30.64 355.796 30.682 355.88 30.766C355.964 30.85 356.006 30.952 356.006 31.072V39.802C356.006 42.574 354.596 43.96 351.776 43.96ZM351.74 38.632C352.556 38.632 353.174 38.362 353.594 37.822C354.014 37.282 354.242 36.64 354.278 35.896C354.29 35.788 354.296 35.578 354.296 35.266C354.296 34.966 354.29 34.762 354.278 34.654C354.242 33.91 354.014 33.268 353.594 32.728C353.186 32.188 352.568 31.918 351.74 31.918C350.888 31.918 350.27 32.182 349.886 32.71C349.502 33.238 349.292 33.934 349.256 34.798L349.238 35.266L349.256 35.752C349.292 36.604 349.502 37.3 349.886 37.84C350.27 38.368 350.888 38.632 351.74 38.632ZM359.115 40C358.995 40 358.893 39.964 358.809 39.892C358.737 39.808 358.701 39.706 358.701 39.586V27.634C358.701 27.514 358.737 27.418 358.809 27.346C358.893 27.262 358.995 27.22 359.115 27.22H360.015C360.135 27.22 360.231 27.262 360.303 27.346C360.387 27.418 360.429 27.514 360.429 27.634V31.828C360.777 31.384 361.185 31.048 361.653 30.82C362.121 30.58 362.703 30.46 363.399 30.46C364.551 30.46 365.445 30.832 366.081 31.576C366.729 32.308 367.053 33.286 367.053 34.51V39.586C367.053 39.706 367.011 39.808 366.927 39.892C366.855 39.964 366.759 40 366.639 40H365.739C365.619 40 365.517 39.964 365.433 39.892C365.361 39.808 365.325 39.706 365.325 39.586V34.6C365.325 33.748 365.115 33.088 364.695 32.62C364.287 32.152 363.693 31.918 362.913 31.918C362.157 31.918 361.551 32.158 361.095 32.638C360.651 33.106 360.429 33.76 360.429 34.6V39.586C360.429 39.706 360.387 39.808 360.303 39.892C360.231 39.964 360.135 40 360.015 40H359.115ZM373.182 40C371.286 40 370.338 38.944 370.338 36.832V32.08H368.934C368.814 32.08 368.712 32.044 368.628 31.972C368.556 31.888 368.52 31.786 368.52 31.666V31.054C368.52 30.934 368.556 30.838 368.628 30.766C368.712 30.682 368.814 30.64 368.934 30.64H370.338V27.634C370.338 27.514 370.374 27.418 370.446 27.346C370.53 27.262 370.632 27.22 370.752 27.22H371.598C371.718 27.22 371.814 27.262 371.886 27.346C371.97 27.418 372.012 27.514 372.012 27.634V30.64H374.244C374.364 30.64 374.46 30.682 374.532 30.766C374.616 30.838 374.658 30.934 374.658 31.054V31.666C374.658 31.786 374.616 31.888 374.532 31.972C374.46 32.044 374.364 32.08 374.244 32.08H372.012V36.706C372.012 37.306 372.114 37.762 372.318 38.074C372.522 38.374 372.858 38.524 373.326 38.524H374.424C374.544 38.524 374.64 38.566 374.712 38.65C374.796 38.722 374.838 38.818 374.838 38.938V39.586C374.838 39.706 374.796 39.808 374.712 39.892C374.64 39.964 374.544 40 374.424 40H373.182ZM379.8 40.18C378.96 40.18 378.252 40.048 377.676 39.784C377.112 39.508 376.686 39.196 376.398 38.848C376.122 38.5 375.984 38.212 375.984 37.984C375.984 37.864 376.026 37.774 376.11 37.714C376.206 37.642 376.302 37.606 376.398 37.606H377.208C377.328 37.606 377.436 37.666 377.532 37.786C377.82 38.122 378.132 38.386 378.468 38.578C378.804 38.77 379.254 38.866 379.818 38.866C380.442 38.866 380.946 38.746 381.33 38.506C381.726 38.254 381.924 37.912 381.924 37.48C381.924 37.192 381.84 36.958 381.672 36.778C381.516 36.586 381.24 36.424 380.844 36.292C380.46 36.148 379.884 35.992 379.116 35.824C378.072 35.596 377.328 35.266 376.884 34.834C376.452 34.402 376.236 33.844 376.236 33.16C376.236 32.704 376.368 32.272 376.632 31.864C376.908 31.444 377.304 31.108 377.82 30.856C378.348 30.592 378.978 30.46 379.71 30.46C380.478 30.46 381.132 30.586 381.672 30.838C382.212 31.09 382.614 31.39 382.878 31.738C383.154 32.074 383.292 32.356 383.292 32.584C383.292 32.692 383.25 32.782 383.166 32.854C383.094 32.926 383.004 32.962 382.896 32.962H382.14C381.996 32.962 381.876 32.902 381.78 32.782C381.588 32.554 381.42 32.38 381.276 32.26C381.144 32.128 380.946 32.014 380.682 31.918C380.43 31.822 380.106 31.774 379.71 31.774C379.134 31.774 378.69 31.9 378.378 32.152C378.066 32.392 377.91 32.71 377.91 33.106C377.91 33.358 377.976 33.574 378.108 33.754C378.24 33.922 378.492 34.078 378.864 34.222C379.248 34.366 379.8 34.516 380.52 34.672C381.66 34.912 382.464 35.26 382.932 35.716C383.412 36.16 383.652 36.73 383.652 37.426C383.652 37.942 383.502 38.41 383.202 38.83C382.902 39.25 382.458 39.58 381.87 39.82C381.294 40.06 380.604 40.18 379.8 40.18Z" fill="#004A7C"/>
</svg>
