<svg width="1200" height="600" viewBox="0 0 1200 600" fill="none" xmlns="http://www.w3.org/2000/svg">
<g clip-path="url(#clip0)">
<rect width="1200" height="600" fill="white"/>
<rect width="1200" height="600" fill="url(#paint0_linear)"/>
<path d="M622 279H818.104C820.313 279 822.104 280.791 822.104 283V404.784H618V283C618 280.791 619.791 279 622 279Z" fill="#E5E5E5" stroke="#E5E5E5" stroke-width="2"/>
<g filter="url(#filter0_d)">
<rect x="617" y="278" width="206.104" height="274.805" rx="5" fill="white"/>
</g>
<path d="M617 283C617 280.239 619.239 278 622 278H818.104C820.865 278 823.104 280.239 823.104 283V405.784H617V283Z" fill="#E5E5E5"/>
<rect x="659.595" y="458.684" width="120.227" height="6.87012" rx="2" fill="#E5E5E5"/>
<rect x="659.594" y="472.425" width="120.227" height="6.87012" rx="2" fill="#E5E5E5"/>
<rect x="659.594" y="486.165" width="120.227" height="6.87012" rx="2" fill="#E5E5E5"/>
<circle cx="706.637" cy="536.268" r="3.09156" fill="#7C7C7C"/>
<circle cx="719.691" cy="536.268" r="3.09156" fill="#C4C4C4"/>
<circle cx="732.744" cy="536.268" r="3.09156" fill="#C4C4C4"/>
<path d="M807.447 436.061C807.447 435.502 807.9 435.048 808.459 435.048H814.534C815.093 435.048 815.546 435.502 815.546 436.061V436.061C815.546 436.62 815.093 437.073 814.534 437.073H808.459C807.9 437.073 807.447 436.62 807.447 436.061V436.061Z" fill="#17C3B2"/>
<path d="M804.788 430.099C804.393 429.704 804.393 429.063 804.788 428.667L809.083 424.372C809.479 423.976 810.12 423.976 810.515 424.372V424.372C810.911 424.767 810.911 425.408 810.515 425.804L806.22 430.099C805.824 430.494 805.183 430.494 804.788 430.099V430.099Z" fill="#17C3B2"/>
<path d="M799.684 427.624C799.125 427.624 798.672 427.17 798.672 426.611V420.537C798.672 419.978 799.125 419.524 799.684 419.524V419.524C800.243 419.524 800.697 419.978 800.697 420.537V426.611C800.697 427.17 800.243 427.624 799.684 427.624V427.624Z" fill="#17C3B2"/>
<path d="M799.684 452.26C799.125 452.26 798.672 451.807 798.672 451.248V445.173C798.672 444.614 799.125 444.16 799.684 444.16V444.16C800.243 444.16 800.697 444.614 800.697 445.173V451.248C800.697 451.807 800.243 452.26 799.684 452.26V452.26Z" fill="#17C3B2"/>
<path d="M810.515 447.566C810.12 447.961 809.479 447.961 809.083 447.566L804.788 443.271C804.392 442.875 804.392 442.234 804.788 441.839V441.839C805.183 441.443 805.824 441.443 806.22 441.839L810.515 446.134C810.91 446.53 810.91 447.171 810.515 447.566V447.566Z" fill="#17C3B2"/>
<path d="M631.282 435.724C631.282 436.283 630.829 436.736 630.27 436.736H624.195C623.636 436.736 623.183 436.283 623.183 435.724V435.724C623.183 435.164 623.636 434.711 624.195 434.711H630.27C630.829 434.711 631.282 435.164 631.282 435.724V435.724Z" fill="#17C3B2"/>
<path d="M633.941 441.685C634.336 442.081 634.336 442.722 633.941 443.117L629.646 447.412C629.25 447.808 628.609 447.808 628.214 447.412V447.412C627.818 447.017 627.818 446.376 628.214 445.981L632.509 441.685C632.905 441.29 633.546 441.29 633.941 441.685V441.685Z" fill="#17C3B2"/>
<path d="M639.045 444.161C639.604 444.161 640.057 444.614 640.057 445.173V451.248C640.057 451.807 639.604 452.26 639.045 452.26V452.26C638.486 452.26 638.032 451.807 638.032 451.248V445.173C638.032 444.614 638.486 444.161 639.045 444.161V444.161Z" fill="#17C3B2"/>
<path d="M639.045 419.524C639.604 419.524 640.057 419.978 640.057 420.537V426.612C640.057 427.171 639.604 427.624 639.045 427.624V427.624C638.486 427.624 638.032 427.171 638.032 426.612V420.537C638.032 419.978 638.486 419.524 639.045 419.524V419.524Z" fill="#17C3B2"/>
<path d="M628.214 424.218C628.609 423.823 629.25 423.823 629.646 424.218L633.941 428.514C634.337 428.909 634.337 429.55 633.941 429.946V429.946C633.546 430.341 632.905 430.341 632.509 429.946L628.214 425.65C627.819 425.255 627.819 424.614 628.214 424.218V424.218Z" fill="#17C3B2"/>
<rect x="643.794" y="431.891" width="151.143" height="8.24415" rx="2" fill="#227C9D"/>
<rect x="695.32" y="504.714" width="50.0538" height="16.4883" rx="5" fill="#E8F1F5"/>
<path d="M845.948 281.677H1042.05C1044.26 281.677 1046.05 283.467 1046.05 285.677V407.461H841.948V285.677C841.948 283.467 843.739 281.677 845.948 281.677Z" fill="#E5E5E5" stroke="#E5E5E5" stroke-width="2"/>
<g filter="url(#filter1_d)">
<rect x="840.948" y="280.677" width="206.104" height="274.805" rx="5" fill="white"/>
</g>
<path d="M840.948 285.677C840.948 282.915 843.187 280.677 845.948 280.677H1042.05C1044.81 280.677 1047.05 282.915 1047.05 285.677V408.461H840.948V285.677Z" fill="#E5E5E5"/>
<rect x="883.544" y="461.361" width="120.227" height="6.87012" rx="2" fill="#E5E5E5"/>
<rect x="883.542" y="475.101" width="120.227" height="6.87012" rx="2" fill="#E5E5E5"/>
<rect x="883.542" y="488.841" width="120.227" height="6.87012" rx="2" fill="#E5E5E5"/>
<circle cx="930.586" cy="538.944" r="3.09156" fill="#C4C4C4"/>
<circle cx="943.639" cy="538.944" r="3.09156" fill="#7C7C7C"/>
<circle cx="956.692" cy="538.944" r="3.09156" fill="#C4C4C4"/>
<path d="M1031.39 438.738C1031.39 438.178 1031.85 437.725 1032.41 437.725H1038.48C1039.04 437.725 1039.49 438.178 1039.49 438.738V438.738C1039.49 439.297 1039.04 439.75 1038.48 439.75H1032.41C1031.85 439.75 1031.39 439.297 1031.39 438.738V438.738Z" fill="#17C3B2"/>
<path d="M1028.74 432.776C1028.34 432.38 1028.34 431.739 1028.74 431.344L1033.03 427.048C1033.43 426.653 1034.07 426.653 1034.46 427.048V427.048C1034.86 427.444 1034.86 428.085 1034.46 428.48L1030.17 432.776C1029.77 433.171 1029.13 433.171 1028.74 432.776V432.776Z" fill="#17C3B2"/>
<path d="M1023.63 430.301C1023.07 430.301 1022.62 429.847 1022.62 429.288V423.213C1022.62 422.654 1023.07 422.201 1023.63 422.201V422.201C1024.19 422.201 1024.64 422.654 1024.64 423.213V429.288C1024.64 429.847 1024.19 430.301 1023.63 430.301V430.301Z" fill="#17C3B2"/>
<path d="M1023.63 454.937C1023.07 454.937 1022.62 454.483 1022.62 453.924V447.85C1022.62 447.291 1023.07 446.837 1023.63 446.837V446.837C1024.19 446.837 1024.64 447.291 1024.64 447.85V453.924C1024.64 454.483 1024.19 454.937 1023.63 454.937V454.937Z" fill="#17C3B2"/>
<path d="M1034.46 450.243C1034.07 450.638 1033.43 450.638 1033.03 450.243L1028.74 445.947C1028.34 445.552 1028.34 444.911 1028.74 444.516V444.516C1029.13 444.12 1029.77 444.12 1030.17 444.516L1034.46 448.811C1034.86 449.206 1034.86 449.847 1034.46 450.243V450.243Z" fill="#17C3B2"/>
<path d="M855.23 438.4C855.23 438.96 854.777 439.413 854.218 439.413H848.143C847.584 439.413 847.131 438.96 847.131 438.4V438.4C847.131 437.841 847.584 437.388 848.143 437.388H854.218C854.777 437.388 855.23 437.841 855.23 438.4V438.4Z" fill="#17C3B2"/>
<path d="M857.889 444.362C858.285 444.757 858.285 445.398 857.889 445.794L853.594 450.089C853.199 450.485 852.557 450.485 852.162 450.089V450.089C851.767 449.694 851.767 449.053 852.162 448.657L856.458 444.362C856.853 443.967 857.494 443.967 857.889 444.362V444.362Z" fill="#17C3B2"/>
<path d="M862.993 446.837C863.552 446.837 864.005 447.291 864.005 447.85V453.924C864.005 454.484 863.552 454.937 862.993 454.937V454.937C862.434 454.937 861.98 454.484 861.98 453.924V447.85C861.98 447.291 862.434 446.837 862.993 446.837V446.837Z" fill="#17C3B2"/>
<path d="M862.993 422.201C863.552 422.201 864.005 422.654 864.005 423.214V429.288C864.005 429.847 863.552 430.301 862.993 430.301V430.301C862.434 430.301 861.98 429.847 861.98 429.288V423.214C861.98 422.654 862.434 422.201 862.993 422.201V422.201Z" fill="#17C3B2"/>
<path d="M852.162 426.895C852.557 426.5 853.198 426.5 853.594 426.895L857.889 431.191C858.285 431.586 858.285 432.227 857.889 432.622V432.622C857.494 433.018 856.853 433.018 856.457 432.622L852.162 428.327C851.767 427.932 851.767 427.29 852.162 426.895V426.895Z" fill="#17C3B2"/>
<rect x="867.742" y="434.567" width="151.143" height="8.24415" rx="2" fill="#227C9D"/>
<rect x="919.268" y="507.391" width="50.0538" height="16.4883" rx="5" fill="#E8F1F5"/>
<path d="M1069.9 281.677H1266C1268.21 281.677 1270 283.467 1270 285.677V407.461H1065.9V285.677C1065.9 283.467 1067.69 281.677 1069.9 281.677Z" fill="#E5E5E5" stroke="#E5E5E5" stroke-width="2"/>
<g filter="url(#filter2_d)">
<rect x="1064.9" y="280.677" width="206.104" height="274.805" rx="5" fill="white"/>
</g>
<path d="M1064.9 285.677C1064.9 282.915 1067.14 280.677 1069.9 280.677H1266C1268.76 280.677 1271 282.915 1271 285.677V408.461H1064.9V285.677Z" fill="#E5E5E5"/>
<rect x="1107.49" y="461.361" width="120.227" height="6.87012" rx="2" fill="#E5E5E5"/>
<rect x="1107.49" y="475.101" width="120.227" height="6.87012" rx="2" fill="#E5E5E5"/>
<rect x="1107.49" y="488.841" width="120.227" height="6.87012" rx="2" fill="#E5E5E5"/>
<circle cx="1154.53" cy="538.944" r="3.09156" fill="#C4C4C4"/>
<circle cx="1167.59" cy="538.944" r="3.09156" fill="#C4C4C4"/>
<circle cx="1180.64" cy="538.944" r="3.09156" fill="#7C7C7C"/>
<path d="M1079.18 438.4C1079.18 438.96 1078.73 439.413 1078.17 439.413H1072.09C1071.53 439.413 1071.08 438.96 1071.08 438.4V438.4C1071.08 437.841 1071.53 437.388 1072.09 437.388H1078.17C1078.73 437.388 1079.18 437.841 1079.18 438.4V438.4Z" fill="#17C3B2"/>
<path d="M1081.84 444.362C1082.23 444.757 1082.23 445.398 1081.84 445.794L1077.54 450.089C1077.15 450.485 1076.51 450.485 1076.11 450.089V450.089C1075.71 449.694 1075.71 449.053 1076.11 448.657L1080.41 444.362C1080.8 443.967 1081.44 443.967 1081.84 444.362V444.362Z" fill="#17C3B2"/>
<path d="M1086.94 446.837C1087.5 446.837 1087.95 447.291 1087.95 447.85V453.924C1087.95 454.484 1087.5 454.937 1086.94 454.937V454.937C1086.38 454.937 1085.93 454.484 1085.93 453.924V447.85C1085.93 447.291 1086.38 446.837 1086.94 446.837V446.837Z" fill="#17C3B2"/>
<path d="M1086.94 422.201C1087.5 422.201 1087.95 422.654 1087.95 423.214V429.288C1087.95 429.847 1087.5 430.301 1086.94 430.301V430.301C1086.38 430.301 1085.93 429.847 1085.93 429.288V423.214C1085.93 422.654 1086.38 422.201 1086.94 422.201V422.201Z" fill="#17C3B2"/>
<path d="M1076.11 426.895C1076.51 426.5 1077.15 426.5 1077.54 426.895L1081.84 431.191C1082.23 431.586 1082.23 432.227 1081.84 432.622V432.622C1081.44 433.018 1080.8 433.018 1080.41 432.622L1076.11 428.327C1075.71 427.932 1075.71 427.29 1076.11 426.895V426.895Z" fill="#17C3B2"/>
<rect x="1091.69" y="434.567" width="151.143" height="8.24415" rx="2" fill="#227C9D"/>
<rect x="1143.22" y="507.391" width="50.0538" height="16.4883" rx="5" fill="#E8F1F5"/>
<g filter="url(#filter3_d)">
<path d="M50 190H650V745H50V190Z" fill="white"/>
</g>
<path d="M521.9 314.7C521.9 313.595 522.795 312.7 523.9 312.7H539.7C540.804 312.7 541.7 313.595 541.7 314.7V315.65C541.7 316.755 540.804 317.65 539.7 317.65H523.9C522.795 317.65 521.9 316.755 521.9 315.65V314.7Z" fill="#17C3B2"/>
<path d="M515.064 300.265C514.283 299.484 514.283 298.218 515.064 297.437L526.236 286.264C527.017 285.483 528.284 285.483 529.065 286.264L529.737 286.936C530.518 287.717 530.518 288.983 529.737 289.765L518.564 300.937C517.783 301.718 516.517 301.718 515.736 300.937L515.064 300.265Z" fill="#17C3B2"/>
<path d="M502.45 294.55C501.345 294.55 500.45 293.655 500.45 292.55V276.75C500.45 275.645 501.345 274.75 502.45 274.75H503.4C504.504 274.75 505.4 275.645 505.4 276.75V292.55C505.4 293.655 504.504 294.55 503.4 294.55H502.45Z" fill="#17C3B2"/>
<path d="M502.45 354.775C501.345 354.775 500.45 353.879 500.45 352.775V336.975C500.45 335.87 501.345 334.975 502.45 334.975H503.4C504.504 334.975 505.4 335.87 505.4 336.975V352.775C505.4 353.879 504.504 354.775 503.4 354.775H502.45Z" fill="#17C3B2"/>
<path d="M529.065 343.637C528.284 344.418 527.017 344.418 526.236 343.637L515.064 332.464C514.283 331.683 514.283 330.417 515.064 329.636L515.736 328.964C516.517 328.183 517.783 328.183 518.564 328.964L529.736 340.136C530.517 340.917 530.517 342.184 529.736 342.965L529.065 343.637Z" fill="#17C3B2"/>
<path d="M91.2495 314.825C91.2495 315.93 90.3541 316.825 89.2495 316.825H73.4495C72.3449 316.825 71.4495 315.93 71.4495 314.825V313.875C71.4495 312.771 72.3449 311.875 73.4495 311.875H89.2495C90.3541 311.875 91.2495 312.771 91.2495 313.875V314.825Z" fill="#17C3B2"/>
<path d="M98.0853 329.26C98.8663 330.041 98.8663 331.307 98.0853 332.089L86.913 343.261C86.132 344.042 84.8656 344.042 84.0846 343.261L83.4128 342.589C82.6318 341.808 82.6318 340.542 83.4128 339.761L94.5851 328.588C95.3662 327.807 96.6325 327.807 97.4135 328.588L98.0853 329.26Z" fill="#17C3B2"/>
<path d="M110.7 334.975C111.804 334.975 112.7 335.871 112.7 336.975V352.775C112.7 353.88 111.804 354.775 110.7 354.775H109.75C108.645 354.775 107.75 353.88 107.75 352.775V336.975C107.75 335.871 108.645 334.975 109.75 334.975H110.7Z" fill="#17C3B2"/>
<path d="M110.7 274.75C111.804 274.75 112.7 275.646 112.7 276.75V292.55C112.7 293.655 111.804 294.55 110.7 294.55H109.75C108.645 294.55 107.75 293.655 107.75 292.55V276.75C107.75 275.646 108.645 274.75 109.75 274.75H110.7Z" fill="#17C3B2"/>
<path d="M84.0848 285.889C84.8659 285.108 86.1322 285.108 86.9132 285.889L98.0855 297.061C98.8666 297.842 98.8666 299.108 98.0855 299.889L97.4138 300.561C96.6327 301.342 95.3664 301.342 94.5853 300.561L83.4131 289.389C82.632 288.608 82.632 287.341 83.4131 286.56L84.0848 285.889Z" fill="#17C3B2"/>
<rect x="129.2" y="340.75" width="247.5" height="9.9" rx="2" fill="#E5E5E5"/>
<rect x="129.2" y="550.3" width="247.5" height="9.9" rx="2" fill="#E5E5E5"/>
<rect x="186.95" y="446.35" width="247.5" height="9.9" rx="2" fill="#E5E5E5"/>
<rect x="384.95" y="340.75" width="49.5" height="9.9" rx="2" fill="#E5E5E5"/>
<rect x="384.95" y="550.3" width="49.5" height="9.9" rx="2" fill="#E5E5E5"/>
<rect x="129.2" y="446.35" width="49.5" height="9.9" rx="2" fill="#E5E5E5"/>
<rect x="129.2" y="367.15" width="247.5" height="9.9" rx="2" fill="#E5E5E5"/>
<rect x="129.2" y="523.9" width="247.5" height="9.9" rx="2" fill="#E5E5E5"/>
<rect x="129.2" y="419.95" width="247.5" height="9.9" rx="2" fill="#E5E5E5"/>
<rect x="129.2" y="393.55" width="99" height="9.9" rx="2" fill="#E5E5E5"/>
<rect x="129.2" y="497.5" width="99" height="9.9" rx="2" fill="#E5E5E5"/>
<rect x="310.7" y="393.55" width="99" height="9.9" rx="2" fill="#E5E5E5"/>
<rect x="310.7" y="497.5" width="99" height="9.9" rx="2" fill="#E5E5E5"/>
<rect x="236.45" y="393.55" width="66" height="9.9" rx="2" fill="#E5E5E5"/>
<rect x="236.45" y="497.5" width="66" height="9.9" rx="2" fill="#E5E5E5"/>
<rect x="120.95" y="304.45" width="371.25" height="19.8" rx="2" fill="#227C9D"/>
<rect x="50" y="190" width="600" height="60" fill="#40434E"/>
<rect x="50" y="214" width="600" height="36" fill="#E5E5E5"/>
<rect x="140" y="220" width="300" height="24" rx="5" fill="white"/>
<circle cx="66" cy="202" r="6" fill="#EE0000"/>
<circle cx="84" cy="202" r="6" fill="#FEB321"/>
<circle cx="102" cy="202" r="6" fill="#00B600"/>
<path d="M128 195C128 192.239 130.239 190 133 190H243C245.761 190 248 192.239 248 195V215H128V195Z" fill="#E5E5E5"/>
<g filter="url(#filter4_d)">
<path d="M529 38C529 35.2386 531.239 33 534 33H922C924.761 33 927 35.2386 927 38V227C927 229.761 924.761 232 922 232H534C531.239 232 529 229.761 529 227V38Z" fill="white"/>
</g>
<rect x="793.67" y="174.29" width="113.43" height="37.81" rx="5" fill="#E8F1F5"/>
<rect x="586.76" y="119.897" width="199" height="7.96" rx="2" fill="#E5E5E5"/>
<rect x="586.76" y="98.6699" width="79.6" height="7.96" rx="2" fill="#E5E5E5"/>
<rect x="732.693" y="98.6699" width="79.6" height="7.96" rx="2" fill="#E5E5E5"/>
<rect x="672.993" y="98.6699" width="53.0667" height="7.96" rx="2" fill="#E5E5E5"/>
<path d="M899.14 74.79C899.14 73.691 900.031 72.8 901.13 72.8H913.07C914.169 72.8 915.06 73.691 915.06 74.79V74.79C915.06 75.8891 914.169 76.78 913.07 76.78H901.13C900.031 76.78 899.14 75.8891 899.14 74.79V74.79Z" fill="#17C3B2"/>
<path d="M893.913 63.0717C893.136 62.2945 893.136 61.0346 893.913 60.2574L902.356 51.8146C903.133 51.0374 904.393 51.0374 905.171 51.8146V51.8146C905.948 52.5917 905.948 53.8517 905.171 54.6288L896.728 63.0717C895.951 63.8488 894.691 63.8488 893.913 63.0717V63.0717Z" fill="#17C3B2"/>
<path d="M883.883 58.2065C882.784 58.2065 881.893 57.3156 881.893 56.2165V44.2765C881.893 43.1775 882.784 42.2865 883.883 42.2865V42.2865C884.982 42.2865 885.873 43.1775 885.873 44.2765V56.2165C885.873 57.3156 884.982 58.2065 883.883 58.2065V58.2065Z" fill="#17C3B2"/>
<path d="M883.883 106.63C882.784 106.63 881.893 105.739 881.893 104.64V92.6999C881.893 91.6008 882.784 90.7099 883.883 90.7099V90.7099C884.982 90.7099 885.873 91.6008 885.873 92.6999V104.64C885.873 105.739 884.982 106.63 883.883 106.63V106.63Z" fill="#17C3B2"/>
<path d="M905.171 97.4041C904.394 98.1813 903.134 98.1813 902.357 97.4041L893.914 88.9613C893.137 88.1841 893.137 86.9241 893.914 86.147V86.147C894.691 85.3699 895.951 85.3699 896.728 86.147L905.171 94.5899C905.948 95.367 905.948 96.627 905.171 97.4041V97.4041Z" fill="#17C3B2"/>
<path d="M552.88 74.1267C552.88 75.2257 551.989 76.1167 550.89 76.1167H538.95C537.851 76.1167 536.96 75.2257 536.96 74.1267V74.1267C536.96 73.0277 537.851 72.1367 538.95 72.1367H550.89C551.989 72.1367 552.88 73.0277 552.88 74.1267V74.1267Z" fill="#17C3B2"/>
<path d="M558.107 85.8451C558.884 86.6222 558.884 87.8822 558.107 88.6593L549.664 97.1022C548.887 97.8793 547.627 97.8793 546.849 97.1022V97.1022C546.072 96.3251 546.072 95.0651 546.849 94.2879L555.292 85.8451C556.069 85.0679 557.329 85.0679 558.107 85.8451V85.8451Z" fill="#17C3B2"/>
<path d="M568.137 90.7102C569.236 90.7102 570.127 91.6012 570.127 92.7002V104.64C570.127 105.739 569.236 106.63 568.137 106.63V106.63C567.038 106.63 566.147 105.739 566.147 104.64V92.7002C566.147 91.6012 567.038 90.7102 568.137 90.7102V90.7102Z" fill="#17C3B2"/>
<path d="M568.137 42.2869C569.236 42.2869 570.127 43.1778 570.127 44.2769V56.2169C570.127 57.3159 569.236 58.2069 568.137 58.2069V58.2069C567.038 58.2069 566.147 57.3159 566.147 56.2169V44.2769C566.147 43.1778 567.038 42.2869 568.137 42.2869V42.2869Z" fill="#17C3B2"/>
<path d="M546.849 51.5126C547.626 50.7355 548.886 50.7355 549.663 51.5126L558.106 59.9555C558.883 60.7326 558.883 61.9926 558.106 62.7698V62.7698C557.329 63.5469 556.069 63.5469 555.292 62.7698L546.849 54.3269C546.072 53.5498 546.072 52.2898 546.849 51.5126V51.5126Z" fill="#17C3B2"/>
<rect x="576.76" y="66.1667" width="298.5" height="15.92" rx="2" fill="#227C9D"/>
</g>
<defs>
<filter id="filter0_d" x="617" y="278" width="216.104" height="284.805" filterUnits="userSpaceOnUse" color-interpolation-filters="sRGB">
<feFlood flood-opacity="0" result="BackgroundImageFix"/>
<feColorMatrix in="SourceAlpha" type="matrix" values="0 0 0 0 0 0 0 0 0 0 0 0 0 0 0 0 0 0 127 0"/>
<feOffset dx="5" dy="5"/>
<feGaussianBlur stdDeviation="2.5"/>
<feColorMatrix type="matrix" values="0 0 0 0 0 0 0 0 0 0 0 0 0 0 0 0 0 0 0.25 0"/>
<feBlend mode="normal" in2="BackgroundImageFix" result="effect1_dropShadow"/>
<feBlend mode="normal" in="SourceGraphic" in2="effect1_dropShadow" result="shape"/>
</filter>
<filter id="filter1_d" x="840.948" y="280.677" width="216.104" height="284.805" filterUnits="userSpaceOnUse" color-interpolation-filters="sRGB">
<feFlood flood-opacity="0" result="BackgroundImageFix"/>
<feColorMatrix in="SourceAlpha" type="matrix" values="0 0 0 0 0 0 0 0 0 0 0 0 0 0 0 0 0 0 127 0"/>
<feOffset dx="5" dy="5"/>
<feGaussianBlur stdDeviation="2.5"/>
<feColorMatrix type="matrix" values="0 0 0 0 0 0 0 0 0 0 0 0 0 0 0 0 0 0 0.25 0"/>
<feBlend mode="normal" in2="BackgroundImageFix" result="effect1_dropShadow"/>
<feBlend mode="normal" in="SourceGraphic" in2="effect1_dropShadow" result="shape"/>
</filter>
<filter id="filter2_d" x="1064.9" y="280.677" width="216.104" height="284.805" filterUnits="userSpaceOnUse" color-interpolation-filters="sRGB">
<feFlood flood-opacity="0" result="BackgroundImageFix"/>
<feColorMatrix in="SourceAlpha" type="matrix" values="0 0 0 0 0 0 0 0 0 0 0 0 0 0 0 0 0 0 127 0"/>
<feOffset dx="5" dy="5"/>
<feGaussianBlur stdDeviation="2.5"/>
<feColorMatrix type="matrix" values="0 0 0 0 0 0 0 0 0 0 0 0 0 0 0 0 0 0 0.25 0"/>
<feBlend mode="normal" in2="BackgroundImageFix" result="effect1_dropShadow"/>
<feBlend mode="normal" in="SourceGraphic" in2="effect1_dropShadow" result="shape"/>
</filter>
<filter id="filter3_d" x="50" y="190" width="610" height="565" filterUnits="userSpaceOnUse" color-interpolation-filters="sRGB">
<feFlood flood-opacity="0" result="BackgroundImageFix"/>
<feColorMatrix in="SourceAlpha" type="matrix" values="0 0 0 0 0 0 0 0 0 0 0 0 0 0 0 0 0 0 127 0"/>
<feOffset dx="5" dy="5"/>
<feGaussianBlur stdDeviation="2.5"/>
<feColorMatrix type="matrix" values="0 0 0 0 0 0 0 0 0 0 0 0 0 0 0 0 0 0 0.25 0"/>
<feBlend mode="normal" in2="BackgroundImageFix" result="effect1_dropShadow"/>
<feBlend mode="normal" in="SourceGraphic" in2="effect1_dropShadow" result="shape"/>
</filter>
<filter id="filter4_d" x="529" y="33" width="408" height="209" filterUnits="userSpaceOnUse" color-interpolation-filters="sRGB">
<feFlood flood-opacity="0" result="BackgroundImageFix"/>
<feColorMatrix in="SourceAlpha" type="matrix" values="0 0 0 0 0 0 0 0 0 0 0 0 0 0 0 0 0 0 127 0"/>
<feOffset dx="5" dy="5"/>
<feGaussianBlur stdDeviation="2.5"/>
<feColorMatrix type="matrix" values="0 0 0 0 0 0 0 0 0 0 0 0 0 0 0 0 0 0 0.25 0"/>
<feBlend mode="normal" in2="BackgroundImageFix" result="effect1_dropShadow"/>
<feBlend mode="normal" in="SourceGraphic" in2="effect1_dropShadow" result="shape"/>
</filter>
<linearGradient id="paint0_linear" x1="1367.5" y1="-90.5001" x2="-494" y2="844.5" gradientUnits="userSpaceOnUse">
<stop stop-color="#004A7C"/>
<stop offset="1" stop-color="#E8F1F5"/>
</linearGradient>
<clipPath id="clip0">
<rect width="1200" height="600" fill="white"/>
</clipPath>
</defs>
</svg>
