<svg width="450" height="300" viewBox="0 0 450 300" fill="none" xmlns="http://www.w3.org/2000/svg">
<g clip-path="url(#clip0)">
<rect width="450" height="300" fill="white"/>
<rect width="450" height="300" fill="url(#paint0_linear)"/>
<g filter="url(#filter0_d)">
<rect x="75" y="112" width="300" height="75" rx="15" fill="url(#paint1_linear)"/>
</g>
<g filter="url(#filter1_i)">
<path d="M167.308 160.82C164.364 160.82 162.081 160.063 160.46 158.548C158.86 157.033 158.007 154.9 157.9 152.148C157.879 151.572 157.868 150.633 157.868 149.332C157.868 148.009 157.879 147.049 157.9 146.452C158.007 143.721 158.871 141.599 160.492 140.084C162.135 138.548 164.407 137.78 167.308 137.78C169.207 137.78 170.86 138.111 172.268 138.772C173.676 139.412 174.764 140.297 175.532 141.428C176.3 142.537 176.705 143.796 176.748 145.204V145.268C176.748 145.439 176.673 145.588 176.524 145.716C176.396 145.823 176.247 145.876 176.076 145.876H173.036C172.78 145.876 172.588 145.823 172.46 145.716C172.332 145.609 172.225 145.407 172.14 145.108C171.799 143.764 171.233 142.825 170.444 142.292C169.655 141.737 168.599 141.46 167.276 141.46C164.204 141.46 162.604 143.177 162.476 146.612C162.455 147.188 162.444 148.073 162.444 149.268C162.444 150.463 162.455 151.369 162.476 151.988C162.604 155.423 164.204 157.14 167.276 157.14C168.599 157.14 169.655 156.863 170.444 156.308C171.255 155.753 171.82 154.815 172.14 153.492C172.204 153.193 172.3 152.991 172.428 152.884C172.577 152.777 172.78 152.724 173.036 152.724H176.076C176.268 152.724 176.428 152.788 176.556 152.916C176.705 153.044 176.769 153.204 176.748 153.396C176.705 154.804 176.3 156.073 175.532 157.204C174.764 158.313 173.676 159.199 172.268 159.86C170.86 160.5 169.207 160.82 167.308 160.82ZM180.959 160.5C180.746 160.5 180.564 160.425 180.415 160.276C180.266 160.127 180.191 159.945 180.191 159.732V138.548C180.191 138.313 180.266 138.132 180.415 138.004C180.564 137.855 180.746 137.78 180.959 137.78H183.615C183.85 137.78 184.031 137.855 184.159 138.004C184.308 138.132 184.383 138.313 184.383 138.548V159.732C184.383 159.945 184.308 160.127 184.159 160.276C184.031 160.425 183.85 160.5 183.615 160.5H180.959ZM189.268 141.108C189.054 141.108 188.873 141.033 188.724 140.884C188.574 140.735 188.5 140.553 188.5 140.34V138.036C188.5 137.823 188.574 137.641 188.724 137.492C188.873 137.343 189.054 137.268 189.268 137.268H192.18C192.393 137.268 192.574 137.343 192.724 137.492C192.894 137.641 192.98 137.823 192.98 138.036V140.34C192.98 140.553 192.905 140.735 192.756 140.884C192.606 141.033 192.414 141.108 192.18 141.108H189.268ZM189.396 160.5C189.182 160.5 189.001 160.425 188.852 160.276C188.702 160.127 188.628 159.945 188.628 159.732V144.628C188.628 144.415 188.702 144.233 188.852 144.084C189.001 143.935 189.182 143.86 189.396 143.86H192.052C192.286 143.86 192.468 143.935 192.596 144.084C192.745 144.212 192.82 144.393 192.82 144.628V159.732C192.82 159.945 192.745 160.127 192.596 160.276C192.468 160.425 192.286 160.5 192.052 160.5H189.396ZM204.265 160.82C201.918 160.82 200.041 160.169 198.633 158.868C197.246 157.567 196.51 155.764 196.425 153.46L196.393 152.18L196.425 150.9C196.51 148.596 197.246 146.793 198.633 145.492C200.041 144.191 201.918 143.54 204.265 143.54C205.929 143.54 207.337 143.839 208.489 144.436C209.662 145.033 210.526 145.769 211.081 146.644C211.657 147.497 211.966 148.308 212.009 149.076C212.03 149.289 211.956 149.471 211.785 149.62C211.636 149.769 211.454 149.844 211.241 149.844H208.425C208.212 149.844 208.041 149.801 207.913 149.716C207.806 149.609 207.7 149.439 207.593 149.204C207.273 148.372 206.846 147.775 206.313 147.412C205.801 147.049 205.14 146.868 204.329 146.868C203.241 146.868 202.388 147.22 201.769 147.924C201.15 148.607 200.82 149.652 200.777 151.06L200.745 152.244L200.777 153.3C200.862 156.095 202.046 157.492 204.329 157.492C205.161 157.492 205.833 157.311 206.345 156.948C206.857 156.585 207.273 155.988 207.593 155.156C207.7 154.921 207.806 154.761 207.913 154.676C208.041 154.569 208.212 154.516 208.425 154.516H211.241C211.454 154.516 211.636 154.591 211.785 154.74C211.956 154.889 212.03 155.071 212.009 155.284C211.966 156.031 211.668 156.831 211.113 157.684C210.558 158.537 209.705 159.273 208.553 159.892C207.401 160.511 205.972 160.82 204.265 160.82ZM216.146 160.5C215.933 160.5 215.752 160.425 215.602 160.276C215.453 160.127 215.378 159.945 215.378 159.732V138.548C215.378 138.313 215.453 138.132 215.602 138.004C215.752 137.855 215.933 137.78 216.146 137.78H218.738C218.973 137.78 219.154 137.855 219.282 138.004C219.432 138.132 219.506 138.313 219.506 138.548V149.492L224.882 144.404C224.946 144.361 225.053 144.276 225.202 144.148C225.33 144.041 225.458 143.967 225.586 143.924C225.714 143.881 225.874 143.86 226.066 143.86H229.042C229.256 143.86 229.426 143.924 229.554 144.052C229.682 144.18 229.746 144.351 229.746 144.564C229.746 144.756 229.64 144.948 229.426 145.14L222.834 151.316L230.226 159.252C230.44 159.465 230.546 159.647 230.546 159.796C230.546 160.009 230.472 160.18 230.322 160.308C230.194 160.436 230.034 160.5 229.842 160.5H226.802C226.504 160.5 226.28 160.468 226.13 160.404C226.002 160.319 225.832 160.169 225.618 159.956L219.506 153.524V159.732C219.506 159.945 219.432 160.127 219.282 160.276C219.154 160.425 218.973 160.5 218.738 160.5H216.146ZM240.802 160.5C240.589 160.5 240.407 160.425 240.258 160.276C240.109 160.127 240.034 159.945 240.034 159.732V144.628C240.034 144.415 240.109 144.233 240.258 144.084C240.407 143.935 240.589 143.86 240.802 143.86H243.298C243.511 143.86 243.693 143.935 243.842 144.084C243.991 144.233 244.066 144.415 244.066 144.628V145.716C245.175 144.265 246.722 143.54 248.706 143.54C251.074 143.54 252.727 144.489 253.666 146.388C254.178 145.535 254.903 144.852 255.842 144.34C256.781 143.807 257.794 143.54 258.882 143.54C260.631 143.54 262.061 144.137 263.17 145.332C264.279 146.527 264.834 148.265 264.834 150.548V159.732C264.834 159.945 264.759 160.127 264.61 160.276C264.482 160.425 264.301 160.5 264.066 160.5H261.442C261.229 160.5 261.047 160.425 260.898 160.276C260.749 160.127 260.674 159.945 260.674 159.732V150.804C260.674 149.46 260.386 148.489 259.81 147.892C259.255 147.273 258.509 146.964 257.57 146.964C256.738 146.964 256.023 147.273 255.426 147.892C254.85 148.511 254.562 149.481 254.562 150.804V159.732C254.562 159.945 254.487 160.127 254.338 160.276C254.189 160.425 254.007 160.5 253.794 160.5H251.17C250.957 160.5 250.775 160.425 250.626 160.276C250.477 160.127 250.402 159.945 250.402 159.732V150.804C250.402 149.46 250.103 148.489 249.506 147.892C248.93 147.273 248.194 146.964 247.298 146.964C246.445 146.964 245.719 147.273 245.122 147.892C244.546 148.511 244.258 149.481 244.258 150.804V159.732C244.258 159.945 244.183 160.127 244.034 160.276C243.885 160.425 243.703 160.5 243.49 160.5H240.802ZM276.077 160.82C273.709 160.82 271.821 160.137 270.413 158.772C269.026 157.385 268.29 155.444 268.205 152.948L268.173 152.148L268.205 151.348C268.312 148.916 269.058 147.007 270.445 145.62C271.853 144.233 273.73 143.54 276.077 143.54C278.594 143.54 280.536 144.308 281.901 145.844C283.288 147.38 283.981 149.428 283.981 151.988V152.66C283.981 152.873 283.906 153.055 283.757 153.204C283.608 153.353 283.416 153.428 283.181 153.428H272.557V153.684C272.6 154.857 272.92 155.849 273.517 156.66C274.136 157.449 274.978 157.844 276.045 157.844C277.304 157.844 278.317 157.353 279.085 156.372C279.277 156.137 279.426 155.988 279.533 155.924C279.661 155.86 279.842 155.828 280.077 155.828H282.829C283.021 155.828 283.181 155.892 283.309 156.02C283.458 156.127 283.533 156.265 283.533 156.436C283.533 156.948 283.224 157.556 282.605 158.26C282.008 158.943 281.144 159.54 280.013 160.052C278.882 160.564 277.57 160.82 276.077 160.82ZM279.629 150.74V150.644C279.629 149.385 279.309 148.372 278.669 147.604C278.05 146.836 277.186 146.452 276.077 146.452C274.968 146.452 274.104 146.836 273.485 147.604C272.866 148.372 272.557 149.385 272.557 150.644V150.74H279.629ZM288.242 154.292C288.028 154.292 287.847 154.217 287.698 154.068C287.548 153.919 287.474 153.737 287.474 153.524V138.868C287.474 138.655 287.548 138.473 287.698 138.324C287.847 138.175 288.028 138.1 288.242 138.1H290.834C291.068 138.1 291.25 138.175 291.378 138.324C291.527 138.452 291.602 138.633 291.602 138.868V153.524C291.602 153.737 291.527 153.919 291.378 154.068C291.25 154.217 291.068 154.292 290.834 154.292H288.242ZM288.05 160.5C287.836 160.5 287.655 160.425 287.506 160.276C287.356 160.127 287.282 159.945 287.282 159.732V156.756C287.282 156.521 287.356 156.329 287.506 156.18C287.655 156.031 287.836 155.956 288.05 155.956H291.026C291.26 155.956 291.452 156.031 291.602 156.18C291.751 156.329 291.826 156.521 291.826 156.756V159.732C291.826 159.945 291.751 160.127 291.602 160.276C291.452 160.425 291.26 160.5 291.026 160.5H288.05Z" fill="white"/>
</g>
</g>
<defs>
<filter id="filter0_d" x="72.5" y="112" width="305" height="80" filterUnits="userSpaceOnUse" color-interpolation-filters="sRGB">
<feFlood flood-opacity="0" result="BackgroundImageFix"/>
<feColorMatrix in="SourceAlpha" type="matrix" values="0 0 0 0 0 0 0 0 0 0 0 0 0 0 0 0 0 0 127 0"/>
<feOffset dy="2.5"/>
<feGaussianBlur stdDeviation="1.25"/>
<feColorMatrix type="matrix" values="0 0 0 0 0 0 0 0 0 0 0 0 0 0 0 0 0 0 0.2 0"/>
<feBlend mode="normal" in2="BackgroundImageFix" result="effect1_dropShadow"/>
<feBlend mode="normal" in="SourceGraphic" in2="effect1_dropShadow" result="shape"/>
</filter>
<filter id="filter1_i" x="157.868" y="137.268" width="133.958" height="24.552" filterUnits="userSpaceOnUse" color-interpolation-filters="sRGB">
<feFlood flood-opacity="0" result="BackgroundImageFix"/>
<feBlend mode="normal" in="SourceGraphic" in2="BackgroundImageFix" result="shape"/>
<feColorMatrix in="SourceAlpha" type="matrix" values="0 0 0 0 0 0 0 0 0 0 0 0 0 0 0 0 0 0 127 0" result="hardAlpha"/>
<feOffset dy="1"/>
<feGaussianBlur stdDeviation="0.5"/>
<feComposite in2="hardAlpha" operator="arithmetic" k2="-1" k3="1"/>
<feColorMatrix type="matrix" values="0 0 0 0 0 0 0 0 0 0 0 0 0 0 0 0 0 0 0.125 0"/>
<feBlend mode="normal" in2="shape" result="effect1_innerShadow"/>
</filter>
<linearGradient id="paint0_linear" x1="662.812" y1="-228.5" x2="-85.3648" y2="214.491" gradientUnits="userSpaceOnUse">
<stop stop-color="#227C9D"/>
<stop offset="1" stop-color="#E8F1F5"/>
</linearGradient>
<linearGradient id="paint1_linear" x1="225" y1="19" x2="225" y2="187" gradientUnits="userSpaceOnUse">
<stop stop-color="white" stop-opacity="0.58"/>
<stop offset="1" stop-color="#004A7C"/>
</linearGradient>
<clipPath id="clip0">
<rect width="450" height="300" fill="white"/>
</clipPath>
</defs>
</svg>
