<svg width="1200" height="600" viewBox="0 0 1200 600" fill="none" xmlns="http://www.w3.org/2000/svg">
<g clip-path="url(#clip0)">
<rect width="1200" height="600" fill="white"/>
<rect width="1200" height="600" fill="url(#paint0_linear)"/>
<g filter="url(#filter0_d)">
<path d="M200 105C200 102.239 202.239 100 205 100H995C997.761 100 1000 102.239 1000 105V700H200V105Z" fill="white"/>
</g>
<rect x="300" y="179" width="450" height="24" rx="2" fill="#E8F1F5"/>
<rect x="300" y="401" width="450" height="24" rx="2" fill="#E8F1F5"/>
<rect x="300" y="349" width="400" height="12" rx="2" fill="#C4C4C4"/>
<rect x="330" y="233" width="300" height="12" rx="2" fill="#E5E5E5"/>
<circle cx="306" cy="239" r="6" fill="#C4C4C4"/>
<rect x="330" y="455" width="300" height="12" rx="2" fill="#E5E5E5"/>
<rect x="640" y="455" width="60" height="12" rx="2" fill="#227C9D"/>
<circle cx="306" cy="461" r="6" fill="#C4C4C4"/>
<rect x="330" y="265" width="300" height="12" rx="2" fill="#E5E5E5"/>
<circle cx="306" cy="271" r="6" fill="#C4C4C4"/>
<rect x="330" y="487" width="300" height="12" rx="2" fill="#E5E5E5"/>
<circle cx="306" cy="493" r="6" fill="#C4C4C4"/>
<rect x="331" y="519" width="120" height="12" rx="2" fill="#E5E5E5"/>
<rect x="550" y="519" width="120" height="12" rx="2" fill="#E5E5E5"/>
<rect x="460" y="519" width="80" height="12" rx="2" fill="#C4C4C4"/>
<circle cx="306" cy="525" r="6" fill="#C4C4C4"/>
<rect x="331" y="297" width="120" height="12" rx="2" fill="#E5E5E5"/>
<rect x="550" y="297" width="120" height="12" rx="2" fill="#E5E5E5"/>
<rect x="460" y="297" width="80" height="12" rx="2" fill="#227C9D"/>
<circle cx="306" cy="303" r="6" fill="#C4C4C4"/>
</g>
<defs>
<filter id="filter0_d" x="200" y="100" width="810" height="610" filterUnits="userSpaceOnUse" color-interpolation-filters="sRGB">
<feFlood flood-opacity="0" result="BackgroundImageFix"/>
<feColorMatrix in="SourceAlpha" type="matrix" values="0 0 0 0 0 0 0 0 0 0 0 0 0 0 0 0 0 0 127 0"/>
<feOffset dx="5" dy="5"/>
<feGaussianBlur stdDeviation="2.5"/>
<feColorMatrix type="matrix" values="0 0 0 0 0 0 0 0 0 0 0 0 0 0 0 0 0 0 0.1 0"/>
<feBlend mode="normal" in2="BackgroundImageFix" result="effect1_dropShadow"/>
<feBlend mode="normal" in="SourceGraphic" in2="effect1_dropShadow" result="shape"/>
</filter>
<linearGradient id="paint0_linear" x1="1367.5" y1="-90.5001" x2="-494" y2="844.5" gradientUnits="userSpaceOnUse">
<stop stop-color="#004A7C"/>
<stop offset="1" stop-color="#E8F1F5"/>
</linearGradient>
<clipPath id="clip0">
<rect width="1200" height="600" fill="white"/>
</clipPath>
</defs>
</svg>
