<svg width="600" height="300" viewBox="0 0 600 300" fill="none" xmlns="http://www.w3.org/2000/svg">
<g clip-path="url(#clip0)">
<rect width="600" height="300" fill="white"/>
<rect width="600" height="300" fill="url(#paint0_linear)"/>
<g filter="url(#filter0_d)">
<path d="M100 55C100 52.2386 102.239 50 105 50H495C497.761 50 500 52.2386 500 55V325H100V55Z" fill="white"/>
</g>
<rect x="150" y="86.2083" width="225" height="11" rx="2" fill="#E8F1F5"/>
<rect x="150" y="187.958" width="225" height="11" rx="2" fill="#E8F1F5"/>
<rect x="150" y="164.125" width="200" height="5.5" rx="2" fill="#C4C4C4"/>
<rect x="165" y="110.958" width="150" height="5.5" rx="2" fill="#E5E5E5"/>
<ellipse cx="153" cy="113.708" rx="3" ry="2.75" fill="#C4C4C4"/>
<rect x="165" y="212.708" width="150" height="5.5" rx="2" fill="#E5E5E5"/>
<rect x="320" y="212.708" width="30" height="5.5" rx="2" fill="#227C9D"/>
<ellipse cx="153" cy="215.458" rx="3" ry="2.75" fill="#C4C4C4"/>
<rect x="165" y="125.625" width="150" height="5.5" rx="2" fill="#E5E5E5"/>
<ellipse cx="153" cy="128.375" rx="3" ry="2.75" fill="#C4C4C4"/>
<rect x="165" y="227.375" width="150" height="5.5" rx="2" fill="#E5E5E5"/>
<ellipse cx="153" cy="230.125" rx="3" ry="2.75" fill="#C4C4C4"/>
<rect x="165.5" y="242.042" width="60" height="5.5" rx="2" fill="#E5E5E5"/>
<rect x="275" y="242.042" width="60" height="5.5" rx="2" fill="#E5E5E5"/>
<rect x="230" y="242.042" width="40" height="5.5" rx="2" fill="#C4C4C4"/>
<ellipse cx="153" cy="244.792" rx="3" ry="2.75" fill="#C4C4C4"/>
<rect x="165.5" y="140.292" width="60" height="5.5" rx="2" fill="#E5E5E5"/>
<rect x="275" y="140.292" width="60" height="5.5" rx="2" fill="#E5E5E5"/>
<rect x="230" y="140.292" width="40" height="5.5" rx="2" fill="#227C9D"/>
<ellipse cx="153" cy="143.042" rx="3" ry="2.75" fill="#C4C4C4"/>
</g>
<defs>
<filter id="filter0_d" x="100" y="50" width="410" height="285" filterUnits="userSpaceOnUse" color-interpolation-filters="sRGB">
<feFlood flood-opacity="0" result="BackgroundImageFix"/>
<feColorMatrix in="SourceAlpha" type="matrix" values="0 0 0 0 0 0 0 0 0 0 0 0 0 0 0 0 0 0 127 0"/>
<feOffset dx="5" dy="5"/>
<feGaussianBlur stdDeviation="2.5"/>
<feColorMatrix type="matrix" values="0 0 0 0 0 0 0 0 0 0 0 0 0 0 0 0 0 0 0.1 0"/>
<feBlend mode="normal" in2="BackgroundImageFix" result="effect1_dropShadow"/>
<feBlend mode="normal" in="SourceGraphic" in2="effect1_dropShadow" result="shape"/>
</filter>
<linearGradient id="paint0_linear" x1="683.75" y1="-45.25" x2="-247" y2="422.25" gradientUnits="userSpaceOnUse">
<stop stop-color="#004A7C"/>
<stop offset="1" stop-color="#E8F1F5"/>
</linearGradient>
<clipPath id="clip0">
<rect width="600" height="300" fill="white"/>
</clipPath>
</defs>
</svg>
